M48
; DRILL file {KiCad 5.1.9+dfsg1-1~bpo10+1} date Sun Nov 14 15:52:19 2021
; FORMAT={-:-/ absolute / metric / decimal}
; #@! TF.CreationDate,2021-11-14T15:52:19+01:00
; #@! TF.GenerationSoftware,Kicad,Pcbnew,5.1.9+dfsg1-1~bpo10+1
; #@! TF.FileFunction,Plated,1,6,PTH
FMAT,2
METRIC
T1C0.200
T2C0.300
T3C0.800
T4C1.000
T5C2.200
%
G90
G05
T1
X95.35Y-76.53
X95.467Y-91.563
X95.51Y-87.02
X95.53Y-84.74
X95.853Y-91.177
X96.043Y-95.345
X96.443Y-94.957
X97.727Y-94.14
X97.94Y-90.78
X98.273Y-94.14
X98.326Y-91.166
X99.35Y-73.27
X99.735Y-83.279
X99.747Y-94.31
X100.303Y-94.3
X100.34Y-83.62
X100.39Y-77.11
X100.59Y-78.75
X101.087Y-91.553
X101.473Y-91.167
X101.51Y-76.3
X101.52Y-74.79
X103.83Y-76.58
X103.89Y-75.03
X104.36Y-92.72
X105.107Y-82.427
X105.67Y-78.12
X105.754Y-100.198
X105.863Y-99.523
X105.879Y-100.73
X106.253Y-99.97
X106.485Y-106.864
X107.04Y-73.94
X107.18Y-73.24
X107.354Y-106.756
X107.449Y-106.218
X107.93Y-73.67
X108.07Y-90.07
X108.21Y-89.1
X108.344Y-107.463
X108.454Y-99.926
X108.49Y-93.08
X108.802Y-106.673
X108.819Y-93.92
X108.94Y-99.43
X108.95Y-100.25
X109.0Y-97.83
X109.003Y-78.08
X109.01Y-98.63
X109.069Y-101.863
X109.14Y-92.57
X109.509Y-109.523
X109.718Y-101.576
X109.98Y-109.242
X109.99Y-97.43
X109.999Y-100.619
X110.01Y-92.65
X110.013Y-95.853
X110.03Y-94.25
X110.133Y-104.182
X110.223Y-109.731
X110.661Y-102.432
X110.81Y-100.65
X110.81Y-88.66
X110.81Y-99.05
X110.81Y-99.85
X110.825Y-97.476
X110.91Y-86.14
X111.428Y-85.965
X111.61Y-99.05
X111.61Y-88.65
X111.61Y-91.05
X111.61Y-95.85
X111.61Y-97.42
X111.61Y-98.25
X111.61Y-99.85
X111.61Y-100.65
X111.62Y-96.65
X111.74Y-74.05
X112.01Y-85.07
X112.223Y-102.521
X112.243Y-106.09
X112.26Y-108.69
X112.275Y-103.086
X112.39Y-95.85
X112.4Y-92.65
X112.4Y-95.04
X112.41Y-94.23
X112.41Y-98.25
X112.41Y-99.05
X112.41Y-99.85
X112.411Y-96.64
X112.417Y-97.45
X112.87Y-73.7
X113.066Y-102.889
X113.14Y-77.06
X113.194Y-101.45
X113.204Y-94.24
X113.21Y-100.65
X113.21Y-90.25
X113.21Y-95.05
X113.217Y-93.42
X113.24Y-95.86
X113.608Y-102.952
X113.63Y-84.56
X113.65Y-83.99
X113.7Y-77.52
X113.89Y-74.71
X114.01Y-100.65
X114.01Y-87.85
X114.01Y-101.45
X114.01Y-91.05
X114.011Y-93.46
X114.013Y-91.83
X114.015Y-92.66
X114.054Y-95.806
X114.31Y-83.96
X114.36Y-73.13
X114.38Y-77.33
X114.426Y-103.717
X114.438Y-109.903
X114.54Y-75.25
X114.803Y-87.85
X114.81Y-91.05
X114.81Y-99.05
X114.81Y-94.25
X114.81Y-99.85
X114.915Y-74.85
X114.99Y-103.7
X115.516Y-75.779
X115.56Y-108.46
X115.561Y-109.829
X115.57Y-73.12
X115.58Y-77.25
X115.61Y-91.05
X115.61Y-92.65
X115.61Y-95.85
X115.61Y-99.85
X115.61Y-99.05
X115.64Y-88.73
X115.738Y-83.734
X115.9Y-102.108
X115.927Y-83.147
X115.941Y-75.407
X116.0Y-85.97
X116.174Y-97.686
X116.27Y-74.972
X116.308Y-80.748
X116.338Y-101.67
X116.41Y-91.05
X116.41Y-95.05
X116.41Y-95.85
X116.41Y-99.85
X116.431Y-87.829
X116.693Y-103.458
X116.76Y-109.829
X116.76Y-73.13
X116.76Y-108.46
X116.774Y-102.76
X116.81Y-102.05
X116.843Y-80.638
X116.96Y-75.84
X117.023Y-84.43
X117.21Y-87.892
X117.21Y-95.05
X117.21Y-95.85
X117.21Y-101.45
X117.24Y-85.54
X117.39Y-75.42
X117.54Y-80.095
X117.6Y-79.5
X117.814Y-75.03
X117.926Y-85.865
X117.95Y-73.13
X118.01Y-87.85
X118.01Y-91.05
X118.01Y-95.05
X118.01Y-95.85
X118.01Y-99.85
X118.01Y-101.45
X118.023Y-102.814
X118.167Y-79.063
X118.417Y-103.227
X118.5Y-79.99
X118.553Y-78.677
X118.63Y-77.53
X118.685Y-88.71
X118.707Y-78.153
X118.78Y-89.44
X118.792Y-87.842
X118.8Y-87.06
X118.81Y-91.05
X118.81Y-92.65
X118.81Y-95.85
X118.81Y-99.85
X118.811Y-99.043
X118.989Y-108.582
X119.013Y-109.848
X119.16Y-73.13
X119.392Y-108.95
X119.397Y-84.988
X119.557Y-109.899
X119.586Y-91.05
X119.593Y-99.847
X119.6Y-88.66
X119.605Y-87.813
X119.61Y-89.45
X119.61Y-94.25
X119.61Y-99.047
X119.651Y-102.531
X119.68Y-97.84
X119.725Y-103.12
X119.8Y-77.18
X119.8Y-108.58
X119.943Y-85.007
X119.983Y-109.518
X120.12Y-72.672
X120.18Y-97.6
X120.19Y-86.12
X120.311Y-74.951
X120.345Y-108.67
X120.361Y-88.64
X120.365Y-109.909
X120.407Y-87.868
X120.41Y-95.85
X120.41Y-91.85
X120.41Y-92.65
X120.423Y-93.46
X120.459Y-91.056
X120.503Y-94.294
X120.509Y-73.056
X120.562Y-81.968
X120.602Y-106.445
X120.749Y-75.389
X120.765Y-109.49
X120.9Y-108.69
X120.93Y-107.033
X121.011Y-103.653
X121.068Y-82.174
X121.1Y-80.32
X121.162Y-88.655
X121.166Y-109.906
X121.18Y-101.421
X121.19Y-100.654
X121.2Y-94.261
X121.201Y-99.076
X121.21Y-90.25
X121.219Y-89.477
X121.351Y-72.671
X121.478Y-102.6
X121.479Y-85.545
X121.55Y-75.85
X121.677Y-84.215
X121.695Y-109.771
X121.717Y-84.853
X121.736Y-73.059
X121.97Y-89.45
X121.977Y-95.89
X121.987Y-92.64
X122.003Y-96.659
X122.008Y-102.733
X122.01Y-90.25
X122.01Y-91.05
X122.01Y-94.24
X122.01Y-100.662
X122.01Y-101.45
X122.014Y-93.44
X122.017Y-99.868
X122.02Y-95.09
X122.026Y-99.024
X122.041Y-97.459
X122.118Y-109.377
X122.474Y-108.46
X122.52Y-109.008
X122.749Y-109.913
X122.768Y-90.249
X122.773Y-92.645
X122.79Y-91.86
X122.8Y-89.434
X122.804Y-99.086
X122.808Y-102.739
X122.81Y-91.05
X122.819Y-100.65
X122.82Y-95.061
X122.82Y-99.83
X122.84Y-94.24
X122.85Y-96.591
X122.885Y-72.673
X122.93Y-109.369
X122.993Y-105.98
X123.127Y-82.408
X123.208Y-102.288
X123.273Y-73.073
X123.45Y-81.96
X123.466Y-109.477
X123.58Y-91.85
X123.59Y-91.05
X123.6Y-80.759
X123.6Y-86.13
X123.6Y-88.66
X123.61Y-87.85
X123.61Y-94.24
X123.62Y-100.665
X123.62Y-92.66
X123.62Y-95.84
X123.623Y-95.037
X123.636Y-98.265
X123.638Y-90.252
X123.64Y-99.86
X123.646Y-89.456
X123.681Y-75.011
X123.779Y-84.569
X123.796Y-107.044
X123.869Y-109.852
X123.97Y-80.33
X124.069Y-75.395
X124.166Y-84.956
X124.206Y-103.613
X124.262Y-102.486
X124.266Y-109.474
X124.281Y-101.275
X124.4Y-100.652
X124.41Y-87.85
X124.41Y-91.85
X124.421Y-87.05
X124.49Y-108.55
X124.548Y-102.021
X124.7Y-73.09
X124.723Y-109.773
X125.125Y-75.167
X125.19Y-108.71
X125.2Y-86.84
X125.227Y-109.563
X125.31Y-73.1
X125.404Y-107.15
X125.608Y-75.44
X125.64Y-81.12
X125.78Y-86.65
X125.839Y-108.883
X125.878Y-105.832
X125.948Y-109.976
X125.949Y-107.123
X125.992Y-108.359
X125.994Y-80.188
X126.039Y-93.39
X126.054Y-92.59
X126.084Y-97.311
X126.14Y-75.84
X126.31Y-81.07
X126.35Y-73.11
X126.4Y-88.03
X126.424Y-89.594
X126.524Y-108.483
X126.547Y-95.144
X126.57Y-96.638
X126.595Y-74.658
X126.756Y-106.895
X126.77Y-109.82
X126.84Y-93.402
X127.006Y-91.71
X127.11Y-74.84
X127.15Y-108.46
X127.316Y-109.832
X127.38Y-102.241
X127.508Y-94.291
X127.546Y-103.934
X127.55Y-73.1
X127.55Y-75.86
X127.684Y-94.811
X127.722Y-109.3
X127.779Y-101.864
X127.848Y-74.916
X127.87Y-106.74
X127.96Y-111.16
X127.97Y-93.51
X128.053Y-102.377
X128.36Y-109.829
X128.4Y-94.84
X128.45Y-106.68
X128.468Y-74.916
X128.522Y-81.735
X128.599Y-102.342
X128.679Y-103.396
X128.76Y-73.11
X128.77Y-108.46
X128.876Y-75.733
X128.922Y-81.285
X129.053Y-74.88
X129.128Y-106.682
X129.15Y-109.83
X129.38Y-80.427
X129.38Y-80.973
X129.43Y-103.396
X129.59Y-109.26
X129.66Y-106.804
X129.678Y-74.758
X129.96Y-73.13
X130.034Y-75.861
X130.04Y-103.115
X130.229Y-74.572
X130.25Y-81.41
X130.25Y-105.25
X130.33Y-106.812
X130.34Y-109.26
X130.56Y-103.281
X130.76Y-107.12
X130.776Y-74.356
X131.03Y-102.85
X131.11Y-77.13
X131.16Y-109.26
X131.17Y-73.1
X131.28Y-107.11
X131.553Y-103.863
X131.63Y-74.73
X132.093Y-103.245
X132.177Y-80.837
X132.296Y-74.486
X132.35Y-73.13
X132.365Y-77.019
X132.563Y-81.223
X132.75Y-106.86
X133.03Y-89.97
X133.173Y-104.175
X133.18Y-96.69
X133.48Y-81.6
X133.492Y-81.022
X133.535Y-77.103
X133.56Y-108.46
X133.56Y-111.17
X133.85Y-99.4
X133.947Y-95.137
X133.96Y-107.12
X135.05Y-74.05
X135.322Y-73.576
X135.889Y-77.113
X136.717Y-91.968
X136.92Y-93.91
X137.121Y-95.149
X137.18Y-90.36
X137.21Y-79.36
X137.406Y-76.945
X137.517Y-92.038
X137.54Y-75.94
X137.597Y-73.884
X137.792Y-77.331
X137.83Y-94.33
X137.87Y-93.8
X137.95Y-78.0
X137.95Y-78.546
X137.99Y-95.13
X138.104Y-76.18
X138.14Y-73.94
X138.167Y-80.307
X138.317Y-92.036
X138.51Y-110.947
X138.51Y-111.493
X138.553Y-80.693
X138.727Y-110.233
X138.76Y-90.34
X138.767Y-95.987
X138.77Y-89.53
X138.77Y-95.17
X138.87Y-93.04
X139.113Y-109.847
X139.17Y-91.92
X139.2Y-107.865
X139.3Y-104.99
X139.3Y-103.365
X139.528Y-95.155
X139.57Y-90.38
X139.588Y-95.932
X139.925Y-103.965
X139.97Y-91.984
X140.4Y-95.95
X140.41Y-89.95
X140.51Y-94.77
X140.547Y-110.263
X140.812Y-77.098
X140.857Y-78.291
X140.933Y-109.877
X141.198Y-76.712
X141.257Y-77.903
X141.427Y-75.683
X141.43Y-95.94
X141.813Y-75.29
X142.095Y-88.525
X142.195Y-85.65
X142.195Y-84.025
X142.82Y-84.625
X144.48Y-95.07
T2
X96.79Y-79.08
X97.265Y-82.1
X98.215Y-81.725
X98.215Y-82.475
X98.265Y-88.375
X98.94Y-82.15
X98.99Y-78.2
X101.63Y-110.55
X104.48Y-84.48
X105.14Y-73.86
X105.14Y-84.12
X105.25Y-86.58
X122.41Y-103.643
X128.902Y-104.811
X135.826Y-103.371
X137.98Y-83.73
X137.995Y-83.125
X140.269Y-107.884
X140.575Y-104.515
X141.525Y-98.24
X141.575Y-104.14
X141.575Y-104.89
X141.74Y-106.81
X142.525Y-104.515
X143.27Y-77.98
X143.47Y-85.175
X143.695Y-89.075
X144.47Y-84.8
X144.47Y-85.55
X145.245Y-89.075
X145.42Y-85.175
T3
X147.46Y-102.72
X147.46Y-104.72
X147.48Y-97.6
X147.48Y-99.6
T4
X99.814Y-105.816
X101.61Y-104.02
X101.61Y-107.612
X103.406Y-105.816
X103.406Y-109.408
X105.202Y-107.612
T5
X97.62Y-108.724
X97.62Y-75.645
X145.62Y-75.645
X145.62Y-108.72
T0
M30
