G04 #@! TF.GenerationSoftware,KiCad,Pcbnew,5.1.9+dfsg1-1~bpo10+1*
G04 #@! TF.CreationDate,2021-11-14T15:52:16+01:00*
G04 #@! TF.ProjectId,ulx4m,756c7834-6d2e-46b6-9963-61645f706362,v0.0.2*
G04 #@! TF.SameCoordinates,Original*
G04 #@! TF.FileFunction,Soldermask,Top*
G04 #@! TF.FilePolarity,Negative*
%FSLAX46Y46*%
G04 Gerber Fmt 4.6, Leading zero omitted, Abs format (unit mm)*
G04 Created by KiCad (PCBNEW 5.1.9+dfsg1-1~bpo10+1) date 2021-11-14 15:52:16*
%MOMM*%
%LPD*%
G01*
G04 APERTURE LIST*
%ADD10C,0.120000*%
%ADD11C,0.400000*%
%ADD12C,3.300000*%
%ADD13C,0.500000*%
%ADD14O,0.127000X0.508000*%
%ADD15O,0.508000X0.127000*%
%ADD16R,2.100000X0.600000*%
%ADD17O,2.100000X0.600000*%
%ADD18R,1.295000X1.400000*%
%ADD19R,1.200000X1.400000*%
%ADD20C,0.100000*%
%ADD21O,1.350000X1.350000*%
%ADD22R,1.350000X1.350000*%
%ADD23R,0.850000X0.200000*%
%ADD24R,0.200000X0.850000*%
%ADD25R,3.400000X3.400000*%
G04 APERTURE END LIST*
D10*
X117210000Y-94050000D02*
X117210000Y-94450000D01*
X117010000Y-94250000D02*
X117410000Y-94250000D01*
G36*
G01*
X121330000Y-108760000D02*
X121670000Y-108760000D01*
G75*
G02*
X121810000Y-108900000I0J-140000D01*
G01*
X121810000Y-109180000D01*
G75*
G02*
X121670000Y-109320000I-140000J0D01*
G01*
X121330000Y-109320000D01*
G75*
G02*
X121190000Y-109180000I0J140000D01*
G01*
X121190000Y-108900000D01*
G75*
G02*
X121330000Y-108760000I140000J0D01*
G01*
G37*
G36*
G01*
X121330000Y-107800000D02*
X121670000Y-107800000D01*
G75*
G02*
X121810000Y-107940000I0J-140000D01*
G01*
X121810000Y-108220000D01*
G75*
G02*
X121670000Y-108360000I-140000J0D01*
G01*
X121330000Y-108360000D01*
G75*
G02*
X121190000Y-108220000I0J140000D01*
G01*
X121190000Y-107940000D01*
G75*
G02*
X121330000Y-107800000I140000J0D01*
G01*
G37*
D11*
X139970000Y-89955001D03*
X139170000Y-89955001D03*
X138370000Y-89955001D03*
X137570000Y-89955001D03*
X136770000Y-89955001D03*
X136770000Y-90755001D03*
X136770000Y-91555001D03*
X136770000Y-94755001D03*
X136770000Y-95555001D03*
X136770000Y-96355001D03*
X137570000Y-96355001D03*
X138370000Y-96355001D03*
X139170000Y-96355001D03*
X139970000Y-96355001D03*
X139970000Y-91555001D03*
X139170000Y-91555001D03*
X139170000Y-94755001D03*
X139970000Y-94755001D03*
X139970000Y-90755001D03*
X139170000Y-90755001D03*
X138370000Y-90755001D03*
X137570000Y-90755001D03*
X137570000Y-91555001D03*
X138370000Y-91555001D03*
X138370000Y-94755001D03*
X137570000Y-94755001D03*
X137570000Y-95555001D03*
X138370000Y-95555001D03*
X139170000Y-95555001D03*
X139970000Y-95555001D03*
X135970000Y-89955001D03*
X135970000Y-90755001D03*
X135970000Y-91555001D03*
X135970000Y-94755001D03*
X135970000Y-95555001D03*
X135970000Y-96355001D03*
X135170000Y-89955001D03*
X135170000Y-90755001D03*
X135170000Y-91555001D03*
X135170000Y-94755001D03*
X135170000Y-95555001D03*
X135170000Y-96355001D03*
X134370000Y-89955001D03*
X134370000Y-90755001D03*
X134370000Y-91555001D03*
X134370000Y-94755001D03*
X134370000Y-95555001D03*
X134370000Y-96355001D03*
X133570000Y-89955001D03*
X133570000Y-90755001D03*
X133570000Y-91555001D03*
X133570000Y-94755001D03*
X133570000Y-95555001D03*
X133570000Y-96355001D03*
D12*
X97620000Y-75644999D03*
X145620000Y-75645000D03*
X145620000Y-108720000D03*
X97619999Y-108723599D03*
D13*
X124010000Y-101850000D03*
X122410000Y-101850000D03*
X121610000Y-101850000D03*
X120810000Y-101850000D03*
X120010000Y-101850000D03*
X118410000Y-101850000D03*
X117610000Y-101850000D03*
X115210000Y-101850000D03*
X114410000Y-101850000D03*
X113610000Y-101850000D03*
X112810000Y-101850000D03*
X111210000Y-101850000D03*
X110410000Y-101850000D03*
X124810000Y-101050000D03*
X124010000Y-101050000D03*
X123210000Y-101050000D03*
X122410000Y-101050000D03*
X121610000Y-101050000D03*
X120810000Y-101050000D03*
X120010000Y-101050000D03*
X119210000Y-101050000D03*
X118410000Y-101050000D03*
X117610000Y-101050000D03*
X116810000Y-101050000D03*
X116010000Y-101050000D03*
X115210000Y-101050000D03*
X114410000Y-101050000D03*
X113610000Y-101050000D03*
X112810000Y-101050000D03*
X112010000Y-101050000D03*
X111210000Y-101050000D03*
X110410000Y-101050000D03*
X109610000Y-101050000D03*
X124810000Y-100250000D03*
X124010000Y-100250000D03*
X123210000Y-100250000D03*
X122410000Y-100250000D03*
X121610000Y-100250000D03*
X120810000Y-100250000D03*
X120010000Y-100250000D03*
X119210000Y-100250000D03*
X118410000Y-100250000D03*
X117610000Y-100250000D03*
X116810000Y-100250000D03*
X116010000Y-100250000D03*
X115210000Y-100250000D03*
X114410000Y-100250000D03*
X113610000Y-100250000D03*
X112810000Y-100250000D03*
X112010000Y-100250000D03*
X111210000Y-100250000D03*
X110410000Y-100250000D03*
X109610000Y-100250000D03*
X124810000Y-99450000D03*
X124010000Y-99450000D03*
X123210000Y-99450000D03*
X122410000Y-99450000D03*
X121610000Y-99450000D03*
X120810000Y-99450000D03*
X120010000Y-99450000D03*
X119210000Y-99450000D03*
X118410000Y-99450000D03*
X117610000Y-99450000D03*
X116810000Y-99450000D03*
X116010000Y-99450000D03*
X115210000Y-99450000D03*
X114410000Y-99450000D03*
X113610000Y-99450000D03*
X112810000Y-99450000D03*
X112010000Y-99450000D03*
X111210000Y-99450000D03*
X110410000Y-99450000D03*
X109610000Y-99450000D03*
X124810000Y-98650000D03*
X124010000Y-98650000D03*
X123210000Y-98650000D03*
X122410000Y-98650000D03*
X121610000Y-98650000D03*
X120810000Y-98650000D03*
X120010000Y-98650000D03*
X119210000Y-98650000D03*
X118410000Y-98650000D03*
X117610000Y-98650000D03*
X116810000Y-98650000D03*
X116010000Y-98650000D03*
X115210000Y-98650000D03*
X114410000Y-98650000D03*
X113610000Y-98650000D03*
X112810000Y-98650000D03*
X112010000Y-98650000D03*
X111210000Y-98650000D03*
X110410000Y-98650000D03*
X109610000Y-98650000D03*
X124810000Y-97850000D03*
X124010000Y-97850000D03*
X123210000Y-97850000D03*
X122410000Y-97850000D03*
X121610000Y-97850000D03*
X112810000Y-97850000D03*
X112010000Y-97850000D03*
X111210000Y-97850000D03*
X110410000Y-97850000D03*
X109610000Y-97850000D03*
X124810000Y-97050000D03*
X124010000Y-97050000D03*
X123210000Y-97050000D03*
X122410000Y-97050000D03*
X121610000Y-97050000D03*
X120810000Y-97050000D03*
X120010000Y-97050000D03*
X119210000Y-97050000D03*
X118410000Y-97050000D03*
X117610000Y-97050000D03*
X116810000Y-97050000D03*
X116010000Y-97050000D03*
X115210000Y-97050000D03*
X114410000Y-97050000D03*
X113610000Y-97050000D03*
X112810000Y-97050000D03*
X112010000Y-97050000D03*
X111210000Y-97050000D03*
X110410000Y-97050000D03*
X109610000Y-97050000D03*
X124810000Y-96250000D03*
X124010000Y-96250000D03*
X123210000Y-96250000D03*
X122410000Y-96250000D03*
X121610000Y-96250000D03*
X120810000Y-96250000D03*
X120010000Y-96250000D03*
X119210000Y-96250000D03*
X118410000Y-96250000D03*
X117610000Y-96250000D03*
X116810000Y-96250000D03*
X116010000Y-96250000D03*
X115210000Y-96250000D03*
X114410000Y-96250000D03*
X113610000Y-96250000D03*
X112810000Y-96250000D03*
X112010000Y-96250000D03*
X111210000Y-96250000D03*
X110410000Y-96250000D03*
X109610000Y-96250000D03*
X124810000Y-95450000D03*
X124010000Y-95450000D03*
X123210000Y-95450000D03*
X122410000Y-95450000D03*
X121610000Y-95450000D03*
X120810000Y-95450000D03*
X120010000Y-95450000D03*
X119210000Y-95450000D03*
X118410000Y-95450000D03*
X117610000Y-95450000D03*
X116810000Y-95450000D03*
X116010000Y-95450000D03*
X115210000Y-95450000D03*
X114410000Y-95450000D03*
X113610000Y-95450000D03*
X112810000Y-95450000D03*
X112010000Y-95450000D03*
X111210000Y-95450000D03*
X110410000Y-95450000D03*
X109610000Y-95450000D03*
X124810000Y-94650000D03*
X124010000Y-94650000D03*
X123210000Y-94650000D03*
X122410000Y-94650000D03*
X121610000Y-94650000D03*
X120810000Y-94650000D03*
X120010000Y-94650000D03*
X119210000Y-94650000D03*
X118410000Y-94650000D03*
X117610000Y-94650000D03*
X116810000Y-94650000D03*
X116010000Y-94650000D03*
X115210000Y-94650000D03*
X114410000Y-94650000D03*
X113610000Y-94650000D03*
X112810000Y-94650000D03*
X112010000Y-94650000D03*
X111210000Y-94650000D03*
X110410000Y-94650000D03*
X109610000Y-94650000D03*
X124810000Y-93850000D03*
X124010000Y-93850000D03*
X123210000Y-93850000D03*
X122410000Y-93850000D03*
X121610000Y-93850000D03*
X120810000Y-93850000D03*
X120010000Y-93850000D03*
X119210000Y-93850000D03*
X118410000Y-93850000D03*
X117610000Y-93850000D03*
X116810000Y-93850000D03*
X116010000Y-93850000D03*
X115210000Y-93850000D03*
X114410000Y-93850000D03*
X113610000Y-93850000D03*
X112810000Y-93850000D03*
X112010000Y-93850000D03*
X111210000Y-93850000D03*
X110410000Y-93850000D03*
X109610000Y-93850000D03*
X124810000Y-93050000D03*
X124010000Y-93050000D03*
X123210000Y-93050000D03*
X122410000Y-93050000D03*
X121610000Y-93050000D03*
X120810000Y-93050000D03*
X120010000Y-93050000D03*
X119210000Y-93050000D03*
X118410000Y-93050000D03*
X117610000Y-93050000D03*
X116810000Y-93050000D03*
X116010000Y-93050000D03*
X115210000Y-93050000D03*
X114410000Y-93050000D03*
X113610000Y-93050000D03*
X112810000Y-93050000D03*
X112010000Y-93050000D03*
X111210000Y-93050000D03*
X110410000Y-93050000D03*
X109610000Y-93050000D03*
X124810000Y-92250000D03*
X124010000Y-92250000D03*
X123210000Y-92250000D03*
X122410000Y-92250000D03*
X121610000Y-92250000D03*
X120810000Y-92250000D03*
X120010000Y-92250000D03*
X119210000Y-92250000D03*
X118410000Y-92250000D03*
X117610000Y-92250000D03*
X116810000Y-92250000D03*
X116010000Y-92250000D03*
X115210000Y-92250000D03*
X114410000Y-92250000D03*
X113610000Y-92250000D03*
X112810000Y-92250000D03*
X112010000Y-92250000D03*
X111210000Y-92250000D03*
X110410000Y-92250000D03*
X109610000Y-92250000D03*
X124810000Y-91450000D03*
X124010000Y-91450000D03*
X123210000Y-91450000D03*
X122410000Y-91450000D03*
X121610000Y-91450000D03*
X120810000Y-91450000D03*
X120010000Y-91450000D03*
X119210000Y-91450000D03*
X118410000Y-91450000D03*
X117610000Y-91450000D03*
X116810000Y-91450000D03*
X116010000Y-91450000D03*
X115210000Y-91450000D03*
X114410000Y-91450000D03*
X113610000Y-91450000D03*
X112810000Y-91450000D03*
X112010000Y-91450000D03*
X111210000Y-91450000D03*
X110410000Y-91450000D03*
X109610000Y-91450000D03*
X124810000Y-90650000D03*
X124010000Y-90650000D03*
X123210000Y-90650000D03*
X122410000Y-90650000D03*
X121610000Y-90650000D03*
X120810000Y-90650000D03*
X120010000Y-90650000D03*
X119210000Y-90650000D03*
X118410000Y-90650000D03*
X117610000Y-90650000D03*
X116810000Y-90650000D03*
X116010000Y-90650000D03*
X115210000Y-90650000D03*
X114410000Y-90650000D03*
X113610000Y-90650000D03*
X112810000Y-90650000D03*
X112010000Y-90650000D03*
X111210000Y-90650000D03*
X110410000Y-90650000D03*
X109610000Y-90650000D03*
X124810000Y-89850000D03*
X124010000Y-89850000D03*
X123210000Y-89850000D03*
X122410000Y-89850000D03*
X121610000Y-89850000D03*
X120810000Y-89850000D03*
X120010000Y-89850000D03*
X119210000Y-89850000D03*
X118410000Y-89850000D03*
X117610000Y-89850000D03*
X116810000Y-89850000D03*
X116010000Y-89850000D03*
X115210000Y-89850000D03*
X114410000Y-89850000D03*
X113610000Y-89850000D03*
X112810000Y-89850000D03*
X112010000Y-89850000D03*
X111210000Y-89850000D03*
X110410000Y-89850000D03*
X109610000Y-89850000D03*
X124810000Y-89050000D03*
X124010000Y-89050000D03*
X123210000Y-89050000D03*
X122410000Y-89050000D03*
X121610000Y-89050000D03*
X120810000Y-89050000D03*
X120010000Y-89050000D03*
X119210000Y-89050000D03*
X118410000Y-89050000D03*
X117610000Y-89050000D03*
X116810000Y-89050000D03*
X116010000Y-89050000D03*
X115210000Y-89050000D03*
X114410000Y-89050000D03*
X113610000Y-89050000D03*
X112810000Y-89050000D03*
X112010000Y-89050000D03*
X111210000Y-89050000D03*
X110410000Y-89050000D03*
X109610000Y-89050000D03*
X124810000Y-88250000D03*
X124010000Y-88250000D03*
X123210000Y-88250000D03*
X122410000Y-88250000D03*
X121610000Y-88250000D03*
X120810000Y-88250000D03*
X120010000Y-88250000D03*
X119210000Y-88250000D03*
X118410000Y-88250000D03*
X117610000Y-88250000D03*
X116810000Y-88250000D03*
X116010000Y-88250000D03*
X115210000Y-88250000D03*
X114410000Y-88250000D03*
X113610000Y-88250000D03*
X112810000Y-88250000D03*
X112010000Y-88250000D03*
X111210000Y-88250000D03*
X110410000Y-88250000D03*
X109610000Y-88250000D03*
X124810000Y-87450000D03*
X124010000Y-87450000D03*
X123210000Y-87450000D03*
X122410000Y-87450000D03*
X121610000Y-87450000D03*
X120810000Y-87450000D03*
X120010000Y-87450000D03*
X119210000Y-87450000D03*
X118410000Y-87450000D03*
X117610000Y-87450000D03*
X116810000Y-87450000D03*
X116010000Y-87450000D03*
X115210000Y-87450000D03*
X114410000Y-87450000D03*
X113610000Y-87450000D03*
X112810000Y-87450000D03*
X112010000Y-87450000D03*
X111210000Y-87450000D03*
X110410000Y-87450000D03*
X109610000Y-87450000D03*
X124010000Y-86650000D03*
X123210000Y-86650000D03*
X122410000Y-86650000D03*
X121610000Y-86650000D03*
X120810000Y-86650000D03*
X120010000Y-86650000D03*
X119210000Y-86650000D03*
X118410000Y-86650000D03*
X117610000Y-86650000D03*
X116810000Y-86650000D03*
X116010000Y-86650000D03*
X115210000Y-86650000D03*
X114410000Y-86650000D03*
X113610000Y-86650000D03*
X112810000Y-86650000D03*
X112010000Y-86650000D03*
X111210000Y-86650000D03*
X110410000Y-86650000D03*
D14*
X125710000Y-85750000D03*
D15*
X125710000Y-85750000D03*
D14*
X108710000Y-102750000D03*
D15*
X108710000Y-102750000D03*
X125710000Y-102750000D03*
D14*
X125710000Y-102750000D03*
X108710000Y-85750000D03*
D15*
X108710000Y-85750000D03*
G36*
G01*
X113406250Y-75140000D02*
X112893750Y-75140000D01*
G75*
G02*
X112675000Y-74921250I0J218750D01*
G01*
X112675000Y-74483750D01*
G75*
G02*
X112893750Y-74265000I218750J0D01*
G01*
X113406250Y-74265000D01*
G75*
G02*
X113625000Y-74483750I0J-218750D01*
G01*
X113625000Y-74921250D01*
G75*
G02*
X113406250Y-75140000I-218750J0D01*
G01*
G37*
G36*
G01*
X113406250Y-76715000D02*
X112893750Y-76715000D01*
G75*
G02*
X112675000Y-76496250I0J218750D01*
G01*
X112675000Y-76058750D01*
G75*
G02*
X112893750Y-75840000I218750J0D01*
G01*
X113406250Y-75840000D01*
G75*
G02*
X113625000Y-76058750I0J-218750D01*
G01*
X113625000Y-76496250D01*
G75*
G02*
X113406250Y-76715000I-218750J0D01*
G01*
G37*
D16*
X111401000Y-105450001D03*
D17*
X111401000Y-106720001D03*
X111401000Y-107990001D03*
X111401000Y-109260001D03*
X118005000Y-109260001D03*
X118005000Y-107990001D03*
X118005000Y-106720001D03*
X118005000Y-105450001D03*
D18*
X106947500Y-74920000D03*
X105012500Y-74920000D03*
X108819500Y-74911000D03*
X110754500Y-74911000D03*
G36*
G01*
X130750000Y-106380000D02*
X130750000Y-105880000D01*
G75*
G02*
X130975000Y-105655000I225000J0D01*
G01*
X131425000Y-105655000D01*
G75*
G02*
X131650000Y-105880000I0J-225000D01*
G01*
X131650000Y-106380000D01*
G75*
G02*
X131425000Y-106605000I-225000J0D01*
G01*
X130975000Y-106605000D01*
G75*
G02*
X130750000Y-106380000I0J225000D01*
G01*
G37*
G36*
G01*
X132300000Y-106380000D02*
X132300000Y-105880000D01*
G75*
G02*
X132525000Y-105655000I225000J0D01*
G01*
X132975000Y-105655000D01*
G75*
G02*
X133200000Y-105880000I0J-225000D01*
G01*
X133200000Y-106380000D01*
G75*
G02*
X132975000Y-106605000I-225000J0D01*
G01*
X132525000Y-106605000D01*
G75*
G02*
X132300000Y-106380000I0J225000D01*
G01*
G37*
G36*
G01*
X109673751Y-77620000D02*
X110186251Y-77620000D01*
G75*
G02*
X110405001Y-77838750I0J-218750D01*
G01*
X110405001Y-78276250D01*
G75*
G02*
X110186251Y-78495000I-218750J0D01*
G01*
X109673751Y-78495000D01*
G75*
G02*
X109455001Y-78276250I0J218750D01*
G01*
X109455001Y-77838750D01*
G75*
G02*
X109673751Y-77620000I218750J0D01*
G01*
G37*
G36*
G01*
X109673751Y-79195000D02*
X110186251Y-79195000D01*
G75*
G02*
X110405001Y-79413750I0J-218750D01*
G01*
X110405001Y-79851250D01*
G75*
G02*
X110186251Y-80070000I-218750J0D01*
G01*
X109673751Y-80070000D01*
G75*
G02*
X109455001Y-79851250I0J218750D01*
G01*
X109455001Y-79413750D01*
G75*
G02*
X109673751Y-79195000I218750J0D01*
G01*
G37*
G36*
G01*
X107963750Y-79220000D02*
X108476250Y-79220000D01*
G75*
G02*
X108695000Y-79438750I0J-218750D01*
G01*
X108695000Y-79876250D01*
G75*
G02*
X108476250Y-80095000I-218750J0D01*
G01*
X107963750Y-80095000D01*
G75*
G02*
X107745000Y-79876250I0J218750D01*
G01*
X107745000Y-79438750D01*
G75*
G02*
X107963750Y-79220000I218750J0D01*
G01*
G37*
G36*
G01*
X107963750Y-77645000D02*
X108476250Y-77645000D01*
G75*
G02*
X108695000Y-77863750I0J-218750D01*
G01*
X108695000Y-78301250D01*
G75*
G02*
X108476250Y-78520000I-218750J0D01*
G01*
X107963750Y-78520000D01*
G75*
G02*
X107745000Y-78301250I0J218750D01*
G01*
X107745000Y-77863750D01*
G75*
G02*
X107963750Y-77645000I218750J0D01*
G01*
G37*
G36*
G01*
X106283750Y-77645001D02*
X106796250Y-77645001D01*
G75*
G02*
X107015000Y-77863751I0J-218750D01*
G01*
X107015000Y-78301251D01*
G75*
G02*
X106796250Y-78520001I-218750J0D01*
G01*
X106283750Y-78520001D01*
G75*
G02*
X106065000Y-78301251I0J218750D01*
G01*
X106065000Y-77863751D01*
G75*
G02*
X106283750Y-77645001I218750J0D01*
G01*
G37*
G36*
G01*
X106283750Y-79220001D02*
X106796250Y-79220001D01*
G75*
G02*
X107015000Y-79438751I0J-218750D01*
G01*
X107015000Y-79876251D01*
G75*
G02*
X106796250Y-80095001I-218750J0D01*
G01*
X106283750Y-80095001D01*
G75*
G02*
X106065000Y-79876251I0J218750D01*
G01*
X106065000Y-79438751D01*
G75*
G02*
X106283750Y-79220001I218750J0D01*
G01*
G37*
G36*
G01*
X104603750Y-79220000D02*
X105116250Y-79220000D01*
G75*
G02*
X105335000Y-79438750I0J-218750D01*
G01*
X105335000Y-79876250D01*
G75*
G02*
X105116250Y-80095000I-218750J0D01*
G01*
X104603750Y-80095000D01*
G75*
G02*
X104385000Y-79876250I0J218750D01*
G01*
X104385000Y-79438750D01*
G75*
G02*
X104603750Y-79220000I218750J0D01*
G01*
G37*
G36*
G01*
X104603750Y-77645000D02*
X105116250Y-77645000D01*
G75*
G02*
X105335000Y-77863750I0J-218750D01*
G01*
X105335000Y-78301250D01*
G75*
G02*
X105116250Y-78520000I-218750J0D01*
G01*
X104603750Y-78520000D01*
G75*
G02*
X104385000Y-78301250I0J218750D01*
G01*
X104385000Y-77863750D01*
G75*
G02*
X104603750Y-77645000I218750J0D01*
G01*
G37*
G36*
G01*
X109475999Y-108415000D02*
X109135999Y-108415000D01*
G75*
G02*
X108995999Y-108275000I0J140000D01*
G01*
X108995999Y-107995000D01*
G75*
G02*
X109135999Y-107855000I140000J0D01*
G01*
X109475999Y-107855000D01*
G75*
G02*
X109615999Y-107995000I0J-140000D01*
G01*
X109615999Y-108275000D01*
G75*
G02*
X109475999Y-108415000I-140000J0D01*
G01*
G37*
G36*
G01*
X109475999Y-109375000D02*
X109135999Y-109375000D01*
G75*
G02*
X108995999Y-109235000I0J140000D01*
G01*
X108995999Y-108955000D01*
G75*
G02*
X109135999Y-108815000I140000J0D01*
G01*
X109475999Y-108815000D01*
G75*
G02*
X109615999Y-108955000I0J-140000D01*
G01*
X109615999Y-109235000D01*
G75*
G02*
X109475999Y-109375000I-140000J0D01*
G01*
G37*
G36*
G01*
X109800000Y-103910000D02*
X109800000Y-104250000D01*
G75*
G02*
X109660000Y-104390000I-140000J0D01*
G01*
X109380000Y-104390000D01*
G75*
G02*
X109240000Y-104250000I0J140000D01*
G01*
X109240000Y-103910000D01*
G75*
G02*
X109380000Y-103770000I140000J0D01*
G01*
X109660000Y-103770000D01*
G75*
G02*
X109800000Y-103910000I0J-140000D01*
G01*
G37*
G36*
G01*
X108840000Y-103910000D02*
X108840000Y-104250000D01*
G75*
G02*
X108700000Y-104390000I-140000J0D01*
G01*
X108420000Y-104390000D01*
G75*
G02*
X108280000Y-104250000I0J140000D01*
G01*
X108280000Y-103910000D01*
G75*
G02*
X108420000Y-103770000I140000J0D01*
G01*
X108700000Y-103770000D01*
G75*
G02*
X108840000Y-103910000I0J-140000D01*
G01*
G37*
G36*
G01*
X109111000Y-106465000D02*
X109451000Y-106465000D01*
G75*
G02*
X109591000Y-106605000I0J-140000D01*
G01*
X109591000Y-106885000D01*
G75*
G02*
X109451000Y-107025000I-140000J0D01*
G01*
X109111000Y-107025000D01*
G75*
G02*
X108971000Y-106885000I0J140000D01*
G01*
X108971000Y-106605000D01*
G75*
G02*
X109111000Y-106465000I140000J0D01*
G01*
G37*
G36*
G01*
X109111000Y-105505000D02*
X109451000Y-105505000D01*
G75*
G02*
X109591000Y-105645000I0J-140000D01*
G01*
X109591000Y-105925000D01*
G75*
G02*
X109451000Y-106065000I-140000J0D01*
G01*
X109111000Y-106065000D01*
G75*
G02*
X108971000Y-105925000I0J140000D01*
G01*
X108971000Y-105645000D01*
G75*
G02*
X109111000Y-105505000I140000J0D01*
G01*
G37*
G36*
G01*
X119786000Y-105555001D02*
X120126000Y-105555001D01*
G75*
G02*
X120266000Y-105695001I0J-140000D01*
G01*
X120266000Y-105975001D01*
G75*
G02*
X120126000Y-106115001I-140000J0D01*
G01*
X119786000Y-106115001D01*
G75*
G02*
X119646000Y-105975001I0J140000D01*
G01*
X119646000Y-105695001D01*
G75*
G02*
X119786000Y-105555001I140000J0D01*
G01*
G37*
G36*
G01*
X119786000Y-106515001D02*
X120126000Y-106515001D01*
G75*
G02*
X120266000Y-106655001I0J-140000D01*
G01*
X120266000Y-106935001D01*
G75*
G02*
X120126000Y-107075001I-140000J0D01*
G01*
X119786000Y-107075001D01*
G75*
G02*
X119646000Y-106935001I0J140000D01*
G01*
X119646000Y-106655001D01*
G75*
G02*
X119786000Y-106515001I140000J0D01*
G01*
G37*
G36*
G01*
X107747609Y-102507193D02*
X107507193Y-102747609D01*
G75*
G02*
X107309203Y-102747609I-98995J98995D01*
G01*
X107111213Y-102549619D01*
G75*
G02*
X107111213Y-102351629I98995J98995D01*
G01*
X107351629Y-102111213D01*
G75*
G02*
X107549619Y-102111213I98995J-98995D01*
G01*
X107747609Y-102309203D01*
G75*
G02*
X107747609Y-102507193I-98995J-98995D01*
G01*
G37*
G36*
G01*
X107068787Y-101828371D02*
X106828371Y-102068787D01*
G75*
G02*
X106630381Y-102068787I-98995J98995D01*
G01*
X106432391Y-101870797D01*
G75*
G02*
X106432391Y-101672807I98995J98995D01*
G01*
X106672807Y-101432391D01*
G75*
G02*
X106870797Y-101432391I98995J-98995D01*
G01*
X107068787Y-101630381D01*
G75*
G02*
X107068787Y-101828371I-98995J-98995D01*
G01*
G37*
G36*
G01*
X109850000Y-82110000D02*
X109510000Y-82110000D01*
G75*
G02*
X109370000Y-81970000I0J140000D01*
G01*
X109370000Y-81690000D01*
G75*
G02*
X109510000Y-81550000I140000J0D01*
G01*
X109850000Y-81550000D01*
G75*
G02*
X109990000Y-81690000I0J-140000D01*
G01*
X109990000Y-81970000D01*
G75*
G02*
X109850000Y-82110000I-140000J0D01*
G01*
G37*
G36*
G01*
X109850000Y-81150000D02*
X109510000Y-81150000D01*
G75*
G02*
X109370000Y-81010000I0J140000D01*
G01*
X109370000Y-80730000D01*
G75*
G02*
X109510000Y-80590000I140000J0D01*
G01*
X109850000Y-80590000D01*
G75*
G02*
X109990000Y-80730000I0J-140000D01*
G01*
X109990000Y-81010000D01*
G75*
G02*
X109850000Y-81150000I-140000J0D01*
G01*
G37*
G36*
G01*
X108130000Y-81160000D02*
X107790000Y-81160000D01*
G75*
G02*
X107650000Y-81020000I0J140000D01*
G01*
X107650000Y-80740000D01*
G75*
G02*
X107790000Y-80600000I140000J0D01*
G01*
X108130000Y-80600000D01*
G75*
G02*
X108270000Y-80740000I0J-140000D01*
G01*
X108270000Y-81020000D01*
G75*
G02*
X108130000Y-81160000I-140000J0D01*
G01*
G37*
G36*
G01*
X108130000Y-82120000D02*
X107790000Y-82120000D01*
G75*
G02*
X107650000Y-81980000I0J140000D01*
G01*
X107650000Y-81700000D01*
G75*
G02*
X107790000Y-81560000I140000J0D01*
G01*
X108130000Y-81560000D01*
G75*
G02*
X108270000Y-81700000I0J-140000D01*
G01*
X108270000Y-81980000D01*
G75*
G02*
X108130000Y-82120000I-140000J0D01*
G01*
G37*
G36*
G01*
X106430000Y-82129999D02*
X106090000Y-82129999D01*
G75*
G02*
X105950000Y-81989999I0J140000D01*
G01*
X105950000Y-81709999D01*
G75*
G02*
X106090000Y-81569999I140000J0D01*
G01*
X106430000Y-81569999D01*
G75*
G02*
X106570000Y-81709999I0J-140000D01*
G01*
X106570000Y-81989999D01*
G75*
G02*
X106430000Y-82129999I-140000J0D01*
G01*
G37*
G36*
G01*
X106430000Y-81169999D02*
X106090000Y-81169999D01*
G75*
G02*
X105950000Y-81029999I0J140000D01*
G01*
X105950000Y-80749999D01*
G75*
G02*
X106090000Y-80609999I140000J0D01*
G01*
X106430000Y-80609999D01*
G75*
G02*
X106570000Y-80749999I0J-140000D01*
G01*
X106570000Y-81029999D01*
G75*
G02*
X106430000Y-81169999I-140000J0D01*
G01*
G37*
G36*
G01*
X104735000Y-82130000D02*
X104395000Y-82130000D01*
G75*
G02*
X104255000Y-81990000I0J140000D01*
G01*
X104255000Y-81710000D01*
G75*
G02*
X104395000Y-81570000I140000J0D01*
G01*
X104735000Y-81570000D01*
G75*
G02*
X104875000Y-81710000I0J-140000D01*
G01*
X104875000Y-81990000D01*
G75*
G02*
X104735000Y-82130000I-140000J0D01*
G01*
G37*
G36*
G01*
X104735000Y-81170000D02*
X104395000Y-81170000D01*
G75*
G02*
X104255000Y-81030000I0J140000D01*
G01*
X104255000Y-80750000D01*
G75*
G02*
X104395000Y-80610000I140000J0D01*
G01*
X104735000Y-80610000D01*
G75*
G02*
X104875000Y-80750000I0J-140000D01*
G01*
X104875000Y-81030000D01*
G75*
G02*
X104735000Y-81170000I-140000J0D01*
G01*
G37*
D19*
X105410000Y-90090000D03*
X105410000Y-92290000D03*
X107110000Y-92290000D03*
X107110000Y-90090000D03*
G36*
G01*
X128090000Y-78170000D02*
X127750000Y-78170000D01*
G75*
G02*
X127610000Y-78030000I0J140000D01*
G01*
X127610000Y-77750000D01*
G75*
G02*
X127750000Y-77610000I140000J0D01*
G01*
X128090000Y-77610000D01*
G75*
G02*
X128230000Y-77750000I0J-140000D01*
G01*
X128230000Y-78030000D01*
G75*
G02*
X128090000Y-78170000I-140000J0D01*
G01*
G37*
G36*
G01*
X128090000Y-79130000D02*
X127750000Y-79130000D01*
G75*
G02*
X127610000Y-78990000I0J140000D01*
G01*
X127610000Y-78710000D01*
G75*
G02*
X127750000Y-78570000I140000J0D01*
G01*
X128090000Y-78570000D01*
G75*
G02*
X128230000Y-78710000I0J-140000D01*
G01*
X128230000Y-78990000D01*
G75*
G02*
X128090000Y-79130000I-140000J0D01*
G01*
G37*
G36*
G01*
X129090000Y-79130000D02*
X128750000Y-79130000D01*
G75*
G02*
X128610000Y-78990000I0J140000D01*
G01*
X128610000Y-78710000D01*
G75*
G02*
X128750000Y-78570000I140000J0D01*
G01*
X129090000Y-78570000D01*
G75*
G02*
X129230000Y-78710000I0J-140000D01*
G01*
X129230000Y-78990000D01*
G75*
G02*
X129090000Y-79130000I-140000J0D01*
G01*
G37*
G36*
G01*
X129090000Y-78170000D02*
X128750000Y-78170000D01*
G75*
G02*
X128610000Y-78030000I0J140000D01*
G01*
X128610000Y-77750000D01*
G75*
G02*
X128750000Y-77610000I140000J0D01*
G01*
X129090000Y-77610000D01*
G75*
G02*
X129230000Y-77750000I0J-140000D01*
G01*
X129230000Y-78030000D01*
G75*
G02*
X129090000Y-78170000I-140000J0D01*
G01*
G37*
G36*
G01*
X130090000Y-78170000D02*
X129750000Y-78170000D01*
G75*
G02*
X129610000Y-78030000I0J140000D01*
G01*
X129610000Y-77750000D01*
G75*
G02*
X129750000Y-77610000I140000J0D01*
G01*
X130090000Y-77610000D01*
G75*
G02*
X130230000Y-77750000I0J-140000D01*
G01*
X130230000Y-78030000D01*
G75*
G02*
X130090000Y-78170000I-140000J0D01*
G01*
G37*
G36*
G01*
X130090000Y-79130000D02*
X129750000Y-79130000D01*
G75*
G02*
X129610000Y-78990000I0J140000D01*
G01*
X129610000Y-78710000D01*
G75*
G02*
X129750000Y-78570000I140000J0D01*
G01*
X130090000Y-78570000D01*
G75*
G02*
X130230000Y-78710000I0J-140000D01*
G01*
X130230000Y-78990000D01*
G75*
G02*
X130090000Y-79130000I-140000J0D01*
G01*
G37*
G36*
G01*
X131090000Y-79130000D02*
X130750000Y-79130000D01*
G75*
G02*
X130610000Y-78990000I0J140000D01*
G01*
X130610000Y-78710000D01*
G75*
G02*
X130750000Y-78570000I140000J0D01*
G01*
X131090000Y-78570000D01*
G75*
G02*
X131230000Y-78710000I0J-140000D01*
G01*
X131230000Y-78990000D01*
G75*
G02*
X131090000Y-79130000I-140000J0D01*
G01*
G37*
G36*
G01*
X131090000Y-78170000D02*
X130750000Y-78170000D01*
G75*
G02*
X130610000Y-78030000I0J140000D01*
G01*
X130610000Y-77750000D01*
G75*
G02*
X130750000Y-77610000I140000J0D01*
G01*
X131090000Y-77610000D01*
G75*
G02*
X131230000Y-77750000I0J-140000D01*
G01*
X131230000Y-78030000D01*
G75*
G02*
X131090000Y-78170000I-140000J0D01*
G01*
G37*
G36*
G01*
X132090000Y-78170000D02*
X131750000Y-78170000D01*
G75*
G02*
X131610000Y-78030000I0J140000D01*
G01*
X131610000Y-77750000D01*
G75*
G02*
X131750000Y-77610000I140000J0D01*
G01*
X132090000Y-77610000D01*
G75*
G02*
X132230000Y-77750000I0J-140000D01*
G01*
X132230000Y-78030000D01*
G75*
G02*
X132090000Y-78170000I-140000J0D01*
G01*
G37*
G36*
G01*
X132090000Y-79130000D02*
X131750000Y-79130000D01*
G75*
G02*
X131610000Y-78990000I0J140000D01*
G01*
X131610000Y-78710000D01*
G75*
G02*
X131750000Y-78570000I140000J0D01*
G01*
X132090000Y-78570000D01*
G75*
G02*
X132230000Y-78710000I0J-140000D01*
G01*
X132230000Y-78990000D01*
G75*
G02*
X132090000Y-79130000I-140000J0D01*
G01*
G37*
G36*
G01*
X133090000Y-79130000D02*
X132750000Y-79130000D01*
G75*
G02*
X132610000Y-78990000I0J140000D01*
G01*
X132610000Y-78710000D01*
G75*
G02*
X132750000Y-78570000I140000J0D01*
G01*
X133090000Y-78570000D01*
G75*
G02*
X133230000Y-78710000I0J-140000D01*
G01*
X133230000Y-78990000D01*
G75*
G02*
X133090000Y-79130000I-140000J0D01*
G01*
G37*
G36*
G01*
X133090000Y-78170000D02*
X132750000Y-78170000D01*
G75*
G02*
X132610000Y-78030000I0J140000D01*
G01*
X132610000Y-77750000D01*
G75*
G02*
X132750000Y-77610000I140000J0D01*
G01*
X133090000Y-77610000D01*
G75*
G02*
X133230000Y-77750000I0J-140000D01*
G01*
X133230000Y-78030000D01*
G75*
G02*
X133090000Y-78170000I-140000J0D01*
G01*
G37*
G36*
G01*
X134090000Y-78170000D02*
X133750000Y-78170000D01*
G75*
G02*
X133610000Y-78030000I0J140000D01*
G01*
X133610000Y-77750000D01*
G75*
G02*
X133750000Y-77610000I140000J0D01*
G01*
X134090000Y-77610000D01*
G75*
G02*
X134230000Y-77750000I0J-140000D01*
G01*
X134230000Y-78030000D01*
G75*
G02*
X134090000Y-78170000I-140000J0D01*
G01*
G37*
G36*
G01*
X134090000Y-79130000D02*
X133750000Y-79130000D01*
G75*
G02*
X133610000Y-78990000I0J140000D01*
G01*
X133610000Y-78710000D01*
G75*
G02*
X133750000Y-78570000I140000J0D01*
G01*
X134090000Y-78570000D01*
G75*
G02*
X134230000Y-78710000I0J-140000D01*
G01*
X134230000Y-78990000D01*
G75*
G02*
X134090000Y-79130000I-140000J0D01*
G01*
G37*
G36*
G01*
X135090000Y-79130000D02*
X134750000Y-79130000D01*
G75*
G02*
X134610000Y-78990000I0J140000D01*
G01*
X134610000Y-78710000D01*
G75*
G02*
X134750000Y-78570000I140000J0D01*
G01*
X135090000Y-78570000D01*
G75*
G02*
X135230000Y-78710000I0J-140000D01*
G01*
X135230000Y-78990000D01*
G75*
G02*
X135090000Y-79130000I-140000J0D01*
G01*
G37*
G36*
G01*
X135090000Y-78170000D02*
X134750000Y-78170000D01*
G75*
G02*
X134610000Y-78030000I0J140000D01*
G01*
X134610000Y-77750000D01*
G75*
G02*
X134750000Y-77610000I140000J0D01*
G01*
X135090000Y-77610000D01*
G75*
G02*
X135230000Y-77750000I0J-140000D01*
G01*
X135230000Y-78030000D01*
G75*
G02*
X135090000Y-78170000I-140000J0D01*
G01*
G37*
G36*
G01*
X120090000Y-78170000D02*
X119750000Y-78170000D01*
G75*
G02*
X119610000Y-78030000I0J140000D01*
G01*
X119610000Y-77750000D01*
G75*
G02*
X119750000Y-77610000I140000J0D01*
G01*
X120090000Y-77610000D01*
G75*
G02*
X120230000Y-77750000I0J-140000D01*
G01*
X120230000Y-78030000D01*
G75*
G02*
X120090000Y-78170000I-140000J0D01*
G01*
G37*
G36*
G01*
X120090000Y-79130000D02*
X119750000Y-79130000D01*
G75*
G02*
X119610000Y-78990000I0J140000D01*
G01*
X119610000Y-78710000D01*
G75*
G02*
X119750000Y-78570000I140000J0D01*
G01*
X120090000Y-78570000D01*
G75*
G02*
X120230000Y-78710000I0J-140000D01*
G01*
X120230000Y-78990000D01*
G75*
G02*
X120090000Y-79130000I-140000J0D01*
G01*
G37*
G36*
G01*
X121090000Y-79130000D02*
X120750000Y-79130000D01*
G75*
G02*
X120610000Y-78990000I0J140000D01*
G01*
X120610000Y-78710000D01*
G75*
G02*
X120750000Y-78570000I140000J0D01*
G01*
X121090000Y-78570000D01*
G75*
G02*
X121230000Y-78710000I0J-140000D01*
G01*
X121230000Y-78990000D01*
G75*
G02*
X121090000Y-79130000I-140000J0D01*
G01*
G37*
G36*
G01*
X121090000Y-78170000D02*
X120750000Y-78170000D01*
G75*
G02*
X120610000Y-78030000I0J140000D01*
G01*
X120610000Y-77750000D01*
G75*
G02*
X120750000Y-77610000I140000J0D01*
G01*
X121090000Y-77610000D01*
G75*
G02*
X121230000Y-77750000I0J-140000D01*
G01*
X121230000Y-78030000D01*
G75*
G02*
X121090000Y-78170000I-140000J0D01*
G01*
G37*
G36*
G01*
X122090000Y-78170000D02*
X121750000Y-78170000D01*
G75*
G02*
X121610000Y-78030000I0J140000D01*
G01*
X121610000Y-77750000D01*
G75*
G02*
X121750000Y-77610000I140000J0D01*
G01*
X122090000Y-77610000D01*
G75*
G02*
X122230000Y-77750000I0J-140000D01*
G01*
X122230000Y-78030000D01*
G75*
G02*
X122090000Y-78170000I-140000J0D01*
G01*
G37*
G36*
G01*
X122090000Y-79130000D02*
X121750000Y-79130000D01*
G75*
G02*
X121610000Y-78990000I0J140000D01*
G01*
X121610000Y-78710000D01*
G75*
G02*
X121750000Y-78570000I140000J0D01*
G01*
X122090000Y-78570000D01*
G75*
G02*
X122230000Y-78710000I0J-140000D01*
G01*
X122230000Y-78990000D01*
G75*
G02*
X122090000Y-79130000I-140000J0D01*
G01*
G37*
G36*
G01*
X123090000Y-79130000D02*
X122750000Y-79130000D01*
G75*
G02*
X122610000Y-78990000I0J140000D01*
G01*
X122610000Y-78710000D01*
G75*
G02*
X122750000Y-78570000I140000J0D01*
G01*
X123090000Y-78570000D01*
G75*
G02*
X123230000Y-78710000I0J-140000D01*
G01*
X123230000Y-78990000D01*
G75*
G02*
X123090000Y-79130000I-140000J0D01*
G01*
G37*
G36*
G01*
X123090000Y-78170000D02*
X122750000Y-78170000D01*
G75*
G02*
X122610000Y-78030000I0J140000D01*
G01*
X122610000Y-77750000D01*
G75*
G02*
X122750000Y-77610000I140000J0D01*
G01*
X123090000Y-77610000D01*
G75*
G02*
X123230000Y-77750000I0J-140000D01*
G01*
X123230000Y-78030000D01*
G75*
G02*
X123090000Y-78170000I-140000J0D01*
G01*
G37*
G36*
G01*
X124090000Y-78170000D02*
X123750000Y-78170000D01*
G75*
G02*
X123610000Y-78030000I0J140000D01*
G01*
X123610000Y-77750000D01*
G75*
G02*
X123750000Y-77610000I140000J0D01*
G01*
X124090000Y-77610000D01*
G75*
G02*
X124230000Y-77750000I0J-140000D01*
G01*
X124230000Y-78030000D01*
G75*
G02*
X124090000Y-78170000I-140000J0D01*
G01*
G37*
G36*
G01*
X124090000Y-79130000D02*
X123750000Y-79130000D01*
G75*
G02*
X123610000Y-78990000I0J140000D01*
G01*
X123610000Y-78710000D01*
G75*
G02*
X123750000Y-78570000I140000J0D01*
G01*
X124090000Y-78570000D01*
G75*
G02*
X124230000Y-78710000I0J-140000D01*
G01*
X124230000Y-78990000D01*
G75*
G02*
X124090000Y-79130000I-140000J0D01*
G01*
G37*
G36*
G01*
X125090000Y-78170000D02*
X124750000Y-78170000D01*
G75*
G02*
X124610000Y-78030000I0J140000D01*
G01*
X124610000Y-77750000D01*
G75*
G02*
X124750000Y-77610000I140000J0D01*
G01*
X125090000Y-77610000D01*
G75*
G02*
X125230000Y-77750000I0J-140000D01*
G01*
X125230000Y-78030000D01*
G75*
G02*
X125090000Y-78170000I-140000J0D01*
G01*
G37*
G36*
G01*
X125090000Y-79130000D02*
X124750000Y-79130000D01*
G75*
G02*
X124610000Y-78990000I0J140000D01*
G01*
X124610000Y-78710000D01*
G75*
G02*
X124750000Y-78570000I140000J0D01*
G01*
X125090000Y-78570000D01*
G75*
G02*
X125230000Y-78710000I0J-140000D01*
G01*
X125230000Y-78990000D01*
G75*
G02*
X125090000Y-79130000I-140000J0D01*
G01*
G37*
G36*
G01*
X126090000Y-79130000D02*
X125750000Y-79130000D01*
G75*
G02*
X125610000Y-78990000I0J140000D01*
G01*
X125610000Y-78710000D01*
G75*
G02*
X125750000Y-78570000I140000J0D01*
G01*
X126090000Y-78570000D01*
G75*
G02*
X126230000Y-78710000I0J-140000D01*
G01*
X126230000Y-78990000D01*
G75*
G02*
X126090000Y-79130000I-140000J0D01*
G01*
G37*
G36*
G01*
X126090000Y-78170000D02*
X125750000Y-78170000D01*
G75*
G02*
X125610000Y-78030000I0J140000D01*
G01*
X125610000Y-77750000D01*
G75*
G02*
X125750000Y-77610000I140000J0D01*
G01*
X126090000Y-77610000D01*
G75*
G02*
X126230000Y-77750000I0J-140000D01*
G01*
X126230000Y-78030000D01*
G75*
G02*
X126090000Y-78170000I-140000J0D01*
G01*
G37*
G36*
G01*
X127090000Y-79130000D02*
X126750000Y-79130000D01*
G75*
G02*
X126610000Y-78990000I0J140000D01*
G01*
X126610000Y-78710000D01*
G75*
G02*
X126750000Y-78570000I140000J0D01*
G01*
X127090000Y-78570000D01*
G75*
G02*
X127230000Y-78710000I0J-140000D01*
G01*
X127230000Y-78990000D01*
G75*
G02*
X127090000Y-79130000I-140000J0D01*
G01*
G37*
G36*
G01*
X127090000Y-78170000D02*
X126750000Y-78170000D01*
G75*
G02*
X126610000Y-78030000I0J140000D01*
G01*
X126610000Y-77750000D01*
G75*
G02*
X126750000Y-77610000I140000J0D01*
G01*
X127090000Y-77610000D01*
G75*
G02*
X127230000Y-77750000I0J-140000D01*
G01*
X127230000Y-78030000D01*
G75*
G02*
X127090000Y-78170000I-140000J0D01*
G01*
G37*
G36*
G01*
X137155000Y-79160000D02*
X136785000Y-79160000D01*
G75*
G02*
X136650000Y-79025000I0J135000D01*
G01*
X136650000Y-78755000D01*
G75*
G02*
X136785000Y-78620000I135000J0D01*
G01*
X137155000Y-78620000D01*
G75*
G02*
X137290000Y-78755000I0J-135000D01*
G01*
X137290000Y-79025000D01*
G75*
G02*
X137155000Y-79160000I-135000J0D01*
G01*
G37*
G36*
G01*
X137155000Y-78140000D02*
X136785000Y-78140000D01*
G75*
G02*
X136650000Y-78005000I0J135000D01*
G01*
X136650000Y-77735000D01*
G75*
G02*
X136785000Y-77600000I135000J0D01*
G01*
X137155000Y-77600000D01*
G75*
G02*
X137290000Y-77735000I0J-135000D01*
G01*
X137290000Y-78005000D01*
G75*
G02*
X137155000Y-78140000I-135000J0D01*
G01*
G37*
G36*
G01*
X136125000Y-78140000D02*
X135755000Y-78140000D01*
G75*
G02*
X135620000Y-78005000I0J135000D01*
G01*
X135620000Y-77735000D01*
G75*
G02*
X135755000Y-77600000I135000J0D01*
G01*
X136125000Y-77600000D01*
G75*
G02*
X136260000Y-77735000I0J-135000D01*
G01*
X136260000Y-78005000D01*
G75*
G02*
X136125000Y-78140000I-135000J0D01*
G01*
G37*
G36*
G01*
X136125000Y-79160000D02*
X135755000Y-79160000D01*
G75*
G02*
X135620000Y-79025000I0J135000D01*
G01*
X135620000Y-78755000D01*
G75*
G02*
X135755000Y-78620000I135000J0D01*
G01*
X136125000Y-78620000D01*
G75*
G02*
X136260000Y-78755000I0J-135000D01*
G01*
X136260000Y-79025000D01*
G75*
G02*
X136125000Y-79160000I-135000J0D01*
G01*
G37*
D20*
G36*
X101610000Y-105222082D02*
G01*
X100407918Y-104020000D01*
X101610000Y-102817918D01*
X102812082Y-104020000D01*
X101610000Y-105222082D01*
G37*
G36*
G01*
X99212908Y-106417092D02*
X99212908Y-106417092D01*
G75*
G02*
X99212908Y-105215010I601041J601041D01*
G01*
X99212908Y-105215010D01*
G75*
G02*
X100414990Y-105215010I601041J-601041D01*
G01*
X100414990Y-105215010D01*
G75*
G02*
X100414990Y-106417092I-601041J-601041D01*
G01*
X100414990Y-106417092D01*
G75*
G02*
X99212908Y-106417092I-601041J601041D01*
G01*
G37*
G36*
G01*
X102805010Y-106417092D02*
X102805010Y-106417092D01*
G75*
G02*
X102805010Y-105215010I601041J601041D01*
G01*
X102805010Y-105215010D01*
G75*
G02*
X104007092Y-105215010I601041J-601041D01*
G01*
X104007092Y-105215010D01*
G75*
G02*
X104007092Y-106417092I-601041J-601041D01*
G01*
X104007092Y-106417092D01*
G75*
G02*
X102805010Y-106417092I-601041J601041D01*
G01*
G37*
G36*
G01*
X101008959Y-108213143D02*
X101008959Y-108213143D01*
G75*
G02*
X101008959Y-107011061I601041J601041D01*
G01*
X101008959Y-107011061D01*
G75*
G02*
X102211041Y-107011061I601041J-601041D01*
G01*
X102211041Y-107011061D01*
G75*
G02*
X102211041Y-108213143I-601041J-601041D01*
G01*
X102211041Y-108213143D01*
G75*
G02*
X101008959Y-108213143I-601041J601041D01*
G01*
G37*
G36*
G01*
X104601061Y-108213143D02*
X104601061Y-108213143D01*
G75*
G02*
X104601061Y-107011061I601041J601041D01*
G01*
X104601061Y-107011061D01*
G75*
G02*
X105803143Y-107011061I601041J-601041D01*
G01*
X105803143Y-107011061D01*
G75*
G02*
X105803143Y-108213143I-601041J-601041D01*
G01*
X105803143Y-108213143D01*
G75*
G02*
X104601061Y-108213143I-601041J601041D01*
G01*
G37*
G36*
G01*
X102805010Y-110009195D02*
X102805010Y-110009195D01*
G75*
G02*
X102805010Y-108807113I601041J601041D01*
G01*
X102805010Y-108807113D01*
G75*
G02*
X104007092Y-108807113I601041J-601041D01*
G01*
X104007092Y-108807113D01*
G75*
G02*
X104007092Y-110009195I-601041J-601041D01*
G01*
X104007092Y-110009195D01*
G75*
G02*
X102805010Y-110009195I-601041J601041D01*
G01*
G37*
G36*
G01*
X100360000Y-93030000D02*
X100700000Y-93030000D01*
G75*
G02*
X100840000Y-93170000I0J-140000D01*
G01*
X100840000Y-93450000D01*
G75*
G02*
X100700000Y-93590000I-140000J0D01*
G01*
X100360000Y-93590000D01*
G75*
G02*
X100220000Y-93450000I0J140000D01*
G01*
X100220000Y-93170000D01*
G75*
G02*
X100360000Y-93030000I140000J0D01*
G01*
G37*
G36*
G01*
X100360000Y-92070000D02*
X100700000Y-92070000D01*
G75*
G02*
X100840000Y-92210000I0J-140000D01*
G01*
X100840000Y-92490000D01*
G75*
G02*
X100700000Y-92630000I-140000J0D01*
G01*
X100360000Y-92630000D01*
G75*
G02*
X100220000Y-92490000I0J140000D01*
G01*
X100220000Y-92210000D01*
G75*
G02*
X100360000Y-92070000I140000J0D01*
G01*
G37*
G36*
G01*
X139570000Y-75949999D02*
X139570000Y-75609999D01*
G75*
G02*
X139710000Y-75469999I140000J0D01*
G01*
X139990000Y-75469999D01*
G75*
G02*
X140130000Y-75609999I0J-140000D01*
G01*
X140130000Y-75949999D01*
G75*
G02*
X139990000Y-76089999I-140000J0D01*
G01*
X139710000Y-76089999D01*
G75*
G02*
X139570000Y-75949999I0J140000D01*
G01*
G37*
G36*
G01*
X138610000Y-75949999D02*
X138610000Y-75609999D01*
G75*
G02*
X138750000Y-75469999I140000J0D01*
G01*
X139030000Y-75469999D01*
G75*
G02*
X139170000Y-75609999I0J-140000D01*
G01*
X139170000Y-75949999D01*
G75*
G02*
X139030000Y-76089999I-140000J0D01*
G01*
X138750000Y-76089999D01*
G75*
G02*
X138610000Y-75949999I0J140000D01*
G01*
G37*
G36*
G01*
X96360000Y-93030000D02*
X96700000Y-93030000D01*
G75*
G02*
X96840000Y-93170000I0J-140000D01*
G01*
X96840000Y-93450000D01*
G75*
G02*
X96700000Y-93590000I-140000J0D01*
G01*
X96360000Y-93590000D01*
G75*
G02*
X96220000Y-93450000I0J140000D01*
G01*
X96220000Y-93170000D01*
G75*
G02*
X96360000Y-93030000I140000J0D01*
G01*
G37*
G36*
G01*
X96360000Y-92070000D02*
X96700000Y-92070000D01*
G75*
G02*
X96840000Y-92210000I0J-140000D01*
G01*
X96840000Y-92490000D01*
G75*
G02*
X96700000Y-92630000I-140000J0D01*
G01*
X96360000Y-92630000D01*
G75*
G02*
X96220000Y-92490000I0J140000D01*
G01*
X96220000Y-92210000D01*
G75*
G02*
X96360000Y-92070000I140000J0D01*
G01*
G37*
G36*
G01*
X98360000Y-92070000D02*
X98700000Y-92070000D01*
G75*
G02*
X98840000Y-92210000I0J-140000D01*
G01*
X98840000Y-92490000D01*
G75*
G02*
X98700000Y-92630000I-140000J0D01*
G01*
X98360000Y-92630000D01*
G75*
G02*
X98220000Y-92490000I0J140000D01*
G01*
X98220000Y-92210000D01*
G75*
G02*
X98360000Y-92070000I140000J0D01*
G01*
G37*
G36*
G01*
X98360000Y-93030000D02*
X98700000Y-93030000D01*
G75*
G02*
X98840000Y-93170000I0J-140000D01*
G01*
X98840000Y-93450000D01*
G75*
G02*
X98700000Y-93590000I-140000J0D01*
G01*
X98360000Y-93590000D01*
G75*
G02*
X98220000Y-93450000I0J140000D01*
G01*
X98220000Y-93170000D01*
G75*
G02*
X98360000Y-93030000I140000J0D01*
G01*
G37*
G36*
G01*
X138610000Y-77950000D02*
X138610000Y-77610000D01*
G75*
G02*
X138750000Y-77470000I140000J0D01*
G01*
X139030000Y-77470000D01*
G75*
G02*
X139170000Y-77610000I0J-140000D01*
G01*
X139170000Y-77950000D01*
G75*
G02*
X139030000Y-78090000I-140000J0D01*
G01*
X138750000Y-78090000D01*
G75*
G02*
X138610000Y-77950000I0J140000D01*
G01*
G37*
G36*
G01*
X139570000Y-77950000D02*
X139570000Y-77610000D01*
G75*
G02*
X139710000Y-77470000I140000J0D01*
G01*
X139990000Y-77470000D01*
G75*
G02*
X140130000Y-77610000I0J-140000D01*
G01*
X140130000Y-77950000D01*
G75*
G02*
X139990000Y-78090000I-140000J0D01*
G01*
X139710000Y-78090000D01*
G75*
G02*
X139570000Y-77950000I0J140000D01*
G01*
G37*
G36*
G01*
X139570000Y-73930000D02*
X139570000Y-73590000D01*
G75*
G02*
X139710000Y-73450000I140000J0D01*
G01*
X139990000Y-73450000D01*
G75*
G02*
X140130000Y-73590000I0J-140000D01*
G01*
X140130000Y-73930000D01*
G75*
G02*
X139990000Y-74070000I-140000J0D01*
G01*
X139710000Y-74070000D01*
G75*
G02*
X139570000Y-73930000I0J140000D01*
G01*
G37*
G36*
G01*
X138610000Y-73930000D02*
X138610000Y-73590000D01*
G75*
G02*
X138750000Y-73450000I140000J0D01*
G01*
X139030000Y-73450000D01*
G75*
G02*
X139170000Y-73590000I0J-140000D01*
G01*
X139170000Y-73930000D01*
G75*
G02*
X139030000Y-74070000I-140000J0D01*
G01*
X138750000Y-74070000D01*
G75*
G02*
X138610000Y-73930000I0J140000D01*
G01*
G37*
G36*
G01*
X95700000Y-92630000D02*
X95360000Y-92630000D01*
G75*
G02*
X95220000Y-92490000I0J140000D01*
G01*
X95220000Y-92210000D01*
G75*
G02*
X95360000Y-92070000I140000J0D01*
G01*
X95700000Y-92070000D01*
G75*
G02*
X95840000Y-92210000I0J-140000D01*
G01*
X95840000Y-92490000D01*
G75*
G02*
X95700000Y-92630000I-140000J0D01*
G01*
G37*
G36*
G01*
X95700000Y-93590000D02*
X95360000Y-93590000D01*
G75*
G02*
X95220000Y-93450000I0J140000D01*
G01*
X95220000Y-93170000D01*
G75*
G02*
X95360000Y-93030000I140000J0D01*
G01*
X95700000Y-93030000D01*
G75*
G02*
X95840000Y-93170000I0J-140000D01*
G01*
X95840000Y-93450000D01*
G75*
G02*
X95700000Y-93590000I-140000J0D01*
G01*
G37*
G36*
G01*
X97700000Y-92630000D02*
X97360000Y-92630000D01*
G75*
G02*
X97220000Y-92490000I0J140000D01*
G01*
X97220000Y-92210000D01*
G75*
G02*
X97360000Y-92070000I140000J0D01*
G01*
X97700000Y-92070000D01*
G75*
G02*
X97840000Y-92210000I0J-140000D01*
G01*
X97840000Y-92490000D01*
G75*
G02*
X97700000Y-92630000I-140000J0D01*
G01*
G37*
G36*
G01*
X97700000Y-93590000D02*
X97360000Y-93590000D01*
G75*
G02*
X97220000Y-93450000I0J140000D01*
G01*
X97220000Y-93170000D01*
G75*
G02*
X97360000Y-93030000I140000J0D01*
G01*
X97700000Y-93030000D01*
G75*
G02*
X97840000Y-93170000I0J-140000D01*
G01*
X97840000Y-93450000D01*
G75*
G02*
X97700000Y-93590000I-140000J0D01*
G01*
G37*
G36*
G01*
X140130000Y-78610000D02*
X140130000Y-78950000D01*
G75*
G02*
X139990000Y-79090000I-140000J0D01*
G01*
X139710000Y-79090000D01*
G75*
G02*
X139570000Y-78950000I0J140000D01*
G01*
X139570000Y-78610000D01*
G75*
G02*
X139710000Y-78470000I140000J0D01*
G01*
X139990000Y-78470000D01*
G75*
G02*
X140130000Y-78610000I0J-140000D01*
G01*
G37*
G36*
G01*
X139170000Y-78610000D02*
X139170000Y-78950000D01*
G75*
G02*
X139030000Y-79090000I-140000J0D01*
G01*
X138750000Y-79090000D01*
G75*
G02*
X138610000Y-78950000I0J140000D01*
G01*
X138610000Y-78610000D01*
G75*
G02*
X138750000Y-78470000I140000J0D01*
G01*
X139030000Y-78470000D01*
G75*
G02*
X139170000Y-78610000I0J-140000D01*
G01*
G37*
G36*
G01*
X140130000Y-74600000D02*
X140130000Y-74940000D01*
G75*
G02*
X139990000Y-75080000I-140000J0D01*
G01*
X139710000Y-75080000D01*
G75*
G02*
X139570000Y-74940000I0J140000D01*
G01*
X139570000Y-74600000D01*
G75*
G02*
X139710000Y-74460000I140000J0D01*
G01*
X139990000Y-74460000D01*
G75*
G02*
X140130000Y-74600000I0J-140000D01*
G01*
G37*
G36*
G01*
X139170000Y-74600000D02*
X139170000Y-74940000D01*
G75*
G02*
X139030000Y-75080000I-140000J0D01*
G01*
X138750000Y-75080000D01*
G75*
G02*
X138610000Y-74940000I0J140000D01*
G01*
X138610000Y-74600000D01*
G75*
G02*
X138750000Y-74460000I140000J0D01*
G01*
X139030000Y-74460000D01*
G75*
G02*
X139170000Y-74600000I0J-140000D01*
G01*
G37*
G36*
G01*
X99700000Y-93590000D02*
X99360000Y-93590000D01*
G75*
G02*
X99220000Y-93450000I0J140000D01*
G01*
X99220000Y-93170000D01*
G75*
G02*
X99360000Y-93030000I140000J0D01*
G01*
X99700000Y-93030000D01*
G75*
G02*
X99840000Y-93170000I0J-140000D01*
G01*
X99840000Y-93450000D01*
G75*
G02*
X99700000Y-93590000I-140000J0D01*
G01*
G37*
G36*
G01*
X99700000Y-92630000D02*
X99360000Y-92630000D01*
G75*
G02*
X99220000Y-92490000I0J140000D01*
G01*
X99220000Y-92210000D01*
G75*
G02*
X99360000Y-92070000I140000J0D01*
G01*
X99700000Y-92070000D01*
G75*
G02*
X99840000Y-92210000I0J-140000D01*
G01*
X99840000Y-92490000D01*
G75*
G02*
X99700000Y-92630000I-140000J0D01*
G01*
G37*
G36*
G01*
X139170000Y-76610000D02*
X139170000Y-76950000D01*
G75*
G02*
X139030000Y-77090000I-140000J0D01*
G01*
X138750000Y-77090000D01*
G75*
G02*
X138610000Y-76950000I0J140000D01*
G01*
X138610000Y-76610000D01*
G75*
G02*
X138750000Y-76470000I140000J0D01*
G01*
X139030000Y-76470000D01*
G75*
G02*
X139170000Y-76610000I0J-140000D01*
G01*
G37*
G36*
G01*
X140130000Y-76610000D02*
X140130000Y-76950000D01*
G75*
G02*
X139990000Y-77090000I-140000J0D01*
G01*
X139710000Y-77090000D01*
G75*
G02*
X139570000Y-76950000I0J140000D01*
G01*
X139570000Y-76610000D01*
G75*
G02*
X139710000Y-76470000I140000J0D01*
G01*
X139990000Y-76470000D01*
G75*
G02*
X140130000Y-76610000I0J-140000D01*
G01*
G37*
G36*
X97200812Y-85116345D02*
G01*
X96458350Y-84373883D01*
X97271522Y-83560711D01*
X98013984Y-84303173D01*
X97200812Y-85116345D01*
G37*
G36*
X98226117Y-86141650D02*
G01*
X97483655Y-85399188D01*
X98296827Y-84586016D01*
X99039289Y-85328478D01*
X98226117Y-86141650D01*
G37*
G36*
X99923173Y-82393984D02*
G01*
X99180711Y-81651522D01*
X99993883Y-80838350D01*
X100736345Y-81580812D01*
X99923173Y-82393984D01*
G37*
G36*
X100948478Y-83419289D02*
G01*
X100206016Y-82676827D01*
X101019188Y-81863655D01*
X101761650Y-82606117D01*
X100948478Y-83419289D01*
G37*
G36*
X103948478Y-86429289D02*
G01*
X103206016Y-85686827D01*
X104019188Y-84873655D01*
X104761650Y-85616117D01*
X103948478Y-86429289D01*
G37*
G36*
X102923173Y-85403984D02*
G01*
X102180711Y-84661522D01*
X102993883Y-83848350D01*
X103736345Y-84590812D01*
X102923173Y-85403984D01*
G37*
G36*
X101226117Y-89151650D02*
G01*
X100483655Y-88409188D01*
X101296827Y-87596016D01*
X102039289Y-88338478D01*
X101226117Y-89151650D01*
G37*
G36*
X100200812Y-88126345D02*
G01*
X99458350Y-87383883D01*
X100271522Y-86570711D01*
X101013984Y-87313173D01*
X100200812Y-88126345D01*
G37*
D21*
X147460000Y-104720000D03*
D22*
X147460000Y-102720000D03*
X147480000Y-97600000D03*
D21*
X147480000Y-99600000D03*
D23*
X97910000Y-96120000D03*
X97910000Y-96520000D03*
X97910000Y-96920000D03*
X97910000Y-97320000D03*
X97910000Y-97720000D03*
X97910000Y-98120000D03*
X97910000Y-98520000D03*
X97910000Y-98920000D03*
X97910000Y-99320000D03*
X97910000Y-99720000D03*
X97910000Y-100120000D03*
X97910000Y-100520000D03*
D24*
X98660000Y-101270000D03*
X99060000Y-101270000D03*
X99460000Y-101270000D03*
X99860000Y-101270000D03*
X100260000Y-101270000D03*
X100660000Y-101270000D03*
X101060000Y-101270000D03*
X101460000Y-101270000D03*
X101860000Y-101270000D03*
X102260000Y-101270000D03*
X102660000Y-101270000D03*
X103060000Y-101270000D03*
D23*
X103810000Y-100520000D03*
X103810000Y-100120000D03*
X103810000Y-99720000D03*
X103810000Y-99320000D03*
X103810000Y-98920000D03*
X103810000Y-98520000D03*
X103810000Y-98120000D03*
X103810000Y-97720000D03*
X103810000Y-97320000D03*
X103810000Y-96920000D03*
X103810000Y-96520000D03*
X103810000Y-96120000D03*
D24*
X103060000Y-95370000D03*
X102660000Y-95370000D03*
X102260000Y-95370000D03*
X101860000Y-95370000D03*
X101460000Y-95370000D03*
X101060000Y-95370000D03*
X100660000Y-95370000D03*
X100260000Y-95370000D03*
X99860000Y-95370000D03*
X99460000Y-95370000D03*
X99060000Y-95370000D03*
X98660000Y-95370000D03*
D25*
X100860000Y-98320000D03*
M02*
