%FSLAX45Y45*%
G04 Gerber Fmt 4.5, Leading zero omitted, Abs format (unit mm)*
G04 Created by KiCad (PCBNEW 5.1.9+dfsg1-1~bpo10+1) date 2021-11-14 15:52:21*
%MOMM*%
%LPD*%
G01*
G04 APERTURE LIST*
%TA.AperFunction,Profile*%
%ADD10C,0.100000*%
%TD*%
%ADD11C,0.200000*%
%ADD12C,0.300000*%
G04 APERTURE END LIST*
D10*
X14921000Y-10914499D02*
G75*
G02*
X14621000Y-11214500I-300000J0D01*
G01*
X14620999Y-7214500D02*
G75*
G02*
X14921000Y-7514500I1J-300001D01*
G01*
X9710000Y-11214500D02*
G75*
G02*
X9410000Y-10914500I0J300000D01*
G01*
X9410000Y-7514500D02*
G75*
G02*
X9710000Y-7214499I300000J0D01*
G01*
X14921000Y-10914499D02*
X14921000Y-7514500D01*
X9410000Y-10914500D02*
X9410000Y-7514500D01*
X9710000Y-11214500D02*
X14621000Y-11214500D01*
X9710000Y-7214500D02*
X14620999Y-7214500D01*
D11*
X9525000Y-7643000D02*
X9545000Y-7663000D01*
X9545000Y-7643000D02*
X9525000Y-7663000D01*
X9536696Y-9146304D02*
X9556696Y-9166304D01*
X9556696Y-9146304D02*
X9536696Y-9166304D01*
X9541000Y-8692000D02*
X9561000Y-8712000D01*
X9561000Y-8692000D02*
X9541000Y-8712000D01*
X9543000Y-8464000D02*
X9563000Y-8484000D01*
X9563000Y-8464000D02*
X9543000Y-8484000D01*
X9575304Y-9107696D02*
X9595304Y-9127696D01*
X9595304Y-9107696D02*
X9575304Y-9127696D01*
X9594303Y-9524511D02*
X9614303Y-9544511D01*
X9614303Y-9524511D02*
X9594303Y-9544511D01*
X9634304Y-9485696D02*
X9654304Y-9505696D01*
X9654304Y-9485696D02*
X9634304Y-9505696D01*
X9762700Y-9404000D02*
X9782700Y-9424000D01*
X9782700Y-9404000D02*
X9762700Y-9424000D01*
X9784003Y-9068003D02*
X9804003Y-9088003D01*
X9804003Y-9068003D02*
X9784003Y-9088003D01*
X9817300Y-9404000D02*
X9837300Y-9424000D01*
X9837300Y-9404000D02*
X9817300Y-9424000D01*
X9822612Y-9106612D02*
X9842612Y-9126612D01*
X9842612Y-9106612D02*
X9822612Y-9126612D01*
X9925000Y-7317000D02*
X9945000Y-7337000D01*
X9945000Y-7317000D02*
X9925000Y-7337000D01*
X9963495Y-8317863D02*
X9983495Y-8337863D01*
X9983495Y-8317863D02*
X9963495Y-8337863D01*
X9964700Y-9421000D02*
X9984700Y-9441000D01*
X9984700Y-9421000D02*
X9964700Y-9441000D01*
X10020285Y-9420015D02*
X10040285Y-9440015D01*
X10040285Y-9420015D02*
X10020285Y-9440015D01*
X10024000Y-8352000D02*
X10044000Y-8372000D01*
X10044000Y-8352000D02*
X10024000Y-8372000D01*
X10029000Y-7701000D02*
X10049000Y-7721000D01*
X10049000Y-7701000D02*
X10029000Y-7721000D01*
X10049000Y-7865000D02*
X10069000Y-7885000D01*
X10069000Y-7865000D02*
X10049000Y-7885000D01*
X10098696Y-9145304D02*
X10118696Y-9165304D01*
X10118696Y-9145304D02*
X10098696Y-9165304D01*
X10137304Y-9106696D02*
X10157304Y-9126696D01*
X10157304Y-9106696D02*
X10137304Y-9126696D01*
X10141000Y-7620000D02*
X10161000Y-7640000D01*
X10161000Y-7620000D02*
X10141000Y-7640000D01*
X10142000Y-7469000D02*
X10162000Y-7489000D01*
X10162000Y-7469000D02*
X10142000Y-7489000D01*
X10373000Y-7648000D02*
X10393000Y-7668000D01*
X10393000Y-7648000D02*
X10373000Y-7668000D01*
X10379000Y-7493000D02*
X10399000Y-7513000D01*
X10399000Y-7493000D02*
X10379000Y-7513000D01*
X10426000Y-9262000D02*
X10446000Y-9282000D01*
X10446000Y-9262000D02*
X10426000Y-9282000D01*
X10500651Y-8232749D02*
X10520651Y-8252749D01*
X10520651Y-8232749D02*
X10500651Y-8252749D01*
X10557000Y-7802000D02*
X10577000Y-7822000D01*
X10577000Y-7802000D02*
X10557000Y-7822000D01*
X10565414Y-10009833D02*
X10585414Y-10029833D01*
X10585414Y-10009833D02*
X10565414Y-10029833D01*
X10576347Y-9942331D02*
X10596347Y-9962331D01*
X10596347Y-9942331D02*
X10576347Y-9962331D01*
X10577940Y-10062978D02*
X10597940Y-10082978D01*
X10597940Y-10062978D02*
X10577940Y-10082978D01*
X10615313Y-9987001D02*
X10635313Y-10007001D01*
X10635313Y-9987001D02*
X10615313Y-10007001D01*
X10638497Y-10676361D02*
X10658497Y-10696361D01*
X10658497Y-10676361D02*
X10638497Y-10696361D01*
X10694000Y-7384000D02*
X10714000Y-7404000D01*
X10714000Y-7384000D02*
X10694000Y-7404000D01*
X10708000Y-7314000D02*
X10728000Y-7334000D01*
X10728000Y-7314000D02*
X10708000Y-7334000D01*
X10725353Y-10665563D02*
X10745353Y-10685563D01*
X10745353Y-10665563D02*
X10725353Y-10685563D01*
X10734900Y-10611803D02*
X10754900Y-10631803D01*
X10754900Y-10611803D02*
X10734900Y-10631803D01*
X10783000Y-7357000D02*
X10803000Y-7377000D01*
X10803000Y-7357000D02*
X10783000Y-7377000D01*
X10797000Y-8997000D02*
X10817000Y-9017000D01*
X10817000Y-8997000D02*
X10797000Y-9017000D01*
X10811000Y-8900000D02*
X10831000Y-8920000D01*
X10831000Y-8900000D02*
X10811000Y-8920000D01*
X10824438Y-10736303D02*
X10844438Y-10756303D01*
X10844438Y-10736303D02*
X10824438Y-10756303D01*
X10835402Y-9982576D02*
X10855402Y-10002576D01*
X10855402Y-9982576D02*
X10835402Y-10002576D01*
X10839000Y-9298000D02*
X10859000Y-9318000D01*
X10859000Y-9298000D02*
X10839000Y-9318000D01*
X10870196Y-10657293D02*
X10890196Y-10677293D01*
X10890196Y-10657293D02*
X10870196Y-10677293D01*
X10871949Y-9382000D02*
X10891949Y-9402000D01*
X10891949Y-9382000D02*
X10871949Y-9402000D01*
X10884000Y-9933000D02*
X10904000Y-9953000D01*
X10904000Y-9933000D02*
X10884000Y-9953000D01*
X10885000Y-10015000D02*
X10905000Y-10035000D01*
X10905000Y-10015000D02*
X10885000Y-10035000D01*
X10890000Y-9772998D02*
X10910000Y-9792998D01*
X10910000Y-9772998D02*
X10890000Y-9792998D01*
X10890349Y-7798000D02*
X10910349Y-7818000D01*
X10910349Y-7798000D02*
X10890349Y-7818000D01*
X10891000Y-9852999D02*
X10911000Y-9872999D01*
X10911000Y-9852999D02*
X10891000Y-9872999D01*
X10896859Y-10176272D02*
X10916859Y-10196272D01*
X10916859Y-10176272D02*
X10896859Y-10196272D01*
X10904000Y-9247000D02*
X10924000Y-9267000D01*
X10924000Y-9247000D02*
X10904000Y-9267000D01*
X10940916Y-10942338D02*
X10960916Y-10962338D01*
X10960916Y-10942338D02*
X10940916Y-10962338D01*
X10961800Y-10147553D02*
X10981800Y-10167553D01*
X10981800Y-10147553D02*
X10961800Y-10167553D01*
X10987951Y-10914160D02*
X11007951Y-10934160D01*
X11007951Y-10914160D02*
X10987951Y-10934160D01*
X10988972Y-9732972D02*
X11008972Y-9752972D01*
X11008972Y-9732972D02*
X10988972Y-9752972D01*
X10989948Y-10051898D02*
X11009948Y-10071898D01*
X11009948Y-10051898D02*
X10989948Y-10071898D01*
X10991000Y-9254999D02*
X11011000Y-9274999D01*
X11011000Y-9254999D02*
X10991000Y-9274999D01*
X10991285Y-9575285D02*
X11011285Y-9595285D01*
X11011285Y-9575285D02*
X10991285Y-9595285D01*
X10993000Y-9415000D02*
X11013000Y-9435000D01*
X11013000Y-9415000D02*
X10993000Y-9435000D01*
X11003271Y-10408248D02*
X11023271Y-10428248D01*
X11023271Y-10408248D02*
X11003271Y-10428248D01*
X11012281Y-10963096D02*
X11032281Y-10983096D01*
X11032281Y-10963096D02*
X11012281Y-10983096D01*
X11056057Y-10233246D02*
X11076057Y-10253246D01*
X11076057Y-10233246D02*
X11056057Y-10253246D01*
X11070999Y-10055002D02*
X11090999Y-10075002D01*
X11090999Y-10055002D02*
X11070999Y-10075002D01*
X11071000Y-8856000D02*
X11091000Y-8876000D01*
X11091000Y-8856000D02*
X11071000Y-8876000D01*
X11071000Y-9895000D02*
X11091000Y-9915000D01*
X11091000Y-9895000D02*
X11071000Y-9915000D01*
X11071000Y-9975001D02*
X11091000Y-9995001D01*
X11091000Y-9975001D02*
X11071000Y-9995001D01*
X11072547Y-9737586D02*
X11092547Y-9757586D01*
X11092547Y-9737586D02*
X11072547Y-9757586D01*
X11081000Y-8604000D02*
X11101000Y-8624000D01*
X11101000Y-8604000D02*
X11081000Y-8624000D01*
X11132813Y-8586459D02*
X11152813Y-8606459D01*
X11152813Y-8586459D02*
X11132813Y-8606459D01*
X11151000Y-9895000D02*
X11171000Y-9915000D01*
X11171000Y-9895000D02*
X11151000Y-9915000D01*
X11151000Y-8855000D02*
X11171000Y-8875000D01*
X11171000Y-8855000D02*
X11151000Y-8875000D01*
X11151000Y-9095000D02*
X11171000Y-9115000D01*
X11171000Y-9095000D02*
X11151000Y-9115000D01*
X11151000Y-9575000D02*
X11171000Y-9595000D01*
X11171000Y-9575000D02*
X11151000Y-9595000D01*
X11151000Y-9732000D02*
X11171000Y-9752000D01*
X11171000Y-9732000D02*
X11151000Y-9752000D01*
X11151000Y-9815000D02*
X11171000Y-9835000D01*
X11171000Y-9815000D02*
X11151000Y-9835000D01*
X11151000Y-9975000D02*
X11171000Y-9995000D01*
X11171000Y-9975000D02*
X11151000Y-9995000D01*
X11151000Y-10055000D02*
X11171000Y-10075000D01*
X11171000Y-10055000D02*
X11151000Y-10075000D01*
X11152000Y-9655000D02*
X11172000Y-9675000D01*
X11172000Y-9655000D02*
X11152000Y-9675000D01*
X11164000Y-7395000D02*
X11184000Y-7415000D01*
X11184000Y-7395000D02*
X11164000Y-7415000D01*
X11191000Y-8497000D02*
X11211000Y-8517000D01*
X11211000Y-8497000D02*
X11191000Y-8517000D01*
X11212261Y-10242115D02*
X11232261Y-10262115D01*
X11232261Y-10242115D02*
X11212261Y-10262115D01*
X11214299Y-10598967D02*
X11234299Y-10618967D01*
X11234299Y-10598967D02*
X11214299Y-10618967D01*
X11216000Y-10859000D02*
X11236000Y-10879000D01*
X11236000Y-10859000D02*
X11216000Y-10879000D01*
X11217497Y-10298611D02*
X11237497Y-10318611D01*
X11237497Y-10298611D02*
X11217497Y-10318611D01*
X11229000Y-9575000D02*
X11249000Y-9595000D01*
X11249000Y-9575000D02*
X11229000Y-9595000D01*
X11230000Y-9255000D02*
X11250000Y-9275000D01*
X11250000Y-9255000D02*
X11230000Y-9275000D01*
X11230000Y-9494000D02*
X11250000Y-9514000D01*
X11250000Y-9494000D02*
X11230000Y-9514000D01*
X11231000Y-9413000D02*
X11251000Y-9433000D01*
X11251000Y-9413000D02*
X11231000Y-9433000D01*
X11231000Y-9815000D02*
X11251000Y-9835000D01*
X11251000Y-9815000D02*
X11231000Y-9835000D01*
X11231000Y-9895000D02*
X11251000Y-9915000D01*
X11251000Y-9895000D02*
X11231000Y-9915000D01*
X11231000Y-9975000D02*
X11251000Y-9995000D01*
X11251000Y-9975000D02*
X11231000Y-9995000D01*
X11231135Y-9653999D02*
X11251135Y-9673999D01*
X11251135Y-9653999D02*
X11231135Y-9673999D01*
X11231702Y-9734995D02*
X11251702Y-9754995D01*
X11251702Y-9734995D02*
X11231702Y-9754995D01*
X11277000Y-7360000D02*
X11297000Y-7380000D01*
X11297000Y-7360000D02*
X11277000Y-7380000D01*
X11296590Y-10278898D02*
X11316590Y-10298898D01*
X11316590Y-10278898D02*
X11296590Y-10298898D01*
X11304000Y-7696000D02*
X11324000Y-7716000D01*
X11324000Y-7696000D02*
X11304000Y-7716000D01*
X11309357Y-10135000D02*
X11329357Y-10155000D01*
X11329357Y-10135000D02*
X11309357Y-10155000D01*
X11310367Y-9414001D02*
X11330367Y-9434001D01*
X11330367Y-9414001D02*
X11310367Y-9434001D01*
X11310997Y-10055000D02*
X11330997Y-10075000D01*
X11330997Y-10055000D02*
X11310997Y-10075000D01*
X11311000Y-9015000D02*
X11331000Y-9035000D01*
X11331000Y-9015000D02*
X11311000Y-9035000D01*
X11311000Y-9495000D02*
X11331000Y-9515000D01*
X11331000Y-9495000D02*
X11311000Y-9515000D01*
X11311658Y-9332000D02*
X11331658Y-9352000D01*
X11331658Y-9332000D02*
X11311658Y-9352000D01*
X11314000Y-9576000D02*
X11334000Y-9596000D01*
X11334000Y-9576000D02*
X11314000Y-9596000D01*
X11350829Y-10285177D02*
X11370829Y-10305177D01*
X11370829Y-10285177D02*
X11350829Y-10305177D01*
X11353000Y-8446000D02*
X11373000Y-8466000D01*
X11373000Y-8446000D02*
X11353000Y-8466000D01*
X11355000Y-8389000D02*
X11375000Y-8409000D01*
X11375000Y-8389000D02*
X11355000Y-8409000D01*
X11360000Y-7742000D02*
X11380000Y-7762000D01*
X11380000Y-7742000D02*
X11360000Y-7762000D01*
X11379000Y-7461000D02*
X11399000Y-7481000D01*
X11399000Y-7461000D02*
X11379000Y-7481000D01*
X11390999Y-10055000D02*
X11410999Y-10075000D01*
X11410999Y-10055000D02*
X11390999Y-10075000D01*
X11390999Y-8775000D02*
X11410999Y-8795000D01*
X11410999Y-8775000D02*
X11390999Y-8795000D01*
X11390999Y-10135000D02*
X11410999Y-10155000D01*
X11410999Y-10135000D02*
X11390999Y-10155000D01*
X11391000Y-9095000D02*
X11411000Y-9115000D01*
X11411000Y-9095000D02*
X11391000Y-9115000D01*
X11391095Y-9335973D02*
X11411095Y-9355973D01*
X11411095Y-9335973D02*
X11391095Y-9355973D01*
X11391267Y-9172999D02*
X11411267Y-9192999D01*
X11411267Y-9172999D02*
X11391267Y-9192999D01*
X11391517Y-9255972D02*
X11411517Y-9275972D01*
X11411517Y-9255972D02*
X11391517Y-9275972D01*
X11395401Y-9570599D02*
X11415401Y-9590599D01*
X11415401Y-9570599D02*
X11395401Y-9590599D01*
X11421000Y-8386000D02*
X11441000Y-8406000D01*
X11441000Y-8386000D02*
X11421000Y-8406000D01*
X11426000Y-7303000D02*
X11446000Y-7323000D01*
X11446000Y-7303000D02*
X11426000Y-7323000D01*
X11428000Y-7723000D02*
X11448000Y-7743000D01*
X11448000Y-7723000D02*
X11428000Y-7743000D01*
X11432591Y-10361677D02*
X11452591Y-10381677D01*
X11452591Y-10361677D02*
X11432591Y-10381677D01*
X11433822Y-10980297D02*
X11453822Y-11000297D01*
X11453822Y-10980297D02*
X11433822Y-11000297D01*
X11444000Y-7514999D02*
X11464000Y-7534999D01*
X11464000Y-7514999D02*
X11444000Y-7534999D01*
X11470259Y-8775000D02*
X11490259Y-8795000D01*
X11490259Y-8775000D02*
X11470259Y-8795000D01*
X11471000Y-9095000D02*
X11491000Y-9115000D01*
X11491000Y-9095000D02*
X11471000Y-9115000D01*
X11471000Y-9895000D02*
X11491000Y-9915000D01*
X11491000Y-9895000D02*
X11471000Y-9915000D01*
X11471000Y-9415000D02*
X11491000Y-9435000D01*
X11491000Y-9415000D02*
X11471000Y-9435000D01*
X11471000Y-9975000D02*
X11491000Y-9995000D01*
X11491000Y-9975000D02*
X11471000Y-9995000D01*
X11481537Y-7474998D02*
X11501537Y-7494998D01*
X11501537Y-7474998D02*
X11481537Y-7494998D01*
X11489000Y-10360000D02*
X11509000Y-10380000D01*
X11509000Y-10360000D02*
X11489000Y-10380000D01*
X11541563Y-7567882D02*
X11561563Y-7587882D01*
X11561563Y-7567882D02*
X11541563Y-7587882D01*
X11546000Y-10836000D02*
X11566000Y-10856000D01*
X11566000Y-10836000D02*
X11546000Y-10856000D01*
X11546071Y-10972884D02*
X11566071Y-10992884D01*
X11566071Y-10972884D02*
X11546071Y-10992884D01*
X11547000Y-7302000D02*
X11567000Y-7322000D01*
X11567000Y-7302000D02*
X11547000Y-7322000D01*
X11548002Y-7715000D02*
X11568002Y-7735000D01*
X11568002Y-7715000D02*
X11548002Y-7735000D01*
X11551000Y-9095000D02*
X11571000Y-9115000D01*
X11571000Y-9095000D02*
X11551000Y-9115000D01*
X11551000Y-9255000D02*
X11571000Y-9275000D01*
X11571000Y-9255000D02*
X11551000Y-9275000D01*
X11551000Y-9575000D02*
X11571000Y-9595000D01*
X11571000Y-9575000D02*
X11551000Y-9595000D01*
X11551000Y-9975000D02*
X11571000Y-9995000D01*
X11571000Y-9975000D02*
X11551000Y-9995000D01*
X11551000Y-9895000D02*
X11571000Y-9915000D01*
X11571000Y-9895000D02*
X11551000Y-9915000D01*
X11554041Y-8862970D02*
X11574041Y-8882970D01*
X11574041Y-8862970D02*
X11554041Y-8882970D01*
X11563759Y-8363401D02*
X11583759Y-8383401D01*
X11583759Y-8363401D02*
X11563759Y-8383401D01*
X11579991Y-10200783D02*
X11599991Y-10220783D01*
X11599991Y-10200783D02*
X11579991Y-10220783D01*
X11582651Y-8304651D02*
X11602651Y-8324651D01*
X11602651Y-8304651D02*
X11582651Y-8324651D01*
X11584104Y-7530737D02*
X11604104Y-7550737D01*
X11604104Y-7530737D02*
X11584104Y-7550737D01*
X11590000Y-8587000D02*
X11610000Y-8607000D01*
X11610000Y-8587000D02*
X11590000Y-8607000D01*
X11607419Y-9758581D02*
X11627419Y-9778581D01*
X11627419Y-9758581D02*
X11607419Y-9778581D01*
X11617028Y-7487179D02*
X11637028Y-7507179D01*
X11637028Y-7487179D02*
X11617028Y-7507179D01*
X11620776Y-8064782D02*
X11640776Y-8084782D01*
X11640776Y-8064782D02*
X11620776Y-8084782D01*
X11623761Y-10157013D02*
X11643761Y-10177013D01*
X11643761Y-10157013D02*
X11623761Y-10177013D01*
X11631000Y-9095000D02*
X11651000Y-9115000D01*
X11651000Y-9095000D02*
X11631000Y-9115000D01*
X11631000Y-9495000D02*
X11651000Y-9515000D01*
X11651000Y-9495000D02*
X11631000Y-9515000D01*
X11631000Y-9575000D02*
X11651000Y-9595000D01*
X11651000Y-9575000D02*
X11631000Y-9595000D01*
X11631000Y-9975000D02*
X11651000Y-9995000D01*
X11651000Y-9975000D02*
X11631000Y-9995000D01*
X11633063Y-8772937D02*
X11653063Y-8792937D01*
X11653063Y-8772937D02*
X11633063Y-8792937D01*
X11659344Y-10335751D02*
X11679344Y-10355751D01*
X11679344Y-10335751D02*
X11659344Y-10355751D01*
X11665993Y-10972884D02*
X11685993Y-10992884D01*
X11685993Y-10972884D02*
X11665993Y-10992884D01*
X11666000Y-7303000D02*
X11686000Y-7323000D01*
X11686000Y-7303000D02*
X11666000Y-7323000D01*
X11666000Y-10836000D02*
X11686000Y-10856000D01*
X11686000Y-10836000D02*
X11666000Y-10856000D01*
X11667412Y-10265952D02*
X11687412Y-10285952D01*
X11687412Y-10265952D02*
X11667412Y-10285952D01*
X11671000Y-10195000D02*
X11691000Y-10215000D01*
X11691000Y-10195000D02*
X11671000Y-10215000D01*
X11674270Y-8053840D02*
X11694270Y-8073840D01*
X11694270Y-8053840D02*
X11674270Y-8073840D01*
X11686000Y-7574000D02*
X11706000Y-7594000D01*
X11706000Y-7574000D02*
X11686000Y-7594000D01*
X11692349Y-8433000D02*
X11712349Y-8453000D01*
X11712349Y-8433000D02*
X11692349Y-8453000D01*
X11711000Y-8779171D02*
X11731000Y-8799171D01*
X11731000Y-8779171D02*
X11711000Y-8799171D01*
X11711000Y-9495001D02*
X11731000Y-9515001D01*
X11731000Y-9495001D02*
X11711000Y-9515001D01*
X11711000Y-9575002D02*
X11731000Y-9595002D01*
X11731000Y-9575002D02*
X11711000Y-9595002D01*
X11711000Y-10135000D02*
X11731000Y-10155000D01*
X11731000Y-10135000D02*
X11711000Y-10155000D01*
X11714000Y-8544000D02*
X11734000Y-8564000D01*
X11734000Y-8544000D02*
X11714000Y-8564000D01*
X11729000Y-7532000D02*
X11749000Y-7552000D01*
X11749000Y-7532000D02*
X11729000Y-7552000D01*
X11743999Y-7999540D02*
X11763999Y-8019540D01*
X11763999Y-7999540D02*
X11743999Y-8019540D01*
X11750000Y-7940000D02*
X11770000Y-7960000D01*
X11770000Y-7940000D02*
X11750000Y-7960000D01*
X11771355Y-7492999D02*
X11791355Y-7512999D01*
X11791355Y-7492999D02*
X11771355Y-7512999D01*
X11782598Y-8576523D02*
X11802598Y-8596523D01*
X11802598Y-8576523D02*
X11782598Y-8596523D01*
X11785000Y-7303000D02*
X11805000Y-7323000D01*
X11805000Y-7303000D02*
X11785000Y-7323000D01*
X11791000Y-8775000D02*
X11811000Y-8795000D01*
X11811000Y-8775000D02*
X11791000Y-8795000D01*
X11791000Y-9095000D02*
X11811000Y-9115000D01*
X11811000Y-9095000D02*
X11791000Y-9115000D01*
X11791000Y-9495000D02*
X11811000Y-9515000D01*
X11811000Y-9495000D02*
X11791000Y-9515000D01*
X11791000Y-9575000D02*
X11811000Y-9595000D01*
X11811000Y-9575000D02*
X11791000Y-9595000D01*
X11791000Y-9975000D02*
X11811000Y-9995000D01*
X11811000Y-9975000D02*
X11791000Y-9995000D01*
X11791000Y-10135000D02*
X11811000Y-10155000D01*
X11811000Y-10135000D02*
X11791000Y-10155000D01*
X11792297Y-10271391D02*
X11812297Y-10291391D01*
X11812297Y-10271391D02*
X11792297Y-10291391D01*
X11806696Y-7896304D02*
X11826696Y-7916304D01*
X11826696Y-7896304D02*
X11806696Y-7916304D01*
X11831724Y-10312664D02*
X11851724Y-10332664D01*
X11851724Y-10312664D02*
X11831724Y-10332664D01*
X11840000Y-7989000D02*
X11860000Y-8009000D01*
X11860000Y-7989000D02*
X11840000Y-8009000D01*
X11845304Y-7857696D02*
X11865304Y-7877696D01*
X11865304Y-7857696D02*
X11845304Y-7877696D01*
X11853000Y-7743000D02*
X11873000Y-7763000D01*
X11873000Y-7743000D02*
X11853000Y-7763000D01*
X11858536Y-8861046D02*
X11878536Y-8881046D01*
X11878536Y-8861046D02*
X11858536Y-8881046D01*
X11860696Y-7805304D02*
X11880696Y-7825304D01*
X11880696Y-7805304D02*
X11860696Y-7825304D01*
X11868000Y-8934000D02*
X11888000Y-8954000D01*
X11888000Y-8934000D02*
X11868000Y-8954000D01*
X11869215Y-8774215D02*
X11889215Y-8794215D01*
X11889215Y-8774215D02*
X11869215Y-8794215D01*
X11870000Y-8696000D02*
X11890000Y-8716000D01*
X11890000Y-8696000D02*
X11870000Y-8716000D01*
X11871000Y-9095000D02*
X11891000Y-9115000D01*
X11891000Y-9095000D02*
X11871000Y-9115000D01*
X11871000Y-9255000D02*
X11891000Y-9275000D01*
X11891000Y-9255000D02*
X11871000Y-9275000D01*
X11871000Y-9575000D02*
X11891000Y-9595000D01*
X11891000Y-9575000D02*
X11871000Y-9595000D01*
X11871000Y-9975000D02*
X11891000Y-9995000D01*
X11891000Y-9975000D02*
X11871000Y-9995000D01*
X11871100Y-9894325D02*
X11891100Y-9914325D01*
X11891100Y-9894325D02*
X11871100Y-9914325D01*
X11888869Y-10848206D02*
X11908869Y-10868206D01*
X11908869Y-10848206D02*
X11888869Y-10868206D01*
X11891258Y-10974791D02*
X11911258Y-10994791D01*
X11911258Y-10974791D02*
X11891258Y-10994791D01*
X11906000Y-7303000D02*
X11926000Y-7323000D01*
X11926000Y-7303000D02*
X11906000Y-7323000D01*
X11929209Y-10885002D02*
X11949209Y-10905002D01*
X11949209Y-10885002D02*
X11929209Y-10905002D01*
X11929691Y-8488840D02*
X11949691Y-8508840D01*
X11949691Y-8488840D02*
X11929691Y-8508840D01*
X11945724Y-10979858D02*
X11965724Y-10999858D01*
X11965724Y-10979858D02*
X11945724Y-10999858D01*
X11948640Y-9095000D02*
X11968640Y-9115000D01*
X11968640Y-9095000D02*
X11948640Y-9115000D01*
X11949326Y-9974716D02*
X11969326Y-9994716D01*
X11969326Y-9974716D02*
X11949326Y-9994716D01*
X11950000Y-8856000D02*
X11970000Y-8876000D01*
X11970000Y-8856000D02*
X11950000Y-8876000D01*
X11950505Y-8771302D02*
X11970505Y-8791302D01*
X11970505Y-8771302D02*
X11950505Y-8791302D01*
X11951000Y-8935000D02*
X11971000Y-8955000D01*
X11971000Y-8935000D02*
X11951000Y-8955000D01*
X11951000Y-9415000D02*
X11971000Y-9435000D01*
X11971000Y-9415000D02*
X11951000Y-9435000D01*
X11951000Y-9894715D02*
X11971000Y-9914715D01*
X11971000Y-9894715D02*
X11951000Y-9914715D01*
X11955115Y-10243115D02*
X11975115Y-10263115D01*
X11975115Y-10243115D02*
X11955115Y-10263115D01*
X11958000Y-9774000D02*
X11978000Y-9794000D01*
X11978000Y-9774000D02*
X11958000Y-9794000D01*
X11962527Y-10301995D02*
X11982527Y-10321995D01*
X11982527Y-10301995D02*
X11962527Y-10321995D01*
X11970000Y-7708000D02*
X11990000Y-7728000D01*
X11990000Y-7708000D02*
X11970000Y-7728000D01*
X11970001Y-10847960D02*
X11990001Y-10867960D01*
X11990001Y-10847960D02*
X11970001Y-10867960D01*
X11984262Y-8490654D02*
X12004262Y-8510654D01*
X12004262Y-8490654D02*
X11984262Y-8510654D01*
X11988276Y-10941776D02*
X12008276Y-10961776D01*
X12008276Y-10941776D02*
X11988276Y-10961776D01*
X12002023Y-7257190D02*
X12022023Y-7277190D01*
X12022023Y-7257190D02*
X12002023Y-7277190D01*
X12008000Y-9750000D02*
X12028000Y-9770000D01*
X12028000Y-9750000D02*
X12008000Y-9770000D01*
X12009000Y-8602000D02*
X12029000Y-8622000D01*
X12029000Y-8602000D02*
X12009000Y-8622000D01*
X12021115Y-7485115D02*
X12041115Y-7505115D01*
X12041115Y-7485115D02*
X12021115Y-7505115D01*
X12024536Y-10857003D02*
X12044536Y-10877003D01*
X12044536Y-10857003D02*
X12024536Y-10877003D01*
X12026149Y-8854009D02*
X12046149Y-8874009D01*
X12046149Y-8854009D02*
X12026149Y-8874009D01*
X12026534Y-10980872D02*
X12046534Y-11000872D01*
X12046534Y-10980872D02*
X12026534Y-11000872D01*
X12030656Y-8776760D02*
X12050656Y-8796760D01*
X12050656Y-8776760D02*
X12030656Y-8796760D01*
X12031000Y-9575000D02*
X12051000Y-9595000D01*
X12051000Y-9575000D02*
X12031000Y-9595000D01*
X12031000Y-9175000D02*
X12051000Y-9195000D01*
X12051000Y-9175000D02*
X12031000Y-9195000D01*
X12031000Y-9255000D02*
X12051000Y-9275000D01*
X12051000Y-9255000D02*
X12031000Y-9275000D01*
X12032261Y-9335999D02*
X12052261Y-9355999D01*
X12052261Y-9335999D02*
X12032261Y-9355999D01*
X12035941Y-9095613D02*
X12055941Y-9115613D01*
X12055941Y-9095613D02*
X12035941Y-9115613D01*
X12040307Y-9419378D02*
X12060307Y-9439378D01*
X12060307Y-9419378D02*
X12040307Y-9439378D01*
X12040870Y-7295560D02*
X12060870Y-7315560D01*
X12060870Y-7295560D02*
X12040870Y-7315560D01*
X12046229Y-8186751D02*
X12066229Y-8206751D01*
X12066229Y-8186751D02*
X12046229Y-8206751D01*
X12050174Y-10634486D02*
X12070174Y-10654486D01*
X12070174Y-10634486D02*
X12050174Y-10654486D01*
X12064885Y-7528885D02*
X12084885Y-7548885D01*
X12084885Y-7528885D02*
X12064885Y-7548885D01*
X12066544Y-10939001D02*
X12086544Y-10959001D01*
X12086544Y-10939001D02*
X12066544Y-10959001D01*
X12080000Y-10859000D02*
X12100000Y-10879000D01*
X12100000Y-10859000D02*
X12080000Y-10879000D01*
X12082951Y-10693301D02*
X12102951Y-10713301D01*
X12102951Y-10693301D02*
X12082951Y-10713301D01*
X12091147Y-10355274D02*
X12111147Y-10375274D01*
X12111147Y-10355274D02*
X12091147Y-10375274D01*
X12096790Y-8207364D02*
X12116790Y-8227364D01*
X12116790Y-8207364D02*
X12096790Y-8227364D01*
X12100000Y-8021960D02*
X12120000Y-8041960D01*
X12120000Y-8021960D02*
X12100000Y-8041960D01*
X12106150Y-8855533D02*
X12126150Y-8875533D01*
X12126150Y-8855533D02*
X12106150Y-8875533D01*
X12106586Y-10980585D02*
X12126586Y-11000585D01*
X12126586Y-10980585D02*
X12106586Y-11000585D01*
X12107999Y-10132121D02*
X12127999Y-10152121D01*
X12127999Y-10132121D02*
X12107999Y-10152121D01*
X12108999Y-10055426D02*
X12128999Y-10075426D01*
X12128999Y-10055426D02*
X12108999Y-10075426D01*
X12109999Y-9416069D02*
X12129999Y-9436069D01*
X12129999Y-9416069D02*
X12109999Y-9436069D01*
X12110070Y-9897639D02*
X12130070Y-9917639D01*
X12130070Y-9897639D02*
X12110070Y-9917639D01*
X12111000Y-9015000D02*
X12131000Y-9035000D01*
X12131000Y-9015000D02*
X12111000Y-9035000D01*
X12111873Y-8937697D02*
X12131873Y-8957697D01*
X12131873Y-8937697D02*
X12111873Y-8957697D01*
X12125143Y-7257080D02*
X12145143Y-7277080D01*
X12145143Y-7257080D02*
X12125143Y-7277080D01*
X12137824Y-10250001D02*
X12157824Y-10270001D01*
X12157824Y-10250001D02*
X12137824Y-10270001D01*
X12137934Y-8544535D02*
X12157934Y-8564535D01*
X12157934Y-8544535D02*
X12137934Y-8564535D01*
X12145000Y-7575000D02*
X12165000Y-7595000D01*
X12165000Y-7575000D02*
X12145000Y-7595000D01*
X12157656Y-8411494D02*
X12177656Y-8431494D01*
X12177656Y-8411494D02*
X12157656Y-8431494D01*
X12159505Y-10967139D02*
X12179505Y-10987139D01*
X12179505Y-10967139D02*
X12159505Y-10987139D01*
X12161715Y-8475285D02*
X12181715Y-8495285D01*
X12181715Y-8475285D02*
X12161715Y-8495285D01*
X12163569Y-7295870D02*
X12183569Y-7315870D01*
X12183569Y-7295870D02*
X12163569Y-7315870D01*
X12186994Y-8935000D02*
X12206994Y-8955000D01*
X12206994Y-8935000D02*
X12186994Y-8955000D01*
X12187674Y-9579001D02*
X12207674Y-9599001D01*
X12207674Y-9579001D02*
X12187674Y-9599001D01*
X12188699Y-9254001D02*
X12208699Y-9274001D01*
X12208699Y-9254001D02*
X12188699Y-9274001D01*
X12190331Y-9655855D02*
X12210331Y-9675855D01*
X12210331Y-9655855D02*
X12190331Y-9675855D01*
X12190771Y-10263340D02*
X12210771Y-10283340D01*
X12210771Y-10263340D02*
X12190771Y-10283340D01*
X12191000Y-9015000D02*
X12211000Y-9035000D01*
X12211000Y-9015000D02*
X12191000Y-9035000D01*
X12191000Y-9095000D02*
X12211000Y-9115000D01*
X12211000Y-9095000D02*
X12191000Y-9115000D01*
X12191000Y-9414000D02*
X12211000Y-9434000D01*
X12211000Y-9414000D02*
X12191000Y-9434000D01*
X12191001Y-10056214D02*
X12211001Y-10076214D01*
X12211001Y-10056214D02*
X12191001Y-10076214D01*
X12191001Y-10135000D02*
X12211001Y-10155000D01*
X12211001Y-10135000D02*
X12191001Y-10155000D01*
X12191446Y-9334002D02*
X12211446Y-9354002D01*
X12211446Y-9334002D02*
X12191446Y-9354002D01*
X12191652Y-9976840D02*
X12211652Y-9996840D01*
X12211652Y-9976840D02*
X12191652Y-9996840D01*
X12191962Y-9498990D02*
X12211962Y-9518990D01*
X12211962Y-9498990D02*
X12191962Y-9518990D01*
X12192561Y-9892427D02*
X12212561Y-9912427D01*
X12212561Y-9892427D02*
X12192561Y-9912427D01*
X12194097Y-9735906D02*
X12214097Y-9755906D01*
X12214097Y-9735906D02*
X12194097Y-9755906D01*
X12201767Y-10927736D02*
X12221767Y-10947736D01*
X12221767Y-10927736D02*
X12201767Y-10947736D01*
X12237402Y-10836000D02*
X12257402Y-10856000D01*
X12257402Y-10836000D02*
X12237402Y-10856000D01*
X12241990Y-10890811D02*
X12261990Y-10910811D01*
X12261990Y-10890811D02*
X12241990Y-10910811D01*
X12264908Y-10981273D02*
X12284908Y-11001273D01*
X12284908Y-10981273D02*
X12264908Y-11001273D01*
X12266833Y-9014929D02*
X12286833Y-9034929D01*
X12286833Y-9014929D02*
X12266833Y-9034929D01*
X12267336Y-9254472D02*
X12287336Y-9274472D01*
X12287336Y-9254472D02*
X12267336Y-9274472D01*
X12269000Y-9176000D02*
X12289000Y-9196000D01*
X12289000Y-9176000D02*
X12269000Y-9196000D01*
X12270001Y-8933401D02*
X12290001Y-8953401D01*
X12290001Y-8933401D02*
X12270001Y-8953401D01*
X12270423Y-9898609D02*
X12290423Y-9918609D01*
X12290423Y-9898609D02*
X12270423Y-9918609D01*
X12270772Y-10263865D02*
X12290772Y-10283865D01*
X12290772Y-10263865D02*
X12270772Y-10283865D01*
X12271000Y-9095000D02*
X12291000Y-9115000D01*
X12291000Y-9095000D02*
X12271000Y-9115000D01*
X12271950Y-10054977D02*
X12291950Y-10074977D01*
X12291950Y-10054977D02*
X12271950Y-10074977D01*
X12271964Y-9496104D02*
X12291964Y-9516104D01*
X12291964Y-9496104D02*
X12271964Y-9516104D01*
X12271999Y-9973000D02*
X12291999Y-9993000D01*
X12291999Y-9973000D02*
X12271999Y-9993000D01*
X12274001Y-9414000D02*
X12294001Y-9434000D01*
X12294001Y-9414000D02*
X12274001Y-9434000D01*
X12275001Y-9649113D02*
X12295001Y-9669113D01*
X12295001Y-9649113D02*
X12275001Y-9669113D01*
X12278481Y-7257253D02*
X12298481Y-7277253D01*
X12298481Y-7257253D02*
X12278481Y-7277253D01*
X12282970Y-10926893D02*
X12302970Y-10946893D01*
X12302970Y-10926893D02*
X12282970Y-10946893D01*
X12289278Y-10588001D02*
X12309278Y-10608001D01*
X12309278Y-10588001D02*
X12289278Y-10608001D01*
X12302732Y-8230762D02*
X12322732Y-8250762D01*
X12322732Y-8230762D02*
X12302732Y-8250762D01*
X12310773Y-10218767D02*
X12330773Y-10238767D01*
X12330773Y-10218767D02*
X12310773Y-10238767D01*
X12317304Y-7297254D02*
X12337304Y-7317254D01*
X12337304Y-7297254D02*
X12317304Y-7317254D01*
X12335000Y-8186000D02*
X12355000Y-8206000D01*
X12355000Y-8186000D02*
X12335000Y-8206000D01*
X12336621Y-10937694D02*
X12356621Y-10957694D01*
X12356621Y-10937694D02*
X12336621Y-10957694D01*
X12348000Y-9175000D02*
X12368000Y-9195000D01*
X12368000Y-9175000D02*
X12348000Y-9195000D01*
X12349000Y-9095000D02*
X12369000Y-9115000D01*
X12369000Y-9095000D02*
X12349000Y-9115000D01*
X12350000Y-8065947D02*
X12370000Y-8085947D01*
X12370000Y-8065947D02*
X12350000Y-8085947D01*
X12350000Y-8603000D02*
X12370000Y-8623000D01*
X12370000Y-8603000D02*
X12350000Y-8623000D01*
X12350000Y-8856000D02*
X12370000Y-8876000D01*
X12370000Y-8856000D02*
X12350000Y-8876000D01*
X12351000Y-8775000D02*
X12371000Y-8795000D01*
X12371000Y-8775000D02*
X12351000Y-8795000D01*
X12351000Y-9414000D02*
X12371000Y-9434000D01*
X12371000Y-9414000D02*
X12351000Y-9434000D01*
X12351951Y-10056504D02*
X12371951Y-10076504D01*
X12371951Y-10056504D02*
X12351951Y-10076504D01*
X12352001Y-9256000D02*
X12372001Y-9276000D01*
X12372001Y-9256000D02*
X12352001Y-9276000D01*
X12352001Y-9574000D02*
X12372001Y-9594000D01*
X12372001Y-9574000D02*
X12352001Y-9594000D01*
X12352285Y-9493715D02*
X12372285Y-9513715D01*
X12372285Y-9493715D02*
X12352285Y-9513715D01*
X12353633Y-9816501D02*
X12373633Y-9836501D01*
X12373633Y-9816501D02*
X12353633Y-9836501D01*
X12353785Y-9015215D02*
X12373785Y-9035215D01*
X12373785Y-9015215D02*
X12353785Y-9035215D01*
X12354000Y-9976000D02*
X12374000Y-9996000D01*
X12374000Y-9976000D02*
X12354000Y-9996000D01*
X12354561Y-8935622D02*
X12374561Y-8955622D01*
X12374561Y-8935622D02*
X12354561Y-8955622D01*
X12358084Y-7491143D02*
X12378084Y-7511143D01*
X12378084Y-7491143D02*
X12358084Y-7511143D01*
X12367946Y-8446946D02*
X12387946Y-8466946D01*
X12387946Y-8446946D02*
X12367946Y-8466946D01*
X12369562Y-10694442D02*
X12389562Y-10714442D01*
X12389562Y-10694442D02*
X12369562Y-10714442D01*
X12376904Y-10975236D02*
X12396904Y-10995236D01*
X12396904Y-10975236D02*
X12376904Y-10995236D01*
X12387000Y-8023000D02*
X12407000Y-8043000D01*
X12407000Y-8023000D02*
X12387000Y-8043000D01*
X12396941Y-7529502D02*
X12416941Y-7549502D01*
X12416941Y-7529502D02*
X12396941Y-7549502D01*
X12406554Y-8485554D02*
X12426554Y-8505554D01*
X12426554Y-8485554D02*
X12406554Y-8505554D01*
X12410624Y-10351289D02*
X12430624Y-10371289D01*
X12430624Y-10351289D02*
X12410624Y-10371289D01*
X12416175Y-10238611D02*
X12436175Y-10258611D01*
X12436175Y-10238611D02*
X12416175Y-10258611D01*
X12416623Y-10937368D02*
X12436623Y-10957368D01*
X12436623Y-10937368D02*
X12416623Y-10957368D01*
X12418113Y-10117453D02*
X12438113Y-10137453D01*
X12438113Y-10117453D02*
X12418113Y-10137453D01*
X12429999Y-10055177D02*
X12449999Y-10075177D01*
X12449999Y-10055177D02*
X12429999Y-10075177D01*
X12431000Y-8775000D02*
X12451000Y-8795000D01*
X12451000Y-8775000D02*
X12431000Y-8795000D01*
X12431000Y-9175000D02*
X12451000Y-9195000D01*
X12451000Y-9175000D02*
X12431000Y-9195000D01*
X12432104Y-8695001D02*
X12452104Y-8715001D01*
X12452104Y-8695001D02*
X12432104Y-8715001D01*
X12439000Y-10845000D02*
X12459000Y-10865000D01*
X12459000Y-10845000D02*
X12439000Y-10865000D01*
X12444783Y-10192104D02*
X12464783Y-10212104D01*
X12464783Y-10192104D02*
X12444783Y-10212104D01*
X12460000Y-7299000D02*
X12480000Y-7319000D01*
X12480000Y-7299000D02*
X12460000Y-7319000D01*
X12462283Y-10967308D02*
X12482283Y-10987308D01*
X12482283Y-10967308D02*
X12462283Y-10987308D01*
X12502507Y-7506699D02*
X12522507Y-7526699D01*
X12522507Y-7506699D02*
X12502507Y-7526699D01*
X12509000Y-10860999D02*
X12529000Y-10880999D01*
X12529000Y-10860999D02*
X12509000Y-10880999D01*
X12510000Y-8674000D02*
X12530000Y-8694000D01*
X12530000Y-8674000D02*
X12510000Y-8694000D01*
X12512689Y-10946320D02*
X12532689Y-10966320D01*
X12532689Y-10946320D02*
X12512689Y-10966320D01*
X12521000Y-7300000D02*
X12541000Y-7320000D01*
X12541000Y-7300000D02*
X12521000Y-7320000D01*
X12530406Y-10705006D02*
X12550406Y-10725006D01*
X12550406Y-10705006D02*
X12530406Y-10725006D01*
X12550816Y-7533973D02*
X12570816Y-7553973D01*
X12570816Y-7533973D02*
X12550816Y-7553973D01*
X12554000Y-8102000D02*
X12574000Y-8122000D01*
X12574000Y-8102000D02*
X12554000Y-8122000D01*
X12568000Y-8655000D02*
X12588000Y-8675000D01*
X12588000Y-8655000D02*
X12568000Y-8675000D01*
X12573878Y-10878308D02*
X12593878Y-10898308D01*
X12593878Y-10878308D02*
X12573878Y-10898308D01*
X12577831Y-10573169D02*
X12597831Y-10593169D01*
X12597831Y-10573169D02*
X12577831Y-10593169D01*
X12584815Y-10987629D02*
X12604815Y-11007629D01*
X12604815Y-10987629D02*
X12584815Y-11007629D01*
X12584942Y-10702348D02*
X12604942Y-10722348D01*
X12604942Y-10702348D02*
X12584942Y-10722348D01*
X12589175Y-10825893D02*
X12609175Y-10845893D01*
X12609175Y-10825893D02*
X12589175Y-10845893D01*
X12589383Y-8008755D02*
X12609383Y-8028755D01*
X12609383Y-8008755D02*
X12589383Y-8028755D01*
X12593950Y-9328999D02*
X12613950Y-9348999D01*
X12613950Y-9328999D02*
X12593950Y-9348999D01*
X12595407Y-9248998D02*
X12615407Y-9268998D01*
X12615407Y-9248998D02*
X12595407Y-9268998D01*
X12598446Y-9721055D02*
X12618446Y-9741055D01*
X12618446Y-9721055D02*
X12598446Y-9741055D01*
X12604005Y-7573974D02*
X12624005Y-7593974D01*
X12624005Y-7573974D02*
X12604005Y-7593974D01*
X12621000Y-8097000D02*
X12641000Y-8117000D01*
X12641000Y-8097000D02*
X12621000Y-8117000D01*
X12625000Y-7301000D02*
X12645000Y-7321000D01*
X12645000Y-7301000D02*
X12625000Y-7321000D01*
X12630000Y-8793000D02*
X12650000Y-8813000D01*
X12650000Y-8793000D02*
X12630000Y-8813000D01*
X12632387Y-8949386D02*
X12652387Y-8969386D01*
X12652387Y-8949386D02*
X12632387Y-8969386D01*
X12642354Y-10838274D02*
X12662354Y-10858274D01*
X12662354Y-10838274D02*
X12642354Y-10858274D01*
X12644686Y-9504412D02*
X12664686Y-9524412D01*
X12664686Y-9504412D02*
X12644686Y-9524412D01*
X12647009Y-9653847D02*
X12667009Y-9673847D01*
X12667009Y-9653847D02*
X12647009Y-9673847D01*
X12649512Y-7455828D02*
X12669512Y-7475828D01*
X12669512Y-7455828D02*
X12649512Y-7475828D01*
X12665570Y-10679511D02*
X12685570Y-10699511D01*
X12685570Y-10679511D02*
X12665570Y-10699511D01*
X12667000Y-10972000D02*
X12687000Y-10992000D01*
X12687000Y-10972000D02*
X12667000Y-10992000D01*
X12673951Y-9330248D02*
X12693951Y-9350248D01*
X12693951Y-9330248D02*
X12673951Y-9350248D01*
X12690598Y-9161001D02*
X12710598Y-9181001D01*
X12710598Y-9161001D02*
X12690598Y-9181001D01*
X12701000Y-7474000D02*
X12721000Y-7494000D01*
X12721000Y-7474000D02*
X12701000Y-7494000D01*
X12705000Y-10836000D02*
X12725000Y-10856000D01*
X12725000Y-10836000D02*
X12705000Y-10856000D01*
X12721589Y-10973151D02*
X12741589Y-10993151D01*
X12741589Y-10973151D02*
X12721589Y-10993151D01*
X12727993Y-10214098D02*
X12747993Y-10234098D01*
X12747993Y-10214098D02*
X12727993Y-10234098D01*
X12740845Y-9419115D02*
X12760845Y-9439115D01*
X12760845Y-9419115D02*
X12740845Y-9439115D01*
X12744636Y-10383355D02*
X12764636Y-10403355D01*
X12764636Y-10383355D02*
X12744636Y-10403355D01*
X12745000Y-7300000D02*
X12765000Y-7320000D01*
X12765000Y-7300000D02*
X12745000Y-7320000D01*
X12745000Y-7576000D02*
X12765000Y-7596000D01*
X12765000Y-7576000D02*
X12745000Y-7596000D01*
X12758415Y-9471122D02*
X12778415Y-9491122D01*
X12778415Y-9471122D02*
X12758415Y-9491122D01*
X12762215Y-10920001D02*
X12782215Y-10940001D01*
X12782215Y-10920001D02*
X12762215Y-10940001D01*
X12767950Y-10176392D02*
X12787950Y-10196392D01*
X12787950Y-10176392D02*
X12767950Y-10196392D01*
X12774850Y-7481600D02*
X12794850Y-7501600D01*
X12794850Y-7481600D02*
X12774850Y-7501600D01*
X12777000Y-10664000D02*
X12797000Y-10684000D01*
X12797000Y-10664000D02*
X12777000Y-10684000D01*
X12786000Y-11106000D02*
X12806000Y-11126000D01*
X12806000Y-11106000D02*
X12786000Y-11126000D01*
X12787000Y-9341000D02*
X12807000Y-9361000D01*
X12807000Y-9341000D02*
X12787000Y-9361000D01*
X12795333Y-10227723D02*
X12815333Y-10247723D01*
X12815333Y-10227723D02*
X12795333Y-10247723D01*
X12826000Y-10972884D02*
X12846000Y-10992884D01*
X12846000Y-10972884D02*
X12826000Y-10992884D01*
X12830000Y-9474000D02*
X12850000Y-9494000D01*
X12850000Y-9474000D02*
X12830000Y-9494000D01*
X12835000Y-10658000D02*
X12855000Y-10678000D01*
X12855000Y-10658000D02*
X12835000Y-10678000D01*
X12836750Y-7481600D02*
X12856750Y-7501600D01*
X12856750Y-7481600D02*
X12836750Y-7501600D01*
X12842205Y-8163459D02*
X12862205Y-8183459D01*
X12862205Y-8163459D02*
X12842205Y-8183459D01*
X12849934Y-10224191D02*
X12869934Y-10244191D01*
X12869934Y-10224191D02*
X12849934Y-10244191D01*
X12857905Y-10329594D02*
X12877905Y-10349594D01*
X12877905Y-10329594D02*
X12857905Y-10349594D01*
X12866000Y-7301000D02*
X12886000Y-7321000D01*
X12886000Y-7301000D02*
X12866000Y-7321000D01*
X12867000Y-10836000D02*
X12887000Y-10856000D01*
X12887000Y-10836000D02*
X12867000Y-10856000D01*
X12877639Y-7563319D02*
X12897639Y-7583319D01*
X12897639Y-7563319D02*
X12877639Y-7583319D01*
X12882206Y-8118499D02*
X12902206Y-8138499D01*
X12902206Y-8118499D02*
X12882206Y-8138499D01*
X12895318Y-7478036D02*
X12915318Y-7498036D01*
X12915318Y-7478036D02*
X12895318Y-7498036D01*
X12902804Y-10658197D02*
X12922804Y-10678197D01*
X12922804Y-10658197D02*
X12902804Y-10678197D01*
X12905000Y-10973000D02*
X12925000Y-10993000D01*
X12925000Y-10973000D02*
X12905000Y-10993000D01*
X12928000Y-8032700D02*
X12948000Y-8052700D01*
X12948000Y-8032700D02*
X12928000Y-8052700D01*
X12928000Y-8087300D02*
X12948000Y-8107300D01*
X12948000Y-8087300D02*
X12928000Y-8107300D01*
X12932957Y-10329556D02*
X12952957Y-10349556D01*
X12952957Y-10329556D02*
X12932957Y-10349556D01*
X12949001Y-10916000D02*
X12969001Y-10936000D01*
X12969001Y-10916000D02*
X12949001Y-10936000D01*
X12956035Y-10670355D02*
X12976035Y-10690355D01*
X12976035Y-10670355D02*
X12956035Y-10690355D01*
X12957834Y-7465810D02*
X12977834Y-7485810D01*
X12977834Y-7465810D02*
X12957834Y-7485810D01*
X12986000Y-7303000D02*
X13006000Y-7323000D01*
X13006000Y-7303000D02*
X12986000Y-7323000D01*
X12993398Y-7576051D02*
X13013398Y-7596051D01*
X13013398Y-7576051D02*
X12993398Y-7596051D01*
X12994003Y-10301502D02*
X13014003Y-10321502D01*
X13014003Y-10301502D02*
X12994003Y-10321502D01*
X13012901Y-7447150D02*
X13032901Y-7467150D01*
X13032901Y-7447150D02*
X13012901Y-7467150D01*
X13015000Y-8131000D02*
X13035000Y-8151000D01*
X13035000Y-8131000D02*
X13015000Y-8151000D01*
X13015000Y-10515000D02*
X13035000Y-10535000D01*
X13035000Y-10515000D02*
X13015000Y-10535000D01*
X13023000Y-10671205D02*
X13043000Y-10691205D01*
X13043000Y-10671205D02*
X13023000Y-10691205D01*
X13024000Y-10916000D02*
X13044000Y-10936000D01*
X13044000Y-10916000D02*
X13024000Y-10936000D01*
X13046006Y-10318147D02*
X13066006Y-10338147D01*
X13066006Y-10318147D02*
X13046006Y-10338147D01*
X13066000Y-10702000D02*
X13086000Y-10722000D01*
X13086000Y-10702000D02*
X13066000Y-10722000D01*
X13067610Y-7425583D02*
X13087610Y-7445583D01*
X13087610Y-7425583D02*
X13067610Y-7445583D01*
X13093000Y-10275000D02*
X13113000Y-10295000D01*
X13113000Y-10275000D02*
X13093000Y-10295000D01*
X13101000Y-7703000D02*
X13121000Y-7723000D01*
X13121000Y-7703000D02*
X13101000Y-7723000D01*
X13106000Y-10916000D02*
X13126000Y-10936000D01*
X13126000Y-10916000D02*
X13106000Y-10936000D01*
X13107000Y-7300000D02*
X13127000Y-7320000D01*
X13127000Y-7300000D02*
X13107000Y-7320000D01*
X13118000Y-10701000D02*
X13138000Y-10721000D01*
X13138000Y-10701000D02*
X13118000Y-10721000D01*
X13145330Y-10376299D02*
X13165330Y-10396299D01*
X13165330Y-10376299D02*
X13145330Y-10396299D01*
X13153050Y-7462950D02*
X13173050Y-7482950D01*
X13173050Y-7462950D02*
X13153050Y-7482950D01*
X13199256Y-10314454D02*
X13219256Y-10334454D01*
X13219256Y-10314454D02*
X13199256Y-10334454D01*
X13207696Y-8073696D02*
X13227696Y-8093696D01*
X13227696Y-8073696D02*
X13207696Y-8093696D01*
X13219593Y-7438554D02*
X13239593Y-7458554D01*
X13239593Y-7438554D02*
X13219593Y-7458554D01*
X13225000Y-7303000D02*
X13245000Y-7323000D01*
X13245000Y-7303000D02*
X13225000Y-7323000D01*
X13226491Y-7691949D02*
X13246491Y-7711949D01*
X13246491Y-7691949D02*
X13226491Y-7711949D01*
X13246304Y-8112304D02*
X13266304Y-8132304D01*
X13266304Y-8112304D02*
X13246304Y-8132304D01*
X13265000Y-10676000D02*
X13285000Y-10696000D01*
X13285000Y-10676000D02*
X13265000Y-10696000D01*
X13293000Y-8987000D02*
X13313000Y-9007000D01*
X13313000Y-8987000D02*
X13293000Y-9007000D01*
X13307292Y-10407496D02*
X13327292Y-10427496D01*
X13327292Y-10407496D02*
X13307292Y-10427496D01*
X13308000Y-9659000D02*
X13328000Y-9679000D01*
X13328000Y-9659000D02*
X13308000Y-9679000D01*
X13338000Y-8150000D02*
X13358000Y-8170000D01*
X13358000Y-8150000D02*
X13338000Y-8170000D01*
X13339215Y-8092215D02*
X13359215Y-8112215D01*
X13359215Y-8092215D02*
X13339215Y-8112215D01*
X13343535Y-7700271D02*
X13363535Y-7720271D01*
X13363535Y-7700271D02*
X13343535Y-7720271D01*
X13346000Y-10836000D02*
X13366000Y-10856000D01*
X13366000Y-10836000D02*
X13346000Y-10856000D01*
X13346000Y-11107000D02*
X13366000Y-11127000D01*
X13366000Y-11107000D02*
X13346000Y-11127000D01*
X13375000Y-9930000D02*
X13395000Y-9950000D01*
X13395000Y-9930000D02*
X13375000Y-9950000D01*
X13384681Y-9503690D02*
X13404681Y-9523690D01*
X13404681Y-9503690D02*
X13384681Y-9523690D01*
X13386000Y-10702000D02*
X13406000Y-10722000D01*
X13406000Y-10702000D02*
X13386000Y-10722000D01*
X13495000Y-7395000D02*
X13515000Y-7415000D01*
X13515000Y-7395000D02*
X13495000Y-7415000D01*
X13522180Y-7347587D02*
X13542180Y-7367587D01*
X13542180Y-7347587D02*
X13522180Y-7367587D01*
X13578884Y-7701298D02*
X13598884Y-7721298D01*
X13598884Y-7701298D02*
X13578884Y-7721298D01*
X13661717Y-9186757D02*
X13681717Y-9206757D01*
X13681717Y-9186757D02*
X13661717Y-9206757D01*
X13682000Y-9381000D02*
X13702000Y-9401000D01*
X13702000Y-9381000D02*
X13682000Y-9401000D01*
X13702080Y-9504908D02*
X13722080Y-9524908D01*
X13722080Y-9504908D02*
X13702080Y-9524908D01*
X13708000Y-9026000D02*
X13728000Y-9046000D01*
X13728000Y-9026000D02*
X13708000Y-9046000D01*
X13711000Y-7926000D02*
X13731000Y-7946000D01*
X13731000Y-7926000D02*
X13711000Y-7946000D01*
X13730616Y-7684469D02*
X13750616Y-7704469D01*
X13750616Y-7684469D02*
X13730616Y-7704469D01*
X13741718Y-9193833D02*
X13761718Y-9213833D01*
X13761718Y-9193833D02*
X13741718Y-9213833D01*
X13744000Y-7584000D02*
X13764000Y-7604000D01*
X13764000Y-7584000D02*
X13744000Y-7604000D01*
X13749683Y-7378433D02*
X13769683Y-7398433D01*
X13769683Y-7378433D02*
X13749683Y-7398433D01*
X13769224Y-7723078D02*
X13789224Y-7743078D01*
X13789224Y-7723078D02*
X13769224Y-7743078D01*
X13773000Y-9423008D02*
X13793000Y-9443008D01*
X13793000Y-9423008D02*
X13773000Y-9443008D01*
X13777000Y-9370000D02*
X13797000Y-9390000D01*
X13797000Y-9370000D02*
X13777000Y-9390000D01*
X13785000Y-7789999D02*
X13805000Y-7809999D01*
X13805000Y-7789999D02*
X13785000Y-7809999D01*
X13785000Y-7844599D02*
X13805000Y-7864599D01*
X13805000Y-7844599D02*
X13785000Y-7864599D01*
X13789000Y-9503000D02*
X13809000Y-9523000D01*
X13809000Y-9503000D02*
X13789000Y-9523000D01*
X13800390Y-7608001D02*
X13820390Y-7628001D01*
X13820390Y-7608001D02*
X13800390Y-7628001D01*
X13804000Y-7384000D02*
X13824000Y-7404000D01*
X13824000Y-7384000D02*
X13804000Y-7404000D01*
X13806696Y-8020696D02*
X13826696Y-8040696D01*
X13826696Y-8020696D02*
X13806696Y-8040696D01*
X13821719Y-9193559D02*
X13841719Y-9213559D01*
X13841719Y-9193559D02*
X13821719Y-9213559D01*
X13841000Y-11084700D02*
X13861000Y-11104700D01*
X13861000Y-11084700D02*
X13841000Y-11104700D01*
X13841000Y-11139300D02*
X13861000Y-11159300D01*
X13861000Y-11139300D02*
X13841000Y-11159300D01*
X13845304Y-8059304D02*
X13865304Y-8079304D01*
X13865304Y-8059304D02*
X13845304Y-8079304D01*
X13862696Y-11013304D02*
X13882696Y-11033304D01*
X13882696Y-11013304D02*
X13862696Y-11033304D01*
X13866000Y-9024000D02*
X13886000Y-9044000D01*
X13886000Y-9024000D02*
X13866000Y-9044000D01*
X13866712Y-9588718D02*
X13886712Y-9608718D01*
X13886712Y-9588718D02*
X13866712Y-9608718D01*
X13867000Y-8943000D02*
X13887000Y-8963000D01*
X13887000Y-8943000D02*
X13867000Y-8963000D01*
X13867000Y-9506999D02*
X13887000Y-9526999D01*
X13887000Y-9506999D02*
X13867000Y-9526999D01*
X13877000Y-9294000D02*
X13897000Y-9314000D01*
X13897000Y-9294000D02*
X13877000Y-9314000D01*
X13901304Y-10974696D02*
X13921304Y-10994696D01*
X13921304Y-10974696D02*
X13901304Y-10994696D01*
X13907000Y-9181999D02*
X13927000Y-9201999D01*
X13927000Y-9181999D02*
X13907000Y-9201999D01*
X13910000Y-10776500D02*
X13930000Y-10796500D01*
X13930000Y-10776500D02*
X13910000Y-10796500D01*
X13920000Y-10489000D02*
X13940000Y-10509000D01*
X13940000Y-10489000D02*
X13920000Y-10509000D01*
X13920000Y-10326500D02*
X13940000Y-10346500D01*
X13940000Y-10326500D02*
X13920000Y-10346500D01*
X13942754Y-9505500D02*
X13962754Y-9525500D01*
X13962754Y-9505500D02*
X13942754Y-9525500D01*
X13947000Y-9028000D02*
X13967000Y-9048000D01*
X13967000Y-9028000D02*
X13947000Y-9048000D01*
X13948813Y-9583184D02*
X13968813Y-9603184D01*
X13968813Y-9583184D02*
X13948813Y-9603184D01*
X13982500Y-10386500D02*
X14002500Y-10406500D01*
X14002500Y-10386500D02*
X13982500Y-10406500D01*
X13987001Y-9188392D02*
X14007001Y-9208392D01*
X14007001Y-9188392D02*
X13987001Y-9208392D01*
X14030000Y-9585000D02*
X14050000Y-9605000D01*
X14050000Y-9585000D02*
X14030000Y-9605000D01*
X14030999Y-8985000D02*
X14050999Y-9005000D01*
X14050999Y-8985000D02*
X14030999Y-9005000D01*
X14041000Y-9467000D02*
X14061000Y-9487000D01*
X14061000Y-9467000D02*
X14041000Y-9487000D01*
X14044696Y-11016304D02*
X14064696Y-11036304D01*
X14064696Y-11016304D02*
X14044696Y-11036304D01*
X14071196Y-7699804D02*
X14091196Y-7719804D01*
X14091196Y-7699804D02*
X14071196Y-7719804D01*
X14075735Y-7819080D02*
X14095735Y-7839080D01*
X14095735Y-7819080D02*
X14075735Y-7839080D01*
X14083304Y-10977696D02*
X14103304Y-10997696D01*
X14103304Y-10977696D02*
X14083304Y-10997696D01*
X14109804Y-7661196D02*
X14129804Y-7681196D01*
X14129804Y-7661196D02*
X14109804Y-7681196D01*
X14115735Y-7780265D02*
X14135735Y-7800265D01*
X14135735Y-7780265D02*
X14115735Y-7800265D01*
X14132696Y-7558304D02*
X14152696Y-7578304D01*
X14152696Y-7558304D02*
X14132696Y-7578304D01*
X14133000Y-9584000D02*
X14153000Y-9604000D01*
X14153000Y-9584000D02*
X14133000Y-9604000D01*
X14171304Y-7518999D02*
X14191304Y-7538999D01*
X14191304Y-7518999D02*
X14171304Y-7538999D01*
X14199500Y-8842500D02*
X14219500Y-8862500D01*
X14219500Y-8842500D02*
X14199500Y-8862500D01*
X14209500Y-8555000D02*
X14229500Y-8575000D01*
X14229500Y-8555000D02*
X14209500Y-8575000D01*
X14209500Y-8392500D02*
X14229500Y-8412500D01*
X14229500Y-8392500D02*
X14209500Y-8412500D01*
X14272000Y-8452500D02*
X14292000Y-8472500D01*
X14292000Y-8452500D02*
X14272000Y-8472500D01*
X14438000Y-9497000D02*
X14458000Y-9517000D01*
X14458000Y-9497000D02*
X14438000Y-9517000D01*
X9694000Y-7908000D02*
G75*
G03*
X9694000Y-7908000I-15000J0D01*
G01*
X9741500Y-8210000D02*
G75*
G03*
X9741500Y-8210000I-15000J0D01*
G01*
X9836500Y-8172500D02*
G75*
G03*
X9836500Y-8172500I-15000J0D01*
G01*
X9836500Y-8247500D02*
G75*
G03*
X9836500Y-8247500I-15000J0D01*
G01*
X9841500Y-8837500D02*
G75*
G03*
X9841500Y-8837500I-15000J0D01*
G01*
X9909000Y-8215000D02*
G75*
G03*
X9909000Y-8215000I-15000J0D01*
G01*
X9914000Y-7820000D02*
G75*
G03*
X9914000Y-7820000I-15000J0D01*
G01*
X10178000Y-11055000D02*
G75*
G03*
X10178000Y-11055000I-15000J0D01*
G01*
X10463000Y-8448000D02*
G75*
G03*
X10463000Y-8448000I-15000J0D01*
G01*
X10529000Y-7386000D02*
G75*
G03*
X10529000Y-7386000I-15000J0D01*
G01*
X10529000Y-8412000D02*
G75*
G03*
X10529000Y-8412000I-15000J0D01*
G01*
X10540000Y-8658000D02*
G75*
G03*
X10540000Y-8658000I-15000J0D01*
G01*
X12256001Y-10364262D02*
G75*
G03*
X12256001Y-10364262I-15000J0D01*
G01*
X12905230Y-10481051D02*
G75*
G03*
X12905230Y-10481051I-15000J0D01*
G01*
X13597570Y-10337062D02*
G75*
G03*
X13597570Y-10337062I-15000J0D01*
G01*
X13813000Y-8373000D02*
G75*
G03*
X13813000Y-8373000I-15000J0D01*
G01*
X13814500Y-8312500D02*
G75*
G03*
X13814500Y-8312500I-15000J0D01*
G01*
X14041878Y-10788378D02*
G75*
G03*
X14041878Y-10788378I-15000J0D01*
G01*
X14072501Y-10451500D02*
G75*
G03*
X14072501Y-10451500I-15000J0D01*
G01*
X14167500Y-9824000D02*
G75*
G03*
X14167500Y-9824000I-15000J0D01*
G01*
X14172500Y-10414000D02*
G75*
G03*
X14172500Y-10414000I-15000J0D01*
G01*
X14172500Y-10489000D02*
G75*
G03*
X14172500Y-10489000I-15000J0D01*
G01*
X14189000Y-10681000D02*
G75*
G03*
X14189000Y-10681000I-15000J0D01*
G01*
X14267500Y-10451500D02*
G75*
G03*
X14267500Y-10451500I-15000J0D01*
G01*
X14342000Y-7798000D02*
G75*
G03*
X14342000Y-7798000I-15000J0D01*
G01*
X14362001Y-8517500D02*
G75*
G03*
X14362001Y-8517500I-15000J0D01*
G01*
X14384500Y-8907500D02*
G75*
G03*
X14384500Y-8907500I-15000J0D01*
G01*
X14462000Y-8480000D02*
G75*
G03*
X14462000Y-8480000I-15000J0D01*
G01*
X14462000Y-8555000D02*
G75*
G03*
X14462000Y-8555000I-15000J0D01*
G01*
X14539500Y-8907500D02*
G75*
G03*
X14539500Y-8907500I-15000J0D01*
G01*
X14557000Y-8517500D02*
G75*
G03*
X14557000Y-8517500I-15000J0D01*
G01*
X14746000Y-10232000D02*
X14746000Y-10312000D01*
X14706000Y-10272000D02*
X14786000Y-10272000D01*
X14746000Y-10432000D02*
X14746000Y-10512000D01*
X14706000Y-10472000D02*
X14786000Y-10472000D01*
X14748000Y-9720000D02*
X14748000Y-9800000D01*
X14708000Y-9760000D02*
X14788000Y-9760000D01*
X14748000Y-9920000D02*
X14748000Y-10000000D01*
X14708000Y-9960000D02*
X14788000Y-9960000D01*
X10016751Y-10616961D02*
X10016751Y-10546249D01*
X9946039Y-10546249D01*
X9946039Y-10616961D01*
X10016751Y-10616961D01*
X10196356Y-10437356D02*
X10196356Y-10366644D01*
X10125644Y-10366644D01*
X10125644Y-10437356D01*
X10196356Y-10437356D01*
X10196356Y-10796566D02*
X10196356Y-10725855D01*
X10125644Y-10725855D01*
X10125644Y-10796566D01*
X10196356Y-10796566D01*
X10375961Y-10616961D02*
X10375961Y-10546249D01*
X10305249Y-10546249D01*
X10305249Y-10616961D01*
X10375961Y-10616961D01*
X10375961Y-10976171D02*
X10375961Y-10905460D01*
X10305249Y-10905460D01*
X10305249Y-10976171D01*
X10375961Y-10976171D01*
X10555566Y-10796566D02*
X10555566Y-10725855D01*
X10484855Y-10725855D01*
X10484855Y-10796566D01*
X10555566Y-10796566D01*
X9762000Y-10982360D02*
X9872000Y-10872360D01*
X9762000Y-10762360D01*
X9652000Y-10872360D01*
X9762000Y-10982360D01*
X9762000Y-7674500D02*
X9872000Y-7564500D01*
X9762000Y-7454500D01*
X9652000Y-7564500D01*
X9762000Y-7674500D01*
X14562000Y-7674500D02*
X14672000Y-7564500D01*
X14562000Y-7454500D01*
X14452000Y-7564500D01*
X14562000Y-7674500D01*
X14562000Y-10982000D02*
X14672000Y-10872000D01*
X14562000Y-10762000D01*
X14452000Y-10872000D01*
X14562000Y-10982000D01*
D12*
X9691428Y-11685214D02*
X9691428Y-11385214D01*
X9762857Y-11385214D01*
X9805714Y-11399500D01*
X9834286Y-11428071D01*
X9848571Y-11456643D01*
X9862857Y-11513786D01*
X9862857Y-11556643D01*
X9848571Y-11613786D01*
X9834286Y-11642357D01*
X9805714Y-11670929D01*
X9762857Y-11685214D01*
X9691428Y-11685214D01*
X9991428Y-11685214D02*
X9991428Y-11485214D01*
X9991428Y-11542357D02*
X10005714Y-11513786D01*
X10020000Y-11499500D01*
X10048571Y-11485214D01*
X10077143Y-11485214D01*
X10177143Y-11685214D02*
X10177143Y-11485214D01*
X10177143Y-11385214D02*
X10162857Y-11399500D01*
X10177143Y-11413786D01*
X10191428Y-11399500D01*
X10177143Y-11385214D01*
X10177143Y-11413786D01*
X10362857Y-11685214D02*
X10334286Y-11670929D01*
X10320000Y-11642357D01*
X10320000Y-11385214D01*
X10520000Y-11685214D02*
X10491428Y-11670929D01*
X10477143Y-11642357D01*
X10477143Y-11385214D01*
X10862857Y-11685214D02*
X10862857Y-11385214D01*
X10962857Y-11599500D01*
X11062857Y-11385214D01*
X11062857Y-11685214D01*
X11334286Y-11685214D02*
X11334286Y-11528071D01*
X11320000Y-11499500D01*
X11291428Y-11485214D01*
X11234286Y-11485214D01*
X11205714Y-11499500D01*
X11334286Y-11670929D02*
X11305714Y-11685214D01*
X11234286Y-11685214D01*
X11205714Y-11670929D01*
X11191428Y-11642357D01*
X11191428Y-11613786D01*
X11205714Y-11585214D01*
X11234286Y-11570929D01*
X11305714Y-11570929D01*
X11334286Y-11556643D01*
X11477143Y-11485214D02*
X11477143Y-11785214D01*
X11477143Y-11499500D02*
X11505714Y-11485214D01*
X11562857Y-11485214D01*
X11591428Y-11499500D01*
X11605714Y-11513786D01*
X11620000Y-11542357D01*
X11620000Y-11628071D01*
X11605714Y-11656643D01*
X11591428Y-11670929D01*
X11562857Y-11685214D01*
X11505714Y-11685214D01*
X11477143Y-11670929D01*
X11748571Y-11656643D02*
X11762857Y-11670929D01*
X11748571Y-11685214D01*
X11734286Y-11670929D01*
X11748571Y-11656643D01*
X11748571Y-11685214D01*
X11748571Y-11499500D02*
X11762857Y-11513786D01*
X11748571Y-11528071D01*
X11734286Y-11513786D01*
X11748571Y-11499500D01*
X11748571Y-11528071D01*
X9385000Y-12169500D02*
X9405000Y-12189500D01*
X9405000Y-12169500D02*
X9385000Y-12189500D01*
X9748571Y-12015214D02*
X9777143Y-12015214D01*
X9805714Y-12029500D01*
X9820000Y-12043786D01*
X9834286Y-12072357D01*
X9848571Y-12129500D01*
X9848571Y-12200929D01*
X9834286Y-12258071D01*
X9820000Y-12286643D01*
X9805714Y-12300929D01*
X9777143Y-12315214D01*
X9748571Y-12315214D01*
X9720000Y-12300929D01*
X9705714Y-12286643D01*
X9691428Y-12258071D01*
X9677143Y-12200929D01*
X9677143Y-12129500D01*
X9691428Y-12072357D01*
X9705714Y-12043786D01*
X9720000Y-12029500D01*
X9748571Y-12015214D01*
X9977143Y-12286643D02*
X9991428Y-12300929D01*
X9977143Y-12315214D01*
X9962857Y-12300929D01*
X9977143Y-12286643D01*
X9977143Y-12315214D01*
X10105714Y-12043786D02*
X10120000Y-12029500D01*
X10148571Y-12015214D01*
X10220000Y-12015214D01*
X10248571Y-12029500D01*
X10262857Y-12043786D01*
X10277143Y-12072357D01*
X10277143Y-12100929D01*
X10262857Y-12143786D01*
X10091428Y-12315214D01*
X10277143Y-12315214D01*
X10462857Y-12015214D02*
X10491428Y-12015214D01*
X10520000Y-12029500D01*
X10534286Y-12043786D01*
X10548571Y-12072357D01*
X10562857Y-12129500D01*
X10562857Y-12200929D01*
X10548571Y-12258071D01*
X10534286Y-12286643D01*
X10520000Y-12300929D01*
X10491428Y-12315214D01*
X10462857Y-12315214D01*
X10434286Y-12300929D01*
X10420000Y-12286643D01*
X10405714Y-12258071D01*
X10391428Y-12200929D01*
X10391428Y-12129500D01*
X10405714Y-12072357D01*
X10420000Y-12043786D01*
X10434286Y-12029500D01*
X10462857Y-12015214D01*
X10691428Y-12315214D02*
X10691428Y-12115214D01*
X10691428Y-12143786D02*
X10705714Y-12129500D01*
X10734286Y-12115214D01*
X10777143Y-12115214D01*
X10805714Y-12129500D01*
X10820000Y-12158071D01*
X10820000Y-12315214D01*
X10820000Y-12158071D02*
X10834286Y-12129500D01*
X10862857Y-12115214D01*
X10905714Y-12115214D01*
X10934286Y-12129500D01*
X10948571Y-12158071D01*
X10948571Y-12315214D01*
X11091428Y-12315214D02*
X11091428Y-12115214D01*
X11091428Y-12143786D02*
X11105714Y-12129500D01*
X11134286Y-12115214D01*
X11177143Y-12115214D01*
X11205714Y-12129500D01*
X11220000Y-12158071D01*
X11220000Y-12315214D01*
X11220000Y-12158071D02*
X11234286Y-12129500D01*
X11262857Y-12115214D01*
X11305714Y-12115214D01*
X11334286Y-12129500D01*
X11348571Y-12158071D01*
X11348571Y-12315214D01*
X11934286Y-12000929D02*
X11677143Y-12386643D01*
X12320000Y-12015214D02*
X12348571Y-12015214D01*
X12377143Y-12029500D01*
X12391428Y-12043786D01*
X12405714Y-12072357D01*
X12420000Y-12129500D01*
X12420000Y-12200929D01*
X12405714Y-12258071D01*
X12391428Y-12286643D01*
X12377143Y-12300929D01*
X12348571Y-12315214D01*
X12320000Y-12315214D01*
X12291428Y-12300929D01*
X12277143Y-12286643D01*
X12262857Y-12258071D01*
X12248571Y-12200929D01*
X12248571Y-12129500D01*
X12262857Y-12072357D01*
X12277143Y-12043786D01*
X12291428Y-12029500D01*
X12320000Y-12015214D01*
X12548571Y-12286643D02*
X12562857Y-12300929D01*
X12548571Y-12315214D01*
X12534286Y-12300929D01*
X12548571Y-12286643D01*
X12548571Y-12315214D01*
X12748571Y-12015214D02*
X12777143Y-12015214D01*
X12805714Y-12029500D01*
X12820000Y-12043786D01*
X12834286Y-12072357D01*
X12848571Y-12129500D01*
X12848571Y-12200929D01*
X12834286Y-12258071D01*
X12820000Y-12286643D01*
X12805714Y-12300929D01*
X12777143Y-12315214D01*
X12748571Y-12315214D01*
X12720000Y-12300929D01*
X12705714Y-12286643D01*
X12691428Y-12258071D01*
X12677143Y-12200929D01*
X12677143Y-12129500D01*
X12691428Y-12072357D01*
X12705714Y-12043786D01*
X12720000Y-12029500D01*
X12748571Y-12015214D01*
X13034286Y-12015214D02*
X13062857Y-12015214D01*
X13091428Y-12029500D01*
X13105714Y-12043786D01*
X13120000Y-12072357D01*
X13134286Y-12129500D01*
X13134286Y-12200929D01*
X13120000Y-12258071D01*
X13105714Y-12286643D01*
X13091428Y-12300929D01*
X13062857Y-12315214D01*
X13034286Y-12315214D01*
X13005714Y-12300929D01*
X12991428Y-12286643D01*
X12977143Y-12258071D01*
X12962857Y-12200929D01*
X12962857Y-12129500D01*
X12977143Y-12072357D01*
X12991428Y-12043786D01*
X13005714Y-12029500D01*
X13034286Y-12015214D01*
X13305714Y-12143786D02*
X13277143Y-12129500D01*
X13262857Y-12115214D01*
X13248571Y-12086643D01*
X13248571Y-12072357D01*
X13262857Y-12043786D01*
X13277143Y-12029500D01*
X13305714Y-12015214D01*
X13362857Y-12015214D01*
X13391428Y-12029500D01*
X13405714Y-12043786D01*
X13420000Y-12072357D01*
X13420000Y-12086643D01*
X13405714Y-12115214D01*
X13391428Y-12129500D01*
X13362857Y-12143786D01*
X13305714Y-12143786D01*
X13277143Y-12158071D01*
X13262857Y-12172357D01*
X13248571Y-12200929D01*
X13248571Y-12258071D01*
X13262857Y-12286643D01*
X13277143Y-12300929D01*
X13305714Y-12315214D01*
X13362857Y-12315214D01*
X13391428Y-12300929D01*
X13405714Y-12286643D01*
X13420000Y-12258071D01*
X13420000Y-12200929D01*
X13405714Y-12172357D01*
X13391428Y-12158071D01*
X13362857Y-12143786D01*
X13534286Y-12015214D02*
X13534286Y-12072357D01*
X13648571Y-12015214D02*
X13648571Y-12072357D01*
X14091428Y-12429500D02*
X14077143Y-12415214D01*
X14048571Y-12372357D01*
X14034286Y-12343786D01*
X14020000Y-12300929D01*
X14005714Y-12229500D01*
X14005714Y-12172357D01*
X14020000Y-12100929D01*
X14034286Y-12058071D01*
X14048571Y-12029500D01*
X14077143Y-11986643D01*
X14091428Y-11972357D01*
X14334286Y-12115214D02*
X14334286Y-12315214D01*
X14262857Y-12000929D02*
X14191428Y-12215214D01*
X14377143Y-12215214D01*
X14505714Y-12315214D02*
X14562857Y-12315214D01*
X14591428Y-12300929D01*
X14605714Y-12286643D01*
X14634286Y-12243786D01*
X14648571Y-12186643D01*
X14648571Y-12072357D01*
X14634286Y-12043786D01*
X14620000Y-12029500D01*
X14591428Y-12015214D01*
X14534286Y-12015214D01*
X14505714Y-12029500D01*
X14491428Y-12043786D01*
X14477143Y-12072357D01*
X14477143Y-12143786D01*
X14491428Y-12172357D01*
X14505714Y-12186643D01*
X14534286Y-12200929D01*
X14591428Y-12200929D01*
X14620000Y-12186643D01*
X14634286Y-12172357D01*
X14648571Y-12143786D01*
X14834286Y-12015214D02*
X14862857Y-12015214D01*
X14891428Y-12029500D01*
X14905714Y-12043786D01*
X14920000Y-12072357D01*
X14934286Y-12129500D01*
X14934286Y-12200929D01*
X14920000Y-12258071D01*
X14905714Y-12286643D01*
X14891428Y-12300929D01*
X14862857Y-12315214D01*
X14834286Y-12315214D01*
X14805714Y-12300929D01*
X14791428Y-12286643D01*
X14777143Y-12258071D01*
X14762857Y-12200929D01*
X14762857Y-12129500D01*
X14777143Y-12072357D01*
X14791428Y-12043786D01*
X14805714Y-12029500D01*
X14834286Y-12015214D01*
X15291428Y-12315214D02*
X15291428Y-12015214D01*
X15420000Y-12315214D02*
X15420000Y-12158071D01*
X15405714Y-12129500D01*
X15377143Y-12115214D01*
X15334286Y-12115214D01*
X15305714Y-12129500D01*
X15291428Y-12143786D01*
X15605714Y-12315214D02*
X15577143Y-12300929D01*
X15562857Y-12286643D01*
X15548571Y-12258071D01*
X15548571Y-12172357D01*
X15562857Y-12143786D01*
X15577143Y-12129500D01*
X15605714Y-12115214D01*
X15648571Y-12115214D01*
X15677143Y-12129500D01*
X15691428Y-12143786D01*
X15705714Y-12172357D01*
X15705714Y-12258071D01*
X15691428Y-12286643D01*
X15677143Y-12300929D01*
X15648571Y-12315214D01*
X15605714Y-12315214D01*
X15877143Y-12315214D02*
X15848571Y-12300929D01*
X15834286Y-12272357D01*
X15834286Y-12015214D01*
X16105714Y-12300929D02*
X16077143Y-12315214D01*
X16020000Y-12315214D01*
X15991428Y-12300929D01*
X15977143Y-12272357D01*
X15977143Y-12158071D01*
X15991428Y-12129500D01*
X16020000Y-12115214D01*
X16077143Y-12115214D01*
X16105714Y-12129500D01*
X16120000Y-12158071D01*
X16120000Y-12186643D01*
X15977143Y-12215214D01*
X16234286Y-12300929D02*
X16262857Y-12315214D01*
X16320000Y-12315214D01*
X16348571Y-12300929D01*
X16362857Y-12272357D01*
X16362857Y-12258071D01*
X16348571Y-12229500D01*
X16320000Y-12215214D01*
X16277143Y-12215214D01*
X16248571Y-12200929D01*
X16234286Y-12172357D01*
X16234286Y-12158071D01*
X16248571Y-12129500D01*
X16277143Y-12115214D01*
X16320000Y-12115214D01*
X16348571Y-12129500D01*
X16462857Y-12429500D02*
X16477143Y-12415214D01*
X16505714Y-12372357D01*
X16520000Y-12343786D01*
X16534286Y-12300929D01*
X16548571Y-12229500D01*
X16548571Y-12172357D01*
X16534286Y-12100929D01*
X16520000Y-12058071D01*
X16505714Y-12029500D01*
X16477143Y-11986643D01*
X16462857Y-11972357D01*
X9405000Y-12575500D02*
G75*
G03*
X9405000Y-12575500I-15000J0D01*
G01*
X9748571Y-12411214D02*
X9777143Y-12411214D01*
X9805714Y-12425500D01*
X9820000Y-12439786D01*
X9834286Y-12468357D01*
X9848571Y-12525500D01*
X9848571Y-12596929D01*
X9834286Y-12654071D01*
X9820000Y-12682643D01*
X9805714Y-12696929D01*
X9777143Y-12711214D01*
X9748571Y-12711214D01*
X9720000Y-12696929D01*
X9705714Y-12682643D01*
X9691428Y-12654071D01*
X9677143Y-12596929D01*
X9677143Y-12525500D01*
X9691428Y-12468357D01*
X9705714Y-12439786D01*
X9720000Y-12425500D01*
X9748571Y-12411214D01*
X9977143Y-12682643D02*
X9991428Y-12696929D01*
X9977143Y-12711214D01*
X9962857Y-12696929D01*
X9977143Y-12682643D01*
X9977143Y-12711214D01*
X10091428Y-12411214D02*
X10277143Y-12411214D01*
X10177143Y-12525500D01*
X10220000Y-12525500D01*
X10248571Y-12539786D01*
X10262857Y-12554071D01*
X10277143Y-12582643D01*
X10277143Y-12654071D01*
X10262857Y-12682643D01*
X10248571Y-12696929D01*
X10220000Y-12711214D01*
X10134286Y-12711214D01*
X10105714Y-12696929D01*
X10091428Y-12682643D01*
X10462857Y-12411214D02*
X10491428Y-12411214D01*
X10520000Y-12425500D01*
X10534286Y-12439786D01*
X10548571Y-12468357D01*
X10562857Y-12525500D01*
X10562857Y-12596929D01*
X10548571Y-12654071D01*
X10534286Y-12682643D01*
X10520000Y-12696929D01*
X10491428Y-12711214D01*
X10462857Y-12711214D01*
X10434286Y-12696929D01*
X10420000Y-12682643D01*
X10405714Y-12654071D01*
X10391428Y-12596929D01*
X10391428Y-12525500D01*
X10405714Y-12468357D01*
X10420000Y-12439786D01*
X10434286Y-12425500D01*
X10462857Y-12411214D01*
X10691428Y-12711214D02*
X10691428Y-12511214D01*
X10691428Y-12539786D02*
X10705714Y-12525500D01*
X10734286Y-12511214D01*
X10777143Y-12511214D01*
X10805714Y-12525500D01*
X10820000Y-12554071D01*
X10820000Y-12711214D01*
X10820000Y-12554071D02*
X10834286Y-12525500D01*
X10862857Y-12511214D01*
X10905714Y-12511214D01*
X10934286Y-12525500D01*
X10948571Y-12554071D01*
X10948571Y-12711214D01*
X11091428Y-12711214D02*
X11091428Y-12511214D01*
X11091428Y-12539786D02*
X11105714Y-12525500D01*
X11134286Y-12511214D01*
X11177143Y-12511214D01*
X11205714Y-12525500D01*
X11220000Y-12554071D01*
X11220000Y-12711214D01*
X11220000Y-12554071D02*
X11234286Y-12525500D01*
X11262857Y-12511214D01*
X11305714Y-12511214D01*
X11334286Y-12525500D01*
X11348571Y-12554071D01*
X11348571Y-12711214D01*
X11934286Y-12396929D02*
X11677143Y-12782643D01*
X12320000Y-12411214D02*
X12348571Y-12411214D01*
X12377143Y-12425500D01*
X12391428Y-12439786D01*
X12405714Y-12468357D01*
X12420000Y-12525500D01*
X12420000Y-12596929D01*
X12405714Y-12654071D01*
X12391428Y-12682643D01*
X12377143Y-12696929D01*
X12348571Y-12711214D01*
X12320000Y-12711214D01*
X12291428Y-12696929D01*
X12277143Y-12682643D01*
X12262857Y-12654071D01*
X12248571Y-12596929D01*
X12248571Y-12525500D01*
X12262857Y-12468357D01*
X12277143Y-12439786D01*
X12291428Y-12425500D01*
X12320000Y-12411214D01*
X12548571Y-12682643D02*
X12562857Y-12696929D01*
X12548571Y-12711214D01*
X12534286Y-12696929D01*
X12548571Y-12682643D01*
X12548571Y-12711214D01*
X12748571Y-12411214D02*
X12777143Y-12411214D01*
X12805714Y-12425500D01*
X12820000Y-12439786D01*
X12834286Y-12468357D01*
X12848571Y-12525500D01*
X12848571Y-12596929D01*
X12834286Y-12654071D01*
X12820000Y-12682643D01*
X12805714Y-12696929D01*
X12777143Y-12711214D01*
X12748571Y-12711214D01*
X12720000Y-12696929D01*
X12705714Y-12682643D01*
X12691428Y-12654071D01*
X12677143Y-12596929D01*
X12677143Y-12525500D01*
X12691428Y-12468357D01*
X12705714Y-12439786D01*
X12720000Y-12425500D01*
X12748571Y-12411214D01*
X13134286Y-12711214D02*
X12962857Y-12711214D01*
X13048571Y-12711214D02*
X13048571Y-12411214D01*
X13020000Y-12454071D01*
X12991428Y-12482643D01*
X12962857Y-12496929D01*
X13248571Y-12439786D02*
X13262857Y-12425500D01*
X13291428Y-12411214D01*
X13362857Y-12411214D01*
X13391428Y-12425500D01*
X13405714Y-12439786D01*
X13420000Y-12468357D01*
X13420000Y-12496929D01*
X13405714Y-12539786D01*
X13234286Y-12711214D01*
X13420000Y-12711214D01*
X13534286Y-12411214D02*
X13534286Y-12468357D01*
X13648571Y-12411214D02*
X13648571Y-12468357D01*
X14091428Y-12825500D02*
X14077143Y-12811214D01*
X14048571Y-12768357D01*
X14034286Y-12739786D01*
X14020000Y-12696929D01*
X14005714Y-12625500D01*
X14005714Y-12568357D01*
X14020000Y-12496929D01*
X14034286Y-12454071D01*
X14048571Y-12425500D01*
X14077143Y-12382643D01*
X14091428Y-12368357D01*
X14177143Y-12411214D02*
X14362857Y-12411214D01*
X14262857Y-12525500D01*
X14305714Y-12525500D01*
X14334286Y-12539786D01*
X14348571Y-12554071D01*
X14362857Y-12582643D01*
X14362857Y-12654071D01*
X14348571Y-12682643D01*
X14334286Y-12696929D01*
X14305714Y-12711214D01*
X14220000Y-12711214D01*
X14191428Y-12696929D01*
X14177143Y-12682643D01*
X14648571Y-12711214D02*
X14477143Y-12711214D01*
X14562857Y-12711214D02*
X14562857Y-12411214D01*
X14534286Y-12454071D01*
X14505714Y-12482643D01*
X14477143Y-12496929D01*
X15005714Y-12711214D02*
X15005714Y-12411214D01*
X15134286Y-12711214D02*
X15134286Y-12554071D01*
X15120000Y-12525500D01*
X15091428Y-12511214D01*
X15048571Y-12511214D01*
X15020000Y-12525500D01*
X15005714Y-12539786D01*
X15320000Y-12711214D02*
X15291428Y-12696929D01*
X15277143Y-12682643D01*
X15262857Y-12654071D01*
X15262857Y-12568357D01*
X15277143Y-12539786D01*
X15291428Y-12525500D01*
X15320000Y-12511214D01*
X15362857Y-12511214D01*
X15391428Y-12525500D01*
X15405714Y-12539786D01*
X15420000Y-12568357D01*
X15420000Y-12654071D01*
X15405714Y-12682643D01*
X15391428Y-12696929D01*
X15362857Y-12711214D01*
X15320000Y-12711214D01*
X15591428Y-12711214D02*
X15562857Y-12696929D01*
X15548571Y-12668357D01*
X15548571Y-12411214D01*
X15820000Y-12696929D02*
X15791428Y-12711214D01*
X15734286Y-12711214D01*
X15705714Y-12696929D01*
X15691428Y-12668357D01*
X15691428Y-12554071D01*
X15705714Y-12525500D01*
X15734286Y-12511214D01*
X15791428Y-12511214D01*
X15820000Y-12525500D01*
X15834286Y-12554071D01*
X15834286Y-12582643D01*
X15691428Y-12611214D01*
X15948571Y-12696929D02*
X15977143Y-12711214D01*
X16034286Y-12711214D01*
X16062857Y-12696929D01*
X16077143Y-12668357D01*
X16077143Y-12654071D01*
X16062857Y-12625500D01*
X16034286Y-12611214D01*
X15991428Y-12611214D01*
X15962857Y-12596929D01*
X15948571Y-12568357D01*
X15948571Y-12554071D01*
X15962857Y-12525500D01*
X15991428Y-12511214D01*
X16034286Y-12511214D01*
X16062857Y-12525500D01*
X16177143Y-12825500D02*
X16191428Y-12811214D01*
X16220000Y-12768357D01*
X16234286Y-12739786D01*
X16248571Y-12696929D01*
X16262857Y-12625500D01*
X16262857Y-12568357D01*
X16248571Y-12496929D01*
X16234286Y-12454071D01*
X16220000Y-12425500D01*
X16191428Y-12382643D01*
X16177143Y-12368357D01*
X9365000Y-12931500D02*
X9365000Y-13011500D01*
X9325000Y-12971500D02*
X9405000Y-12971500D01*
X9748571Y-12807214D02*
X9777143Y-12807214D01*
X9805714Y-12821500D01*
X9820000Y-12835786D01*
X9834286Y-12864357D01*
X9848571Y-12921500D01*
X9848571Y-12992929D01*
X9834286Y-13050071D01*
X9820000Y-13078643D01*
X9805714Y-13092929D01*
X9777143Y-13107214D01*
X9748571Y-13107214D01*
X9720000Y-13092929D01*
X9705714Y-13078643D01*
X9691428Y-13050071D01*
X9677143Y-12992929D01*
X9677143Y-12921500D01*
X9691428Y-12864357D01*
X9705714Y-12835786D01*
X9720000Y-12821500D01*
X9748571Y-12807214D01*
X9977143Y-13078643D02*
X9991428Y-13092929D01*
X9977143Y-13107214D01*
X9962857Y-13092929D01*
X9977143Y-13078643D01*
X9977143Y-13107214D01*
X10162857Y-12935786D02*
X10134286Y-12921500D01*
X10120000Y-12907214D01*
X10105714Y-12878643D01*
X10105714Y-12864357D01*
X10120000Y-12835786D01*
X10134286Y-12821500D01*
X10162857Y-12807214D01*
X10220000Y-12807214D01*
X10248571Y-12821500D01*
X10262857Y-12835786D01*
X10277143Y-12864357D01*
X10277143Y-12878643D01*
X10262857Y-12907214D01*
X10248571Y-12921500D01*
X10220000Y-12935786D01*
X10162857Y-12935786D01*
X10134286Y-12950071D01*
X10120000Y-12964357D01*
X10105714Y-12992929D01*
X10105714Y-13050071D01*
X10120000Y-13078643D01*
X10134286Y-13092929D01*
X10162857Y-13107214D01*
X10220000Y-13107214D01*
X10248571Y-13092929D01*
X10262857Y-13078643D01*
X10277143Y-13050071D01*
X10277143Y-12992929D01*
X10262857Y-12964357D01*
X10248571Y-12950071D01*
X10220000Y-12935786D01*
X10462857Y-12807214D02*
X10491428Y-12807214D01*
X10520000Y-12821500D01*
X10534286Y-12835786D01*
X10548571Y-12864357D01*
X10562857Y-12921500D01*
X10562857Y-12992929D01*
X10548571Y-13050071D01*
X10534286Y-13078643D01*
X10520000Y-13092929D01*
X10491428Y-13107214D01*
X10462857Y-13107214D01*
X10434286Y-13092929D01*
X10420000Y-13078643D01*
X10405714Y-13050071D01*
X10391428Y-12992929D01*
X10391428Y-12921500D01*
X10405714Y-12864357D01*
X10420000Y-12835786D01*
X10434286Y-12821500D01*
X10462857Y-12807214D01*
X10691428Y-13107214D02*
X10691428Y-12907214D01*
X10691428Y-12935786D02*
X10705714Y-12921500D01*
X10734286Y-12907214D01*
X10777143Y-12907214D01*
X10805714Y-12921500D01*
X10820000Y-12950071D01*
X10820000Y-13107214D01*
X10820000Y-12950071D02*
X10834286Y-12921500D01*
X10862857Y-12907214D01*
X10905714Y-12907214D01*
X10934286Y-12921500D01*
X10948571Y-12950071D01*
X10948571Y-13107214D01*
X11091428Y-13107214D02*
X11091428Y-12907214D01*
X11091428Y-12935786D02*
X11105714Y-12921500D01*
X11134286Y-12907214D01*
X11177143Y-12907214D01*
X11205714Y-12921500D01*
X11220000Y-12950071D01*
X11220000Y-13107214D01*
X11220000Y-12950071D02*
X11234286Y-12921500D01*
X11262857Y-12907214D01*
X11305714Y-12907214D01*
X11334286Y-12921500D01*
X11348571Y-12950071D01*
X11348571Y-13107214D01*
X11934286Y-12792929D02*
X11677143Y-13178643D01*
X12320000Y-12807214D02*
X12348571Y-12807214D01*
X12377143Y-12821500D01*
X12391428Y-12835786D01*
X12405714Y-12864357D01*
X12420000Y-12921500D01*
X12420000Y-12992929D01*
X12405714Y-13050071D01*
X12391428Y-13078643D01*
X12377143Y-13092929D01*
X12348571Y-13107214D01*
X12320000Y-13107214D01*
X12291428Y-13092929D01*
X12277143Y-13078643D01*
X12262857Y-13050071D01*
X12248571Y-12992929D01*
X12248571Y-12921500D01*
X12262857Y-12864357D01*
X12277143Y-12835786D01*
X12291428Y-12821500D01*
X12320000Y-12807214D01*
X12548571Y-13078643D02*
X12562857Y-13092929D01*
X12548571Y-13107214D01*
X12534286Y-13092929D01*
X12548571Y-13078643D01*
X12548571Y-13107214D01*
X12748571Y-12807214D02*
X12777143Y-12807214D01*
X12805714Y-12821500D01*
X12820000Y-12835786D01*
X12834286Y-12864357D01*
X12848571Y-12921500D01*
X12848571Y-12992929D01*
X12834286Y-13050071D01*
X12820000Y-13078643D01*
X12805714Y-13092929D01*
X12777143Y-13107214D01*
X12748571Y-13107214D01*
X12720000Y-13092929D01*
X12705714Y-13078643D01*
X12691428Y-13050071D01*
X12677143Y-12992929D01*
X12677143Y-12921500D01*
X12691428Y-12864357D01*
X12705714Y-12835786D01*
X12720000Y-12821500D01*
X12748571Y-12807214D01*
X12948571Y-12807214D02*
X13134286Y-12807214D01*
X13034286Y-12921500D01*
X13077143Y-12921500D01*
X13105714Y-12935786D01*
X13120000Y-12950071D01*
X13134286Y-12978643D01*
X13134286Y-13050071D01*
X13120000Y-13078643D01*
X13105714Y-13092929D01*
X13077143Y-13107214D01*
X12991428Y-13107214D01*
X12962857Y-13092929D01*
X12948571Y-13078643D01*
X13420000Y-13107214D02*
X13248571Y-13107214D01*
X13334286Y-13107214D02*
X13334286Y-12807214D01*
X13305714Y-12850071D01*
X13277143Y-12878643D01*
X13248571Y-12892929D01*
X13534286Y-12807214D02*
X13534286Y-12864357D01*
X13648571Y-12807214D02*
X13648571Y-12864357D01*
X14091428Y-13221500D02*
X14077143Y-13207214D01*
X14048571Y-13164357D01*
X14034286Y-13135786D01*
X14020000Y-13092929D01*
X14005714Y-13021500D01*
X14005714Y-12964357D01*
X14020000Y-12892929D01*
X14034286Y-12850071D01*
X14048571Y-12821500D01*
X14077143Y-12778643D01*
X14091428Y-12764357D01*
X14334286Y-12907214D02*
X14334286Y-13107214D01*
X14262857Y-12792929D02*
X14191428Y-13007214D01*
X14377143Y-13007214D01*
X14720000Y-13107214D02*
X14720000Y-12807214D01*
X14848571Y-13107214D02*
X14848571Y-12950071D01*
X14834286Y-12921500D01*
X14805714Y-12907214D01*
X14762857Y-12907214D01*
X14734286Y-12921500D01*
X14720000Y-12935786D01*
X15034286Y-13107214D02*
X15005714Y-13092929D01*
X14991428Y-13078643D01*
X14977143Y-13050071D01*
X14977143Y-12964357D01*
X14991428Y-12935786D01*
X15005714Y-12921500D01*
X15034286Y-12907214D01*
X15077143Y-12907214D01*
X15105714Y-12921500D01*
X15120000Y-12935786D01*
X15134286Y-12964357D01*
X15134286Y-13050071D01*
X15120000Y-13078643D01*
X15105714Y-13092929D01*
X15077143Y-13107214D01*
X15034286Y-13107214D01*
X15305714Y-13107214D02*
X15277143Y-13092929D01*
X15262857Y-13064357D01*
X15262857Y-12807214D01*
X15534286Y-13092929D02*
X15505714Y-13107214D01*
X15448571Y-13107214D01*
X15420000Y-13092929D01*
X15405714Y-13064357D01*
X15405714Y-12950071D01*
X15420000Y-12921500D01*
X15448571Y-12907214D01*
X15505714Y-12907214D01*
X15534286Y-12921500D01*
X15548571Y-12950071D01*
X15548571Y-12978643D01*
X15405714Y-13007214D01*
X15662857Y-13092929D02*
X15691428Y-13107214D01*
X15748571Y-13107214D01*
X15777143Y-13092929D01*
X15791428Y-13064357D01*
X15791428Y-13050071D01*
X15777143Y-13021500D01*
X15748571Y-13007214D01*
X15705714Y-13007214D01*
X15677143Y-12992929D01*
X15662857Y-12964357D01*
X15662857Y-12950071D01*
X15677143Y-12921500D01*
X15705714Y-12907214D01*
X15748571Y-12907214D01*
X15777143Y-12921500D01*
X15891428Y-13221500D02*
X15905714Y-13207214D01*
X15934286Y-13164357D01*
X15948571Y-13135786D01*
X15962857Y-13092929D01*
X15977143Y-13021500D01*
X15977143Y-12964357D01*
X15962857Y-12892929D01*
X15948571Y-12850071D01*
X15934286Y-12821500D01*
X15905714Y-12778643D01*
X15891428Y-12764357D01*
X9390356Y-13402856D02*
X9390356Y-13332144D01*
X9319644Y-13332144D01*
X9319644Y-13402856D01*
X9390356Y-13402856D01*
X9848571Y-13503214D02*
X9677143Y-13503214D01*
X9762857Y-13503214D02*
X9762857Y-13203214D01*
X9734286Y-13246071D01*
X9705714Y-13274643D01*
X9677143Y-13288929D01*
X9977143Y-13474643D02*
X9991428Y-13488929D01*
X9977143Y-13503214D01*
X9962857Y-13488929D01*
X9977143Y-13474643D01*
X9977143Y-13503214D01*
X10177143Y-13203214D02*
X10205714Y-13203214D01*
X10234286Y-13217500D01*
X10248571Y-13231786D01*
X10262857Y-13260357D01*
X10277143Y-13317500D01*
X10277143Y-13388929D01*
X10262857Y-13446071D01*
X10248571Y-13474643D01*
X10234286Y-13488929D01*
X10205714Y-13503214D01*
X10177143Y-13503214D01*
X10148571Y-13488929D01*
X10134286Y-13474643D01*
X10120000Y-13446071D01*
X10105714Y-13388929D01*
X10105714Y-13317500D01*
X10120000Y-13260357D01*
X10134286Y-13231786D01*
X10148571Y-13217500D01*
X10177143Y-13203214D01*
X10462857Y-13203214D02*
X10491428Y-13203214D01*
X10520000Y-13217500D01*
X10534286Y-13231786D01*
X10548571Y-13260357D01*
X10562857Y-13317500D01*
X10562857Y-13388929D01*
X10548571Y-13446071D01*
X10534286Y-13474643D01*
X10520000Y-13488929D01*
X10491428Y-13503214D01*
X10462857Y-13503214D01*
X10434286Y-13488929D01*
X10420000Y-13474643D01*
X10405714Y-13446071D01*
X10391428Y-13388929D01*
X10391428Y-13317500D01*
X10405714Y-13260357D01*
X10420000Y-13231786D01*
X10434286Y-13217500D01*
X10462857Y-13203214D01*
X10691428Y-13503214D02*
X10691428Y-13303214D01*
X10691428Y-13331786D02*
X10705714Y-13317500D01*
X10734286Y-13303214D01*
X10777143Y-13303214D01*
X10805714Y-13317500D01*
X10820000Y-13346071D01*
X10820000Y-13503214D01*
X10820000Y-13346071D02*
X10834286Y-13317500D01*
X10862857Y-13303214D01*
X10905714Y-13303214D01*
X10934286Y-13317500D01*
X10948571Y-13346071D01*
X10948571Y-13503214D01*
X11091428Y-13503214D02*
X11091428Y-13303214D01*
X11091428Y-13331786D02*
X11105714Y-13317500D01*
X11134286Y-13303214D01*
X11177143Y-13303214D01*
X11205714Y-13317500D01*
X11220000Y-13346071D01*
X11220000Y-13503214D01*
X11220000Y-13346071D02*
X11234286Y-13317500D01*
X11262857Y-13303214D01*
X11305714Y-13303214D01*
X11334286Y-13317500D01*
X11348571Y-13346071D01*
X11348571Y-13503214D01*
X11934286Y-13188929D02*
X11677143Y-13574643D01*
X12320000Y-13203214D02*
X12348571Y-13203214D01*
X12377143Y-13217500D01*
X12391428Y-13231786D01*
X12405714Y-13260357D01*
X12420000Y-13317500D01*
X12420000Y-13388929D01*
X12405714Y-13446071D01*
X12391428Y-13474643D01*
X12377143Y-13488929D01*
X12348571Y-13503214D01*
X12320000Y-13503214D01*
X12291428Y-13488929D01*
X12277143Y-13474643D01*
X12262857Y-13446071D01*
X12248571Y-13388929D01*
X12248571Y-13317500D01*
X12262857Y-13260357D01*
X12277143Y-13231786D01*
X12291428Y-13217500D01*
X12320000Y-13203214D01*
X12548571Y-13474643D02*
X12562857Y-13488929D01*
X12548571Y-13503214D01*
X12534286Y-13488929D01*
X12548571Y-13474643D01*
X12548571Y-13503214D01*
X12748571Y-13203214D02*
X12777143Y-13203214D01*
X12805714Y-13217500D01*
X12820000Y-13231786D01*
X12834286Y-13260357D01*
X12848571Y-13317500D01*
X12848571Y-13388929D01*
X12834286Y-13446071D01*
X12820000Y-13474643D01*
X12805714Y-13488929D01*
X12777143Y-13503214D01*
X12748571Y-13503214D01*
X12720000Y-13488929D01*
X12705714Y-13474643D01*
X12691428Y-13446071D01*
X12677143Y-13388929D01*
X12677143Y-13317500D01*
X12691428Y-13260357D01*
X12705714Y-13231786D01*
X12720000Y-13217500D01*
X12748571Y-13203214D01*
X12948571Y-13203214D02*
X13134286Y-13203214D01*
X13034286Y-13317500D01*
X13077143Y-13317500D01*
X13105714Y-13331786D01*
X13120000Y-13346071D01*
X13134286Y-13374643D01*
X13134286Y-13446071D01*
X13120000Y-13474643D01*
X13105714Y-13488929D01*
X13077143Y-13503214D01*
X12991428Y-13503214D01*
X12962857Y-13488929D01*
X12948571Y-13474643D01*
X13277143Y-13503214D02*
X13334286Y-13503214D01*
X13362857Y-13488929D01*
X13377143Y-13474643D01*
X13405714Y-13431786D01*
X13420000Y-13374643D01*
X13420000Y-13260357D01*
X13405714Y-13231786D01*
X13391428Y-13217500D01*
X13362857Y-13203214D01*
X13305714Y-13203214D01*
X13277143Y-13217500D01*
X13262857Y-13231786D01*
X13248571Y-13260357D01*
X13248571Y-13331786D01*
X13262857Y-13360357D01*
X13277143Y-13374643D01*
X13305714Y-13388929D01*
X13362857Y-13388929D01*
X13391428Y-13374643D01*
X13405714Y-13360357D01*
X13420000Y-13331786D01*
X13534286Y-13203214D02*
X13534286Y-13260357D01*
X13648571Y-13203214D02*
X13648571Y-13260357D01*
X14091428Y-13617500D02*
X14077143Y-13603214D01*
X14048571Y-13560357D01*
X14034286Y-13531786D01*
X14020000Y-13488929D01*
X14005714Y-13417500D01*
X14005714Y-13360357D01*
X14020000Y-13288929D01*
X14034286Y-13246071D01*
X14048571Y-13217500D01*
X14077143Y-13174643D01*
X14091428Y-13160357D01*
X14334286Y-13203214D02*
X14277143Y-13203214D01*
X14248571Y-13217500D01*
X14234286Y-13231786D01*
X14205714Y-13274643D01*
X14191428Y-13331786D01*
X14191428Y-13446071D01*
X14205714Y-13474643D01*
X14220000Y-13488929D01*
X14248571Y-13503214D01*
X14305714Y-13503214D01*
X14334286Y-13488929D01*
X14348571Y-13474643D01*
X14362857Y-13446071D01*
X14362857Y-13374643D01*
X14348571Y-13346071D01*
X14334286Y-13331786D01*
X14305714Y-13317500D01*
X14248571Y-13317500D01*
X14220000Y-13331786D01*
X14205714Y-13346071D01*
X14191428Y-13374643D01*
X14720000Y-13503214D02*
X14720000Y-13203214D01*
X14848571Y-13503214D02*
X14848571Y-13346071D01*
X14834286Y-13317500D01*
X14805714Y-13303214D01*
X14762857Y-13303214D01*
X14734286Y-13317500D01*
X14720000Y-13331786D01*
X15034286Y-13503214D02*
X15005714Y-13488929D01*
X14991428Y-13474643D01*
X14977143Y-13446071D01*
X14977143Y-13360357D01*
X14991428Y-13331786D01*
X15005714Y-13317500D01*
X15034286Y-13303214D01*
X15077143Y-13303214D01*
X15105714Y-13317500D01*
X15120000Y-13331786D01*
X15134286Y-13360357D01*
X15134286Y-13446071D01*
X15120000Y-13474643D01*
X15105714Y-13488929D01*
X15077143Y-13503214D01*
X15034286Y-13503214D01*
X15305714Y-13503214D02*
X15277143Y-13488929D01*
X15262857Y-13460357D01*
X15262857Y-13203214D01*
X15534286Y-13488929D02*
X15505714Y-13503214D01*
X15448571Y-13503214D01*
X15420000Y-13488929D01*
X15405714Y-13460357D01*
X15405714Y-13346071D01*
X15420000Y-13317500D01*
X15448571Y-13303214D01*
X15505714Y-13303214D01*
X15534286Y-13317500D01*
X15548571Y-13346071D01*
X15548571Y-13374643D01*
X15405714Y-13403214D01*
X15662857Y-13488929D02*
X15691428Y-13503214D01*
X15748571Y-13503214D01*
X15777143Y-13488929D01*
X15791428Y-13460357D01*
X15791428Y-13446071D01*
X15777143Y-13417500D01*
X15748571Y-13403214D01*
X15705714Y-13403214D01*
X15677143Y-13388929D01*
X15662857Y-13360357D01*
X15662857Y-13346071D01*
X15677143Y-13317500D01*
X15705714Y-13303214D01*
X15748571Y-13303214D01*
X15777143Y-13317500D01*
X15891428Y-13617500D02*
X15905714Y-13603214D01*
X15934286Y-13560357D01*
X15948571Y-13531786D01*
X15962857Y-13488929D01*
X15977143Y-13417500D01*
X15977143Y-13360357D01*
X15962857Y-13288929D01*
X15948571Y-13246071D01*
X15934286Y-13217500D01*
X15905714Y-13174643D01*
X15891428Y-13160357D01*
X9295000Y-13873500D02*
X9405000Y-13763500D01*
X9295000Y-13653500D01*
X9185000Y-13763500D01*
X9295000Y-13873500D01*
X9677143Y-13627786D02*
X9691428Y-13613500D01*
X9720000Y-13599214D01*
X9791428Y-13599214D01*
X9820000Y-13613500D01*
X9834286Y-13627786D01*
X9848571Y-13656357D01*
X9848571Y-13684929D01*
X9834286Y-13727786D01*
X9662857Y-13899214D01*
X9848571Y-13899214D01*
X9977143Y-13870643D02*
X9991428Y-13884929D01*
X9977143Y-13899214D01*
X9962857Y-13884929D01*
X9977143Y-13870643D01*
X9977143Y-13899214D01*
X10105714Y-13627786D02*
X10120000Y-13613500D01*
X10148571Y-13599214D01*
X10220000Y-13599214D01*
X10248571Y-13613500D01*
X10262857Y-13627786D01*
X10277143Y-13656357D01*
X10277143Y-13684929D01*
X10262857Y-13727786D01*
X10091428Y-13899214D01*
X10277143Y-13899214D01*
X10462857Y-13599214D02*
X10491428Y-13599214D01*
X10520000Y-13613500D01*
X10534286Y-13627786D01*
X10548571Y-13656357D01*
X10562857Y-13713500D01*
X10562857Y-13784929D01*
X10548571Y-13842071D01*
X10534286Y-13870643D01*
X10520000Y-13884929D01*
X10491428Y-13899214D01*
X10462857Y-13899214D01*
X10434286Y-13884929D01*
X10420000Y-13870643D01*
X10405714Y-13842071D01*
X10391428Y-13784929D01*
X10391428Y-13713500D01*
X10405714Y-13656357D01*
X10420000Y-13627786D01*
X10434286Y-13613500D01*
X10462857Y-13599214D01*
X10691428Y-13899214D02*
X10691428Y-13699214D01*
X10691428Y-13727786D02*
X10705714Y-13713500D01*
X10734286Y-13699214D01*
X10777143Y-13699214D01*
X10805714Y-13713500D01*
X10820000Y-13742071D01*
X10820000Y-13899214D01*
X10820000Y-13742071D02*
X10834286Y-13713500D01*
X10862857Y-13699214D01*
X10905714Y-13699214D01*
X10934286Y-13713500D01*
X10948571Y-13742071D01*
X10948571Y-13899214D01*
X11091428Y-13899214D02*
X11091428Y-13699214D01*
X11091428Y-13727786D02*
X11105714Y-13713500D01*
X11134286Y-13699214D01*
X11177143Y-13699214D01*
X11205714Y-13713500D01*
X11220000Y-13742071D01*
X11220000Y-13899214D01*
X11220000Y-13742071D02*
X11234286Y-13713500D01*
X11262857Y-13699214D01*
X11305714Y-13699214D01*
X11334286Y-13713500D01*
X11348571Y-13742071D01*
X11348571Y-13899214D01*
X11934286Y-13584929D02*
X11677143Y-13970643D01*
X12320000Y-13599214D02*
X12348571Y-13599214D01*
X12377143Y-13613500D01*
X12391428Y-13627786D01*
X12405714Y-13656357D01*
X12420000Y-13713500D01*
X12420000Y-13784929D01*
X12405714Y-13842071D01*
X12391428Y-13870643D01*
X12377143Y-13884929D01*
X12348571Y-13899214D01*
X12320000Y-13899214D01*
X12291428Y-13884929D01*
X12277143Y-13870643D01*
X12262857Y-13842071D01*
X12248571Y-13784929D01*
X12248571Y-13713500D01*
X12262857Y-13656357D01*
X12277143Y-13627786D01*
X12291428Y-13613500D01*
X12320000Y-13599214D01*
X12548571Y-13870643D02*
X12562857Y-13884929D01*
X12548571Y-13899214D01*
X12534286Y-13884929D01*
X12548571Y-13870643D01*
X12548571Y-13899214D01*
X12748571Y-13599214D02*
X12777143Y-13599214D01*
X12805714Y-13613500D01*
X12820000Y-13627786D01*
X12834286Y-13656357D01*
X12848571Y-13713500D01*
X12848571Y-13784929D01*
X12834286Y-13842071D01*
X12820000Y-13870643D01*
X12805714Y-13884929D01*
X12777143Y-13899214D01*
X12748571Y-13899214D01*
X12720000Y-13884929D01*
X12705714Y-13870643D01*
X12691428Y-13842071D01*
X12677143Y-13784929D01*
X12677143Y-13713500D01*
X12691428Y-13656357D01*
X12705714Y-13627786D01*
X12720000Y-13613500D01*
X12748571Y-13599214D01*
X13020000Y-13727786D02*
X12991428Y-13713500D01*
X12977143Y-13699214D01*
X12962857Y-13670643D01*
X12962857Y-13656357D01*
X12977143Y-13627786D01*
X12991428Y-13613500D01*
X13020000Y-13599214D01*
X13077143Y-13599214D01*
X13105714Y-13613500D01*
X13120000Y-13627786D01*
X13134286Y-13656357D01*
X13134286Y-13670643D01*
X13120000Y-13699214D01*
X13105714Y-13713500D01*
X13077143Y-13727786D01*
X13020000Y-13727786D01*
X12991428Y-13742071D01*
X12977143Y-13756357D01*
X12962857Y-13784929D01*
X12962857Y-13842071D01*
X12977143Y-13870643D01*
X12991428Y-13884929D01*
X13020000Y-13899214D01*
X13077143Y-13899214D01*
X13105714Y-13884929D01*
X13120000Y-13870643D01*
X13134286Y-13842071D01*
X13134286Y-13784929D01*
X13120000Y-13756357D01*
X13105714Y-13742071D01*
X13077143Y-13727786D01*
X13234286Y-13599214D02*
X13434286Y-13599214D01*
X13305714Y-13899214D01*
X13534286Y-13599214D02*
X13534286Y-13656357D01*
X13648571Y-13599214D02*
X13648571Y-13656357D01*
X14091428Y-14013500D02*
X14077143Y-13999214D01*
X14048571Y-13956357D01*
X14034286Y-13927786D01*
X14020000Y-13884929D01*
X14005714Y-13813500D01*
X14005714Y-13756357D01*
X14020000Y-13684929D01*
X14034286Y-13642071D01*
X14048571Y-13613500D01*
X14077143Y-13570643D01*
X14091428Y-13556357D01*
X14334286Y-13699214D02*
X14334286Y-13899214D01*
X14262857Y-13584929D02*
X14191428Y-13799214D01*
X14377143Y-13799214D01*
X14720000Y-13899214D02*
X14720000Y-13599214D01*
X14848571Y-13899214D02*
X14848571Y-13742071D01*
X14834286Y-13713500D01*
X14805714Y-13699214D01*
X14762857Y-13699214D01*
X14734286Y-13713500D01*
X14720000Y-13727786D01*
X15034286Y-13899214D02*
X15005714Y-13884929D01*
X14991428Y-13870643D01*
X14977143Y-13842071D01*
X14977143Y-13756357D01*
X14991428Y-13727786D01*
X15005714Y-13713500D01*
X15034286Y-13699214D01*
X15077143Y-13699214D01*
X15105714Y-13713500D01*
X15120000Y-13727786D01*
X15134286Y-13756357D01*
X15134286Y-13842071D01*
X15120000Y-13870643D01*
X15105714Y-13884929D01*
X15077143Y-13899214D01*
X15034286Y-13899214D01*
X15305714Y-13899214D02*
X15277143Y-13884929D01*
X15262857Y-13856357D01*
X15262857Y-13599214D01*
X15534286Y-13884929D02*
X15505714Y-13899214D01*
X15448571Y-13899214D01*
X15420000Y-13884929D01*
X15405714Y-13856357D01*
X15405714Y-13742071D01*
X15420000Y-13713500D01*
X15448571Y-13699214D01*
X15505714Y-13699214D01*
X15534286Y-13713500D01*
X15548571Y-13742071D01*
X15548571Y-13770643D01*
X15405714Y-13799214D01*
X15662857Y-13884929D02*
X15691428Y-13899214D01*
X15748571Y-13899214D01*
X15777143Y-13884929D01*
X15791428Y-13856357D01*
X15791428Y-13842071D01*
X15777143Y-13813500D01*
X15748571Y-13799214D01*
X15705714Y-13799214D01*
X15677143Y-13784929D01*
X15662857Y-13756357D01*
X15662857Y-13742071D01*
X15677143Y-13713500D01*
X15705714Y-13699214D01*
X15748571Y-13699214D01*
X15777143Y-13713500D01*
X15891428Y-14013500D02*
X15905714Y-13999214D01*
X15934286Y-13956357D01*
X15948571Y-13927786D01*
X15962857Y-13884929D01*
X15977143Y-13813500D01*
X15977143Y-13756357D01*
X15962857Y-13684929D01*
X15948571Y-13642071D01*
X15934286Y-13613500D01*
X15905714Y-13570643D01*
X15891428Y-13556357D01*
M02*
