G04 #@! TF.GenerationSoftware,KiCad,Pcbnew,5.1.9+dfsg1-1~bpo10+1*
G04 #@! TF.CreationDate,2021-11-14T15:52:16+01:00*
G04 #@! TF.ProjectId,ulx4m,756c7834-6d2e-46b6-9963-61645f706362,v0.0.2*
G04 #@! TF.SameCoordinates,Original*
G04 #@! TF.FileFunction,Copper,L3,Inr*
G04 #@! TF.FilePolarity,Positive*
%FSLAX46Y46*%
G04 Gerber Fmt 4.6, Leading zero omitted, Abs format (unit mm)*
G04 Created by KiCad (PCBNEW 5.1.9+dfsg1-1~bpo10+1) date 2021-11-14 15:52:16*
%MOMM*%
%LPD*%
G01*
G04 APERTURE LIST*
G04 #@! TA.AperFunction,ComponentPad*
%ADD10C,3.300000*%
G04 #@! TD*
G04 #@! TA.AperFunction,ComponentPad*
%ADD11C,0.100000*%
G04 #@! TD*
G04 #@! TA.AperFunction,ComponentPad*
%ADD12O,1.350000X1.350000*%
G04 #@! TD*
G04 #@! TA.AperFunction,ComponentPad*
%ADD13R,1.350000X1.350000*%
G04 #@! TD*
G04 #@! TA.AperFunction,ViaPad*
%ADD14C,0.419000*%
G04 #@! TD*
G04 #@! TA.AperFunction,ViaPad*
%ADD15C,0.600000*%
G04 #@! TD*
G04 #@! TA.AperFunction,ViaPad*
%ADD16C,0.420000*%
G04 #@! TD*
G04 #@! TA.AperFunction,Conductor*
%ADD17C,0.300000*%
G04 #@! TD*
G04 #@! TA.AperFunction,Conductor*
%ADD18C,0.127000*%
G04 #@! TD*
G04 APERTURE END LIST*
D10*
X97620000Y-75644999D03*
X145620000Y-75645000D03*
X145620000Y-108720000D03*
X97619999Y-108723599D03*
G04 #@! TA.AperFunction,ComponentPad*
D11*
G36*
X101610000Y-105222082D02*
G01*
X100407918Y-104020000D01*
X101610000Y-102817918D01*
X102812082Y-104020000D01*
X101610000Y-105222082D01*
G37*
G04 #@! TD.AperFunction*
G04 #@! TA.AperFunction,ComponentPad*
G36*
G01*
X99212908Y-106417092D02*
X99212908Y-106417092D01*
G75*
G02*
X99212908Y-105215010I601041J601041D01*
G01*
X99212908Y-105215010D01*
G75*
G02*
X100414990Y-105215010I601041J-601041D01*
G01*
X100414990Y-105215010D01*
G75*
G02*
X100414990Y-106417092I-601041J-601041D01*
G01*
X100414990Y-106417092D01*
G75*
G02*
X99212908Y-106417092I-601041J601041D01*
G01*
G37*
G04 #@! TD.AperFunction*
G04 #@! TA.AperFunction,ComponentPad*
G36*
G01*
X102805010Y-106417092D02*
X102805010Y-106417092D01*
G75*
G02*
X102805010Y-105215010I601041J601041D01*
G01*
X102805010Y-105215010D01*
G75*
G02*
X104007092Y-105215010I601041J-601041D01*
G01*
X104007092Y-105215010D01*
G75*
G02*
X104007092Y-106417092I-601041J-601041D01*
G01*
X104007092Y-106417092D01*
G75*
G02*
X102805010Y-106417092I-601041J601041D01*
G01*
G37*
G04 #@! TD.AperFunction*
G04 #@! TA.AperFunction,ComponentPad*
G36*
G01*
X101008959Y-108213143D02*
X101008959Y-108213143D01*
G75*
G02*
X101008959Y-107011061I601041J601041D01*
G01*
X101008959Y-107011061D01*
G75*
G02*
X102211041Y-107011061I601041J-601041D01*
G01*
X102211041Y-107011061D01*
G75*
G02*
X102211041Y-108213143I-601041J-601041D01*
G01*
X102211041Y-108213143D01*
G75*
G02*
X101008959Y-108213143I-601041J601041D01*
G01*
G37*
G04 #@! TD.AperFunction*
G04 #@! TA.AperFunction,ComponentPad*
G36*
G01*
X104601061Y-108213143D02*
X104601061Y-108213143D01*
G75*
G02*
X104601061Y-107011061I601041J601041D01*
G01*
X104601061Y-107011061D01*
G75*
G02*
X105803143Y-107011061I601041J-601041D01*
G01*
X105803143Y-107011061D01*
G75*
G02*
X105803143Y-108213143I-601041J-601041D01*
G01*
X105803143Y-108213143D01*
G75*
G02*
X104601061Y-108213143I-601041J601041D01*
G01*
G37*
G04 #@! TD.AperFunction*
G04 #@! TA.AperFunction,ComponentPad*
G36*
G01*
X102805010Y-110009195D02*
X102805010Y-110009195D01*
G75*
G02*
X102805010Y-108807113I601041J601041D01*
G01*
X102805010Y-108807113D01*
G75*
G02*
X104007092Y-108807113I601041J-601041D01*
G01*
X104007092Y-108807113D01*
G75*
G02*
X104007092Y-110009195I-601041J-601041D01*
G01*
X104007092Y-110009195D01*
G75*
G02*
X102805010Y-110009195I-601041J601041D01*
G01*
G37*
G04 #@! TD.AperFunction*
D12*
X147460000Y-104720000D03*
D13*
X147460000Y-102720000D03*
X147480000Y-97600000D03*
D12*
X147480000Y-99600000D03*
D14*
X116410000Y-95050000D03*
X118010000Y-99850000D03*
X115610000Y-99850000D03*
X114810000Y-99050000D03*
X111610000Y-98250000D03*
X111610000Y-99850000D03*
X114810000Y-91050000D03*
X118010000Y-95050000D03*
X111610000Y-88650000D03*
X111610000Y-91050000D03*
X114810001Y-99850000D03*
X124410001Y-91850000D03*
X124410001Y-87850000D03*
X122810000Y-91050000D03*
X114010001Y-91050000D03*
X115610000Y-91050001D03*
X118810000Y-91050000D03*
X120410000Y-95850001D03*
X118010000Y-101450000D03*
X116410000Y-95850001D03*
X118010000Y-95850000D03*
X110012850Y-95852850D03*
X114054015Y-95805985D03*
X115610001Y-99050000D03*
X118810000Y-99850000D03*
X117210000Y-101450000D03*
X113193569Y-101450000D03*
X114009986Y-100650000D03*
X113209975Y-100650000D03*
X114009994Y-101450000D03*
D15*
X98215000Y-82475000D03*
X98990000Y-78200000D03*
D16*
X100590000Y-78750000D03*
D15*
X98264999Y-88375000D03*
X97265000Y-82100000D03*
X98215000Y-81725000D03*
D16*
X142195000Y-85650000D03*
D15*
X144470000Y-84800000D03*
D16*
X142195003Y-84025000D03*
D15*
X144470000Y-85550000D03*
X143695000Y-89075000D03*
X143470006Y-85174999D03*
X145420000Y-85174999D03*
X143270000Y-77980000D03*
D16*
X142095001Y-88525000D03*
X139300000Y-104990000D03*
D15*
X141575000Y-104140000D03*
D16*
X139200001Y-107865000D03*
D15*
X141525001Y-98240001D03*
X141575000Y-104890000D03*
X140575006Y-104515000D03*
X142525000Y-104515000D03*
D14*
X128770000Y-108460000D03*
X133560000Y-108460000D03*
X127150000Y-108460000D03*
X128360000Y-109828835D03*
X116759934Y-109828835D03*
X116760000Y-108460000D03*
X114009989Y-87849999D03*
X123636332Y-98265009D03*
X133030000Y-89970000D03*
D16*
X139300003Y-103365000D03*
D14*
X119680000Y-97840000D03*
D16*
X101510000Y-76300000D03*
D14*
X118500000Y-79990000D03*
X120406564Y-87867601D03*
X121100000Y-80319596D03*
X119160000Y-73130000D03*
X117950000Y-73130000D03*
X130250000Y-81410000D03*
X125993833Y-80187554D03*
X123619509Y-100665043D03*
X115560000Y-108460000D03*
X115560706Y-109828835D03*
X115580022Y-77250000D03*
X137180000Y-90360000D03*
X115570000Y-73120000D03*
X113890000Y-74710000D03*
X112870000Y-73700000D03*
X107930000Y-73670000D03*
X107180000Y-73240000D03*
X101520000Y-74790000D03*
X103830000Y-76580000D03*
X103890000Y-75030000D03*
X105670000Y-78120000D03*
X109003486Y-78080000D03*
X99350000Y-73270000D03*
X95350000Y-76530000D03*
X100390000Y-77110000D03*
D16*
X104360000Y-92720000D03*
X117240000Y-85540000D03*
X144480000Y-95070002D03*
X132750000Y-106860000D03*
D14*
X116760000Y-73130000D03*
D16*
X124700000Y-73090000D03*
X126350000Y-73110000D03*
X127550000Y-73100000D03*
X128760000Y-73110000D03*
X116960000Y-75840000D03*
X119800000Y-77180000D03*
X121550000Y-75850000D03*
X126140053Y-75839736D03*
X127550000Y-75860000D03*
X125310000Y-73100000D03*
X129960000Y-73130000D03*
X131170000Y-73100000D03*
X132350000Y-73130000D03*
D14*
X120459408Y-91056129D03*
X119586402Y-91050000D03*
D16*
X112260000Y-108690000D03*
D15*
X98940000Y-82150000D03*
D16*
X100340002Y-83620000D03*
D14*
X137830000Y-94330081D03*
X140409990Y-89950000D03*
X139970010Y-91983917D03*
X138770000Y-95169990D03*
X118811002Y-99043254D03*
X122474020Y-108460000D03*
X117210000Y-95050010D03*
X117210000Y-95850021D03*
X114010947Y-93459734D03*
X124490000Y-108550000D03*
X120765445Y-109490011D03*
X120900000Y-108690000D03*
X137870000Y-93800000D03*
X141430000Y-95940000D03*
X133850000Y-99400000D03*
X120422606Y-93459990D03*
X124281126Y-101274534D03*
X124399990Y-100651772D03*
X125991746Y-108358933D03*
X119593256Y-99847159D03*
X119610000Y-99047148D03*
X122010010Y-101450000D03*
X122010010Y-100662143D03*
X121179990Y-101421213D03*
X121189990Y-100654263D03*
D15*
X140268781Y-107883781D03*
D16*
X128876392Y-75733194D03*
D14*
X131110000Y-77130000D03*
X130033977Y-75860515D03*
D16*
X135050000Y-74050000D03*
D14*
X122749076Y-109912729D03*
X124722833Y-109773080D03*
X138317195Y-92035590D03*
X136717172Y-91967571D03*
X112010000Y-85070000D03*
X113630000Y-84560000D03*
X125948153Y-109976288D03*
X127315891Y-109831510D03*
X110010000Y-92649990D03*
D16*
X133535352Y-77102710D03*
D14*
X132364911Y-77019490D03*
X114438221Y-109902969D03*
D16*
X109979505Y-109241601D03*
D15*
X145244999Y-89075000D03*
D14*
X130340000Y-109260000D03*
X131160000Y-109260000D03*
X142820000Y-84625000D03*
X139925000Y-103964999D03*
D16*
X123600000Y-80759475D03*
D14*
X129590010Y-109260000D03*
D15*
X96790000Y-79080000D03*
X101630000Y-110550000D03*
D14*
X99734950Y-83278628D03*
D15*
X141740000Y-106810000D03*
D16*
X137210000Y-79360000D03*
D14*
X113210000Y-90250000D03*
X116410000Y-99849999D03*
X121210000Y-90250000D03*
X105106511Y-82427487D03*
X120180000Y-97600000D03*
X122819498Y-100649767D03*
D15*
X105140000Y-84120000D03*
X105250000Y-86580000D03*
X105140000Y-73860000D03*
D16*
X117209999Y-87891711D03*
D15*
X104480000Y-84480000D03*
D14*
X112411355Y-96639990D03*
X127508455Y-94291148D03*
X139570000Y-90380000D03*
X122840011Y-94240000D03*
X138760000Y-90340000D03*
X127970000Y-93510000D03*
X122014461Y-93440022D03*
X126546861Y-95144116D03*
X123622850Y-95037150D03*
X123637850Y-90252150D03*
X126423866Y-89593858D03*
X123580000Y-91850000D03*
X138770000Y-89530000D03*
X122773359Y-92644721D03*
X126054072Y-92589979D03*
X122790000Y-91860000D03*
X127684154Y-94811221D03*
X138767120Y-95987180D03*
X127779500Y-101863918D03*
X123620010Y-92660000D03*
X127005978Y-91710010D03*
X123610000Y-94240000D03*
X128400000Y-94840000D03*
X133946810Y-95136902D03*
X139588131Y-95931844D03*
X128053334Y-102377231D03*
X139527539Y-95155001D03*
X127379934Y-102240976D03*
X126570086Y-96638466D03*
X123620010Y-95840000D03*
X126084465Y-97310547D03*
X122850010Y-96591134D03*
X109718002Y-101575529D03*
X108344384Y-107463027D03*
X107448996Y-106218032D03*
X105754142Y-100198328D03*
X109068594Y-101862719D03*
X109999482Y-100618984D03*
X105879403Y-100729778D03*
X108801961Y-106672933D03*
X107353528Y-106755633D03*
X108454021Y-99925763D03*
X105863465Y-99523305D03*
X110810000Y-99850010D03*
X106253133Y-99970010D03*
X131553299Y-103862988D03*
X110660568Y-102432457D03*
X110809990Y-100650021D03*
X121969945Y-89450000D03*
D16*
X117600000Y-79500000D03*
D14*
X121479342Y-85545352D03*
X121161504Y-88655327D03*
X122010000Y-90250000D03*
X117539990Y-80095396D03*
X121218731Y-89476969D03*
X123645608Y-89456218D03*
X126400000Y-88030000D03*
X114810001Y-94250000D03*
X118810000Y-95850000D03*
X115610000Y-95850000D03*
X115610000Y-92649998D03*
X118810000Y-92650000D03*
X119610000Y-94250000D03*
D15*
X135825697Y-103370620D03*
X122410009Y-103642616D03*
X128902301Y-104810510D03*
D14*
X118010000Y-87850000D03*
X121067902Y-82173640D03*
X116410000Y-91050000D03*
X107040000Y-73940000D03*
X113140000Y-77060000D03*
X114015168Y-92659723D03*
X114012673Y-91829990D03*
X111610000Y-95850000D03*
X116810000Y-102050000D03*
X132092563Y-103244539D03*
X127848500Y-74916002D03*
X129380000Y-80973000D03*
X121676562Y-84214941D03*
X121717150Y-84852850D03*
X129380000Y-80427000D03*
X128467500Y-74916002D03*
X129053185Y-74880361D03*
X123600000Y-88660000D03*
X124165541Y-84955541D03*
X122800010Y-89434005D03*
X123779459Y-84569459D03*
X129678341Y-74758099D03*
X130229013Y-74571501D03*
X122768335Y-90249288D03*
X132176959Y-80836959D03*
X123590000Y-91050000D03*
X132563041Y-81223041D03*
X130776096Y-74355834D03*
X131630498Y-74729502D03*
X133492150Y-81022150D03*
X126039496Y-93389990D03*
X133480000Y-81600000D03*
X126839508Y-93402478D03*
X132295926Y-74485541D03*
X120410001Y-92650000D03*
X111609999Y-99050000D03*
X120410001Y-91850000D03*
X110810000Y-99050000D03*
X118010000Y-91050000D03*
D15*
X137995000Y-83125000D03*
X137979998Y-83730000D03*
D14*
X137120798Y-95149077D03*
X137990000Y-95130000D03*
X140510000Y-94770000D03*
X108070000Y-90070000D03*
D16*
X109989717Y-97429717D03*
X111740000Y-74050000D03*
D14*
X116174187Y-97685806D03*
X123970000Y-80330000D03*
D16*
X112242994Y-106089668D03*
X130760000Y-107120000D03*
X131280000Y-107110000D03*
D14*
X95510000Y-87020000D03*
X140400000Y-95950000D03*
X113203674Y-94240010D03*
X120601740Y-106444857D03*
X138870000Y-93040000D03*
X133180000Y-96690000D03*
X136920000Y-93910000D03*
D16*
X120503067Y-94293777D03*
D14*
X121199990Y-94260689D03*
D16*
X110132705Y-104182479D03*
D14*
X137517184Y-92038326D03*
X139169999Y-91919992D03*
D16*
X109509163Y-109523379D03*
D14*
X113700000Y-77520000D03*
X130250000Y-105250000D03*
X130330000Y-106812045D03*
X120311150Y-74951150D03*
X120748850Y-75388850D03*
X123680843Y-75011426D03*
X124069406Y-75395025D03*
X125125069Y-75166989D03*
X125608160Y-75439726D03*
X126595116Y-74658276D03*
X127110000Y-74840000D03*
D16*
X111428125Y-85964593D03*
D14*
X117023490Y-84430000D03*
X116430628Y-87829372D03*
X114802587Y-87850000D03*
X113650000Y-83990000D03*
D16*
X110910000Y-86140000D03*
D14*
X117925979Y-85865226D03*
X120562295Y-81967508D03*
X114310000Y-83960000D03*
X115926510Y-83146510D03*
X115737589Y-83734008D03*
X135888837Y-77112979D03*
X135321801Y-73575869D03*
X114915368Y-74849980D03*
X95853041Y-91176959D03*
X114540000Y-75249990D03*
X95466959Y-91563041D03*
X116270282Y-74971793D03*
X98326116Y-91166115D03*
X115941043Y-75407374D03*
X97940034Y-90780033D03*
X117813554Y-75029990D03*
X101086959Y-91553041D03*
X117390000Y-75420000D03*
X101473041Y-91166959D03*
X112222613Y-102521150D03*
X100302850Y-94300150D03*
X115899906Y-102107832D03*
X118022975Y-102813906D03*
X122807720Y-102738649D03*
X138726959Y-110233041D03*
X141198041Y-76711959D03*
X116774116Y-102759523D03*
X96443041Y-94956959D03*
X113065904Y-102888984D03*
X98273000Y-94140000D03*
X114425908Y-103716772D03*
X124261752Y-102486108D03*
X140546959Y-110263041D03*
X141257347Y-77902653D03*
X119651150Y-102531150D03*
X121478240Y-102600014D03*
X138510000Y-111493000D03*
X141813041Y-75289990D03*
X116693445Y-103457513D03*
X96043031Y-95345113D03*
X113608294Y-102951768D03*
X97727000Y-94140000D03*
X114990000Y-103700000D03*
X124547835Y-102021043D03*
X140933041Y-109876959D03*
X140857351Y-78290802D03*
X119725271Y-103119945D03*
X122007709Y-102733401D03*
X138510000Y-110947000D03*
X141426959Y-75683041D03*
X112274971Y-103086112D03*
X99747000Y-94310000D03*
X116337606Y-101670132D03*
X118417238Y-103226637D03*
X123207730Y-102287671D03*
X139113041Y-109846959D03*
X140811959Y-77098041D03*
X112410000Y-98250000D03*
D16*
X120365344Y-109908722D03*
D14*
X111610000Y-100650000D03*
D16*
X119982759Y-109517761D03*
D14*
X112410000Y-99050000D03*
D16*
X119557237Y-109898575D03*
D14*
X112410000Y-99850000D03*
D16*
X119012576Y-109847914D03*
D14*
X116000000Y-85970000D03*
X114360000Y-73130000D03*
X116842699Y-80638400D03*
X115640408Y-88729697D03*
X115515634Y-75778817D03*
X116307764Y-80747822D03*
X118166959Y-79063041D03*
X119942619Y-85006536D03*
X120120235Y-72671902D03*
X118553041Y-78676959D03*
X119396908Y-84988399D03*
X120508697Y-73055602D03*
X118630000Y-77530000D03*
X119605048Y-87813017D03*
X121351433Y-72670797D03*
X120190000Y-86120000D03*
X118706959Y-78153041D03*
X121735695Y-73058703D03*
X122884806Y-72672531D03*
X118792150Y-87842150D03*
X118800000Y-87060000D03*
X123273041Y-73072541D03*
X119610000Y-89450000D03*
X125640000Y-81120000D03*
X119600000Y-88660000D03*
X126310000Y-81070000D03*
X120361493Y-88640090D03*
X123127320Y-82407616D03*
X123450003Y-81959999D03*
X118780000Y-89440000D03*
X128522053Y-81734594D03*
X118685363Y-88710456D03*
X128922063Y-81284986D03*
X133960000Y-107120000D03*
X122016524Y-99868400D03*
X124206241Y-103612889D03*
X133560000Y-111170000D03*
X122804234Y-99086092D03*
X130560059Y-103281467D03*
X128599345Y-102341912D03*
X133172919Y-104174957D03*
X122003312Y-96658550D03*
X129429570Y-103395560D03*
X129660348Y-106803549D03*
X122040967Y-97459064D03*
X128679049Y-103395935D03*
X129128045Y-106681967D03*
X129150000Y-109830000D03*
X122819990Y-99830000D03*
X127870000Y-106740000D03*
X127546363Y-103933545D03*
X123640000Y-99860000D03*
X122992783Y-105980010D03*
X131030000Y-102850000D03*
X122819636Y-95061043D03*
X127722150Y-109300010D03*
X126755705Y-106895112D03*
X122010000Y-91050000D03*
X128450000Y-106680000D03*
X125780000Y-86650000D03*
X122010000Y-94240000D03*
X121200702Y-99076388D03*
X122025612Y-99024272D03*
X121011467Y-103652739D03*
X121165856Y-109905846D03*
X114380000Y-77330000D03*
X95530000Y-84740000D03*
X110810000Y-88660000D03*
X108210000Y-89100000D03*
D16*
X127960000Y-111160000D03*
D14*
X112400000Y-92650000D03*
X125404057Y-107150058D03*
X110030000Y-94250000D03*
X113216585Y-93420004D03*
X125838780Y-108883080D03*
X109140000Y-92570000D03*
X112400000Y-95040000D03*
X125226893Y-109563195D03*
X112410000Y-94230000D03*
X125189999Y-108709990D03*
X126770000Y-109820000D03*
X113210000Y-95050000D03*
X124266227Y-109473681D03*
X108490000Y-93080000D03*
X108819489Y-93920000D03*
X113240000Y-95860000D03*
X123869036Y-109852356D03*
X112390000Y-95850000D03*
X123466215Y-109476939D03*
X111620000Y-96650000D03*
X122929705Y-109368926D03*
X112417020Y-97449949D03*
X122519899Y-109008111D03*
X111610000Y-97420000D03*
X122117670Y-109377355D03*
X110825468Y-97475861D03*
X121695054Y-109771389D03*
X121986987Y-92640010D03*
X120929511Y-107033011D03*
X125878313Y-105831687D03*
X109000000Y-97829976D03*
X120345359Y-108670028D03*
X109010000Y-98629988D03*
X119800012Y-108579596D03*
X108940000Y-99430000D03*
X119392094Y-108950017D03*
X108950000Y-100250000D03*
X118988686Y-108582062D03*
X137596834Y-73884328D03*
X138140000Y-73940000D03*
X138103899Y-76180009D03*
X137540000Y-75940000D03*
X137950000Y-78545994D03*
X137950000Y-77999994D03*
X124421039Y-87050010D03*
X138166959Y-80306959D03*
X137792243Y-77330776D03*
X123610000Y-87850000D03*
X125200000Y-86840000D03*
X138553041Y-80693041D03*
X137406161Y-76944694D03*
X123600000Y-86130000D03*
X106484973Y-106863610D03*
X126523536Y-108482739D03*
X110222809Y-109730955D03*
X121976744Y-95890010D03*
X123795619Y-107044418D03*
X125949422Y-107123484D03*
X122019625Y-95089895D03*
X130040034Y-103115024D03*
D17*
X119610000Y-90999468D02*
X119610000Y-91026402D01*
X119610000Y-91026402D02*
X119586402Y-91050000D01*
D18*
X138250000Y-92720000D02*
X138740000Y-92230000D01*
X137530000Y-92720000D02*
X138250000Y-92720000D01*
X138740000Y-92230000D02*
X138740000Y-91680000D01*
X136320000Y-93930000D02*
X137530000Y-92720000D01*
X127508455Y-94291148D02*
X127869603Y-93930000D01*
X127869603Y-93930000D02*
X136320000Y-93930000D01*
X139350000Y-90380000D02*
X138610000Y-91120000D01*
X139570000Y-90380000D02*
X139350000Y-90380000D01*
X138610000Y-91120000D02*
X138610000Y-91560000D01*
X138610000Y-91560000D02*
X138740000Y-91690000D01*
X137440000Y-92450000D02*
X137697512Y-92450000D01*
X136380000Y-93510000D02*
X137440000Y-92450000D01*
X137697512Y-92450000D02*
X137917185Y-92230327D01*
X137917185Y-91182815D02*
X138760000Y-90340000D01*
X127970000Y-93510000D02*
X136380000Y-93510000D01*
X137917185Y-92230327D02*
X137917185Y-91182815D01*
X125765574Y-90252150D02*
X126423866Y-89593858D01*
X123637850Y-90252150D02*
X125765574Y-90252150D01*
X126398249Y-92986805D02*
X126369989Y-92989989D01*
X126484412Y-92918093D02*
X126469281Y-92942173D01*
X126509565Y-92783277D02*
X126500173Y-92810120D01*
X126524696Y-92759197D02*
X126509565Y-92783277D01*
X126623989Y-92711380D02*
X126595728Y-92714565D01*
X126652249Y-92714565D02*
X126623989Y-92711380D01*
X126679092Y-92723957D02*
X126652249Y-92714565D01*
X126703172Y-92739088D02*
X126679092Y-92723957D01*
X126738412Y-92783277D02*
X126723281Y-92759197D01*
X126750989Y-92838380D02*
X126747804Y-92810120D01*
X126754173Y-92891250D02*
X126750989Y-92862989D01*
X126778696Y-92942173D02*
X126763565Y-92918093D01*
X126822885Y-92977413D02*
X126798805Y-92962282D01*
X126877989Y-92989989D02*
X126849728Y-92986805D01*
X126933092Y-92977413D02*
X126906249Y-92986805D01*
X127004989Y-92862989D02*
X127001804Y-92891250D01*
X127004989Y-92838380D02*
X127004989Y-92862989D01*
X127008173Y-92810120D02*
X127004989Y-92838380D01*
X127076885Y-92723957D02*
X127052805Y-92739088D01*
X127103728Y-92714565D02*
X127076885Y-92723957D01*
X127160249Y-92714565D02*
X127131989Y-92711380D01*
X127187092Y-92723957D02*
X127160249Y-92714565D01*
X127211172Y-92739088D02*
X127187092Y-92723957D01*
X127231281Y-92759197D02*
X127211172Y-92739088D01*
X127246412Y-92783277D02*
X127231281Y-92759197D01*
X127255804Y-92810120D02*
X127246412Y-92783277D01*
X127258989Y-92838380D02*
X127255804Y-92810120D01*
X127258989Y-92862989D02*
X127258989Y-92838380D01*
X127262173Y-92891250D02*
X127258989Y-92862989D01*
X127271565Y-92918093D02*
X127262173Y-92891250D01*
X127131989Y-92711380D02*
X127103728Y-92714565D01*
X126849728Y-92986805D02*
X126822885Y-92977413D01*
X126723281Y-92759197D02*
X126703172Y-92739088D01*
X126977281Y-92942173D02*
X126957172Y-92962282D01*
X126425092Y-92977413D02*
X126398249Y-92986805D01*
X126493804Y-92891250D02*
X126484412Y-92918093D01*
X126496989Y-92862989D02*
X126493804Y-92891250D01*
X126992412Y-92918093D02*
X126977281Y-92942173D01*
X127032696Y-92759197D02*
X127017565Y-92783277D01*
X126798805Y-92962282D02*
X126778696Y-92942173D01*
X126369989Y-92989989D02*
X124719989Y-92989989D01*
X127052805Y-92739088D02*
X127032696Y-92759197D01*
X126750989Y-92862989D02*
X126750989Y-92838380D01*
X127357728Y-92986805D02*
X127330885Y-92977413D01*
X126906249Y-92986805D02*
X126877989Y-92989989D01*
X126449172Y-92962282D02*
X126425092Y-92977413D01*
X126763565Y-92918093D02*
X126754173Y-92891250D01*
X127385989Y-92989989D02*
X127357728Y-92986805D01*
X124719989Y-92989989D02*
X123580000Y-91850000D01*
X126957172Y-92962282D02*
X126933092Y-92977413D01*
X126595728Y-92714565D02*
X126568885Y-92723957D01*
X126568885Y-92723957D02*
X126544805Y-92739088D01*
X126544805Y-92739088D02*
X126524696Y-92759197D01*
X126496989Y-92838380D02*
X126496989Y-92862989D01*
X126469281Y-92942173D02*
X126449172Y-92962282D01*
X127330885Y-92977413D02*
X127306805Y-92962282D01*
X127286696Y-92942173D02*
X127271565Y-92918093D01*
X127001804Y-92891250D02*
X126992412Y-92918093D01*
X127017565Y-92783277D02*
X127008173Y-92810120D01*
X126500173Y-92810120D02*
X126496989Y-92838380D01*
X126747804Y-92810120D02*
X126738412Y-92783277D01*
X127306805Y-92962282D02*
X127286696Y-92942173D01*
X137120000Y-91012002D02*
X138602002Y-89530000D01*
X134797413Y-92977413D02*
X136762824Y-91012002D01*
X131819152Y-92974229D02*
X131847413Y-92977413D01*
X138602002Y-89530000D02*
X138770000Y-89530000D01*
X131720413Y-92704413D02*
X131720413Y-92850413D01*
X131717228Y-92676153D02*
X131720413Y-92704413D01*
X136762824Y-91012002D02*
X137120000Y-91012002D01*
X131723597Y-92878674D02*
X131732989Y-92905517D01*
X131224791Y-93156648D02*
X131239684Y-93180349D01*
X131215547Y-93130228D02*
X131224791Y-93156648D01*
X131341413Y-93227413D02*
X131369228Y-93224278D01*
X131239684Y-93180349D02*
X131259476Y-93200141D01*
X131419349Y-93200141D02*
X131439141Y-93180349D01*
X131337413Y-93227413D02*
X131341413Y-93227413D01*
X131259476Y-93200141D02*
X131283177Y-93215034D01*
X131087413Y-92977413D02*
X131115228Y-92980547D01*
X131648516Y-92589990D02*
X131672596Y-92605121D01*
X131466413Y-92704413D02*
X131469597Y-92676153D01*
X131115228Y-92980547D02*
X131141648Y-92989791D01*
X131165349Y-93004684D02*
X131185141Y-93024476D01*
X131672596Y-92605121D02*
X131692705Y-92625230D01*
X131792309Y-92964837D02*
X131819152Y-92974229D01*
X131141648Y-92989791D02*
X131165349Y-93004684D01*
X131209278Y-93074597D02*
X131215547Y-93130228D01*
X131454034Y-93156648D02*
X131463278Y-93130228D01*
X131748120Y-92929597D02*
X131768229Y-92949706D01*
X131309597Y-93224278D02*
X131337413Y-93227413D01*
X131200034Y-93048177D02*
X131209278Y-93074597D01*
X127330885Y-92977413D02*
X131087413Y-92977413D01*
X131514229Y-92605121D02*
X131538309Y-92589990D01*
X131185141Y-93024476D02*
X131200034Y-93048177D01*
X131283177Y-93215034D02*
X131309597Y-93224278D01*
X131395648Y-93215034D02*
X131419349Y-93200141D01*
X131720413Y-92850413D02*
X131723597Y-92878674D01*
X131593413Y-92577413D02*
X131621673Y-92580598D01*
X131439141Y-93180349D02*
X131454034Y-93156648D01*
X131463278Y-93130228D02*
X131466413Y-93102413D01*
X131565152Y-92580598D02*
X131593413Y-92577413D01*
X131466413Y-93102413D02*
X131466413Y-92704413D01*
X131469597Y-92676153D02*
X131478989Y-92649310D01*
X131847413Y-92977413D02*
X134797413Y-92977413D01*
X131478989Y-92649310D02*
X131494120Y-92625230D01*
X131768229Y-92949706D02*
X131792309Y-92964837D01*
X131369228Y-93224278D02*
X131395648Y-93215034D01*
X131494120Y-92625230D02*
X131514229Y-92605121D01*
X131538309Y-92589990D02*
X131565152Y-92580598D01*
X131621673Y-92580598D02*
X131648516Y-92589990D01*
X131692705Y-92625230D02*
X131707836Y-92649310D01*
X131732989Y-92905517D02*
X131748120Y-92929597D01*
X131707836Y-92649310D02*
X131717228Y-92676153D01*
X122790000Y-91860000D02*
X123220000Y-92290000D01*
X123950429Y-93201980D02*
X125439607Y-94691158D01*
X125439607Y-94691158D02*
X127564091Y-94691158D01*
X123220000Y-92830775D02*
X123591205Y-93201980D01*
X127564091Y-94691158D02*
X127684154Y-94811221D01*
X123591205Y-93201980D02*
X123950429Y-93201980D01*
X123220000Y-92290000D02*
X123220000Y-92830775D01*
X127955518Y-101687900D02*
X127779500Y-101863918D01*
X133066400Y-101687900D02*
X127955518Y-101687900D01*
X138767120Y-95987180D02*
X133066400Y-101687900D01*
X135050000Y-94720000D02*
X134633098Y-95136902D01*
X136820000Y-94720000D02*
X135050000Y-94720000D01*
X136970000Y-94470000D02*
X136970000Y-94570000D01*
X136850000Y-94350000D02*
X136970000Y-94470000D01*
X132196000Y-94350000D02*
X136850000Y-94350000D01*
X132184873Y-94351253D02*
X132196000Y-94350000D01*
X132127174Y-94439091D02*
X132135091Y-94431174D01*
X136970000Y-94570000D02*
X136820000Y-94720000D01*
X132117694Y-94445048D02*
X132127174Y-94439091D01*
X132107126Y-94448746D02*
X132117694Y-94445048D01*
X132096000Y-94450000D02*
X132107126Y-94448746D01*
X131942000Y-94450000D02*
X132096000Y-94450000D01*
X131930873Y-94448746D02*
X131942000Y-94450000D01*
X131920305Y-94445048D02*
X131930873Y-94448746D01*
X131910825Y-94439091D02*
X131920305Y-94445048D01*
X131902908Y-94431174D02*
X131910825Y-94439091D01*
X131893253Y-94411126D02*
X131896951Y-94421694D01*
X131892000Y-94400000D02*
X131893253Y-94411126D01*
X131892000Y-94300000D02*
X131892000Y-94400000D01*
X131890746Y-94288874D02*
X131892000Y-94300000D01*
X131887048Y-94278306D02*
X131890746Y-94288874D01*
X131873174Y-94260909D02*
X131881091Y-94268826D01*
X131688000Y-94250000D02*
X131842000Y-94250000D01*
X131676873Y-94251254D02*
X131688000Y-94250000D01*
X131666305Y-94254952D02*
X131676873Y-94251254D01*
X131656825Y-94260909D02*
X131666305Y-94254952D01*
X131638000Y-94300000D02*
X131639253Y-94288874D01*
X131636746Y-94411126D02*
X131638000Y-94400000D01*
X131842000Y-94250000D02*
X131853126Y-94251254D01*
X131633048Y-94421694D02*
X131636746Y-94411126D01*
X131627091Y-94431174D02*
X131633048Y-94421694D01*
X131609694Y-94445048D02*
X131619174Y-94439091D01*
X131599126Y-94448746D02*
X131609694Y-94445048D01*
X131434000Y-94450000D02*
X131588000Y-94450000D01*
X131388951Y-94421694D02*
X131394908Y-94431174D01*
X131385253Y-94411126D02*
X131388951Y-94421694D01*
X131384000Y-94400000D02*
X131385253Y-94411126D01*
X131384000Y-94300000D02*
X131384000Y-94400000D01*
X131382746Y-94288874D02*
X131384000Y-94300000D01*
X131379048Y-94278306D02*
X131382746Y-94288874D01*
X131373091Y-94268826D02*
X131379048Y-94278306D01*
X131345126Y-94251254D02*
X131355694Y-94254952D01*
X131334000Y-94250000D02*
X131345126Y-94251254D01*
X131168873Y-94251254D02*
X131180000Y-94250000D01*
X131158305Y-94254952D02*
X131168873Y-94251254D01*
X131140908Y-94268826D02*
X131148825Y-94260909D01*
X131134951Y-94278306D02*
X131140908Y-94268826D01*
X132174305Y-94354951D02*
X132184873Y-94351253D01*
X131130000Y-94300000D02*
X131131253Y-94288874D01*
X132164825Y-94360908D02*
X132174305Y-94354951D01*
X131130000Y-94400000D02*
X131130000Y-94300000D01*
X132156908Y-94368825D02*
X132164825Y-94360908D01*
X131128746Y-94411126D02*
X131130000Y-94400000D01*
X131125048Y-94421694D02*
X131128746Y-94411126D01*
X132144746Y-94411126D02*
X132147253Y-94388873D01*
X131111174Y-94439091D02*
X131119091Y-94431174D01*
X132141048Y-94421694D02*
X132144746Y-94411126D01*
X131101694Y-94445048D02*
X131111174Y-94439091D01*
X131091126Y-94448746D02*
X131101694Y-94445048D01*
X130904305Y-94445048D02*
X130914873Y-94448746D01*
X130142305Y-94254952D02*
X130152873Y-94251254D01*
X131639253Y-94288874D02*
X131642951Y-94278306D01*
X130865091Y-94268826D02*
X130871048Y-94278306D01*
X131853126Y-94251254D02*
X131863694Y-94254952D01*
X130124908Y-94268826D02*
X130132825Y-94260909D01*
X130876000Y-94400000D02*
X130877253Y-94411126D01*
X131588000Y-94450000D02*
X131599126Y-94448746D01*
X131080000Y-94450000D02*
X131091126Y-94448746D01*
X130329126Y-94251254D02*
X130339694Y-94254952D01*
X131619174Y-94439091D02*
X131627091Y-94431174D01*
X129910000Y-94450000D02*
X130064000Y-94450000D01*
X130837126Y-94251254D02*
X130847694Y-94254952D01*
X132135091Y-94431174D02*
X132141048Y-94421694D01*
X130103091Y-94431174D02*
X130109048Y-94421694D01*
X131131253Y-94288874D02*
X131134951Y-94278306D01*
X130115253Y-94288874D02*
X130118951Y-94278306D01*
X130095174Y-94439091D02*
X130103091Y-94431174D01*
X131412305Y-94445048D02*
X131422873Y-94448746D01*
X130622000Y-94300000D02*
X130623253Y-94288874D01*
X130109048Y-94421694D02*
X130112746Y-94411126D01*
X131881091Y-94268826D02*
X131887048Y-94278306D01*
X130114000Y-94400000D02*
X130114000Y-94300000D01*
X130075126Y-94448746D02*
X130085694Y-94445048D01*
X129841174Y-94360908D02*
X129849091Y-94368825D01*
X131863694Y-94254952D02*
X131873174Y-94260909D01*
X131180000Y-94250000D02*
X131334000Y-94250000D01*
X130118951Y-94278306D02*
X130124908Y-94268826D01*
X131355694Y-94254952D02*
X131365174Y-94260909D01*
X130926000Y-94450000D02*
X131080000Y-94450000D01*
X130368000Y-94300000D02*
X130368000Y-94400000D01*
X129878825Y-94439091D02*
X129888305Y-94445048D01*
X130874746Y-94288874D02*
X130876000Y-94300000D01*
X130650305Y-94254952D02*
X130660873Y-94251254D01*
X130152873Y-94251254D02*
X130164000Y-94250000D01*
X131365174Y-94260909D02*
X131373091Y-94268826D01*
X129888305Y-94445048D02*
X129898873Y-94448746D01*
X130611091Y-94431174D02*
X130617048Y-94421694D01*
X129810000Y-94350000D02*
X129821126Y-94351253D01*
X134633098Y-95136902D02*
X133946810Y-95136902D01*
X130349174Y-94260909D02*
X130357091Y-94268826D01*
X130357091Y-94268826D02*
X130363048Y-94278306D01*
X130847694Y-94254952D02*
X130857174Y-94260909D01*
X130876000Y-94300000D02*
X130876000Y-94400000D01*
X129858746Y-94388873D02*
X129861253Y-94411126D01*
X130132825Y-94260909D02*
X130142305Y-94254952D01*
X131422873Y-94448746D02*
X131434000Y-94450000D01*
X129831694Y-94354951D02*
X129841174Y-94360908D01*
X130339694Y-94254952D02*
X130349174Y-94260909D01*
X128880000Y-94840000D02*
X129370000Y-94350000D01*
X131642951Y-94278306D02*
X131648908Y-94268826D01*
X130871048Y-94278306D02*
X130874746Y-94288874D01*
X131648908Y-94268826D02*
X131656825Y-94260909D01*
X130318000Y-94250000D02*
X130329126Y-94251254D01*
X130583126Y-94448746D02*
X130593694Y-94445048D01*
X129870908Y-94431174D02*
X129878825Y-94439091D01*
X132147253Y-94388873D02*
X132150951Y-94378305D01*
X131119091Y-94431174D02*
X131125048Y-94421694D01*
X129821126Y-94351253D02*
X129831694Y-94354951D01*
X130368000Y-94400000D02*
X130369253Y-94411126D01*
X129861253Y-94411126D02*
X129864951Y-94421694D01*
X130085694Y-94445048D02*
X130095174Y-94439091D01*
X129849091Y-94368825D02*
X129855048Y-94378305D01*
X130672000Y-94250000D02*
X130826000Y-94250000D01*
X132150951Y-94378305D02*
X132156908Y-94368825D01*
X130593694Y-94445048D02*
X130603174Y-94439091D01*
X130632908Y-94268826D02*
X130640825Y-94260909D01*
X131402825Y-94439091D02*
X131412305Y-94445048D01*
X130622000Y-94400000D02*
X130622000Y-94300000D01*
X129898873Y-94448746D02*
X129910000Y-94450000D01*
X130640825Y-94260909D02*
X130650305Y-94254952D01*
X130914873Y-94448746D02*
X130926000Y-94450000D01*
X130363048Y-94278306D02*
X130366746Y-94288874D01*
X130626951Y-94278306D02*
X130632908Y-94268826D01*
X130164000Y-94250000D02*
X130318000Y-94250000D01*
X130366746Y-94288874D02*
X130368000Y-94300000D01*
X130369253Y-94411126D02*
X130372951Y-94421694D01*
X131148825Y-94260909D02*
X131158305Y-94254952D01*
X130603174Y-94439091D02*
X130611091Y-94431174D01*
X129370000Y-94350000D02*
X129810000Y-94350000D01*
X130372951Y-94421694D02*
X130378908Y-94431174D01*
X130064000Y-94450000D02*
X130075126Y-94448746D01*
X130826000Y-94250000D02*
X130837126Y-94251254D01*
X131638000Y-94400000D02*
X131638000Y-94300000D01*
X128400000Y-94840000D02*
X128880000Y-94840000D01*
X130378908Y-94431174D02*
X130386825Y-94439091D01*
X130396305Y-94445048D02*
X130406873Y-94448746D01*
X130886908Y-94431174D02*
X130894825Y-94439091D01*
X130406873Y-94448746D02*
X130418000Y-94450000D01*
X130418000Y-94450000D02*
X130572000Y-94450000D01*
X131896951Y-94421694D02*
X131902908Y-94431174D01*
X130572000Y-94450000D02*
X130583126Y-94448746D01*
X129864951Y-94421694D02*
X129870908Y-94431174D01*
X129855048Y-94378305D02*
X129858746Y-94388873D01*
X130617048Y-94421694D02*
X130620746Y-94411126D01*
X131394908Y-94431174D02*
X131402825Y-94439091D01*
X130620746Y-94411126D02*
X130622000Y-94400000D01*
X130114000Y-94300000D02*
X130115253Y-94288874D01*
X130623253Y-94288874D02*
X130626951Y-94278306D01*
X130386825Y-94439091D02*
X130396305Y-94445048D01*
X130660873Y-94251254D02*
X130672000Y-94250000D01*
X130857174Y-94260909D02*
X130865091Y-94268826D01*
X130877253Y-94411126D02*
X130880951Y-94421694D01*
X130112746Y-94411126D02*
X130114000Y-94400000D01*
X130880951Y-94421694D02*
X130886908Y-94431174D01*
X130894825Y-94439091D02*
X130904305Y-94445048D01*
X128407344Y-101941911D02*
X128053334Y-102295921D01*
X128053334Y-102295921D02*
X128053334Y-102377231D01*
X139588131Y-95931844D02*
X133578064Y-101941911D01*
X133578064Y-101941911D02*
X128407344Y-101941911D01*
X127376615Y-102237657D02*
X127379934Y-102240976D01*
X139527539Y-95155001D02*
X139095362Y-95587178D01*
X133461489Y-95587178D02*
X127376615Y-101672052D01*
X127376615Y-101672052D02*
X127376615Y-102237657D01*
X139095362Y-95587178D02*
X133461489Y-95587178D01*
X107161527Y-107155634D02*
X108036991Y-107155634D01*
X106953527Y-106947634D02*
X107161527Y-107155634D01*
X108036991Y-107155634D02*
X108344384Y-107463027D01*
X107211968Y-106218032D02*
X106953527Y-106476473D01*
X106953527Y-106476473D02*
X106953527Y-106947634D01*
X107448996Y-106218032D02*
X107211968Y-106218032D01*
X109718002Y-101575529D02*
X109421725Y-101575529D01*
X106081132Y-100370011D02*
X105909449Y-100198328D01*
X105909449Y-100198328D02*
X105754142Y-100198328D01*
X108216207Y-100370011D02*
X106081132Y-100370011D01*
X109421725Y-101575529D02*
X108216207Y-100370011D01*
X108719261Y-106755633D02*
X108801961Y-106672933D01*
X107353528Y-106755633D02*
X108719261Y-106755633D01*
X108051563Y-99523305D02*
X105863465Y-99523305D01*
X108454021Y-99925763D02*
X108051563Y-99523305D01*
X121969945Y-89409945D02*
X121969945Y-89450000D01*
X118010000Y-87850000D02*
X118010000Y-86411169D01*
X118010000Y-86411169D02*
X118325989Y-86095180D01*
X118768775Y-84220000D02*
X118807002Y-84220000D01*
X118325989Y-84662786D02*
X118768775Y-84220000D01*
X118325989Y-86095180D02*
X118325989Y-84662786D01*
X120601765Y-82425237D02*
X120816305Y-82425237D01*
X120816305Y-82425237D02*
X121067902Y-82173640D01*
X118807002Y-84220000D02*
X120601765Y-82425237D01*
X132176959Y-81043435D02*
X132176959Y-80836959D01*
X130037394Y-83183000D02*
X132176959Y-81043435D01*
X128123260Y-84382691D02*
X128145197Y-84365197D01*
X128097980Y-84394865D02*
X128123260Y-84382691D01*
X128145197Y-84365197D02*
X129327394Y-83183000D01*
X127989932Y-84382691D02*
X128015211Y-84394865D01*
X129327394Y-83183000D02*
X130037394Y-83183000D01*
X127862694Y-84259896D02*
X127967995Y-84365197D01*
X127800125Y-84209999D02*
X127862694Y-84259896D01*
X127728022Y-84175276D02*
X127800125Y-84209999D01*
X127569971Y-84157468D02*
X127650000Y-84157468D01*
X127419846Y-84209999D02*
X127491949Y-84175276D01*
X127258824Y-84358348D02*
X127357277Y-84259896D01*
X127650000Y-84157468D02*
X127728022Y-84175276D01*
X127208927Y-84420917D02*
X127258824Y-84358348D01*
X128070625Y-84401109D02*
X128097980Y-84394865D01*
X127174204Y-84493020D02*
X127208927Y-84420917D01*
X127156396Y-84571042D02*
X127174204Y-84493020D01*
X128015211Y-84394865D02*
X128042566Y-84401109D01*
X127258824Y-84863765D02*
X127208927Y-84801196D01*
X127393792Y-85016282D02*
X127381618Y-84991002D01*
X127491949Y-84175276D02*
X127569971Y-84157468D01*
X127400036Y-85043637D02*
X127393792Y-85016282D01*
X127400036Y-85071696D02*
X127400036Y-85043637D01*
X127393792Y-85099051D02*
X127400036Y-85071696D01*
X127364124Y-84969065D02*
X127258824Y-84863765D01*
X127156396Y-84651071D02*
X127156396Y-84571042D01*
X127357277Y-84259896D02*
X127419846Y-84209999D01*
X127381618Y-84991002D02*
X127364124Y-84969065D01*
X127967995Y-84365197D02*
X127989932Y-84382691D01*
X127296669Y-85213725D02*
X127364124Y-85146267D01*
X127174204Y-84729093D02*
X127156396Y-84651071D01*
X127208927Y-84801196D02*
X127174204Y-84729093D01*
X128042566Y-84401109D02*
X128070625Y-84401109D01*
X127364124Y-85146267D02*
X127381618Y-85124330D01*
X127381618Y-85124330D02*
X127393792Y-85099051D01*
X122400000Y-87760278D02*
X122400000Y-86090394D01*
X122392482Y-87827003D02*
X122400000Y-87760278D01*
X122033414Y-88067657D02*
X122166865Y-88052620D01*
X121970035Y-88089834D02*
X122033414Y-88067657D01*
X127060000Y-85450000D02*
X127300000Y-85210000D01*
X121913179Y-88125559D02*
X121970035Y-88089834D01*
X121829974Y-88229895D02*
X121865699Y-88173039D01*
X121807797Y-88293274D02*
X121829974Y-88229895D01*
X121800278Y-88360000D02*
X121807797Y-88293274D01*
X122400000Y-86090394D02*
X123040394Y-85450000D01*
X122334580Y-88773039D02*
X122287100Y-88725559D01*
X121865699Y-88173039D02*
X121913179Y-88125559D01*
X122392482Y-88893274D02*
X122370305Y-88829895D01*
X122768335Y-90249288D02*
X122400000Y-89880953D01*
X122370305Y-88829895D02*
X122334580Y-88773039D01*
X122334580Y-87947238D02*
X122370305Y-87890382D01*
X121970035Y-88630443D02*
X121913179Y-88594718D01*
X122400000Y-89880953D02*
X122400000Y-88960000D01*
X123040394Y-85450000D02*
X127060000Y-85450000D01*
X122287100Y-88725559D02*
X122230244Y-88689834D01*
X122166865Y-88052620D02*
X122230244Y-88030443D01*
X122230244Y-88689834D02*
X122166865Y-88667657D01*
X122230244Y-88030443D02*
X122287100Y-87994718D01*
X122166865Y-88667657D02*
X122033414Y-88652620D01*
X122287100Y-87994718D02*
X122334580Y-87947238D01*
X122400000Y-88960000D02*
X122392482Y-88893274D01*
X122033414Y-88652620D02*
X121970035Y-88630443D01*
X122370305Y-87890382D02*
X122392482Y-87827003D01*
X121913179Y-88594718D02*
X121865699Y-88547238D01*
X121865699Y-88547238D02*
X121829974Y-88490382D01*
X121829974Y-88490382D02*
X121807797Y-88427003D01*
X121807797Y-88427003D02*
X121800278Y-88360278D01*
X121800278Y-88360278D02*
X121800278Y-88360000D01*
X128016581Y-84662728D02*
X127938559Y-84644920D01*
X127559227Y-85310374D02*
X127543729Y-85325872D01*
X127436433Y-84677720D02*
X127453927Y-84699657D01*
X127661655Y-85097680D02*
X127643847Y-85175702D01*
X127418015Y-84597027D02*
X127418015Y-84625086D01*
X128174632Y-84644920D02*
X128096610Y-84662728D01*
X128096610Y-84662728D02*
X128016581Y-84662728D01*
X127866456Y-84610197D02*
X127803887Y-84560300D01*
X127609124Y-85247805D02*
X127559227Y-85310374D01*
X127595955Y-84419087D02*
X127568600Y-84425331D01*
X132563041Y-81223041D02*
X132356565Y-81223041D01*
X127453927Y-84699657D02*
X127559227Y-84804957D01*
X132356565Y-81223041D02*
X130142606Y-83437000D01*
X127543729Y-85325872D02*
X127476274Y-85393330D01*
X127698586Y-84454999D02*
X127676649Y-84437505D01*
X130142606Y-83437000D02*
X129432606Y-83437000D01*
X128309304Y-84560300D02*
X128246735Y-84610197D01*
X129432606Y-83437000D02*
X128309304Y-84560300D01*
X128246735Y-84610197D02*
X128174632Y-84644920D01*
X127651369Y-84425331D02*
X127624014Y-84419087D01*
X127453927Y-84522455D02*
X127436433Y-84544392D01*
X127559227Y-84804957D02*
X127609124Y-84867526D01*
X127938559Y-84644920D02*
X127866456Y-84610197D01*
X127803887Y-84560300D02*
X127698586Y-84454999D01*
X127676649Y-84437505D02*
X127651369Y-84425331D01*
X127436433Y-84544392D02*
X127424259Y-84569672D01*
X127624014Y-84419087D02*
X127595955Y-84419087D01*
X127424259Y-84652441D02*
X127436433Y-84677720D01*
X127568600Y-84425331D02*
X127543321Y-84437505D01*
X127543321Y-84437505D02*
X127521384Y-84454999D01*
X127521384Y-84454999D02*
X127453927Y-84522455D01*
X127424259Y-84569672D02*
X127418015Y-84597027D01*
X127418015Y-84625086D02*
X127424259Y-84652441D01*
X127609124Y-84867526D02*
X127643847Y-84939629D01*
X127643847Y-84939629D02*
X127661655Y-85017651D01*
X127661655Y-85017651D02*
X127661655Y-85097680D01*
X127643847Y-85175702D02*
X127609124Y-85247805D01*
X127160000Y-85710000D02*
X123139606Y-85710000D01*
X123139606Y-85710000D02*
X122720000Y-86129606D01*
X127370000Y-85500000D02*
X127160000Y-85710000D01*
X123200011Y-90660011D02*
X123590000Y-91050000D01*
X122720000Y-86129606D02*
X122720000Y-88761993D01*
X122720000Y-88761993D02*
X123200011Y-89242004D01*
X123200011Y-89242004D02*
X123200011Y-90660011D01*
X127401890Y-85467732D02*
X127476282Y-85393337D01*
X127370000Y-85500000D02*
X127370000Y-85499604D01*
X127401872Y-85467732D02*
X127401890Y-85467732D01*
X127370000Y-85499604D02*
X127401872Y-85467732D01*
X113700000Y-77520000D02*
X113700000Y-76850000D01*
X111740000Y-74890000D02*
X111740000Y-74050000D01*
X113700000Y-76850000D02*
X111740000Y-74890000D01*
X116430628Y-85022862D02*
X116430628Y-87829372D01*
X117023490Y-84430000D02*
X116430628Y-85022862D01*
X117925979Y-84644021D02*
X117925979Y-85865226D01*
X118310000Y-84260000D02*
X117925979Y-84644021D01*
X118310000Y-84260000D02*
X118310000Y-84219803D01*
X120352796Y-82177007D02*
X120562295Y-81967508D01*
X118310000Y-84219803D02*
X120352796Y-82177007D01*
X115737589Y-83717951D02*
X115737589Y-83734008D01*
X110657407Y-81947593D02*
X110657407Y-82582589D01*
X110432208Y-81722394D02*
X110657407Y-81947593D01*
X108198174Y-85041826D02*
X103660000Y-89580000D01*
X115070512Y-75005124D02*
X115070512Y-78169488D01*
X110582261Y-82657737D02*
X108198174Y-85041826D01*
X110854656Y-81299946D02*
X110432208Y-81299946D01*
X110432208Y-81299946D02*
X110432208Y-81722394D01*
X114915368Y-74849980D02*
X115070512Y-75005124D01*
X96693000Y-90547000D02*
X95682606Y-90547000D01*
X110657407Y-82582589D02*
X110582261Y-82657737D01*
X95447000Y-90782606D02*
X95447000Y-90977394D01*
X95447000Y-90977394D02*
X95646565Y-91176959D01*
X115070512Y-78169488D02*
X111714852Y-81525146D01*
X95682606Y-90547000D02*
X95447000Y-90782606D01*
X95646565Y-91176959D02*
X95853041Y-91176959D01*
X97660000Y-89580000D02*
X96693000Y-90547000D01*
X103660000Y-89580000D02*
X97660000Y-89580000D01*
X111714852Y-81525146D02*
X111079856Y-81525146D01*
X111079856Y-81525146D02*
X110854656Y-81299946D01*
X95193000Y-91082606D02*
X95466959Y-91356565D01*
X110175639Y-81193672D02*
X110175639Y-81828668D01*
X111608578Y-81268578D02*
X111186130Y-81268578D01*
X110175639Y-81828668D02*
X110400839Y-82053867D01*
X110400839Y-82053867D02*
X110400840Y-82476316D01*
X96557394Y-90284906D02*
X96557394Y-90293000D01*
X95466959Y-91356565D02*
X95466959Y-91563041D01*
X114816501Y-78060655D02*
X111608578Y-81268578D01*
X96557394Y-90293000D02*
X95577394Y-90293000D01*
X114540000Y-75249990D02*
X114816501Y-75526491D01*
X110960930Y-81043378D02*
X110325934Y-81043378D01*
X114816501Y-75526491D02*
X114816501Y-78060655D01*
X111186130Y-81268578D02*
X110960930Y-81043378D01*
X110325934Y-81043378D02*
X110175639Y-81193672D01*
X97520649Y-89321651D02*
X96557394Y-90284906D01*
X110400840Y-82476316D02*
X103555505Y-89321651D01*
X103555505Y-89321651D02*
X97520649Y-89321651D01*
X95577394Y-90293000D02*
X95193000Y-90677394D01*
X95193000Y-90677394D02*
X95193000Y-91082606D01*
X98326116Y-91166115D02*
X98326116Y-90959639D01*
X100298005Y-92331593D02*
X100298005Y-90904005D01*
X98510000Y-90780000D02*
X98635989Y-90654011D01*
X99289995Y-90904005D02*
X99289995Y-92331593D01*
X98505755Y-90780000D02*
X98510000Y-90780000D01*
X98326116Y-90959639D02*
X98505755Y-90780000D01*
X100298005Y-90904005D02*
X100548000Y-90654010D01*
X99289995Y-92331593D02*
X99688785Y-92730384D01*
X99688785Y-92730384D02*
X99899214Y-92730384D01*
X99899214Y-92730384D02*
X100298005Y-92331593D01*
X99040000Y-90654010D02*
X99289995Y-90904005D01*
X100548000Y-90654010D02*
X103925989Y-90654011D01*
X103925989Y-90654011D02*
X116479781Y-78100219D01*
X116479781Y-78100219D02*
X116479781Y-75181292D01*
X98635989Y-90654011D02*
X99040000Y-90654010D01*
X116479781Y-75181292D02*
X116270282Y-74971793D01*
X103817156Y-90400000D02*
X116150542Y-78066614D01*
X100043995Y-90798790D02*
X100442785Y-90400000D01*
X116150542Y-78066614D02*
X116150542Y-75616873D01*
X100043995Y-92226379D02*
X100043995Y-90798790D01*
X99544005Y-92226379D02*
X99794000Y-92476374D01*
X99145214Y-90400000D02*
X99544005Y-90798790D01*
X98522300Y-90400000D02*
X99145214Y-90400000D01*
X98381150Y-90545393D02*
X98381150Y-90541150D01*
X99794000Y-92476374D02*
X100043995Y-92226379D01*
X98146510Y-90780033D02*
X98381150Y-90545393D01*
X97940034Y-90780033D02*
X98146510Y-90780033D01*
X99544005Y-90798790D02*
X99544005Y-92226379D01*
X98381150Y-90541150D02*
X98522300Y-90400000D01*
X116150542Y-75616873D02*
X115941043Y-75407374D01*
X100442785Y-90400000D02*
X103817156Y-90400000D01*
X104140000Y-92050000D02*
X104919999Y-91269999D01*
X105343869Y-91269999D02*
X106555334Y-92481464D01*
X101790394Y-92050000D02*
X104140000Y-92050000D01*
X104919999Y-91269999D02*
X105343869Y-91269999D01*
X101086959Y-91553041D02*
X101293435Y-91553041D01*
X101293435Y-91553041D02*
X101790394Y-92050000D01*
X107190086Y-92481464D02*
X107339202Y-92332346D01*
X107339202Y-91697594D02*
X106127737Y-90486129D01*
X118023053Y-75239489D02*
X117813554Y-75029990D01*
X106555334Y-92481464D02*
X107190086Y-92481464D01*
X107339202Y-92332346D02*
X107339202Y-91697594D01*
X106127737Y-90486129D02*
X106127738Y-90062261D01*
X106127738Y-90062261D02*
X117710000Y-78480000D01*
X117710000Y-78480000D02*
X117710000Y-75726024D01*
X118023053Y-75412971D02*
X118023053Y-75239489D01*
X117710000Y-75726024D02*
X118023053Y-75412971D01*
X117450000Y-78380000D02*
X117450000Y-75480000D01*
X105947738Y-89882261D02*
X117450000Y-78380000D01*
X105873179Y-89956818D02*
X105947738Y-89882261D01*
X105873179Y-90591570D02*
X105873179Y-89956818D01*
X104080000Y-91750000D02*
X104814558Y-91015441D01*
X101849606Y-91750000D02*
X104080000Y-91750000D01*
X101473041Y-91166959D02*
X101473041Y-91373435D01*
X104814558Y-91015441D02*
X105449310Y-91015441D01*
X106660775Y-92226906D02*
X107084645Y-92226906D01*
X105449310Y-91015441D02*
X106660775Y-92226906D01*
X117450000Y-75480000D02*
X117390000Y-75420000D01*
X107084645Y-92226906D02*
X107084645Y-91803036D01*
X107084645Y-91803036D02*
X105873179Y-90591570D01*
X101473041Y-91373435D02*
X101849606Y-91750000D01*
X103241097Y-95952495D02*
X102606412Y-95952495D01*
X103389887Y-96735969D02*
X103389887Y-96101285D01*
X102290366Y-98259758D02*
X102290367Y-97835494D01*
X107382605Y-102548736D02*
X107667629Y-102263711D01*
X102714630Y-98259758D02*
X102290366Y-98259758D01*
X103227194Y-97747194D02*
X102714630Y-98259758D01*
X103227194Y-97747196D02*
X103227194Y-97747194D01*
X107667629Y-101629027D02*
X107518839Y-101480237D01*
X104448839Y-97160237D02*
X103814154Y-97160237D01*
X104597629Y-97309027D02*
X104448839Y-97160237D01*
X104597629Y-97943711D02*
X104597629Y-97309027D01*
X104312605Y-98228736D02*
X104597629Y-97943711D01*
X103814154Y-97160237D02*
X103227194Y-97747196D01*
X102606412Y-95952495D02*
X102019452Y-96539454D01*
X105297000Y-100887394D02*
X105297000Y-100007394D01*
X105841257Y-101431653D02*
X105297000Y-100887394D01*
X101708722Y-96850182D02*
X101446476Y-96850183D01*
X107382605Y-102973000D02*
X107382605Y-102548736D01*
X107667629Y-102263711D02*
X107667629Y-101629027D01*
X102290367Y-97835494D02*
X103389887Y-96735969D01*
X111770763Y-102973000D02*
X107382605Y-102973000D01*
X103389887Y-96101285D02*
X103241097Y-95952495D01*
X107518839Y-101480237D02*
X106884154Y-101480237D01*
X100147000Y-94456000D02*
X100302850Y-94300150D01*
X105841258Y-101674601D02*
X105841257Y-101431653D01*
X104387000Y-99097394D02*
X104387000Y-98727394D01*
X106068799Y-102263064D02*
X105677061Y-101871326D01*
X101446476Y-96850183D02*
X101284459Y-96688166D01*
X100147000Y-94487394D02*
X100147000Y-94456000D01*
X101284459Y-96425918D02*
X101595187Y-96115187D01*
X112222613Y-102521150D02*
X111770763Y-102973000D01*
X106297194Y-102067194D02*
X106280931Y-102083458D01*
X106280931Y-102083458D02*
X106101325Y-102263063D01*
X106101325Y-102263063D02*
X106068799Y-102263064D01*
X102019452Y-96539454D02*
X102019452Y-96539452D01*
X102019452Y-96539452D02*
X101708722Y-96850182D01*
X105297000Y-100007394D02*
X104387000Y-99097394D01*
X101284459Y-96688166D02*
X101284459Y-96425918D01*
X101595187Y-96115187D02*
X102182146Y-95528228D01*
X102182146Y-95528228D02*
X102182146Y-94893544D01*
X102182146Y-94893544D02*
X102033356Y-94744754D01*
X102033356Y-94744754D02*
X101398671Y-94744754D01*
X101398671Y-94744754D02*
X101113646Y-95029778D01*
X106884154Y-101480237D02*
X106297194Y-102067196D01*
X101113646Y-95029778D02*
X100689382Y-95029778D01*
X100689382Y-95029778D02*
X100147000Y-94487394D01*
X105677060Y-101838798D02*
X105841258Y-101674601D01*
X106297194Y-102067196D02*
X106297194Y-102067194D01*
X105677061Y-101871326D02*
X105677060Y-101838798D01*
X104387000Y-98727394D02*
X104312605Y-98653000D01*
X104312605Y-98653000D02*
X104312605Y-98228736D01*
X145223591Y-81087852D02*
X145206782Y-81052949D01*
X145312933Y-81159101D02*
X145278031Y-81142292D01*
X145449975Y-79905874D02*
X145368803Y-79866784D01*
X145427207Y-81159101D02*
X145389440Y-81167721D01*
X145462110Y-81142292D02*
X145427207Y-81159101D01*
X144762950Y-79218850D02*
X144706778Y-79148412D01*
X145951570Y-80715313D02*
X145870398Y-80754403D01*
X145650570Y-80148550D02*
X145611479Y-80067379D01*
X145247744Y-81118139D02*
X145223591Y-81087852D01*
X145247744Y-80873486D02*
X145555307Y-80565922D01*
X146055311Y-81901478D02*
X146046691Y-81863711D01*
X146247031Y-82082055D02*
X146222004Y-82076343D01*
X144671884Y-79113518D02*
X144601446Y-79057345D01*
X146460008Y-81344013D02*
X146499099Y-81262842D01*
X144173340Y-79057345D02*
X144102903Y-79113518D01*
X146499099Y-80997079D02*
X146460008Y-80915908D01*
X144822088Y-79477949D02*
X144822088Y-79387856D01*
X146403836Y-81414451D02*
X146460008Y-81344013D01*
X146072120Y-81936381D02*
X146055311Y-81901478D01*
X146096273Y-81722015D02*
X146403836Y-81414451D01*
X146576684Y-81862089D02*
X146506606Y-81895837D01*
X146096273Y-81966668D02*
X146072120Y-81936381D01*
X146519146Y-81084914D02*
X146499099Y-80997079D01*
X145190875Y-79846737D02*
X145103041Y-79866784D01*
X145611479Y-80067379D02*
X145555307Y-79996941D01*
X146222004Y-82076343D02*
X146198875Y-82065205D01*
X144358253Y-80204420D02*
X144349633Y-80166653D01*
X146320856Y-82065205D02*
X146297728Y-82076343D01*
X146917659Y-82771999D02*
X146911946Y-82746972D01*
X147131913Y-82417318D02*
X147149221Y-82341488D01*
X145021869Y-79905874D02*
X144951432Y-79962047D01*
X147077000Y-82947394D02*
X146944802Y-82815197D01*
X147098165Y-82117800D02*
X147049670Y-82056989D01*
X145278031Y-81142292D02*
X145247744Y-81118139D01*
X144375062Y-80239323D02*
X144358253Y-80204420D01*
X145492397Y-81118139D02*
X145462110Y-81142292D01*
X146368942Y-80810576D02*
X146298504Y-80754403D01*
X147077000Y-92282606D02*
X147077000Y-82947394D01*
X147149221Y-82263708D02*
X147131913Y-82187878D01*
X146297728Y-82076343D02*
X146272701Y-82082055D01*
X145103041Y-79866784D02*
X145021869Y-79905874D01*
X144417000Y-98022606D02*
X146507000Y-95932606D01*
X147049670Y-82056989D02*
X146937013Y-81944332D01*
X144399215Y-80024957D02*
X144706778Y-79717393D01*
X146944802Y-82815197D02*
X146928797Y-82795127D01*
X146178805Y-82049200D02*
X146096273Y-81966668D01*
X144375062Y-80055244D02*
X144399215Y-80024957D01*
X147049670Y-82548207D02*
X147098165Y-82487396D01*
X146298504Y-80754403D02*
X146217332Y-80715313D01*
X146445795Y-81944332D02*
X146340926Y-82049200D01*
X147131913Y-82187878D02*
X147098165Y-82117800D01*
X138726959Y-110233041D02*
X139643918Y-111150000D01*
X146340926Y-82049200D02*
X146320856Y-82065205D01*
X144822088Y-79387856D02*
X144802041Y-79300021D01*
X146198875Y-82065205D02*
X146178805Y-82049200D01*
X146499099Y-81262842D02*
X146519146Y-81175007D01*
X146046691Y-81863711D02*
X146046691Y-81824972D01*
X146129498Y-80695266D02*
X146039404Y-80695266D01*
X145206782Y-80938676D02*
X145223591Y-80903773D01*
X146911946Y-82721301D02*
X146917659Y-82696274D01*
X146460008Y-80915908D02*
X146403836Y-80845470D01*
X146055311Y-81787205D02*
X146072120Y-81752302D01*
X146652514Y-81844781D02*
X146576684Y-81862089D01*
X142547000Y-78267394D02*
X141198041Y-76918435D01*
X146507000Y-92852606D02*
X147077000Y-92282606D01*
X145368803Y-79866784D02*
X145280969Y-79846737D01*
X143090000Y-106399606D02*
X144417000Y-105072606D01*
X144802041Y-79300021D02*
X144762950Y-79218850D01*
X146507000Y-95932606D02*
X146507000Y-92852606D01*
X143090000Y-110260000D02*
X143090000Y-106399606D01*
X146928797Y-82795127D02*
X146917659Y-82771999D01*
X146917659Y-82696274D02*
X146928797Y-82673146D01*
X146506606Y-81895837D02*
X146445795Y-81944332D01*
X144706778Y-79717393D02*
X144762950Y-79646955D01*
X146937013Y-81944332D02*
X146876202Y-81895837D01*
X147098165Y-82487396D02*
X147131913Y-82417318D01*
X147149221Y-82341488D02*
X147149221Y-82263708D01*
X146876202Y-81895837D02*
X146806124Y-81862089D01*
X145389440Y-81167721D02*
X145350701Y-81167721D01*
X145555307Y-80565922D02*
X145611479Y-80495484D01*
X146911946Y-82746972D02*
X146911946Y-82721301D01*
X146403836Y-80845470D02*
X146368942Y-80810576D01*
X144706778Y-79148412D02*
X144671884Y-79113518D01*
X146806124Y-81862089D02*
X146730294Y-81844781D01*
X146730294Y-81844781D02*
X146652514Y-81844781D01*
X146928797Y-82673146D02*
X146944802Y-82653076D01*
X145198162Y-80976443D02*
X145206782Y-80938676D01*
X145223591Y-80903773D02*
X145247744Y-80873486D01*
X145611479Y-80495484D02*
X145650570Y-80414313D01*
X144643868Y-80269610D02*
X144613581Y-80293763D01*
X146046691Y-81824972D02*
X146055311Y-81787205D01*
X146039404Y-80695266D02*
X145951570Y-80715313D01*
X146072120Y-81752302D02*
X146096273Y-81722015D01*
X145650570Y-80414313D02*
X145670617Y-80326478D01*
X145670617Y-80326478D02*
X145670617Y-80236385D01*
X145670617Y-80236385D02*
X145650570Y-80148550D01*
X142200000Y-111150000D02*
X143090000Y-110260000D01*
X145555307Y-79996941D02*
X145520413Y-79962047D01*
X145520413Y-79962047D02*
X145449975Y-79905874D01*
X145280969Y-79846737D02*
X145190875Y-79846737D01*
X144951432Y-79962047D02*
X144643868Y-80269610D01*
X144802041Y-79565784D02*
X144822088Y-79477949D01*
X144613581Y-80293763D02*
X144578678Y-80310572D01*
X144432440Y-78998208D02*
X144342346Y-78998208D01*
X144578678Y-80310572D02*
X144540911Y-80319192D01*
X145350701Y-81167721D02*
X145312933Y-81159101D01*
X144540911Y-80319192D02*
X144502172Y-80319192D01*
X144502172Y-80319192D02*
X144464404Y-80310572D01*
X143580973Y-79445234D02*
X143550687Y-79421082D01*
X144417000Y-105072606D02*
X144417000Y-98022606D01*
X144464404Y-80310572D02*
X144429502Y-80293763D01*
X145870398Y-80754403D02*
X145799961Y-80810576D01*
X145198162Y-81015182D02*
X145198162Y-80976443D01*
X144429502Y-80293763D02*
X144399215Y-80269610D01*
X144399215Y-80269610D02*
X144375062Y-80239323D01*
X145799961Y-80810576D02*
X145492397Y-81118139D01*
X144349633Y-80127914D02*
X144358253Y-80090147D01*
X144358253Y-80090147D02*
X144375062Y-80055244D01*
X144762950Y-79646955D02*
X144802041Y-79565784D01*
X142547000Y-78417394D02*
X142547000Y-78267394D01*
X144601446Y-79057345D02*
X144520274Y-79018255D01*
X144520274Y-79018255D02*
X144432440Y-78998208D01*
X144342346Y-78998208D02*
X144254512Y-79018255D01*
X146272701Y-82082055D02*
X146247031Y-82082055D01*
X144254512Y-79018255D02*
X144173340Y-79057345D01*
X145206782Y-81052949D02*
X145198162Y-81015182D01*
X144349633Y-80166653D02*
X144349633Y-80127914D01*
X144102903Y-79113518D02*
X143795339Y-79421081D01*
X146519146Y-81175007D02*
X146519146Y-81084914D01*
X143795339Y-79421081D02*
X143765052Y-79445234D01*
X143765052Y-79445234D02*
X143730149Y-79462043D01*
X146944802Y-82653076D02*
X147049670Y-82548207D01*
X143692382Y-79470663D02*
X143653643Y-79470663D01*
X143653643Y-79470663D02*
X143615875Y-79462043D01*
X143730149Y-79462043D02*
X143692382Y-79470663D01*
X143615875Y-79462043D02*
X143580973Y-79445234D01*
X143550687Y-79421082D02*
X142547000Y-78417394D01*
X141198041Y-76918435D02*
X141198041Y-76711959D01*
X139643918Y-111150000D02*
X142200000Y-111150000D01*
X146217332Y-80715313D02*
X146129498Y-80695266D01*
X96443041Y-95773041D02*
X96443041Y-94956959D01*
X105252989Y-104582989D02*
X96443041Y-95773041D01*
X114967011Y-104582989D02*
X105252989Y-104582989D01*
X116774116Y-102759523D02*
X116774116Y-102775884D01*
X116774116Y-102775884D02*
X114967011Y-104582989D01*
X98379396Y-95777306D02*
X97951496Y-96205205D01*
X99248984Y-96616078D02*
X98805676Y-97059386D01*
X99666506Y-96198560D02*
X99248984Y-96616078D01*
X100087759Y-97027760D02*
X100087759Y-97485669D01*
X101069194Y-97296534D02*
X101304157Y-97531496D01*
X99572962Y-95517459D02*
X99740903Y-95685399D01*
X97951496Y-96452687D02*
X98198977Y-96452687D01*
X98090000Y-94323000D02*
X98090000Y-95030000D01*
X98273000Y-94140000D02*
X98090000Y-94323000D01*
X99481056Y-96878967D02*
X99938965Y-96878967D01*
X98805676Y-97059386D02*
X98805676Y-97306867D01*
X101304158Y-97977634D02*
X101214351Y-98067438D01*
X99740903Y-96124163D02*
X99666506Y-96198560D01*
X98805676Y-97306867D02*
X99053157Y-97306867D01*
X101378555Y-97605894D02*
X101378555Y-97903236D01*
X98379396Y-95319397D02*
X98379396Y-95777306D01*
X112426921Y-103527967D02*
X113065904Y-102888984D01*
X99134200Y-95517460D02*
X99572962Y-95517459D01*
X99659859Y-97913568D02*
X99659859Y-98161050D01*
X99740903Y-95685399D02*
X99740903Y-96124163D01*
X97951496Y-96205205D02*
X97951496Y-96452687D01*
X98090000Y-95030000D02*
X98379396Y-95319397D01*
X99053157Y-97306867D02*
X99481056Y-96878967D01*
X101378555Y-97903236D02*
X101304158Y-97977634D01*
X99938965Y-96878967D02*
X100087759Y-97027760D01*
X99659859Y-98161050D02*
X99907340Y-98161050D01*
X99907340Y-98161050D02*
X100771852Y-97296534D01*
X101214351Y-98067438D02*
X101214352Y-98154354D01*
X100771852Y-97296534D02*
X101069194Y-97296534D01*
X101214352Y-98154354D02*
X106587967Y-103527967D01*
X101304157Y-97531496D02*
X101378555Y-97605894D01*
X106587967Y-103527967D02*
X112426921Y-103527967D01*
X98198977Y-96452687D02*
X99134200Y-95517460D01*
X100087759Y-97485669D02*
X99659859Y-97913568D01*
X143017494Y-99356722D02*
X143055445Y-99352446D01*
X143596971Y-100159454D02*
X143567386Y-100074904D01*
X142503471Y-81100859D02*
X142469118Y-81093018D01*
X141539324Y-80179683D02*
X141524035Y-80147936D01*
X142538709Y-81100859D02*
X142503471Y-81100859D01*
X141561294Y-80207233D02*
X141539324Y-80179683D01*
X142573062Y-81093018D02*
X142538709Y-81100859D01*
X142981445Y-100869336D02*
X143017494Y-100856722D01*
X142604810Y-81077730D02*
X142573062Y-81093018D01*
X143034150Y-80653969D02*
X142632360Y-81055760D01*
X143375755Y-80534436D02*
X143282363Y-80534436D01*
X143466807Y-80555218D02*
X143375755Y-80534436D01*
X143718369Y-80763157D02*
X143660140Y-80690140D01*
X143779672Y-80938352D02*
X143758891Y-80847301D01*
X142884891Y-99677892D02*
X142884891Y-99523000D01*
X143779672Y-81031745D02*
X143779672Y-80938352D01*
X143660140Y-81279957D02*
X143718369Y-81206940D01*
X143258348Y-81681748D02*
X143660140Y-81279957D01*
X143236378Y-81709297D02*
X143258348Y-81681748D01*
X144069616Y-82693517D02*
X144061775Y-82659163D01*
X144508667Y-81538667D02*
X144472495Y-81502496D01*
X143213248Y-81775399D02*
X143221089Y-81741045D01*
X144566896Y-81611684D02*
X144508667Y-81538667D01*
X143550950Y-80595739D02*
X143466807Y-80555218D01*
X142469118Y-81093018D02*
X142437370Y-81077730D01*
X143213248Y-81810636D02*
X143213248Y-81775399D01*
X143221089Y-81844990D02*
X143213248Y-81810636D01*
X143236378Y-81876737D02*
X143221089Y-81844990D01*
X142931145Y-80183218D02*
X142931145Y-80089825D01*
X144084905Y-82557824D02*
X144106875Y-82530275D01*
X143387236Y-81949386D02*
X143351998Y-81949386D01*
X143718369Y-81206940D02*
X143758891Y-81122796D01*
X143421589Y-81941545D02*
X143387236Y-81949386D01*
X143453337Y-81926257D02*
X143421589Y-81941545D01*
X146367000Y-83397000D02*
X145321022Y-82351023D01*
X143480887Y-81904287D02*
X143453337Y-81926257D01*
X146367000Y-91752606D02*
X146367000Y-83397000D01*
X144039839Y-81403745D02*
X143955695Y-81444266D01*
X143567386Y-101574904D02*
X143519728Y-101499058D01*
X144130890Y-81382963D02*
X144039839Y-81403745D01*
X143607000Y-100452424D02*
X143607000Y-100248467D01*
X144224282Y-81382963D02*
X144130890Y-81382963D01*
X142889168Y-100985048D02*
X142901782Y-100948999D01*
X142061837Y-79150247D02*
X142021315Y-79066103D01*
X143055445Y-99848446D02*
X143017494Y-99844169D01*
X144069616Y-82589572D02*
X144084905Y-82557824D01*
X144061775Y-82623926D02*
X144069616Y-82589572D01*
X144106875Y-82752814D02*
X144084905Y-82725264D01*
X144166172Y-82790072D02*
X144134424Y-82774784D01*
X144200525Y-82797913D02*
X144166172Y-82790072D01*
X142409821Y-81055760D02*
X142387851Y-81028210D01*
X144329414Y-82752814D02*
X144301864Y-82774784D01*
X143380542Y-100812831D02*
X143456388Y-100765173D01*
X144508667Y-82128484D02*
X144566896Y-82055467D01*
X145687000Y-95312606D02*
X145687000Y-92432606D01*
X144979417Y-82231490D02*
X144888366Y-82252272D01*
X145072809Y-82231490D02*
X144979417Y-82231490D01*
X145248004Y-82292793D02*
X145163861Y-82252272D01*
X143206979Y-100852446D02*
X143295992Y-100842416D01*
X143567386Y-100625987D02*
X143596971Y-100541437D01*
X143567386Y-99125987D02*
X143596971Y-99041437D01*
X142811613Y-79841613D02*
X142775441Y-79805442D01*
X142901782Y-101251892D02*
X142889168Y-101215843D01*
X143519728Y-99999058D02*
X143456388Y-99935718D01*
X143955695Y-81444266D02*
X143882677Y-81502496D01*
X143456388Y-99265173D02*
X143519728Y-99201833D01*
X142949107Y-100889655D02*
X142981445Y-100869336D01*
X142364721Y-80926872D02*
X142372562Y-80892518D01*
X142901782Y-99448999D02*
X142922101Y-99416661D01*
X142537000Y-107892606D02*
X142537000Y-105912606D01*
X143317645Y-81941545D02*
X143285897Y-81926257D01*
X144270116Y-82790072D02*
X144235763Y-82797913D01*
X142884891Y-101023000D02*
X142889168Y-100985048D01*
X142107000Y-110093000D02*
X142107000Y-108322606D01*
X144607418Y-81695828D02*
X144566896Y-81611684D01*
X142884891Y-101177892D02*
X142884891Y-101023000D01*
X143055445Y-100852446D02*
X143206979Y-100852446D01*
X143258348Y-81904287D02*
X143236378Y-81876737D01*
X142981445Y-101331555D02*
X142949107Y-101311236D01*
X142082618Y-79241298D02*
X142061837Y-79150247D01*
X142632360Y-81055760D02*
X142604810Y-81077730D01*
X142889168Y-99485048D02*
X142901782Y-99448999D01*
X143017494Y-101344169D02*
X142981445Y-101331555D01*
X141516194Y-80113582D02*
X141516194Y-80078345D01*
X144084905Y-82725264D02*
X144069616Y-82693517D01*
X143295992Y-99342416D02*
X143380542Y-99312831D01*
X144888366Y-82252272D02*
X144804222Y-82292793D01*
X142185623Y-79805442D02*
X141783833Y-80207233D01*
X143055445Y-101348446D02*
X143017494Y-101344169D01*
X142433836Y-79685909D02*
X142342785Y-79706691D01*
X142537000Y-105912606D02*
X143607000Y-104842606D01*
X144566896Y-82055467D02*
X144607418Y-81971323D01*
X143596971Y-99041437D02*
X143607000Y-98952424D01*
X143017494Y-100856722D02*
X143055445Y-100852446D01*
X142922101Y-99416661D02*
X142949107Y-99389655D01*
X143456388Y-100765173D02*
X143519728Y-100701833D01*
X144061775Y-82659163D02*
X144061775Y-82623926D01*
X143295992Y-101358475D02*
X143206979Y-101348446D01*
X143519728Y-100701833D02*
X143567386Y-100625987D01*
X142889168Y-99715843D02*
X142884891Y-99677892D01*
X140903918Y-110620000D02*
X141580000Y-110620000D01*
X143191312Y-80555218D02*
X143107168Y-80595739D01*
X142372562Y-80996463D02*
X142364721Y-80962109D01*
X144804222Y-82292793D02*
X144731204Y-82351023D01*
X144399477Y-81444266D02*
X144315334Y-81403745D01*
X144235763Y-82797913D02*
X144200525Y-82797913D01*
X142922101Y-101284230D02*
X142901782Y-101251892D01*
X142949107Y-101311236D02*
X142922101Y-101284230D01*
X143206979Y-101348446D02*
X143055445Y-101348446D01*
X143660140Y-80690140D02*
X143623968Y-80653969D01*
X144106875Y-82530275D02*
X144508667Y-82128484D01*
X143519728Y-99201833D02*
X143567386Y-99125987D01*
X143607000Y-101748467D02*
X143596971Y-101659454D01*
X141620591Y-80244491D02*
X141588843Y-80229203D01*
X144607418Y-81971323D02*
X144628199Y-81880272D01*
X142618280Y-79706691D02*
X142527228Y-79685909D01*
X143519728Y-101499058D02*
X143456388Y-101435718D01*
X143351998Y-81949386D02*
X143317645Y-81941545D01*
X143456388Y-101435718D02*
X143380542Y-101388060D01*
X142409821Y-80833221D02*
X142811613Y-80431430D01*
X143758891Y-81122796D02*
X143779672Y-81031745D01*
X145163861Y-82252272D02*
X145072809Y-82231490D01*
X142082618Y-79334691D02*
X142082618Y-79241298D01*
X143295992Y-100842416D02*
X143380542Y-100812831D01*
X143596971Y-100541437D02*
X143607000Y-100452424D01*
X143607000Y-98952424D02*
X143607000Y-97392606D01*
X143107168Y-80595739D02*
X143034150Y-80653969D01*
X144472495Y-81502496D02*
X144399477Y-81444266D01*
X140546959Y-110263041D02*
X140903918Y-110620000D01*
X142922101Y-100916661D02*
X142949107Y-100889655D01*
X143607000Y-100248467D02*
X143596971Y-100159454D01*
X142387851Y-80860770D02*
X142409821Y-80833221D01*
X142364721Y-80962109D02*
X142364721Y-80926872D01*
X142949107Y-99389655D02*
X142981445Y-99369336D01*
X145687000Y-92432606D02*
X146367000Y-91752606D01*
X143882677Y-81502496D02*
X143480887Y-81904287D01*
X143206979Y-99848446D02*
X143055445Y-99848446D01*
X145321022Y-82351023D02*
X145248004Y-82292793D01*
X142372562Y-80892518D02*
X142387851Y-80860770D01*
X143567386Y-100074904D02*
X143519728Y-99999058D01*
X143596971Y-101659454D02*
X143567386Y-101574904D01*
X143456388Y-99935718D02*
X143380542Y-99888060D01*
X142910364Y-80274269D02*
X142931145Y-80183218D01*
X143380542Y-99888060D02*
X143295992Y-99858475D01*
X143295992Y-99858475D02*
X143206979Y-99848446D01*
X143017494Y-99844169D02*
X142981445Y-99831555D01*
X141524035Y-80043991D02*
X141539324Y-80012243D01*
X142889168Y-101215843D02*
X142884891Y-101177892D01*
X142981445Y-99831555D02*
X142949107Y-99811236D01*
X144628199Y-81880272D02*
X144628199Y-81786879D01*
X142527228Y-79685909D02*
X142433836Y-79685909D01*
X144628199Y-81786879D02*
X144607418Y-81695828D01*
X143282363Y-80534436D02*
X143191312Y-80555218D01*
X143607000Y-104842606D02*
X143607000Y-101748467D01*
X142922101Y-99784230D02*
X142901782Y-99751892D01*
X142901782Y-99751892D02*
X142889168Y-99715843D01*
X144731204Y-82351023D02*
X144329414Y-82752814D01*
X142931145Y-80089825D02*
X142910364Y-79998774D01*
X142107000Y-108322606D02*
X142537000Y-107892606D01*
X143055445Y-99352446D02*
X143206979Y-99352446D01*
X142901782Y-100948999D02*
X142922101Y-100916661D01*
X143206979Y-99352446D02*
X143295992Y-99342416D01*
X141963086Y-79582903D02*
X142021315Y-79509886D01*
X141580000Y-110620000D02*
X142107000Y-110093000D01*
X143380542Y-99312831D02*
X143456388Y-99265173D01*
X142910364Y-79998774D02*
X142869842Y-79914630D01*
X142775441Y-79805442D02*
X142702423Y-79747212D01*
X142702423Y-79747212D02*
X142618280Y-79706691D01*
X143623968Y-80653969D02*
X143550950Y-80595739D01*
X142342785Y-79706691D02*
X142258641Y-79747212D01*
X142258641Y-79747212D02*
X142185623Y-79805442D01*
X141783833Y-80207233D02*
X141756283Y-80229203D01*
X141756283Y-80229203D02*
X141724535Y-80244491D01*
X141724535Y-80244491D02*
X141690182Y-80252332D01*
X141690182Y-80252332D02*
X141654944Y-80252332D01*
X141654944Y-80252332D02*
X141620591Y-80244491D01*
X141588843Y-80229203D02*
X141561294Y-80207233D01*
X141524035Y-80147936D02*
X141516194Y-80113582D01*
X141516194Y-80078345D02*
X141524035Y-80043991D01*
X141539324Y-80012243D02*
X141561294Y-79984694D01*
X141561294Y-79984694D02*
X141963086Y-79582903D01*
X142021315Y-79509886D02*
X142061837Y-79425742D01*
X142061837Y-79425742D02*
X142082618Y-79334691D01*
X142021315Y-79066103D02*
X141963086Y-78993086D01*
X141257347Y-78287347D02*
X141257347Y-77902653D01*
X143758891Y-80847301D02*
X143718369Y-80763157D01*
X142949107Y-99811236D02*
X142922101Y-99784230D01*
X143221089Y-81741045D02*
X143236378Y-81709297D01*
X142869842Y-79914630D02*
X142811613Y-79841613D01*
X144134424Y-82774784D02*
X144106875Y-82752814D01*
X142981445Y-99369336D02*
X143017494Y-99356722D01*
X142884891Y-99523000D02*
X142889168Y-99485048D01*
X141963086Y-78993086D02*
X141257347Y-78287347D01*
X142387851Y-81028210D02*
X142372562Y-80996463D01*
X144301864Y-82774784D02*
X144270116Y-82790072D01*
X142811613Y-80431430D02*
X142869842Y-80358413D01*
X142869842Y-80358413D02*
X142910364Y-80274269D01*
X143380542Y-101388060D02*
X143295992Y-101358475D01*
X144315334Y-81403745D02*
X144224282Y-81382963D01*
X142437370Y-81077730D02*
X142409821Y-81055760D01*
X143285897Y-81926257D02*
X143258348Y-81904287D01*
X143607000Y-97392606D02*
X145687000Y-95312606D01*
X147235406Y-80105175D02*
X147261214Y-80051584D01*
X147261214Y-79876122D02*
X147235406Y-79822531D01*
X147084663Y-80265336D02*
X147198320Y-80151679D01*
X146722153Y-79309277D02*
X146668562Y-79283469D01*
X146439508Y-79309277D02*
X146393004Y-79346363D01*
X143242607Y-111777000D02*
X143747000Y-111272607D01*
X147110000Y-93400000D02*
X147697000Y-92813000D01*
X145020000Y-98340000D02*
X147110000Y-96250000D01*
X143747000Y-111272607D02*
X143747000Y-106573000D01*
X147697000Y-92813000D02*
X147697000Y-80877672D01*
X147274450Y-79993593D02*
X147274450Y-79934112D01*
X147110000Y-96250000D02*
X147110000Y-93400000D01*
X147261214Y-80051584D02*
X147274450Y-79993593D01*
X147697000Y-80877672D02*
X147084663Y-80265336D01*
X138510000Y-111493000D02*
X138794000Y-111777000D01*
X142109318Y-75289990D02*
X141813041Y-75289990D01*
X143747000Y-106573000D02*
X145020000Y-105300000D01*
X147274450Y-79934112D02*
X147261214Y-79876122D01*
X147235406Y-79822531D02*
X147198320Y-79776026D01*
X147198320Y-80151679D02*
X147235406Y-80105175D01*
X147198320Y-79776026D02*
X146768657Y-79346363D01*
X146668562Y-79283469D02*
X146610571Y-79270233D01*
X146768657Y-79346363D02*
X146722153Y-79309277D01*
X146610571Y-79270233D02*
X146551090Y-79270233D01*
X146493099Y-79283469D02*
X146439508Y-79309277D01*
X146393004Y-79346363D02*
X146279346Y-79460020D01*
X146279346Y-79460020D02*
X142109318Y-75289990D01*
X138794000Y-111777000D02*
X143242607Y-111777000D01*
X146551090Y-79270233D02*
X146493099Y-79283469D01*
X145020000Y-105300000D02*
X145020000Y-104480000D01*
X145020000Y-104480000D02*
X145020000Y-98340000D01*
X96043031Y-95732256D02*
X96043031Y-95345113D01*
X105147775Y-104837000D02*
X96043031Y-95732256D01*
X115113000Y-104837000D02*
X105147775Y-104837000D01*
X116693445Y-103457513D02*
X116492487Y-103457513D01*
X116492487Y-103457513D02*
X115113000Y-104837000D01*
X112778084Y-103781978D02*
X113608294Y-102951768D01*
X106482754Y-103781978D02*
X112778084Y-103781978D01*
X100960343Y-97962224D02*
X100960343Y-98259566D01*
X101124547Y-97798023D02*
X100960343Y-97962224D01*
X101124546Y-97711107D02*
X101124547Y-97798023D01*
X100963980Y-97550541D02*
X101124546Y-97711107D01*
X100653998Y-97773610D02*
X100877066Y-97550542D01*
X100653999Y-97773612D02*
X100653998Y-97773610D01*
X99554645Y-98415058D02*
X100012554Y-98415058D01*
X99405851Y-97808355D02*
X99405851Y-98266264D01*
X99833751Y-97380456D02*
X99405851Y-97808355D01*
X99586270Y-97132975D02*
X99833751Y-97132974D01*
X98700462Y-97560875D02*
X99158371Y-97560875D01*
X99486895Y-96018949D02*
X99069373Y-96436467D01*
X99239414Y-95771468D02*
X99467750Y-95771468D01*
X98304191Y-96706695D02*
X98945636Y-96065249D01*
X97846282Y-96706695D02*
X98304191Y-96706695D01*
X99069373Y-96436467D02*
X98551668Y-96954172D01*
X97697488Y-96099992D02*
X97697488Y-96557901D01*
X98125388Y-95672093D02*
X97697488Y-96099992D01*
X98125388Y-95424611D02*
X98125388Y-95672093D01*
X97697488Y-96557901D02*
X97846282Y-96706695D01*
X97830000Y-95129224D02*
X98125388Y-95424611D01*
X98945636Y-96065249D02*
X98945635Y-96065247D01*
X99158371Y-97560875D02*
X99586270Y-97132975D01*
X100012554Y-98415058D02*
X100653999Y-97773612D01*
X99467750Y-95771468D02*
X99486895Y-95790613D01*
X99405851Y-98266264D02*
X99554645Y-98415058D01*
X99833751Y-97132974D02*
X99833751Y-97380456D01*
X98551668Y-96954172D02*
X98551668Y-97412081D01*
X98945635Y-96065247D02*
X99239414Y-95771468D01*
X100960343Y-98259566D02*
X106482754Y-103781978D01*
X98551668Y-97412081D02*
X98700462Y-97560875D01*
X100877066Y-97550542D02*
X100963980Y-97550541D01*
X99486895Y-95790613D02*
X99486895Y-96018949D01*
X97727000Y-94140000D02*
X97830000Y-94243000D01*
X97830000Y-94243000D02*
X97830000Y-95129224D01*
X141780534Y-79236022D02*
X141765245Y-79204274D01*
X141788375Y-79305613D02*
X141788375Y-79270376D01*
X141780534Y-79339967D02*
X141788375Y-79305613D01*
X141765245Y-79371715D02*
X141780534Y-79339967D01*
X141743275Y-79399264D02*
X141765245Y-79371715D01*
X141242733Y-80233711D02*
X141221951Y-80142659D01*
X141283254Y-80317854D02*
X141242733Y-80233711D01*
X141341484Y-80390872D02*
X141283254Y-80317854D01*
X141450672Y-80485273D02*
X141377654Y-80427043D01*
X141625867Y-80546576D02*
X141534816Y-80525794D01*
X141719259Y-80546576D02*
X141625867Y-80546576D01*
X141810310Y-80525794D02*
X141719259Y-80546576D01*
X141967472Y-80427043D02*
X141894454Y-80485273D01*
X142369262Y-80025252D02*
X141967472Y-80427043D01*
X142396811Y-80003282D02*
X142369262Y-80025252D01*
X142428559Y-79987993D02*
X142396811Y-80003282D01*
X142462913Y-79980152D02*
X142428559Y-79987993D01*
X142498150Y-79980152D02*
X142462913Y-79980152D01*
X142532504Y-79987993D02*
X142498150Y-79980152D01*
X142564251Y-80003282D02*
X142532504Y-79987993D01*
X142591802Y-80025252D02*
X142564251Y-80003282D01*
X142629061Y-80084549D02*
X142613772Y-80052801D01*
X142636902Y-80118903D02*
X142629061Y-80084549D01*
X142636902Y-80154140D02*
X142636902Y-80118903D01*
X142190011Y-80649581D02*
X142591802Y-80247791D01*
X142091260Y-80806743D02*
X142131781Y-80722599D01*
X142070478Y-80991186D02*
X142070478Y-80897794D01*
X142091260Y-81082238D02*
X142070478Y-80991186D01*
X142131781Y-81166381D02*
X142091260Y-81082238D01*
X141788375Y-79270376D02*
X141780534Y-79236022D01*
X142190011Y-81239399D02*
X142131781Y-81166381D01*
X142226181Y-81275570D02*
X142190011Y-81239399D01*
X142299199Y-81333800D02*
X142226181Y-81275570D01*
X142383343Y-81374321D02*
X142299199Y-81333800D01*
X142474394Y-81395103D02*
X142383343Y-81374321D01*
X142567786Y-81395103D02*
X142474394Y-81395103D01*
X142658837Y-81374321D02*
X142567786Y-81395103D01*
X142742981Y-81333800D02*
X142658837Y-81374321D01*
X143217789Y-80873779D02*
X142815999Y-81275570D01*
X143245338Y-80851809D02*
X143217789Y-80873779D01*
X143311440Y-80828679D02*
X143277086Y-80836520D01*
X143412778Y-80851809D02*
X143381031Y-80836520D01*
X143477588Y-80933076D02*
X143462299Y-80901328D01*
X143485429Y-80967430D02*
X143477588Y-80933076D01*
X143440329Y-81096318D02*
X143462299Y-81068769D01*
X143336110Y-100501892D02*
X143348724Y-100465843D01*
X143231870Y-82222848D02*
X143147726Y-82182327D01*
X143322921Y-82243630D02*
X143231870Y-82222848D01*
X143416313Y-82243630D02*
X143322921Y-82243630D01*
X144914843Y-82570833D02*
X144513053Y-82972624D01*
X145043731Y-82525733D02*
X145008494Y-82525733D01*
X143462299Y-80901328D02*
X143440329Y-80873779D01*
X141853000Y-109212606D02*
X141853000Y-108217394D01*
X144229558Y-81685047D02*
X144195204Y-81677206D01*
X145109832Y-82548863D02*
X145078085Y-82533574D01*
X142629061Y-80188494D02*
X142636902Y-80154140D01*
X143788314Y-82503797D02*
X143828835Y-82419653D01*
X142613772Y-80220242D02*
X142629061Y-80188494D01*
X143767532Y-82594848D02*
X143788314Y-82503797D01*
X142591802Y-80247791D02*
X142613772Y-80220242D01*
X143767532Y-82688240D02*
X143767532Y-82594848D01*
X143220398Y-101606722D02*
X143182446Y-101602446D01*
X143220398Y-100594169D02*
X143256447Y-100581555D01*
X141850000Y-109215606D02*
X141853000Y-109212606D01*
X143348724Y-98965843D02*
X143353000Y-98927892D01*
X143336110Y-99001892D02*
X143348724Y-98965843D01*
X143288785Y-100139655D02*
X143256447Y-100119336D01*
X144261305Y-81700336D02*
X144229558Y-81685047D01*
X142070478Y-80897794D02*
X142091260Y-80806743D01*
X142781504Y-101515173D02*
X142718164Y-101451833D01*
X144326115Y-81781603D02*
X144310826Y-81749855D01*
X142670506Y-101375987D02*
X142640921Y-101291437D01*
X142781504Y-99185718D02*
X142857350Y-99138060D01*
X141743275Y-79176725D02*
X140857351Y-78290802D01*
X142980308Y-82014908D02*
X142939787Y-81930765D01*
X144310826Y-81917296D02*
X144326115Y-81885548D01*
X143256447Y-99081555D02*
X143288785Y-99061236D01*
X144513053Y-82972624D02*
X144440035Y-83030854D01*
X142815999Y-81275570D02*
X142742981Y-81333800D01*
X143030913Y-100598446D02*
X143182446Y-100598446D01*
X143288785Y-101639655D02*
X143256447Y-101619336D01*
X145433000Y-92327394D02*
X146113000Y-91647394D01*
X144333956Y-81815957D02*
X144326115Y-81781603D01*
X144974140Y-82533574D02*
X144942392Y-82548863D01*
X142640921Y-100909454D02*
X142670506Y-100824904D01*
X142718164Y-101451833D02*
X142670506Y-101375987D01*
X142131781Y-80722599D02*
X142190011Y-80649581D01*
X143485429Y-81002667D02*
X143485429Y-80967430D01*
X143788314Y-82779292D02*
X143767532Y-82688240D01*
X144355891Y-83071375D02*
X144264840Y-83092157D01*
X143381031Y-80836520D02*
X143346677Y-80828679D01*
X141341484Y-79801054D02*
X141743275Y-79399264D01*
X142630891Y-100998467D02*
X142640921Y-100909454D01*
X142939787Y-81655270D02*
X142980308Y-81571126D01*
X143030913Y-99098446D02*
X143182446Y-99098446D01*
X142630891Y-101202424D02*
X142630891Y-100998467D01*
X144440035Y-83030854D02*
X144355891Y-83071375D01*
X144942392Y-82548863D02*
X144914843Y-82570833D01*
X144066316Y-81722306D02*
X143664526Y-82124097D01*
X142919005Y-81839713D02*
X142919005Y-81746321D01*
X143038538Y-82087926D02*
X142980308Y-82014908D01*
X140933041Y-109876959D02*
X141406082Y-110350000D01*
X142640921Y-99791437D02*
X142630891Y-99702424D01*
X142857350Y-100062831D02*
X142781504Y-100015173D01*
X143477588Y-81037021D02*
X143485429Y-81002667D01*
X142640921Y-99409454D02*
X142670506Y-99324904D01*
X142613772Y-80052801D02*
X142591802Y-80025252D01*
X141765245Y-79204274D02*
X141743275Y-79176725D01*
X143353000Y-97287394D02*
X145433000Y-95207394D01*
X144093865Y-81700336D02*
X144066316Y-81722306D01*
X143923235Y-82972624D02*
X143887065Y-82936453D01*
X144288856Y-81944845D02*
X144310826Y-81917296D01*
X142718164Y-100749058D02*
X142781504Y-100685718D01*
X141221951Y-80049267D02*
X141242733Y-79958216D01*
X143353000Y-101773000D02*
X143348724Y-101735048D01*
X143220398Y-99094169D02*
X143256447Y-99081555D01*
X143030913Y-100102446D02*
X142941900Y-100092416D01*
X142941900Y-101592416D02*
X142857350Y-101562831D01*
X141221951Y-80142659D02*
X141221951Y-80049267D01*
X141242733Y-79958216D02*
X141283254Y-79874072D01*
X141283254Y-79874072D02*
X141341484Y-79801054D01*
X142670506Y-100824904D02*
X142718164Y-100749058D01*
X141406082Y-110350000D02*
X141460000Y-110350000D01*
X141460000Y-110350000D02*
X141850000Y-109960000D01*
X141850000Y-109960000D02*
X141850000Y-109215606D01*
X143440329Y-80873779D02*
X143412778Y-80851809D01*
X141853000Y-108217394D02*
X142283000Y-107787394D01*
X142283000Y-107787394D02*
X142283000Y-105807394D01*
X142283000Y-105807394D02*
X143353000Y-104737394D01*
X143353000Y-104737394D02*
X143353000Y-101773000D01*
X143348724Y-101735048D02*
X143336110Y-101698999D01*
X143315791Y-101666661D02*
X143288785Y-101639655D01*
X144195204Y-81677206D02*
X144159967Y-81677206D01*
X143256447Y-101619336D02*
X143220398Y-101606722D01*
X143182446Y-101602446D02*
X143030913Y-101602446D01*
X144288856Y-81722306D02*
X144261305Y-81700336D01*
X143030913Y-101602446D02*
X142941900Y-101592416D01*
X144159967Y-81677206D02*
X144125613Y-81685047D01*
X142640921Y-101291437D02*
X142630891Y-101202424D01*
X142781504Y-100685718D02*
X142857350Y-100638060D01*
X142857350Y-100638060D02*
X142941900Y-100608475D01*
X142941900Y-100608475D02*
X143030913Y-100598446D01*
X143182446Y-100598446D02*
X143220398Y-100594169D01*
X143462299Y-81068769D02*
X143477588Y-81037021D01*
X143887065Y-82936453D02*
X143828835Y-82863435D01*
X143256447Y-100581555D02*
X143288785Y-100561236D01*
X142857350Y-101562831D02*
X142781504Y-101515173D01*
X146113000Y-91647394D02*
X146113000Y-83546451D01*
X143346677Y-80828679D02*
X143311440Y-80828679D01*
X143288785Y-100561236D02*
X143315791Y-100534230D01*
X143828835Y-82419653D02*
X143887065Y-82346635D01*
X143348724Y-100465843D02*
X143353000Y-100427892D01*
X143315791Y-99034230D02*
X143336110Y-99001892D01*
X143353000Y-100273000D02*
X143348724Y-100235048D01*
X143348724Y-100235048D02*
X143336110Y-100198999D01*
X141894454Y-80485273D02*
X141810310Y-80525794D01*
X143336110Y-100198999D02*
X143315791Y-100166661D01*
X141534816Y-80525794D02*
X141450672Y-80485273D01*
X143256447Y-100119336D02*
X143220398Y-100106722D01*
X141377654Y-80427043D02*
X141341484Y-80390872D01*
X143220398Y-100106722D02*
X143182446Y-100102446D01*
X143277086Y-80836520D02*
X143245338Y-80851809D01*
X143182446Y-100102446D02*
X143030913Y-100102446D01*
X143507364Y-82222848D02*
X143416313Y-82243630D01*
X142941900Y-100092416D02*
X142857350Y-100062831D01*
X142781504Y-100015173D02*
X142718164Y-99951833D01*
X142718164Y-99951833D02*
X142670506Y-99875987D01*
X142670506Y-99875987D02*
X142640921Y-99791437D01*
X142630891Y-99702424D02*
X142630891Y-99498467D01*
X142630891Y-99498467D02*
X142640921Y-99409454D01*
X142670506Y-99324904D02*
X142718164Y-99249058D01*
X143038538Y-81498108D02*
X143440329Y-81096318D01*
X142718164Y-99249058D02*
X142781504Y-99185718D01*
X143887065Y-82346635D02*
X144288856Y-81944845D01*
X142857350Y-99138060D02*
X142941900Y-99108475D01*
X142941900Y-99108475D02*
X143030913Y-99098446D01*
X143182446Y-99098446D02*
X143220398Y-99094169D01*
X143353000Y-100427892D02*
X143353000Y-100273000D01*
X143288785Y-99061236D02*
X143315791Y-99034230D01*
X143315791Y-100166661D02*
X143288785Y-100139655D01*
X143353000Y-98927892D02*
X143353000Y-97287394D01*
X144125613Y-81685047D02*
X144093865Y-81700336D01*
X145433000Y-95207394D02*
X145433000Y-92327394D01*
X146113000Y-83546451D02*
X145137384Y-82570834D01*
X145137384Y-82570834D02*
X145109832Y-82548863D01*
X145008494Y-82525733D02*
X144974140Y-82533574D01*
X144264840Y-83092157D02*
X144171448Y-83092157D01*
X144171448Y-83092157D02*
X144080397Y-83071375D01*
X144080397Y-83071375D02*
X143996253Y-83030854D01*
X143996253Y-83030854D02*
X143923235Y-82972624D01*
X143828835Y-82863435D02*
X143788314Y-82779292D01*
X144326115Y-81885548D02*
X144333956Y-81851194D01*
X143315791Y-100534230D02*
X143336110Y-100501892D01*
X144333956Y-81851194D02*
X144333956Y-81815957D01*
X143336110Y-101698999D02*
X143315791Y-101666661D01*
X144310826Y-81749855D02*
X144288856Y-81722306D01*
X143664526Y-82124097D02*
X143591508Y-82182327D01*
X143591508Y-82182327D02*
X143507364Y-82222848D01*
X145078085Y-82533574D02*
X145043731Y-82525733D01*
X143147726Y-82182327D02*
X143074708Y-82124097D01*
X143074708Y-82124097D02*
X143038538Y-82087926D01*
X142939787Y-81930765D02*
X142919005Y-81839713D01*
X142919005Y-81746321D02*
X142939787Y-81655270D01*
X142980308Y-81571126D02*
X143038538Y-81498108D01*
X141433918Y-75690000D02*
X141426959Y-75683041D01*
X146086591Y-79675814D02*
X142100776Y-75690000D01*
X146186686Y-79738708D02*
X146133095Y-79712900D01*
X146244677Y-79751944D02*
X146186686Y-79738708D01*
X146304158Y-79751944D02*
X146244677Y-79751944D01*
X146982526Y-79968781D02*
X146575901Y-79562157D01*
X146868869Y-80082439D02*
X146982526Y-79968781D01*
X146831783Y-80128943D02*
X146868869Y-80082439D01*
X146805975Y-80182534D02*
X146831783Y-80128943D01*
X146792739Y-80300006D02*
X146792739Y-80240525D01*
X146462244Y-79675814D02*
X146415740Y-79712900D01*
X146868869Y-80458092D02*
X146831783Y-80411587D01*
X147442989Y-81032213D02*
X146868869Y-80458092D01*
X146805975Y-80357996D02*
X146792739Y-80300006D01*
X147442989Y-92697787D02*
X147442989Y-81032213D01*
X146855989Y-96144787D02*
X146855989Y-93284787D01*
X144765989Y-105194787D02*
X144765989Y-98234786D01*
X146362149Y-79738708D02*
X146304158Y-79751944D01*
X143492989Y-111167393D02*
X143492989Y-106467786D01*
X142100776Y-75690000D02*
X141433918Y-75690000D01*
X146792739Y-80240525D02*
X146805975Y-80182534D01*
X146831783Y-80411587D02*
X146805975Y-80357996D01*
X138806277Y-110947000D02*
X139382266Y-111522989D01*
X146855989Y-93284787D02*
X147442989Y-92697787D01*
X146415740Y-79712900D02*
X146362149Y-79738708D01*
X146133095Y-79712900D02*
X146086591Y-79675814D01*
X138510000Y-110947000D02*
X138806277Y-110947000D01*
X146575901Y-79562157D02*
X146462244Y-79675814D01*
X139382266Y-111522989D02*
X143137393Y-111522989D01*
X144765989Y-98234786D02*
X146855989Y-96144787D01*
X143137393Y-111522989D02*
X143492989Y-111167393D01*
X143492989Y-106467786D02*
X144765989Y-105194787D01*
X112251083Y-103110000D02*
X112274971Y-103086112D01*
X99893000Y-94456000D02*
X99747000Y-94310000D01*
X101503881Y-94998754D02*
X101218856Y-95283778D01*
X101928146Y-94998754D02*
X101503881Y-94998754D01*
X101928146Y-95423018D02*
X101928146Y-94998754D01*
X101415582Y-95935582D02*
X101928146Y-95423018D01*
X101104854Y-96246313D02*
X101415582Y-95935582D01*
X103135887Y-96206495D02*
X102711622Y-96206495D01*
X101030459Y-96320708D02*
X101104854Y-96246313D01*
X105587258Y-101569391D02*
X105587257Y-101536863D01*
X103919364Y-97414237D02*
X102819840Y-98513758D01*
X103135887Y-96630759D02*
X103135887Y-96206495D01*
X102819840Y-98513758D02*
X102185156Y-98513758D01*
X104058605Y-98758210D02*
X104058605Y-98123526D01*
X102711622Y-96206495D02*
X101813932Y-97104181D01*
X106206535Y-102517062D02*
X105963589Y-102517064D01*
X112274971Y-103086112D02*
X112016862Y-103086112D01*
X102110762Y-97655889D02*
X103135887Y-96630759D01*
X102036367Y-97730284D02*
X102110762Y-97655889D01*
X104133000Y-98832605D02*
X104058605Y-98758210D01*
X105043000Y-100992606D02*
X105043000Y-100112606D01*
X102185156Y-98513758D02*
X102036366Y-98364968D01*
X101813932Y-97104181D02*
X101341266Y-97104183D01*
X105963589Y-102517064D02*
X105423061Y-101976536D01*
X107128605Y-103078210D02*
X107128605Y-102443526D01*
X100584172Y-95283778D02*
X99893000Y-94592606D01*
X107413629Y-101734237D02*
X106989364Y-101734237D01*
X105043000Y-100112606D02*
X104133000Y-99202606D01*
X112016862Y-103086112D02*
X111875974Y-103227000D01*
X111875974Y-103227000D02*
X107277394Y-103227000D01*
X107277394Y-103227000D02*
X107128605Y-103078210D01*
X101218856Y-95283778D02*
X100584172Y-95283778D01*
X107413629Y-102158501D02*
X107413629Y-101734237D01*
X107128605Y-102443526D02*
X107413629Y-102158501D01*
X106989364Y-101734237D02*
X106206535Y-102517062D01*
X101341266Y-97104183D02*
X101030459Y-96793376D01*
X105423061Y-101976536D02*
X105423060Y-101733588D01*
X104343629Y-97414237D02*
X103919364Y-97414237D01*
X101030459Y-96793376D02*
X101030459Y-96320708D01*
X105423060Y-101733588D02*
X105587258Y-101569391D01*
X105587257Y-101536863D02*
X105043000Y-100992606D01*
X99893000Y-94592606D02*
X99893000Y-94456000D01*
X104058605Y-98123526D02*
X104343629Y-97838501D01*
X104343629Y-97838501D02*
X104343629Y-97414237D01*
X104133000Y-99202606D02*
X104133000Y-98832605D01*
X102036366Y-98364968D02*
X102036367Y-97730284D01*
X142292989Y-78522608D02*
X142292989Y-78372608D01*
X143540130Y-79713401D02*
X143458959Y-79674310D01*
X143887064Y-79674310D02*
X143805893Y-79713401D01*
X144550682Y-79375765D02*
X144533873Y-79340863D01*
X144559302Y-79452272D02*
X144559302Y-79413533D01*
X144550682Y-79490039D02*
X144559302Y-79452272D01*
X144533873Y-79524942D02*
X144550682Y-79490039D01*
X144509720Y-79555229D02*
X144533873Y-79524942D01*
X144106895Y-80014402D02*
X144145985Y-79933231D01*
X144086847Y-80102237D02*
X144106895Y-80014402D01*
X144106895Y-80280165D02*
X144086847Y-80192330D01*
X144145985Y-80361336D02*
X144106895Y-80280165D01*
X144202157Y-80431774D02*
X144145985Y-80361336D01*
X144388659Y-80561930D02*
X144307488Y-80522839D01*
X144566587Y-80581977D02*
X144476494Y-80581977D01*
X144654422Y-80561930D02*
X144566587Y-80581977D01*
X145358249Y-80159104D02*
X145327961Y-80134950D01*
X145382402Y-80189392D02*
X145358249Y-80159104D01*
X144307488Y-80522839D02*
X144237050Y-80466667D01*
X145407831Y-80262062D02*
X145399211Y-80224294D01*
X145382402Y-80373471D02*
X145399211Y-80338568D01*
X145050686Y-80711322D02*
X145358249Y-80403758D01*
X144935376Y-80950766D02*
X144955424Y-80862931D01*
X144955424Y-81128694D02*
X144935376Y-81040859D01*
X145415116Y-81430506D02*
X145325023Y-81430506D01*
X145502951Y-81410459D02*
X145415116Y-81430506D01*
X145584122Y-81371368D02*
X145502951Y-81410459D01*
X145654560Y-81315196D02*
X145584122Y-81371368D01*
X145962124Y-81007633D02*
X145654560Y-81315196D01*
X145992411Y-80983479D02*
X145962124Y-81007633D01*
X146141588Y-80966671D02*
X146103820Y-80958051D01*
X146206778Y-81007633D02*
X146176490Y-80983479D01*
X146256360Y-81149330D02*
X146256360Y-81110591D01*
X146230931Y-81222000D02*
X146247740Y-81187097D01*
X145899215Y-81559851D02*
X146206778Y-81252287D01*
X144735593Y-80522839D02*
X144654422Y-80561930D01*
X145843043Y-81630289D02*
X145899215Y-81559851D01*
X144806031Y-80466667D02*
X144735593Y-80522839D01*
X145803953Y-81711460D02*
X145843043Y-81630289D01*
X145113595Y-80159104D02*
X144806031Y-80466667D01*
X145783905Y-81799295D02*
X145803953Y-81711460D01*
X145143882Y-80134950D02*
X145113595Y-80159104D01*
X145783905Y-81889388D02*
X145783905Y-81799295D01*
X145899215Y-82128832D02*
X145843043Y-82058394D01*
X145050686Y-81280303D02*
X144994514Y-81209865D01*
X146014256Y-82243872D02*
X145899215Y-82128832D01*
X146256360Y-81110591D02*
X146247740Y-81072823D01*
X146145145Y-82326115D02*
X146075067Y-82292367D01*
X146220975Y-82343423D02*
X146145145Y-82326115D01*
X142292989Y-78372608D02*
X141018422Y-77098041D01*
X146630413Y-82122999D02*
X146610343Y-82139004D01*
X146653542Y-82111861D02*
X146630413Y-82122999D01*
X146704239Y-82106149D02*
X146678569Y-82106149D01*
X146729266Y-82111861D02*
X146704239Y-82106149D01*
X146871002Y-82241607D02*
X146854997Y-82221537D01*
X143718058Y-79733448D02*
X143627965Y-79733448D01*
X145178785Y-80118142D02*
X145143882Y-80134950D01*
X144935376Y-81040859D02*
X144935376Y-80950766D01*
X146206778Y-81252287D02*
X146230931Y-81222000D01*
X141018422Y-77098041D02*
X140811959Y-77098041D01*
X146027314Y-80966671D02*
X145992411Y-80983479D01*
X146854997Y-82221537D02*
X146772464Y-82139004D01*
X144202157Y-79862793D02*
X144509720Y-79555229D01*
X144086847Y-80192330D02*
X144086847Y-80102237D01*
X143458959Y-79674310D02*
X143388521Y-79618138D01*
X144406762Y-79260993D02*
X144368023Y-79260993D01*
X145293059Y-80118142D02*
X145255291Y-80109522D01*
X145156017Y-81371368D02*
X145085579Y-81315196D01*
X146444663Y-82292367D02*
X146374585Y-82326115D01*
X146887852Y-82315433D02*
X146887852Y-82289763D01*
X145399211Y-80338568D02*
X145407831Y-80300801D01*
X146065081Y-80958051D02*
X146027314Y-80966671D01*
X146667886Y-82619416D02*
X146701633Y-82549339D01*
X146678569Y-82106149D02*
X146653542Y-82111861D01*
X144368023Y-79260993D02*
X144330256Y-79269613D01*
X145255291Y-80109522D02*
X145216552Y-80109522D01*
X145085579Y-81315196D02*
X145050686Y-81280303D01*
X146374585Y-82326115D02*
X146298755Y-82343423D01*
X144994514Y-81209865D02*
X144955424Y-81128694D01*
X144533873Y-79340863D02*
X144509720Y-79310575D01*
X146765191Y-82473465D02*
X146854997Y-82383658D01*
X143388521Y-79618138D02*
X142292989Y-78522608D01*
X144509720Y-79310575D02*
X144479432Y-79286421D01*
X146854997Y-82383658D02*
X146871002Y-82363588D01*
X142094787Y-110895989D02*
X142835989Y-110154787D01*
X144265066Y-79310575D02*
X143957502Y-79618138D01*
X144994514Y-80781760D02*
X145050686Y-80711322D01*
X146610343Y-82139004D02*
X146505474Y-82243872D01*
X145843043Y-82058394D02*
X145803953Y-81977223D01*
X142835989Y-106294392D02*
X144162989Y-104967393D01*
X146247740Y-81187097D02*
X146256360Y-81149330D01*
X143627965Y-79733448D02*
X143540130Y-79713401D01*
X142835989Y-110154787D02*
X142835989Y-106294392D01*
X144145985Y-79933231D02*
X144202157Y-79862793D01*
X146750129Y-82979745D02*
X146701633Y-82918934D01*
X146247740Y-81072823D02*
X146230931Y-81037921D01*
X146075067Y-82292367D02*
X146014256Y-82243872D01*
X143957502Y-79618138D02*
X143887064Y-79674310D01*
X144330256Y-79269613D02*
X144295353Y-79286421D01*
X144476494Y-80581977D02*
X144388659Y-80561930D01*
X145216552Y-80109522D02*
X145178785Y-80118142D01*
X146298755Y-82343423D02*
X146220975Y-82343423D01*
X146230931Y-81037921D02*
X146206778Y-81007633D01*
X140162071Y-110895989D02*
X142094787Y-110895989D01*
X146752394Y-82122999D02*
X146729266Y-82111861D01*
X144479432Y-79286421D02*
X144444530Y-79269613D01*
X145325023Y-81430506D02*
X145237188Y-81410459D01*
X146701633Y-82918934D02*
X146667886Y-82848857D01*
X144955424Y-80862931D02*
X144994514Y-80781760D01*
X146650578Y-82773027D02*
X146650578Y-82695246D01*
X143805893Y-79713401D02*
X143718058Y-79733448D01*
X144237050Y-80466667D02*
X144202157Y-80431774D01*
X145399211Y-80224294D02*
X145382402Y-80189392D01*
X145803953Y-81977223D02*
X145783905Y-81889388D01*
X146103820Y-80958051D02*
X146065081Y-80958051D01*
X146772464Y-82139004D02*
X146752394Y-82122999D01*
X144295353Y-79286421D02*
X144265066Y-79310575D01*
X145358249Y-80403758D02*
X145382402Y-80373471D01*
X144559302Y-79413533D02*
X144550682Y-79375765D01*
X146252989Y-95827393D02*
X146252989Y-92747392D01*
X144444530Y-79269613D02*
X144406762Y-79260993D01*
X145327961Y-80134950D02*
X145293059Y-80118142D01*
X145237188Y-81410459D02*
X145156017Y-81371368D01*
X146505474Y-82243872D02*
X146444663Y-82292367D01*
X146882140Y-82340460D02*
X146887852Y-82315433D01*
X145407831Y-80300801D02*
X145407831Y-80262062D01*
X146871002Y-82363588D02*
X146882140Y-82340460D01*
X139113041Y-109846959D02*
X140162071Y-110895989D01*
X146176490Y-80983479D02*
X146141588Y-80966671D01*
X144162989Y-97917392D02*
X146252989Y-95827393D01*
X146252989Y-92747392D02*
X146822989Y-92177393D01*
X146822989Y-92177393D02*
X146822989Y-83052607D01*
X146822989Y-83052607D02*
X146750129Y-82979745D01*
X146667886Y-82848857D02*
X146650578Y-82773027D01*
X146650578Y-82695246D02*
X146667886Y-82619416D01*
X146701633Y-82549339D02*
X146750129Y-82488528D01*
X144162989Y-104967393D02*
X144162989Y-97917392D01*
X146750129Y-82488528D02*
X146765191Y-82473465D01*
X146887852Y-82289763D02*
X146882140Y-82264736D01*
X146882140Y-82264736D02*
X146871002Y-82241607D01*
X118340000Y-87390000D02*
X118792150Y-87842150D01*
X118340000Y-86870000D02*
X118340000Y-87390000D01*
X118580000Y-86630000D02*
X118340000Y-86870000D01*
X118580000Y-84880394D02*
X118580000Y-86630000D01*
X122687469Y-72672531D02*
X122287965Y-73072035D01*
X122287965Y-81525135D02*
X121061122Y-82751978D01*
X121061122Y-82751978D02*
X120708416Y-82751978D01*
X122884806Y-72672531D02*
X122687469Y-72672531D01*
X120708416Y-82751978D02*
X118580000Y-84880394D01*
X122287965Y-73072035D02*
X122287965Y-81525135D01*
X118890000Y-86970000D02*
X118890000Y-84929606D01*
X121166336Y-83005989D02*
X122541976Y-81630349D01*
X118800000Y-87060000D02*
X118890000Y-86970000D01*
X120813617Y-83005989D02*
X121166336Y-83005989D01*
X122541976Y-81630349D02*
X122541976Y-73803606D01*
X122541976Y-73803606D02*
X123063542Y-73282040D01*
X123063542Y-73282040D02*
X123273041Y-73072541D01*
X118890000Y-84929606D02*
X120813617Y-83005989D01*
X121767011Y-86182607D02*
X122427011Y-85522608D01*
X121353505Y-89055328D02*
X121561505Y-88847328D01*
X121561505Y-88491505D02*
X121530000Y-88460000D01*
X125640000Y-82006277D02*
X125640000Y-81120000D01*
X121074672Y-89055328D02*
X121353505Y-89055328D01*
X121561505Y-88847328D02*
X121561505Y-88491505D01*
X121530000Y-88460000D02*
X121530000Y-88030000D01*
X121767011Y-87792990D02*
X121767011Y-86182607D01*
X122427011Y-85522608D02*
X122427011Y-85219266D01*
X121530000Y-88030000D02*
X121767011Y-87792990D01*
X119610000Y-89450000D02*
X120680000Y-89450000D01*
X120680000Y-89450000D02*
X121074672Y-89055328D01*
X122427011Y-85219266D02*
X125640000Y-82006277D01*
X125239998Y-80937998D02*
X125488497Y-80689499D01*
X119600000Y-88660000D02*
X120040000Y-89100000D01*
X120761503Y-88464749D02*
X121275989Y-87950263D01*
X122173000Y-85417394D02*
X122173000Y-85107000D01*
X120040000Y-89100000D02*
X120508831Y-89100000D01*
X122173000Y-85107000D02*
X125239998Y-82040002D01*
X120508831Y-89100000D02*
X120761503Y-88847328D01*
X121275989Y-87950263D02*
X121275989Y-86314405D01*
X121275989Y-86314405D02*
X122173000Y-85417394D01*
X125239998Y-82040002D02*
X125239998Y-80937998D01*
X120761503Y-88847328D02*
X120761503Y-88464749D01*
X125929499Y-80689499D02*
X126310000Y-81070000D01*
X125488497Y-80689499D02*
X125929499Y-80689499D01*
X120361493Y-88504111D02*
X120900000Y-87965604D01*
X120900000Y-87965604D02*
X120900000Y-84383723D01*
X120900000Y-84383723D02*
X122876107Y-82407616D01*
X122876107Y-82407616D02*
X123127320Y-82407616D01*
X120361493Y-88640090D02*
X120361493Y-88504111D01*
X120560000Y-85339224D02*
X120599999Y-85299225D01*
X120560000Y-85340000D02*
X120560000Y-85339224D01*
X119580000Y-87195967D02*
X120005049Y-87621016D01*
X119750068Y-88259999D02*
X119407999Y-88259999D01*
X119107069Y-88560929D02*
X119107069Y-89112931D01*
X120599999Y-85350001D02*
X120230001Y-85719999D01*
X119407999Y-88259999D02*
X119107069Y-88560929D01*
X119580000Y-85970000D02*
X119580000Y-87195967D01*
X120230001Y-85719999D02*
X119830001Y-85719999D01*
X119107069Y-89112931D02*
X118780000Y-89440000D01*
X120599999Y-85299225D02*
X120599999Y-85350001D01*
X120005049Y-87621016D02*
X120005049Y-88005018D01*
X119830001Y-85719999D02*
X119580000Y-85970000D01*
X120005049Y-88005018D02*
X119750068Y-88259999D01*
X124438987Y-80847759D02*
X124438987Y-80817759D01*
X120599999Y-85299225D02*
X120599999Y-84320776D01*
X125469193Y-79787553D02*
X126871289Y-79787553D01*
X126871289Y-79787553D02*
X128522053Y-81438317D01*
X120599999Y-84320776D02*
X123049998Y-81870777D01*
X128522053Y-81438317D02*
X128522053Y-81734594D01*
X124438987Y-80817759D02*
X125469193Y-79787553D01*
X123049998Y-81870777D02*
X123049998Y-81767998D01*
X123372007Y-81445989D02*
X123840757Y-81445989D01*
X123840757Y-81445989D02*
X124438987Y-80847759D01*
X123049998Y-81767998D02*
X123372007Y-81445989D01*
X123735543Y-81191978D02*
X124184976Y-80742545D01*
X123266793Y-81191978D02*
X123735543Y-81191978D01*
X120345988Y-84215562D02*
X122795987Y-81765563D01*
X119205048Y-88103725D02*
X119205048Y-85985727D01*
X124184976Y-80712545D02*
X125363979Y-79533542D01*
X120345988Y-85194012D02*
X120345988Y-84215562D01*
X122795987Y-81662784D02*
X123266793Y-81191978D01*
X119205048Y-85985727D02*
X119724787Y-85465988D01*
X118685363Y-88710456D02*
X118685363Y-88623410D01*
X124184976Y-80742545D02*
X124184976Y-80712545D01*
X127170619Y-79533542D02*
X128922063Y-81284986D01*
X120074012Y-85465988D02*
X120345988Y-85194012D01*
X125363979Y-79533542D02*
X127170619Y-79533542D01*
X119724787Y-85465988D02*
X120074012Y-85465988D01*
X118685363Y-88623410D02*
X119205048Y-88103725D01*
X122795987Y-81765563D02*
X122795987Y-81662784D01*
X129839999Y-103805989D02*
X129839999Y-106623898D01*
X129839999Y-106623898D02*
X129660348Y-106803549D01*
X129429570Y-103395560D02*
X129839999Y-103805989D01*
X129440501Y-106369511D02*
X129128045Y-106681967D01*
X129440501Y-104157387D02*
X129440501Y-106369511D01*
X128679049Y-103395935D02*
X129440501Y-104157387D01*
X127870000Y-106740000D02*
X127546363Y-106416363D01*
X127546363Y-106416363D02*
X127546363Y-103933545D01*
X123701921Y-104974595D02*
X122992783Y-105683733D01*
X124947836Y-102347818D02*
X124606251Y-102689403D01*
X122992783Y-105683733D02*
X122992783Y-105980010D01*
X124606251Y-102689403D02*
X124606251Y-103997172D01*
X124290000Y-99860000D02*
X124947836Y-100517836D01*
X124947836Y-100517836D02*
X124947836Y-102347818D01*
X123701921Y-104901500D02*
X123701921Y-104974595D01*
X123640000Y-99860000D02*
X124290000Y-99860000D01*
X124606251Y-103997172D02*
X123701921Y-104901500D01*
X128346301Y-102777454D02*
X127751225Y-102777454D01*
X130785989Y-102605989D02*
X129112198Y-102605989D01*
X126892350Y-106758467D02*
X126755705Y-106895112D01*
X126892350Y-103636329D02*
X126892350Y-106758467D01*
X127751225Y-102777454D02*
X126892350Y-103636329D01*
X131030000Y-102850000D02*
X130785989Y-102605989D01*
X128381833Y-102741922D02*
X128346301Y-102777454D01*
X128976265Y-102741922D02*
X128381833Y-102741922D01*
X129112198Y-102605989D02*
X128976265Y-102741922D01*
X142170000Y-90420000D02*
X138400000Y-86650000D01*
X131730000Y-107810000D02*
X131730000Y-106490000D01*
X128450000Y-106680000D02*
X129580000Y-107810000D01*
X131730000Y-106490000D02*
X142170000Y-96050000D01*
X129580000Y-107810000D02*
X131730000Y-107810000D01*
X142170000Y-96050000D02*
X142170000Y-90420000D01*
X138400000Y-86650000D02*
X125780000Y-86650000D01*
X121329545Y-106674179D02*
X121329545Y-107149044D01*
X121310001Y-107168588D02*
X121310001Y-109465424D01*
X121165856Y-109609569D02*
X121165856Y-109905846D01*
X121011467Y-103652739D02*
X121011467Y-106356101D01*
X121310001Y-109465424D02*
X121165856Y-109609569D01*
X121011467Y-106356101D02*
X121329545Y-106674179D01*
X121329545Y-107149044D02*
X121310001Y-107168588D01*
X127960000Y-111160000D02*
X127960000Y-109660000D01*
X127960000Y-109660000D02*
X128160000Y-109460000D01*
X128160000Y-109460000D02*
X128160000Y-108560000D01*
X128160000Y-108560000D02*
X127360000Y-107760000D01*
X126013999Y-107760000D02*
X125404057Y-107150058D01*
X127360000Y-107760000D02*
X126013999Y-107760000D01*
X126384328Y-103425901D02*
X126384328Y-104733668D01*
X122230012Y-93040012D02*
X122900002Y-93710002D01*
X124170000Y-96570000D02*
X126725913Y-99125913D01*
X120230605Y-93059989D02*
X121775008Y-93059989D01*
X121794985Y-93040012D02*
X122230012Y-93040012D01*
X120220594Y-93070000D02*
X120230605Y-93059989D01*
X122900002Y-93710002D02*
X123740002Y-93710002D01*
X123740002Y-93710002D02*
X124170000Y-94140000D01*
X126725913Y-99125913D02*
X126725913Y-103084316D01*
X121775008Y-93059989D02*
X121794985Y-93040012D01*
X124170000Y-94140000D02*
X124170000Y-96570000D01*
X114300000Y-92230000D02*
X115140000Y-93070000D01*
X125478312Y-107075803D02*
X125404057Y-107150058D01*
X125478312Y-105639686D02*
X125478312Y-107075803D01*
X126384328Y-104733668D02*
X125478312Y-105639686D01*
X126725913Y-103084316D02*
X126384328Y-103425901D01*
X115140000Y-93070000D02*
X120220594Y-93070000D01*
X112820000Y-92230000D02*
X114300000Y-92230000D01*
X112400000Y-92650000D02*
X112820000Y-92230000D01*
X113576865Y-93059724D02*
X114739724Y-93059724D01*
X113216585Y-93420004D02*
X113576865Y-93059724D01*
X120969978Y-93860000D02*
X120979989Y-93870011D01*
X120180594Y-93820000D02*
X120220594Y-93860000D01*
X120220594Y-93860000D02*
X120969978Y-93860000D01*
X115500000Y-93820000D02*
X120180594Y-93820000D01*
X114739724Y-93059724D02*
X115500000Y-93820000D01*
X120979978Y-93850000D02*
X121600000Y-93850000D01*
X120969978Y-93860000D02*
X120979978Y-93850000D01*
X121600000Y-93850000D02*
X121600000Y-94640000D01*
X122400000Y-94640000D02*
X122410000Y-94650000D01*
X121600000Y-94640000D02*
X122400000Y-94640000D01*
X122410000Y-94640000D02*
X122410000Y-94650000D01*
X113216585Y-93420004D02*
X112846581Y-93050000D01*
X109620000Y-93050000D02*
X109140000Y-92570000D01*
X112846581Y-93050000D02*
X109620000Y-93050000D01*
X122410000Y-94650000D02*
X122419626Y-94659626D01*
X125590001Y-107928004D02*
X125590001Y-108634301D01*
X125004056Y-107342059D02*
X125590001Y-107928004D01*
X126471902Y-99281902D02*
X126471902Y-102979102D01*
X126130317Y-104628454D02*
X125224301Y-105534472D01*
X125004056Y-106284717D02*
X125004056Y-107342059D01*
X125224301Y-106064473D02*
X125004056Y-106284717D01*
X126130317Y-103320687D02*
X126130317Y-104628454D01*
X122419626Y-94659626D02*
X122419626Y-95229626D01*
X125590001Y-108634301D02*
X125838780Y-108883080D01*
X122419626Y-95229626D02*
X126471902Y-99281902D01*
X126471902Y-102979102D02*
X126130317Y-103320687D01*
X125224301Y-105534472D02*
X125224301Y-106064473D01*
X124014010Y-108304010D02*
X124020000Y-108310000D01*
X124014010Y-108642904D02*
X124724802Y-109353696D01*
X125017394Y-109353696D02*
X125226893Y-109563195D01*
X124724802Y-109353696D02*
X125017394Y-109353696D01*
X124014010Y-108304010D02*
X124014010Y-108642904D01*
X123361633Y-107291744D02*
X124014010Y-107944121D01*
X123750000Y-97790000D02*
X125709869Y-99749869D01*
X117402012Y-95450000D02*
X120820000Y-95450000D01*
X115190000Y-95450000D02*
X117017988Y-95450000D01*
X112400000Y-95040000D02*
X112799989Y-94640011D01*
X120820000Y-95450000D02*
X120820000Y-96210000D01*
X125709869Y-102663460D02*
X125368284Y-103005045D01*
X125368284Y-103005045D02*
X125368284Y-104312812D01*
X125368284Y-104312812D02*
X124462268Y-105218830D01*
X124462268Y-105218830D02*
X124462268Y-105323158D01*
X117017999Y-95450011D02*
X117402001Y-95450011D01*
X124462268Y-105323158D02*
X123920133Y-105865292D01*
X123920133Y-106354204D02*
X123361633Y-106912704D01*
X123361633Y-106912704D02*
X123361633Y-107291744D01*
X125709869Y-99749869D02*
X125709869Y-102663460D01*
X117402001Y-95450011D02*
X117402012Y-95450000D01*
X122954562Y-97790000D02*
X123750000Y-97790000D01*
X123920133Y-105865292D02*
X123920133Y-106354204D01*
X114380011Y-94640011D02*
X115190000Y-95450000D01*
X117017988Y-95450000D02*
X117017999Y-95450011D01*
X124014010Y-107944121D02*
X124014010Y-108304010D01*
X122223625Y-97059063D02*
X122954562Y-97790000D01*
X112799989Y-94640011D02*
X114380011Y-94640011D01*
X120820000Y-96210000D02*
X121669063Y-97059063D01*
X121669063Y-97059063D02*
X122223625Y-97059063D01*
X113799211Y-93840000D02*
X113818946Y-93859735D01*
X112800000Y-93840000D02*
X113799211Y-93840000D01*
X124750045Y-107973759D02*
X125189999Y-108413713D01*
X124970290Y-105959259D02*
X124750045Y-106179503D01*
X115970776Y-94650000D02*
X120266548Y-94650000D01*
X122319896Y-95489896D02*
X126217891Y-99387891D01*
X126217891Y-102873888D02*
X125876306Y-103215473D01*
X125876306Y-103215473D02*
X125876306Y-104523240D01*
X112410000Y-94230000D02*
X112800000Y-93840000D01*
X125189999Y-108413713D02*
X125189999Y-108709990D01*
X125876306Y-104523240D02*
X124970290Y-105429258D01*
X120266548Y-94650000D02*
X120310826Y-94694278D01*
X120310826Y-94694278D02*
X121032006Y-94694278D01*
X121032006Y-94694278D02*
X121827624Y-95489896D01*
X124750045Y-106179503D02*
X124750045Y-107973759D01*
X121827624Y-95489896D02*
X122319896Y-95489896D01*
X115160776Y-93840000D02*
X115970776Y-94650000D01*
X114202948Y-93859735D02*
X114222683Y-93840000D01*
X113818946Y-93859735D02*
X114202948Y-93859735D01*
X124970290Y-105429258D02*
X124970290Y-105959259D01*
X114222683Y-93840000D02*
X115160776Y-93840000D01*
X126217891Y-99387891D02*
X126217891Y-102873888D01*
X113210000Y-95050000D02*
X112820000Y-95440000D01*
X109089489Y-93650000D02*
X108819489Y-93920000D01*
X111960000Y-93980000D02*
X111630000Y-93650000D01*
X112820000Y-95440000D02*
X111960000Y-95440000D01*
X111630000Y-93650000D02*
X109089489Y-93650000D01*
X111960000Y-95440000D02*
X111960000Y-93980000D01*
X125114273Y-104207598D02*
X124208257Y-105113616D01*
X123666122Y-105760078D02*
X123666122Y-106248990D01*
X113210000Y-95050000D02*
X113930000Y-95050000D01*
X123666122Y-106248990D02*
X123107622Y-106807490D01*
X120660013Y-96430010D02*
X121600000Y-97369998D01*
X125455858Y-100307408D02*
X125455858Y-102558246D01*
X124266227Y-109254346D02*
X124266227Y-109473681D01*
X123440000Y-98690000D02*
X123838450Y-98690000D01*
X121790000Y-98290000D02*
X123040000Y-98290000D01*
X121600000Y-97369998D02*
X121600000Y-98100000D01*
X115310010Y-96430010D02*
X120660013Y-96430010D01*
X121600000Y-98100000D02*
X121790000Y-98290000D01*
X123685987Y-107997216D02*
X123685987Y-108674106D01*
X123040000Y-98290000D02*
X123440000Y-98690000D01*
X123685987Y-108674106D02*
X124266227Y-109254346D01*
X113930000Y-95050000D02*
X115310010Y-96430010D01*
X123838450Y-98690000D02*
X125455858Y-100307408D01*
X123107622Y-107418851D02*
X123685987Y-107997216D01*
X125455858Y-102558246D02*
X125114273Y-102899831D01*
X123107622Y-106807490D02*
X123107622Y-107418851D01*
X124208257Y-105113616D02*
X124208257Y-105217944D01*
X125114273Y-102899831D02*
X125114273Y-104207598D01*
X124208257Y-105217944D02*
X123666122Y-105760078D01*
X123866217Y-109219644D02*
X123866217Y-109849537D01*
X123954246Y-105008402D02*
X123954246Y-105112730D01*
X123866217Y-109849537D02*
X123869036Y-109852356D01*
X125201847Y-102453032D02*
X124860262Y-102794617D01*
X125201847Y-100412622D02*
X125201847Y-102453032D01*
X122853611Y-107554066D02*
X123431976Y-108132431D01*
X124860262Y-102794617D02*
X124860262Y-104102385D01*
X123431976Y-108785403D02*
X123866217Y-109219644D01*
X123393369Y-105673606D02*
X123393369Y-106162518D01*
X122994785Y-98614785D02*
X123330000Y-98950000D01*
X123393369Y-106162518D02*
X122853611Y-106702276D01*
X123330000Y-98950000D02*
X123739225Y-98950000D01*
X123431976Y-108132431D02*
X123431976Y-108785403D01*
X123954246Y-105112730D02*
X123393369Y-105673606D01*
X114064021Y-96684021D02*
X120554798Y-96684021D01*
X123739225Y-98950000D02*
X125201847Y-100412622D01*
X121755560Y-98614785D02*
X122994785Y-98614785D01*
X122853611Y-106702276D02*
X122853611Y-107554066D01*
X121345989Y-98205214D02*
X121755560Y-98614785D01*
X121345989Y-97475212D02*
X121345989Y-98205214D01*
X120554798Y-96684021D02*
X121345989Y-97475212D01*
X124860262Y-104102385D02*
X123954246Y-105008402D01*
X113240000Y-95860000D02*
X114064021Y-96684021D01*
X121091978Y-97580426D02*
X121091978Y-98310428D01*
X123861751Y-102294107D02*
X123861751Y-103158249D01*
X121833611Y-99424273D02*
X122184273Y-99424273D01*
X123845583Y-101580000D02*
X124099424Y-101833841D01*
X121091978Y-98310428D02*
X121610000Y-98828450D01*
X113478033Y-96938033D02*
X120449587Y-96938034D01*
X123466215Y-109180662D02*
X123466215Y-109476939D01*
X124099424Y-102056434D02*
X123861751Y-102294107D01*
X122990000Y-101580000D02*
X123845583Y-101580000D01*
X123177965Y-108892412D02*
X123466215Y-109180662D01*
X123177965Y-108237645D02*
X123177965Y-108892412D01*
X122599600Y-107659280D02*
X123177965Y-108237645D01*
X112390000Y-95850000D02*
X113478033Y-96938033D01*
X120449587Y-96938034D02*
X121091978Y-97580426D01*
X122599600Y-106177904D02*
X122599600Y-107659280D01*
X122592781Y-106171085D02*
X122599600Y-106177904D01*
X122592781Y-105720689D02*
X122592781Y-106171085D01*
X123447910Y-104865560D02*
X122592781Y-105720689D01*
X123447910Y-103572090D02*
X123447910Y-104865560D01*
X122184273Y-99424273D02*
X122419497Y-99659497D01*
X123861751Y-103158249D02*
X123447910Y-103572090D01*
X124099424Y-101833841D02*
X124099424Y-102056434D01*
X122419497Y-101009497D02*
X122990000Y-101580000D01*
X122419497Y-99659497D02*
X122419497Y-101009497D01*
X121610000Y-99200662D02*
X121833611Y-99424273D01*
X121610000Y-98828450D02*
X121610000Y-99200662D01*
X123193899Y-103466876D02*
X123193899Y-104760346D01*
X120779989Y-101603214D02*
X121026775Y-101850000D01*
X121026775Y-101850000D02*
X123750000Y-101850000D01*
X113220775Y-97040000D02*
X113372819Y-97192044D01*
X123750000Y-101850000D02*
X123845413Y-101945413D01*
X123607740Y-102188893D02*
X123607740Y-103053035D01*
X120779989Y-97627662D02*
X120779989Y-101603214D01*
X122923954Y-108342859D02*
X122923954Y-109363175D01*
X123193899Y-104760346D02*
X122338770Y-105615475D01*
X122338770Y-106276299D02*
X122345589Y-106283118D01*
X123845413Y-101945413D02*
X123845413Y-101951220D01*
X123845413Y-101951220D02*
X123607740Y-102188893D01*
X122345589Y-107764494D02*
X122923954Y-108342859D01*
X112010000Y-97040000D02*
X113220775Y-97040000D01*
X123607740Y-103053035D02*
X123193899Y-103466876D01*
X122923954Y-109363175D02*
X122929705Y-109368926D01*
X122338770Y-105615475D02*
X122338770Y-106276299D01*
X111620000Y-96650000D02*
X112010000Y-97040000D01*
X113372819Y-97192044D02*
X120344372Y-97192044D01*
X120344372Y-97192044D02*
X120779989Y-97627662D01*
X122345589Y-106283118D02*
X122345589Y-107764494D01*
X122091578Y-106358537D02*
X122091578Y-107759480D01*
X122418111Y-109008111D02*
X122519899Y-109008111D01*
X122407719Y-102546648D02*
X122407719Y-102906339D01*
X121919499Y-106186458D02*
X122091578Y-106358537D01*
X122061084Y-102200013D02*
X122407719Y-102546648D01*
X119760775Y-98270000D02*
X120525978Y-99035203D01*
X112417020Y-97449949D02*
X113029949Y-97449949D01*
X122074011Y-107777047D02*
X122074011Y-108664011D01*
X120525978Y-99035203D02*
X120525978Y-101718428D01*
X122074011Y-108664011D02*
X122418111Y-109008111D01*
X120525978Y-101718428D02*
X121007563Y-102200013D01*
X121919499Y-103394559D02*
X121919499Y-106186458D01*
X121007563Y-102200013D02*
X122061084Y-102200013D01*
X122407719Y-102906339D02*
X121919499Y-103394559D01*
X113850000Y-98270000D02*
X119760775Y-98270000D01*
X122091578Y-107759480D02*
X122074011Y-107777047D01*
X113029949Y-97449949D02*
X113850000Y-98270000D01*
X120271967Y-101823642D02*
X121078239Y-102629914D01*
X121837567Y-107359472D02*
X121820000Y-107377039D01*
X112980000Y-97850000D02*
X113710000Y-98580000D01*
X120271967Y-99140417D02*
X120271967Y-101823642D01*
X111610000Y-97420000D02*
X112040000Y-97850000D01*
X121837567Y-106463751D02*
X121837567Y-107359472D01*
X121078239Y-102629914D02*
X121078239Y-102792015D01*
X113710000Y-98580000D02*
X119711550Y-98580000D01*
X121820000Y-109079685D02*
X122117670Y-109377355D01*
X121665488Y-106291672D02*
X121837567Y-106463751D01*
X121820000Y-107377039D02*
X121820000Y-109079685D01*
X119711550Y-98580000D02*
X120271967Y-99140417D01*
X121665488Y-103379264D02*
X121665488Y-106291672D01*
X121078239Y-102792015D02*
X121665488Y-103379264D01*
X112040000Y-97850000D02*
X112980000Y-97850000D01*
X116252842Y-99447158D02*
X119777158Y-99447158D01*
X121565989Y-109642324D02*
X121695054Y-109771389D01*
X119777158Y-99447158D02*
X120017956Y-99687956D01*
X120824228Y-102897229D02*
X121411477Y-103484478D01*
X121411477Y-103484478D02*
X121411477Y-106396886D01*
X121565989Y-107271825D02*
X121565989Y-109642324D01*
X111330000Y-98650000D02*
X112610000Y-98650000D01*
X120017957Y-101928857D02*
X120824228Y-102735130D01*
X110825468Y-98145468D02*
X111330000Y-98650000D01*
X120017956Y-99687956D02*
X120017957Y-101928857D01*
X113410000Y-99450000D02*
X116250000Y-99450000D01*
X121411477Y-106396886D02*
X121583556Y-106568965D01*
X121583556Y-106568965D02*
X121583556Y-107254258D01*
X116250000Y-99450000D02*
X116252842Y-99447158D01*
X112610000Y-98650000D02*
X113410000Y-99450000D01*
X120824228Y-102735130D02*
X120824228Y-102897229D01*
X110825468Y-97475861D02*
X110825468Y-98145468D01*
X121583556Y-107254258D02*
X121565989Y-107271825D01*
X124430000Y-96460000D02*
X126979924Y-99009924D01*
X123845216Y-93455991D02*
X124430000Y-94040775D01*
X122200010Y-92640010D02*
X123015991Y-93455991D01*
X126638339Y-105071661D02*
X125878313Y-105831687D01*
X126638339Y-103531115D02*
X126638339Y-105071661D01*
X124430000Y-94040775D02*
X124430000Y-96460000D01*
X126979924Y-103189530D02*
X126638339Y-103531115D01*
X121986987Y-92640010D02*
X122200010Y-92640010D01*
X126979924Y-99009924D02*
X126979924Y-103189530D01*
X123015991Y-93455991D02*
X123845216Y-93455991D01*
X114184784Y-100244009D02*
X114210775Y-100270000D01*
X112880000Y-99450000D02*
X113674009Y-100244009D01*
X120201740Y-106252855D02*
X120201740Y-108526409D01*
X114210775Y-100270000D02*
X118540000Y-100270000D01*
X119290000Y-101600000D02*
X120560000Y-102870000D01*
X113674009Y-100244009D02*
X114184784Y-100244009D01*
X109000000Y-97829976D02*
X110620024Y-99450000D01*
X110620024Y-99450000D02*
X112880000Y-99450000D01*
X118540000Y-100270000D02*
X119290000Y-101020000D01*
X119290000Y-101020000D02*
X119290000Y-101600000D01*
X120201740Y-108526409D02*
X120345359Y-108670028D01*
X120560000Y-102870000D02*
X120560000Y-105894595D01*
X120560000Y-105894595D02*
X120201740Y-106252855D01*
X119800012Y-108283319D02*
X119800012Y-108579596D01*
X118440000Y-100540000D02*
X118980000Y-101080000D01*
X111210000Y-100300000D02*
X111210000Y-101240000D01*
X112980000Y-101980000D02*
X114690000Y-101980000D01*
X114690000Y-101980000D02*
X116130000Y-100540000D01*
X110630023Y-100250011D02*
X111160011Y-100250011D01*
X116130000Y-100540000D02*
X118440000Y-100540000D01*
X111160011Y-100250011D02*
X111210000Y-100300000D01*
X111210000Y-101240000D02*
X111540000Y-101570000D01*
X118980000Y-102430000D02*
X119325270Y-102775270D01*
X119325270Y-102775270D02*
X119325270Y-107808577D01*
X109010000Y-98629988D02*
X110630023Y-100250011D01*
X119325270Y-107808577D02*
X119800012Y-108283319D01*
X112570000Y-101570000D02*
X112980000Y-101980000D01*
X118980000Y-101080000D02*
X118980000Y-102430000D01*
X111540000Y-101570000D02*
X112570000Y-101570000D01*
X114795214Y-102234011D02*
X116235214Y-100794011D01*
X116235214Y-100794011D02*
X118334787Y-100794011D01*
X110400000Y-100419224D02*
X110400000Y-101240000D01*
X112464787Y-101824011D02*
X112874786Y-102234011D01*
X109410776Y-99430000D02*
X110400000Y-100419224D01*
X110400000Y-101240000D02*
X110954011Y-101794011D01*
X119071259Y-108069255D02*
X119392094Y-108390090D01*
X118334787Y-100794011D02*
X118725989Y-101185213D01*
X111434786Y-101824011D02*
X112464787Y-101824011D01*
X110954011Y-101794011D02*
X111404786Y-101794011D01*
X108940000Y-99430000D02*
X109410776Y-99430000D01*
X112874786Y-102234011D02*
X114795214Y-102234011D01*
X119392094Y-108390090D02*
X119392094Y-108950017D01*
X111404786Y-101794011D02*
X111434786Y-101824011D01*
X118725990Y-102535215D02*
X119071259Y-102880485D01*
X119071259Y-102880485D02*
X119071259Y-108069255D01*
X118725989Y-101185213D02*
X118725990Y-102535215D01*
X118817248Y-102987248D02*
X118817248Y-108410624D01*
X118471978Y-102641978D02*
X118817248Y-102987248D01*
X111301550Y-102050000D02*
X111329572Y-102078022D01*
X108950000Y-100250000D02*
X108990000Y-100250000D01*
X114901978Y-102488022D02*
X116341978Y-101048022D01*
X112769572Y-102488022D02*
X114901978Y-102488022D01*
X118471978Y-101290426D02*
X118471978Y-102641978D01*
X108990000Y-100250000D02*
X110790000Y-102050000D01*
X112359572Y-102078022D02*
X112769572Y-102488022D01*
X118817248Y-108410624D02*
X118988686Y-108582062D01*
X116341978Y-101048022D02*
X118229574Y-101048022D01*
X110790000Y-102050000D02*
X111301550Y-102050000D01*
X111329572Y-102078022D02*
X112359572Y-102078022D01*
X118229574Y-101048022D02*
X118471978Y-101290426D01*
X138373435Y-80306959D02*
X139133000Y-79547394D01*
X138166959Y-80306959D02*
X138373435Y-80306959D01*
X139133000Y-79547394D02*
X139133000Y-78172606D01*
X139133000Y-78172606D02*
X138037394Y-77077000D01*
X137839543Y-77077000D02*
X137792243Y-77124300D01*
X138037394Y-77077000D02*
X137839543Y-77077000D01*
X137792243Y-77124300D02*
X137792243Y-77330776D01*
X139387000Y-79652606D02*
X139387000Y-78067394D01*
X138553041Y-80486565D02*
X139387000Y-79652606D01*
X138553041Y-80693041D02*
X138553041Y-80486565D01*
X139387000Y-78067394D02*
X138142606Y-76823000D01*
X138142606Y-76823000D02*
X137734331Y-76823000D01*
X137612637Y-76944694D02*
X137406161Y-76944694D01*
X137734331Y-76823000D02*
X137612637Y-76944694D01*
X126523536Y-108821619D02*
X125569999Y-109775156D01*
X125569999Y-109775156D02*
X125569999Y-109836323D01*
X125075877Y-110330445D02*
X110822299Y-110330445D01*
X110822299Y-110330445D02*
X110222809Y-109730955D01*
X126523536Y-108482739D02*
X126523536Y-108821619D01*
X125569999Y-109836323D02*
X125075877Y-110330445D01*
X124174144Y-106665893D02*
X123795619Y-107044418D01*
X125963880Y-99603880D02*
X125963880Y-102768674D01*
X121976744Y-95890010D02*
X122450000Y-96363266D01*
X122450000Y-96363266D02*
X122450000Y-96890000D01*
X124716279Y-105324044D02*
X124716279Y-105428372D01*
X122450000Y-96890000D02*
X123080000Y-97520000D01*
X123880000Y-97520000D02*
X125963880Y-99603880D01*
X124174144Y-105970506D02*
X124174144Y-106665893D01*
X125963880Y-102768674D02*
X125622295Y-103110259D01*
X125622295Y-104418026D02*
X124716279Y-105324044D01*
X124716279Y-105428372D02*
X124174144Y-105970506D01*
X123080000Y-97520000D02*
X123880000Y-97520000D01*
X125622295Y-103110259D02*
X125622295Y-104418026D01*
X127856439Y-103031465D02*
X128451515Y-103031465D01*
X128451515Y-103031465D02*
X128487047Y-102995933D01*
X129830535Y-102905525D02*
X130040034Y-103115024D01*
X126909836Y-107332983D02*
X127155706Y-107087113D01*
X128487047Y-102995933D02*
X129194067Y-102995933D01*
X129194067Y-102995933D02*
X129284475Y-102905525D01*
X127155706Y-107087113D02*
X127155706Y-106703111D01*
X127146361Y-103741543D02*
X127856439Y-103031465D01*
X126158921Y-107332983D02*
X126909836Y-107332983D01*
X129284475Y-102905525D02*
X129830535Y-102905525D01*
X125949422Y-107123484D02*
X126158921Y-107332983D01*
X127146361Y-106693766D02*
X127146361Y-103741543D01*
X127155706Y-106703111D02*
X127146361Y-106693766D01*
M02*
