G04 #@! TF.GenerationSoftware,KiCad,Pcbnew,5.1.9+dfsg1-1~bpo10+1*
G04 #@! TF.CreationDate,2021-11-14T15:52:16+01:00*
G04 #@! TF.ProjectId,ulx4m,756c7834-6d2e-46b6-9963-61645f706362,v0.0.2*
G04 #@! TF.SameCoordinates,Original*
G04 #@! TF.FileFunction,Copper,L6,Bot*
G04 #@! TF.FilePolarity,Positive*
%FSLAX46Y46*%
G04 Gerber Fmt 4.6, Leading zero omitted, Abs format (unit mm)*
G04 Created by KiCad (PCBNEW 5.1.9+dfsg1-1~bpo10+1) date 2021-11-14 15:52:16*
%MOMM*%
%LPD*%
G01*
G04 APERTURE LIST*
G04 #@! TA.AperFunction,EtchedComponent*
%ADD10C,0.100000*%
G04 #@! TD*
G04 #@! TA.AperFunction,SMDPad,CuDef*
%ADD11R,0.230000X0.660000*%
G04 #@! TD*
G04 #@! TA.AperFunction,SMDPad,CuDef*
%ADD12R,0.350000X0.660000*%
G04 #@! TD*
G04 #@! TA.AperFunction,ComponentPad*
%ADD13C,3.300000*%
G04 #@! TD*
G04 #@! TA.AperFunction,SMDPad,CuDef*
%ADD14R,1.500000X2.700000*%
G04 #@! TD*
G04 #@! TA.AperFunction,SMDPad,CuDef*
%ADD15R,0.700000X1.200000*%
G04 #@! TD*
G04 #@! TA.AperFunction,SMDPad,CuDef*
%ADD16R,0.600000X0.450000*%
G04 #@! TD*
G04 #@! TA.AperFunction,SMDPad,CuDef*
%ADD17R,0.450000X0.600000*%
G04 #@! TD*
G04 #@! TA.AperFunction,ComponentPad*
%ADD18C,0.100000*%
G04 #@! TD*
G04 #@! TA.AperFunction,SMDPad,CuDef*
%ADD19R,1.000000X1.000000*%
G04 #@! TD*
G04 #@! TA.AperFunction,ComponentPad*
%ADD20O,1.350000X1.350000*%
G04 #@! TD*
G04 #@! TA.AperFunction,ComponentPad*
%ADD21R,1.350000X1.350000*%
G04 #@! TD*
G04 #@! TA.AperFunction,ViaPad*
%ADD22C,0.419000*%
G04 #@! TD*
G04 #@! TA.AperFunction,ViaPad*
%ADD23C,0.600000*%
G04 #@! TD*
G04 #@! TA.AperFunction,ViaPad*
%ADD24C,0.420000*%
G04 #@! TD*
G04 #@! TA.AperFunction,Conductor*
%ADD25C,0.300000*%
G04 #@! TD*
G04 #@! TA.AperFunction,Conductor*
%ADD26C,0.127000*%
G04 #@! TD*
G04 #@! TA.AperFunction,Conductor*
%ADD27C,0.500000*%
G04 #@! TD*
G04 #@! TA.AperFunction,Conductor*
%ADD28C,0.200000*%
G04 #@! TD*
G04 #@! TA.AperFunction,Conductor*
%ADD29C,0.190000*%
G04 #@! TD*
G04 #@! TA.AperFunction,Conductor*
%ADD30C,0.400000*%
G04 #@! TD*
G04 APERTURE END LIST*
D10*
G36*
X136450000Y-100815000D02*
G01*
X135650000Y-100815000D01*
X135650000Y-101815000D01*
X136450000Y-101815000D01*
X136450000Y-100815000D01*
G37*
X136450000Y-100815000D02*
X135650000Y-100815000D01*
X135650000Y-101815000D01*
X136450000Y-101815000D01*
X136450000Y-100815000D01*
G36*
X139334001Y-81467000D02*
G01*
X138534001Y-81467000D01*
X138534001Y-82467000D01*
X139334001Y-82467000D01*
X139334001Y-81467000D01*
G37*
X139334001Y-81467000D02*
X138534001Y-81467000D01*
X138534001Y-82467000D01*
X139334001Y-82467000D01*
X139334001Y-81467000D01*
G36*
X103340000Y-85800000D02*
G01*
X104140000Y-85800000D01*
X104140000Y-84800000D01*
X103340000Y-84800000D01*
X103340000Y-85800000D01*
G37*
X103340000Y-85800000D02*
X104140000Y-85800000D01*
X104140000Y-84800000D01*
X103340000Y-84800000D01*
X103340000Y-85800000D01*
G04 #@! TA.AperFunction,SMDPad,CuDef*
G36*
G01*
X97842391Y-101752807D02*
X98082807Y-101512391D01*
G75*
G02*
X98280797Y-101512391I98995J-98995D01*
G01*
X98478787Y-101710381D01*
G75*
G02*
X98478787Y-101908371I-98995J-98995D01*
G01*
X98238371Y-102148787D01*
G75*
G02*
X98040381Y-102148787I-98995J98995D01*
G01*
X97842391Y-101950797D01*
G75*
G02*
X97842391Y-101752807I98995J98995D01*
G01*
G37*
G04 #@! TD.AperFunction*
G04 #@! TA.AperFunction,SMDPad,CuDef*
G36*
G01*
X98521213Y-102431629D02*
X98761629Y-102191213D01*
G75*
G02*
X98959619Y-102191213I98995J-98995D01*
G01*
X99157609Y-102389203D01*
G75*
G02*
X99157609Y-102587193I-98995J-98995D01*
G01*
X98917193Y-102827609D01*
G75*
G02*
X98719203Y-102827609I-98995J98995D01*
G01*
X98521213Y-102629619D01*
G75*
G02*
X98521213Y-102431629I98995J98995D01*
G01*
G37*
G04 #@! TD.AperFunction*
D11*
X133958000Y-107790000D03*
X133958000Y-110500000D03*
X133558000Y-107790000D03*
X133558000Y-110500000D03*
X133158000Y-107790000D03*
X133158000Y-110500000D03*
X132758000Y-107790000D03*
X132758000Y-110500000D03*
X132358000Y-107790000D03*
X132358000Y-110500000D03*
X131958000Y-107790000D03*
X131958000Y-110500000D03*
X131558000Y-107790000D03*
X131558000Y-110500000D03*
X131158000Y-107790000D03*
X131158000Y-110500000D03*
X130758000Y-107790000D03*
X130758000Y-110500000D03*
X130358000Y-107790000D03*
X130358000Y-110500000D03*
X129958000Y-107790000D03*
X129958000Y-110500000D03*
X129558000Y-107790000D03*
X129558000Y-110500000D03*
X129158000Y-107790000D03*
X129158000Y-110500000D03*
X128758000Y-107790000D03*
X128758000Y-110500000D03*
X128358000Y-107790000D03*
X128358000Y-110500000D03*
X127958000Y-107790000D03*
X127958000Y-110500000D03*
X127558000Y-107790000D03*
X127558000Y-110500000D03*
X127158000Y-107790000D03*
X127158000Y-110500000D03*
X126758000Y-107790000D03*
X126758000Y-110500000D03*
X126358000Y-107790000D03*
X126358000Y-110500000D03*
X125958000Y-107790000D03*
X125958000Y-110500000D03*
X125558000Y-107790000D03*
X125558000Y-110500000D03*
X125158000Y-107790000D03*
X125158000Y-110500000D03*
X124758000Y-107790000D03*
X124758000Y-110500000D03*
X124358000Y-107790000D03*
X124358000Y-110500000D03*
X123958000Y-107790000D03*
X123958000Y-110500000D03*
X123558000Y-107790000D03*
X123558000Y-110500000D03*
X123158000Y-107790000D03*
X123158000Y-110500000D03*
X122758000Y-107790000D03*
X122758000Y-110500000D03*
X122358000Y-107790000D03*
X122358000Y-110500000D03*
X121958000Y-107790000D03*
X121958000Y-110500000D03*
X121558000Y-107790000D03*
X121558000Y-110500000D03*
X121158000Y-107790000D03*
X121158000Y-110500000D03*
X120758000Y-107790000D03*
X120758000Y-110500000D03*
X120358000Y-107790000D03*
X120358000Y-110500000D03*
X119958000Y-107790000D03*
X119958000Y-110500000D03*
X119558000Y-107790000D03*
X119558000Y-110500000D03*
X119158000Y-107790000D03*
X119158000Y-110500000D03*
X118758000Y-107790000D03*
X118758000Y-110500000D03*
X118358000Y-107790000D03*
X118358000Y-110500000D03*
D12*
X134433000Y-110500000D03*
X134433000Y-107790000D03*
X113883000Y-110500000D03*
X113883000Y-107790000D03*
D11*
X117958000Y-107790000D03*
X117958000Y-110500000D03*
X117558000Y-107790000D03*
X117558000Y-110500000D03*
X117158000Y-107790000D03*
X117158000Y-110500000D03*
X116758000Y-107790000D03*
X116758000Y-110500000D03*
X116358000Y-107790000D03*
X116358000Y-110500000D03*
X115958000Y-107790000D03*
X115958000Y-110500000D03*
X115558000Y-107790000D03*
X115558000Y-110500000D03*
X115158000Y-107790000D03*
X115158000Y-110500000D03*
X114758000Y-107790000D03*
X114758000Y-110500000D03*
X114358000Y-107790000D03*
X114358000Y-110500000D03*
D13*
X97620000Y-75644999D03*
X145620000Y-75645000D03*
X145620000Y-108720000D03*
X97619999Y-108723599D03*
G04 #@! TA.AperFunction,SMDPad,CuDef*
G36*
G01*
X135730000Y-100938750D02*
X135730000Y-101691250D01*
G75*
G02*
X135406250Y-102015000I-323750J0D01*
G01*
X134758750Y-102015000D01*
G75*
G02*
X134435000Y-101691250I0J323750D01*
G01*
X134435000Y-100938750D01*
G75*
G02*
X134758750Y-100615000I323750J0D01*
G01*
X135406250Y-100615000D01*
G75*
G02*
X135730000Y-100938750I0J-323750D01*
G01*
G37*
G04 #@! TD.AperFunction*
G04 #@! TA.AperFunction,SMDPad,CuDef*
G36*
G01*
X137665000Y-100938750D02*
X137665000Y-101691250D01*
G75*
G02*
X137341250Y-102015000I-323750J0D01*
G01*
X136693750Y-102015000D01*
G75*
G02*
X136370000Y-101691250I0J323750D01*
G01*
X136370000Y-100938750D01*
G75*
G02*
X136693750Y-100615000I323750J0D01*
G01*
X137341250Y-100615000D01*
G75*
G02*
X137665000Y-100938750I0J-323750D01*
G01*
G37*
G04 #@! TD.AperFunction*
G04 #@! TA.AperFunction,SMDPad,CuDef*
G36*
G01*
X138614001Y-81590750D02*
X138614001Y-82343250D01*
G75*
G02*
X138290251Y-82667000I-323750J0D01*
G01*
X137642751Y-82667000D01*
G75*
G02*
X137319001Y-82343250I0J323750D01*
G01*
X137319001Y-81590750D01*
G75*
G02*
X137642751Y-81267000I323750J0D01*
G01*
X138290251Y-81267000D01*
G75*
G02*
X138614001Y-81590750I0J-323750D01*
G01*
G37*
G04 #@! TD.AperFunction*
G04 #@! TA.AperFunction,SMDPad,CuDef*
G36*
G01*
X140549001Y-81590750D02*
X140549001Y-82343250D01*
G75*
G02*
X140225251Y-82667000I-323750J0D01*
G01*
X139577751Y-82667000D01*
G75*
G02*
X139254001Y-82343250I0J323750D01*
G01*
X139254001Y-81590750D01*
G75*
G02*
X139577751Y-81267000I323750J0D01*
G01*
X140225251Y-81267000D01*
G75*
G02*
X140549001Y-81590750I0J-323750D01*
G01*
G37*
G04 #@! TD.AperFunction*
G04 #@! TA.AperFunction,SMDPad,CuDef*
G36*
G01*
X102125000Y-85676250D02*
X102125000Y-84923750D01*
G75*
G02*
X102448750Y-84600000I323750J0D01*
G01*
X103096250Y-84600000D01*
G75*
G02*
X103420000Y-84923750I0J-323750D01*
G01*
X103420000Y-85676250D01*
G75*
G02*
X103096250Y-86000000I-323750J0D01*
G01*
X102448750Y-86000000D01*
G75*
G02*
X102125000Y-85676250I0J323750D01*
G01*
G37*
G04 #@! TD.AperFunction*
G04 #@! TA.AperFunction,SMDPad,CuDef*
G36*
G01*
X104060000Y-85676250D02*
X104060000Y-84923750D01*
G75*
G02*
X104383750Y-84600000I323750J0D01*
G01*
X105031250Y-84600000D01*
G75*
G02*
X105355000Y-84923750I0J-323750D01*
G01*
X105355000Y-85676250D01*
G75*
G02*
X105031250Y-86000000I-323750J0D01*
G01*
X104383750Y-86000000D01*
G75*
G02*
X104060000Y-85676250I0J323750D01*
G01*
G37*
G04 #@! TD.AperFunction*
D14*
X144475001Y-81350000D03*
X141935001Y-81350000D03*
X141580000Y-100690000D03*
X139040000Y-100690000D03*
X98210000Y-85925000D03*
X100750000Y-85925000D03*
G04 #@! TA.AperFunction,SMDPad,CuDef*
G36*
G01*
X105075000Y-76348750D02*
X105075000Y-76861250D01*
G75*
G02*
X104856250Y-77080000I-218750J0D01*
G01*
X104418750Y-77080000D01*
G75*
G02*
X104200000Y-76861250I0J218750D01*
G01*
X104200000Y-76348750D01*
G75*
G02*
X104418750Y-76130000I218750J0D01*
G01*
X104856250Y-76130000D01*
G75*
G02*
X105075000Y-76348750I0J-218750D01*
G01*
G37*
G04 #@! TD.AperFunction*
G04 #@! TA.AperFunction,SMDPad,CuDef*
G36*
G01*
X106650000Y-76348750D02*
X106650000Y-76861250D01*
G75*
G02*
X106431250Y-77080000I-218750J0D01*
G01*
X105993750Y-77080000D01*
G75*
G02*
X105775000Y-76861250I0J218750D01*
G01*
X105775000Y-76348750D01*
G75*
G02*
X105993750Y-76130000I218750J0D01*
G01*
X106431250Y-76130000D01*
G75*
G02*
X106650000Y-76348750I0J-218750D01*
G01*
G37*
G04 #@! TD.AperFunction*
G04 #@! TA.AperFunction,SMDPad,CuDef*
G36*
G01*
X139830000Y-94006250D02*
X139830000Y-93493750D01*
G75*
G02*
X140048750Y-93275000I218750J0D01*
G01*
X140486250Y-93275000D01*
G75*
G02*
X140705000Y-93493750I0J-218750D01*
G01*
X140705000Y-94006250D01*
G75*
G02*
X140486250Y-94225000I-218750J0D01*
G01*
X140048750Y-94225000D01*
G75*
G02*
X139830000Y-94006250I0J218750D01*
G01*
G37*
G04 #@! TD.AperFunction*
G04 #@! TA.AperFunction,SMDPad,CuDef*
G36*
G01*
X138255000Y-94006250D02*
X138255000Y-93493750D01*
G75*
G02*
X138473750Y-93275000I218750J0D01*
G01*
X138911250Y-93275000D01*
G75*
G02*
X139130000Y-93493750I0J-218750D01*
G01*
X139130000Y-94006250D01*
G75*
G02*
X138911250Y-94225000I-218750J0D01*
G01*
X138473750Y-94225000D01*
G75*
G02*
X138255000Y-94006250I0J218750D01*
G01*
G37*
G04 #@! TD.AperFunction*
G04 #@! TA.AperFunction,SMDPad,CuDef*
G36*
G01*
X111283750Y-107990000D02*
X111796250Y-107990000D01*
G75*
G02*
X112015000Y-108208750I0J-218750D01*
G01*
X112015000Y-108646250D01*
G75*
G02*
X111796250Y-108865000I-218750J0D01*
G01*
X111283750Y-108865000D01*
G75*
G02*
X111065000Y-108646250I0J218750D01*
G01*
X111065000Y-108208750D01*
G75*
G02*
X111283750Y-107990000I218750J0D01*
G01*
G37*
G04 #@! TD.AperFunction*
G04 #@! TA.AperFunction,SMDPad,CuDef*
G36*
G01*
X111283750Y-106415000D02*
X111796250Y-106415000D01*
G75*
G02*
X112015000Y-106633750I0J-218750D01*
G01*
X112015000Y-107071250D01*
G75*
G02*
X111796250Y-107290000I-218750J0D01*
G01*
X111283750Y-107290000D01*
G75*
G02*
X111065000Y-107071250I0J218750D01*
G01*
X111065000Y-106633750D01*
G75*
G02*
X111283750Y-106415000I218750J0D01*
G01*
G37*
G04 #@! TD.AperFunction*
G04 #@! TA.AperFunction,SMDPad,CuDef*
G36*
G01*
X109723750Y-107990000D02*
X110236250Y-107990000D01*
G75*
G02*
X110455000Y-108208750I0J-218750D01*
G01*
X110455000Y-108646250D01*
G75*
G02*
X110236250Y-108865000I-218750J0D01*
G01*
X109723750Y-108865000D01*
G75*
G02*
X109505000Y-108646250I0J218750D01*
G01*
X109505000Y-108208750D01*
G75*
G02*
X109723750Y-107990000I218750J0D01*
G01*
G37*
G04 #@! TD.AperFunction*
G04 #@! TA.AperFunction,SMDPad,CuDef*
G36*
G01*
X109723750Y-106415000D02*
X110236250Y-106415000D01*
G75*
G02*
X110455000Y-106633750I0J-218750D01*
G01*
X110455000Y-107071250D01*
G75*
G02*
X110236250Y-107290000I-218750J0D01*
G01*
X109723750Y-107290000D01*
G75*
G02*
X109505000Y-107071250I0J218750D01*
G01*
X109505000Y-106633750D01*
G75*
G02*
X109723750Y-106415000I218750J0D01*
G01*
G37*
G04 #@! TD.AperFunction*
D15*
X143525000Y-83860000D03*
X144475000Y-83860000D03*
X145425000Y-83860000D03*
X145425000Y-86460000D03*
X143525000Y-86460000D03*
G04 #@! TA.AperFunction,SMDPad,CuDef*
G36*
G01*
X102143750Y-75850000D02*
X102656250Y-75850000D01*
G75*
G02*
X102875000Y-76068750I0J-218750D01*
G01*
X102875000Y-76506250D01*
G75*
G02*
X102656250Y-76725000I-218750J0D01*
G01*
X102143750Y-76725000D01*
G75*
G02*
X101925000Y-76506250I0J218750D01*
G01*
X101925000Y-76068750D01*
G75*
G02*
X102143750Y-75850000I218750J0D01*
G01*
G37*
G04 #@! TD.AperFunction*
G04 #@! TA.AperFunction,SMDPad,CuDef*
G36*
G01*
X102143750Y-74275000D02*
X102656250Y-74275000D01*
G75*
G02*
X102875000Y-74493750I0J-218750D01*
G01*
X102875000Y-74931250D01*
G75*
G02*
X102656250Y-75150000I-218750J0D01*
G01*
X102143750Y-75150000D01*
G75*
G02*
X101925000Y-74931250I0J218750D01*
G01*
X101925000Y-74493750D01*
G75*
G02*
X102143750Y-74275000I218750J0D01*
G01*
G37*
G04 #@! TD.AperFunction*
X140630000Y-103200000D03*
X141580000Y-103200000D03*
X142530000Y-103200000D03*
X142530000Y-105800000D03*
X140630000Y-105800000D03*
X99160000Y-83415000D03*
X98210000Y-83415000D03*
X97260000Y-83415000D03*
X97260000Y-80815000D03*
X99160000Y-80815000D03*
G04 #@! TA.AperFunction,SMDPad,CuDef*
G36*
G01*
X96990000Y-79335000D02*
X96990000Y-78835000D01*
G75*
G02*
X97215000Y-78610000I225000J0D01*
G01*
X97665000Y-78610000D01*
G75*
G02*
X97890000Y-78835000I0J-225000D01*
G01*
X97890000Y-79335000D01*
G75*
G02*
X97665000Y-79560000I-225000J0D01*
G01*
X97215000Y-79560000D01*
G75*
G02*
X96990000Y-79335000I0J225000D01*
G01*
G37*
G04 #@! TD.AperFunction*
G04 #@! TA.AperFunction,SMDPad,CuDef*
G36*
G01*
X98540000Y-79335000D02*
X98540000Y-78835000D01*
G75*
G02*
X98765000Y-78610000I225000J0D01*
G01*
X99215000Y-78610000D01*
G75*
G02*
X99440000Y-78835000I0J-225000D01*
G01*
X99440000Y-79335000D01*
G75*
G02*
X99215000Y-79560000I-225000J0D01*
G01*
X98765000Y-79560000D01*
G75*
G02*
X98540000Y-79335000I0J225000D01*
G01*
G37*
G04 #@! TD.AperFunction*
G04 #@! TA.AperFunction,SMDPad,CuDef*
G36*
G01*
X137850001Y-107535000D02*
X137850001Y-107195000D01*
G75*
G02*
X137990001Y-107055000I140000J0D01*
G01*
X138270001Y-107055000D01*
G75*
G02*
X138410001Y-107195000I0J-140000D01*
G01*
X138410001Y-107535000D01*
G75*
G02*
X138270001Y-107675000I-140000J0D01*
G01*
X137990001Y-107675000D01*
G75*
G02*
X137850001Y-107535000I0J140000D01*
G01*
G37*
G04 #@! TD.AperFunction*
G04 #@! TA.AperFunction,SMDPad,CuDef*
G36*
G01*
X136890001Y-107535000D02*
X136890001Y-107195000D01*
G75*
G02*
X137030001Y-107055000I140000J0D01*
G01*
X137310001Y-107055000D01*
G75*
G02*
X137450001Y-107195000I0J-140000D01*
G01*
X137450001Y-107535000D01*
G75*
G02*
X137310001Y-107675000I-140000J0D01*
G01*
X137030001Y-107675000D01*
G75*
G02*
X136890001Y-107535000I0J140000D01*
G01*
G37*
G04 #@! TD.AperFunction*
G04 #@! TA.AperFunction,SMDPad,CuDef*
G36*
G01*
X136500000Y-105239999D02*
X136500000Y-104739999D01*
G75*
G02*
X136725000Y-104514999I225000J0D01*
G01*
X137175000Y-104514999D01*
G75*
G02*
X137400000Y-104739999I0J-225000D01*
G01*
X137400000Y-105239999D01*
G75*
G02*
X137175000Y-105464999I-225000J0D01*
G01*
X136725000Y-105464999D01*
G75*
G02*
X136500000Y-105239999I0J225000D01*
G01*
G37*
G04 #@! TD.AperFunction*
G04 #@! TA.AperFunction,SMDPad,CuDef*
G36*
G01*
X138050000Y-105239999D02*
X138050000Y-104739999D01*
G75*
G02*
X138275000Y-104514999I225000J0D01*
G01*
X138725000Y-104514999D01*
G75*
G02*
X138950000Y-104739999I0J-225000D01*
G01*
X138950000Y-105239999D01*
G75*
G02*
X138725000Y-105464999I-225000J0D01*
G01*
X138275000Y-105464999D01*
G75*
G02*
X138050000Y-105239999I0J225000D01*
G01*
G37*
G04 #@! TD.AperFunction*
G04 #@! TA.AperFunction,SMDPad,CuDef*
G36*
G01*
X138040000Y-103605000D02*
X138040000Y-103105000D01*
G75*
G02*
X138265000Y-102880000I225000J0D01*
G01*
X138715000Y-102880000D01*
G75*
G02*
X138940000Y-103105000I0J-225000D01*
G01*
X138940000Y-103605000D01*
G75*
G02*
X138715000Y-103830000I-225000J0D01*
G01*
X138265000Y-103830000D01*
G75*
G02*
X138040000Y-103605000I0J225000D01*
G01*
G37*
G04 #@! TD.AperFunction*
G04 #@! TA.AperFunction,SMDPad,CuDef*
G36*
G01*
X136490000Y-103605000D02*
X136490000Y-103105000D01*
G75*
G02*
X136715000Y-102880000I225000J0D01*
G01*
X137165000Y-102880000D01*
G75*
G02*
X137390000Y-103105000I0J-225000D01*
G01*
X137390000Y-103605000D01*
G75*
G02*
X137165000Y-103830000I-225000J0D01*
G01*
X136715000Y-103830000D01*
G75*
G02*
X136490000Y-103605000I0J225000D01*
G01*
G37*
G04 #@! TD.AperFunction*
G04 #@! TA.AperFunction,SMDPad,CuDef*
G36*
G01*
X142800000Y-107280000D02*
X142800000Y-107780000D01*
G75*
G02*
X142575000Y-108005000I-225000J0D01*
G01*
X142125000Y-108005000D01*
G75*
G02*
X141900000Y-107780000I0J225000D01*
G01*
X141900000Y-107280000D01*
G75*
G02*
X142125000Y-107055000I225000J0D01*
G01*
X142575000Y-107055000D01*
G75*
G02*
X142800000Y-107280000I0J-225000D01*
G01*
G37*
G04 #@! TD.AperFunction*
G04 #@! TA.AperFunction,SMDPad,CuDef*
G36*
G01*
X141250000Y-107280000D02*
X141250000Y-107780000D01*
G75*
G02*
X141025000Y-108005000I-225000J0D01*
G01*
X140575000Y-108005000D01*
G75*
G02*
X140350000Y-107780000I0J225000D01*
G01*
X140350000Y-107280000D01*
G75*
G02*
X140575000Y-107055000I225000J0D01*
G01*
X141025000Y-107055000D01*
G75*
G02*
X141250000Y-107280000I0J-225000D01*
G01*
G37*
G04 #@! TD.AperFunction*
G04 #@! TA.AperFunction,SMDPad,CuDef*
G36*
G01*
X139785000Y-88194999D02*
X139785000Y-87854999D01*
G75*
G02*
X139925000Y-87714999I140000J0D01*
G01*
X140205000Y-87714999D01*
G75*
G02*
X140345000Y-87854999I0J-140000D01*
G01*
X140345000Y-88194999D01*
G75*
G02*
X140205000Y-88334999I-140000J0D01*
G01*
X139925000Y-88334999D01*
G75*
G02*
X139785000Y-88194999I0J140000D01*
G01*
G37*
G04 #@! TD.AperFunction*
G04 #@! TA.AperFunction,SMDPad,CuDef*
G36*
G01*
X140745000Y-88194999D02*
X140745000Y-87854999D01*
G75*
G02*
X140885000Y-87714999I140000J0D01*
G01*
X141165000Y-87714999D01*
G75*
G02*
X141305000Y-87854999I0J-140000D01*
G01*
X141305000Y-88194999D01*
G75*
G02*
X141165000Y-88334999I-140000J0D01*
G01*
X140885000Y-88334999D01*
G75*
G02*
X140745000Y-88194999I0J140000D01*
G01*
G37*
G04 #@! TD.AperFunction*
G04 #@! TA.AperFunction,SMDPad,CuDef*
G36*
G01*
X140945001Y-85900001D02*
X140945001Y-85400001D01*
G75*
G02*
X141170001Y-85175001I225000J0D01*
G01*
X141620001Y-85175001D01*
G75*
G02*
X141845001Y-85400001I0J-225000D01*
G01*
X141845001Y-85900001D01*
G75*
G02*
X141620001Y-86125001I-225000J0D01*
G01*
X141170001Y-86125001D01*
G75*
G02*
X140945001Y-85900001I0J225000D01*
G01*
G37*
G04 #@! TD.AperFunction*
G04 #@! TA.AperFunction,SMDPad,CuDef*
G36*
G01*
X139395001Y-85900001D02*
X139395001Y-85400001D01*
G75*
G02*
X139620001Y-85175001I225000J0D01*
G01*
X140070001Y-85175001D01*
G75*
G02*
X140295001Y-85400001I0J-225000D01*
G01*
X140295001Y-85900001D01*
G75*
G02*
X140070001Y-86125001I-225000J0D01*
G01*
X139620001Y-86125001D01*
G75*
G02*
X139395001Y-85900001I0J225000D01*
G01*
G37*
G04 #@! TD.AperFunction*
G04 #@! TA.AperFunction,SMDPad,CuDef*
G36*
G01*
X139385001Y-84265000D02*
X139385001Y-83765000D01*
G75*
G02*
X139610001Y-83540000I225000J0D01*
G01*
X140060001Y-83540000D01*
G75*
G02*
X140285001Y-83765000I0J-225000D01*
G01*
X140285001Y-84265000D01*
G75*
G02*
X140060001Y-84490000I-225000J0D01*
G01*
X139610001Y-84490000D01*
G75*
G02*
X139385001Y-84265000I0J225000D01*
G01*
G37*
G04 #@! TD.AperFunction*
G04 #@! TA.AperFunction,SMDPad,CuDef*
G36*
G01*
X140935001Y-84265000D02*
X140935001Y-83765000D01*
G75*
G02*
X141160001Y-83540000I225000J0D01*
G01*
X141610001Y-83540000D01*
G75*
G02*
X141835001Y-83765000I0J-225000D01*
G01*
X141835001Y-84265000D01*
G75*
G02*
X141610001Y-84490000I-225000J0D01*
G01*
X141160001Y-84490000D01*
G75*
G02*
X140935001Y-84265000I0J225000D01*
G01*
G37*
G04 #@! TD.AperFunction*
G04 #@! TA.AperFunction,SMDPad,CuDef*
G36*
G01*
X145695000Y-87940000D02*
X145695000Y-88440000D01*
G75*
G02*
X145470000Y-88665000I-225000J0D01*
G01*
X145020000Y-88665000D01*
G75*
G02*
X144795000Y-88440000I0J225000D01*
G01*
X144795000Y-87940000D01*
G75*
G02*
X145020000Y-87715000I225000J0D01*
G01*
X145470000Y-87715000D01*
G75*
G02*
X145695000Y-87940000I0J-225000D01*
G01*
G37*
G04 #@! TD.AperFunction*
G04 #@! TA.AperFunction,SMDPad,CuDef*
G36*
G01*
X144145000Y-87940000D02*
X144145000Y-88440000D01*
G75*
G02*
X143920000Y-88665000I-225000J0D01*
G01*
X143470000Y-88665000D01*
G75*
G02*
X143245000Y-88440000I0J225000D01*
G01*
X143245000Y-87940000D01*
G75*
G02*
X143470000Y-87715000I225000J0D01*
G01*
X143920000Y-87715000D01*
G75*
G02*
X144145000Y-87940000I0J-225000D01*
G01*
G37*
G04 #@! TD.AperFunction*
G04 #@! TA.AperFunction,SMDPad,CuDef*
G36*
G01*
X102900000Y-79080000D02*
X102900000Y-79420000D01*
G75*
G02*
X102760000Y-79560000I-140000J0D01*
G01*
X102480000Y-79560000D01*
G75*
G02*
X102340000Y-79420000I0J140000D01*
G01*
X102340000Y-79080000D01*
G75*
G02*
X102480000Y-78940000I140000J0D01*
G01*
X102760000Y-78940000D01*
G75*
G02*
X102900000Y-79080000I0J-140000D01*
G01*
G37*
G04 #@! TD.AperFunction*
G04 #@! TA.AperFunction,SMDPad,CuDef*
G36*
G01*
X101940000Y-79080000D02*
X101940000Y-79420000D01*
G75*
G02*
X101800000Y-79560000I-140000J0D01*
G01*
X101520000Y-79560000D01*
G75*
G02*
X101380000Y-79420000I0J140000D01*
G01*
X101380000Y-79080000D01*
G75*
G02*
X101520000Y-78940000I140000J0D01*
G01*
X101800000Y-78940000D01*
G75*
G02*
X101940000Y-79080000I0J-140000D01*
G01*
G37*
G04 #@! TD.AperFunction*
G04 #@! TA.AperFunction,SMDPad,CuDef*
G36*
G01*
X101740000Y-81375000D02*
X101740000Y-81875000D01*
G75*
G02*
X101515000Y-82100000I-225000J0D01*
G01*
X101065000Y-82100000D01*
G75*
G02*
X100840000Y-81875000I0J225000D01*
G01*
X100840000Y-81375000D01*
G75*
G02*
X101065000Y-81150000I225000J0D01*
G01*
X101515000Y-81150000D01*
G75*
G02*
X101740000Y-81375000I0J-225000D01*
G01*
G37*
G04 #@! TD.AperFunction*
G04 #@! TA.AperFunction,SMDPad,CuDef*
G36*
G01*
X103290000Y-81375000D02*
X103290000Y-81875000D01*
G75*
G02*
X103065000Y-82100000I-225000J0D01*
G01*
X102615000Y-82100000D01*
G75*
G02*
X102390000Y-81875000I0J225000D01*
G01*
X102390000Y-81375000D01*
G75*
G02*
X102615000Y-81150000I225000J0D01*
G01*
X103065000Y-81150000D01*
G75*
G02*
X103290000Y-81375000I0J-225000D01*
G01*
G37*
G04 #@! TD.AperFunction*
G04 #@! TA.AperFunction,SMDPad,CuDef*
G36*
G01*
X103300000Y-83010000D02*
X103300000Y-83510000D01*
G75*
G02*
X103075000Y-83735000I-225000J0D01*
G01*
X102625000Y-83735000D01*
G75*
G02*
X102400000Y-83510000I0J225000D01*
G01*
X102400000Y-83010000D01*
G75*
G02*
X102625000Y-82785000I225000J0D01*
G01*
X103075000Y-82785000D01*
G75*
G02*
X103300000Y-83010000I0J-225000D01*
G01*
G37*
G04 #@! TD.AperFunction*
G04 #@! TA.AperFunction,SMDPad,CuDef*
G36*
G01*
X101750000Y-83010000D02*
X101750000Y-83510000D01*
G75*
G02*
X101525000Y-83735000I-225000J0D01*
G01*
X101075000Y-83735000D01*
G75*
G02*
X100850000Y-83510000I0J225000D01*
G01*
X100850000Y-83010000D01*
G75*
G02*
X101075000Y-82785000I225000J0D01*
G01*
X101525000Y-82785000D01*
G75*
G02*
X101750000Y-83010000I0J-225000D01*
G01*
G37*
G04 #@! TD.AperFunction*
G04 #@! TA.AperFunction,SMDPad,CuDef*
G36*
G01*
X134165000Y-97940000D02*
X134165000Y-97440000D01*
G75*
G02*
X134390000Y-97215000I225000J0D01*
G01*
X134840000Y-97215000D01*
G75*
G02*
X135065000Y-97440000I0J-225000D01*
G01*
X135065000Y-97940000D01*
G75*
G02*
X134840000Y-98165000I-225000J0D01*
G01*
X134390000Y-98165000D01*
G75*
G02*
X134165000Y-97940000I0J225000D01*
G01*
G37*
G04 #@! TD.AperFunction*
G04 #@! TA.AperFunction,SMDPad,CuDef*
G36*
G01*
X132615000Y-97940000D02*
X132615000Y-97440000D01*
G75*
G02*
X132840000Y-97215000I225000J0D01*
G01*
X133290000Y-97215000D01*
G75*
G02*
X133515000Y-97440000I0J-225000D01*
G01*
X133515000Y-97940000D01*
G75*
G02*
X133290000Y-98165000I-225000J0D01*
G01*
X132840000Y-98165000D01*
G75*
G02*
X132615000Y-97940000I0J225000D01*
G01*
G37*
G04 #@! TD.AperFunction*
G04 #@! TA.AperFunction,SMDPad,CuDef*
G36*
G01*
X116980000Y-98395000D02*
X117480000Y-98395000D01*
G75*
G02*
X117705000Y-98620000I0J-225000D01*
G01*
X117705000Y-99070000D01*
G75*
G02*
X117480000Y-99295000I-225000J0D01*
G01*
X116980000Y-99295000D01*
G75*
G02*
X116755000Y-99070000I0J225000D01*
G01*
X116755000Y-98620000D01*
G75*
G02*
X116980000Y-98395000I225000J0D01*
G01*
G37*
G04 #@! TD.AperFunction*
G04 #@! TA.AperFunction,SMDPad,CuDef*
G36*
G01*
X116980000Y-96845000D02*
X117480000Y-96845000D01*
G75*
G02*
X117705000Y-97070000I0J-225000D01*
G01*
X117705000Y-97520000D01*
G75*
G02*
X117480000Y-97745000I-225000J0D01*
G01*
X116980000Y-97745000D01*
G75*
G02*
X116755000Y-97520000I0J225000D01*
G01*
X116755000Y-97070000D01*
G75*
G02*
X116980000Y-96845000I225000J0D01*
G01*
G37*
G04 #@! TD.AperFunction*
G04 #@! TA.AperFunction,SMDPad,CuDef*
G36*
G01*
X117480000Y-89095000D02*
X116980000Y-89095000D01*
G75*
G02*
X116755000Y-88870000I0J225000D01*
G01*
X116755000Y-88420000D01*
G75*
G02*
X116980000Y-88195000I225000J0D01*
G01*
X117480000Y-88195000D01*
G75*
G02*
X117705000Y-88420000I0J-225000D01*
G01*
X117705000Y-88870000D01*
G75*
G02*
X117480000Y-89095000I-225000J0D01*
G01*
G37*
G04 #@! TD.AperFunction*
G04 #@! TA.AperFunction,SMDPad,CuDef*
G36*
G01*
X117480000Y-87545000D02*
X116980000Y-87545000D01*
G75*
G02*
X116755000Y-87320000I0J225000D01*
G01*
X116755000Y-86870000D01*
G75*
G02*
X116980000Y-86645000I225000J0D01*
G01*
X117480000Y-86645000D01*
G75*
G02*
X117705000Y-86870000I0J-225000D01*
G01*
X117705000Y-87320000D01*
G75*
G02*
X117480000Y-87545000I-225000J0D01*
G01*
G37*
G04 #@! TD.AperFunction*
G04 #@! TA.AperFunction,SMDPad,CuDef*
G36*
G01*
X116980000Y-93395000D02*
X117480000Y-93395000D01*
G75*
G02*
X117705000Y-93620000I0J-225000D01*
G01*
X117705000Y-94070000D01*
G75*
G02*
X117480000Y-94295000I-225000J0D01*
G01*
X116980000Y-94295000D01*
G75*
G02*
X116755000Y-94070000I0J225000D01*
G01*
X116755000Y-93620000D01*
G75*
G02*
X116980000Y-93395000I225000J0D01*
G01*
G37*
G04 #@! TD.AperFunction*
G04 #@! TA.AperFunction,SMDPad,CuDef*
G36*
G01*
X116980000Y-91845000D02*
X117480000Y-91845000D01*
G75*
G02*
X117705000Y-92070000I0J-225000D01*
G01*
X117705000Y-92520000D01*
G75*
G02*
X117480000Y-92745000I-225000J0D01*
G01*
X116980000Y-92745000D01*
G75*
G02*
X116755000Y-92520000I0J225000D01*
G01*
X116755000Y-92070000D01*
G75*
G02*
X116980000Y-91845000I225000J0D01*
G01*
G37*
G04 #@! TD.AperFunction*
G04 #@! TA.AperFunction,SMDPad,CuDef*
G36*
G01*
X138633999Y-98498000D02*
X138633999Y-97998000D01*
G75*
G02*
X138858999Y-97773000I225000J0D01*
G01*
X139308999Y-97773000D01*
G75*
G02*
X139533999Y-97998000I0J-225000D01*
G01*
X139533999Y-98498000D01*
G75*
G02*
X139308999Y-98723000I-225000J0D01*
G01*
X138858999Y-98723000D01*
G75*
G02*
X138633999Y-98498000I0J225000D01*
G01*
G37*
G04 #@! TD.AperFunction*
G04 #@! TA.AperFunction,SMDPad,CuDef*
G36*
G01*
X140183999Y-98498000D02*
X140183999Y-97998000D01*
G75*
G02*
X140408999Y-97773000I225000J0D01*
G01*
X140858999Y-97773000D01*
G75*
G02*
X141083999Y-97998000I0J-225000D01*
G01*
X141083999Y-98498000D01*
G75*
G02*
X140858999Y-98723000I-225000J0D01*
G01*
X140408999Y-98723000D01*
G75*
G02*
X140183999Y-98498000I0J225000D01*
G01*
G37*
G04 #@! TD.AperFunction*
G04 #@! TA.AperFunction,SMDPad,CuDef*
G36*
G01*
X99606000Y-88117000D02*
X99606000Y-88617000D01*
G75*
G02*
X99381000Y-88842000I-225000J0D01*
G01*
X98931000Y-88842000D01*
G75*
G02*
X98706000Y-88617000I0J225000D01*
G01*
X98706000Y-88117000D01*
G75*
G02*
X98931000Y-87892000I225000J0D01*
G01*
X99381000Y-87892000D01*
G75*
G02*
X99606000Y-88117000I0J-225000D01*
G01*
G37*
G04 #@! TD.AperFunction*
G04 #@! TA.AperFunction,SMDPad,CuDef*
G36*
G01*
X101156000Y-88117000D02*
X101156000Y-88617000D01*
G75*
G02*
X100931000Y-88842000I-225000J0D01*
G01*
X100481000Y-88842000D01*
G75*
G02*
X100256000Y-88617000I0J225000D01*
G01*
X100256000Y-88117000D01*
G75*
G02*
X100481000Y-87892000I225000J0D01*
G01*
X100931000Y-87892000D01*
G75*
G02*
X101156000Y-88117000I0J-225000D01*
G01*
G37*
G04 #@! TD.AperFunction*
G04 #@! TA.AperFunction,SMDPad,CuDef*
G36*
G01*
X143079000Y-79158000D02*
X143079000Y-78658000D01*
G75*
G02*
X143304000Y-78433000I225000J0D01*
G01*
X143754000Y-78433000D01*
G75*
G02*
X143979000Y-78658000I0J-225000D01*
G01*
X143979000Y-79158000D01*
G75*
G02*
X143754000Y-79383000I-225000J0D01*
G01*
X143304000Y-79383000D01*
G75*
G02*
X143079000Y-79158000I0J225000D01*
G01*
G37*
G04 #@! TD.AperFunction*
G04 #@! TA.AperFunction,SMDPad,CuDef*
G36*
G01*
X141529000Y-79158000D02*
X141529000Y-78658000D01*
G75*
G02*
X141754000Y-78433000I225000J0D01*
G01*
X142204000Y-78433000D01*
G75*
G02*
X142429000Y-78658000I0J-225000D01*
G01*
X142429000Y-79158000D01*
G75*
G02*
X142204000Y-79383000I-225000J0D01*
G01*
X141754000Y-79383000D01*
G75*
G02*
X141529000Y-79158000I0J225000D01*
G01*
G37*
G04 #@! TD.AperFunction*
G04 #@! TA.AperFunction,SMDPad,CuDef*
G36*
G01*
X119460000Y-92870000D02*
X119800000Y-92870000D01*
G75*
G02*
X119940000Y-93010000I0J-140000D01*
G01*
X119940000Y-93290000D01*
G75*
G02*
X119800000Y-93430000I-140000J0D01*
G01*
X119460000Y-93430000D01*
G75*
G02*
X119320000Y-93290000I0J140000D01*
G01*
X119320000Y-93010000D01*
G75*
G02*
X119460000Y-92870000I140000J0D01*
G01*
G37*
G04 #@! TD.AperFunction*
G04 #@! TA.AperFunction,SMDPad,CuDef*
G36*
G01*
X119460000Y-91910000D02*
X119800000Y-91910000D01*
G75*
G02*
X119940000Y-92050000I0J-140000D01*
G01*
X119940000Y-92330000D01*
G75*
G02*
X119800000Y-92470000I-140000J0D01*
G01*
X119460000Y-92470000D01*
G75*
G02*
X119320000Y-92330000I0J140000D01*
G01*
X119320000Y-92050000D01*
G75*
G02*
X119460000Y-91910000I140000J0D01*
G01*
G37*
G04 #@! TD.AperFunction*
G04 #@! TA.AperFunction,SMDPad,CuDef*
G36*
G01*
X114660000Y-92870000D02*
X115000000Y-92870000D01*
G75*
G02*
X115140000Y-93010000I0J-140000D01*
G01*
X115140000Y-93290000D01*
G75*
G02*
X115000000Y-93430000I-140000J0D01*
G01*
X114660000Y-93430000D01*
G75*
G02*
X114520000Y-93290000I0J140000D01*
G01*
X114520000Y-93010000D01*
G75*
G02*
X114660000Y-92870000I140000J0D01*
G01*
G37*
G04 #@! TD.AperFunction*
G04 #@! TA.AperFunction,SMDPad,CuDef*
G36*
G01*
X114660000Y-91910000D02*
X115000000Y-91910000D01*
G75*
G02*
X115140000Y-92050000I0J-140000D01*
G01*
X115140000Y-92330000D01*
G75*
G02*
X115000000Y-92470000I-140000J0D01*
G01*
X114660000Y-92470000D01*
G75*
G02*
X114520000Y-92330000I0J140000D01*
G01*
X114520000Y-92050000D01*
G75*
G02*
X114660000Y-91910000I140000J0D01*
G01*
G37*
G04 #@! TD.AperFunction*
G04 #@! TA.AperFunction,SMDPad,CuDef*
G36*
G01*
X115460001Y-96910000D02*
X115800001Y-96910000D01*
G75*
G02*
X115940001Y-97050000I0J-140000D01*
G01*
X115940001Y-97330000D01*
G75*
G02*
X115800001Y-97470000I-140000J0D01*
G01*
X115460001Y-97470000D01*
G75*
G02*
X115320001Y-97330000I0J140000D01*
G01*
X115320001Y-97050000D01*
G75*
G02*
X115460001Y-96910000I140000J0D01*
G01*
G37*
G04 #@! TD.AperFunction*
G04 #@! TA.AperFunction,SMDPad,CuDef*
G36*
G01*
X115460001Y-97870000D02*
X115800001Y-97870000D01*
G75*
G02*
X115940001Y-98010000I0J-140000D01*
G01*
X115940001Y-98290000D01*
G75*
G02*
X115800001Y-98430000I-140000J0D01*
G01*
X115460001Y-98430000D01*
G75*
G02*
X115320001Y-98290000I0J140000D01*
G01*
X115320001Y-98010000D01*
G75*
G02*
X115460001Y-97870000I140000J0D01*
G01*
G37*
G04 #@! TD.AperFunction*
G04 #@! TA.AperFunction,SMDPad,CuDef*
G36*
G01*
X118660000Y-97870000D02*
X119000000Y-97870000D01*
G75*
G02*
X119140000Y-98010000I0J-140000D01*
G01*
X119140000Y-98290000D01*
G75*
G02*
X119000000Y-98430000I-140000J0D01*
G01*
X118660000Y-98430000D01*
G75*
G02*
X118520000Y-98290000I0J140000D01*
G01*
X118520000Y-98010000D01*
G75*
G02*
X118660000Y-97870000I140000J0D01*
G01*
G37*
G04 #@! TD.AperFunction*
G04 #@! TA.AperFunction,SMDPad,CuDef*
G36*
G01*
X118660000Y-96910000D02*
X119000000Y-96910000D01*
G75*
G02*
X119140000Y-97050000I0J-140000D01*
G01*
X119140000Y-97330000D01*
G75*
G02*
X119000000Y-97470000I-140000J0D01*
G01*
X118660000Y-97470000D01*
G75*
G02*
X118520000Y-97330000I0J140000D01*
G01*
X118520000Y-97050000D01*
G75*
G02*
X118660000Y-96910000I140000J0D01*
G01*
G37*
G04 #@! TD.AperFunction*
G04 #@! TA.AperFunction,SMDPad,CuDef*
G36*
G01*
X120560000Y-96810000D02*
X120900000Y-96810000D01*
G75*
G02*
X121040000Y-96950000I0J-140000D01*
G01*
X121040000Y-97230000D01*
G75*
G02*
X120900000Y-97370000I-140000J0D01*
G01*
X120560000Y-97370000D01*
G75*
G02*
X120420000Y-97230000I0J140000D01*
G01*
X120420000Y-96950000D01*
G75*
G02*
X120560000Y-96810000I140000J0D01*
G01*
G37*
G04 #@! TD.AperFunction*
G04 #@! TA.AperFunction,SMDPad,CuDef*
G36*
G01*
X120560000Y-97770000D02*
X120900000Y-97770000D01*
G75*
G02*
X121040000Y-97910000I0J-140000D01*
G01*
X121040000Y-98190000D01*
G75*
G02*
X120900000Y-98330000I-140000J0D01*
G01*
X120560000Y-98330000D01*
G75*
G02*
X120420000Y-98190000I0J140000D01*
G01*
X120420000Y-97910000D01*
G75*
G02*
X120560000Y-97770000I140000J0D01*
G01*
G37*
G04 #@! TD.AperFunction*
G04 #@! TA.AperFunction,SMDPad,CuDef*
G36*
G01*
X113460000Y-97670001D02*
X113800000Y-97670001D01*
G75*
G02*
X113940000Y-97810001I0J-140000D01*
G01*
X113940000Y-98090001D01*
G75*
G02*
X113800000Y-98230001I-140000J0D01*
G01*
X113460000Y-98230001D01*
G75*
G02*
X113320000Y-98090001I0J140000D01*
G01*
X113320000Y-97810001D01*
G75*
G02*
X113460000Y-97670001I140000J0D01*
G01*
G37*
G04 #@! TD.AperFunction*
G04 #@! TA.AperFunction,SMDPad,CuDef*
G36*
G01*
X113460000Y-96710001D02*
X113800000Y-96710001D01*
G75*
G02*
X113940000Y-96850001I0J-140000D01*
G01*
X113940000Y-97130001D01*
G75*
G02*
X113800000Y-97270001I-140000J0D01*
G01*
X113460000Y-97270001D01*
G75*
G02*
X113320000Y-97130001I0J140000D01*
G01*
X113320000Y-96850001D01*
G75*
G02*
X113460000Y-96710001I140000J0D01*
G01*
G37*
G04 #@! TD.AperFunction*
G04 #@! TA.AperFunction,SMDPad,CuDef*
G36*
G01*
X115030000Y-95040000D02*
X115030000Y-94700000D01*
G75*
G02*
X115170000Y-94560000I140000J0D01*
G01*
X115450000Y-94560000D01*
G75*
G02*
X115590000Y-94700000I0J-140000D01*
G01*
X115590000Y-95040000D01*
G75*
G02*
X115450000Y-95180000I-140000J0D01*
G01*
X115170000Y-95180000D01*
G75*
G02*
X115030000Y-95040000I0J140000D01*
G01*
G37*
G04 #@! TD.AperFunction*
G04 #@! TA.AperFunction,SMDPad,CuDef*
G36*
G01*
X114070000Y-95040000D02*
X114070000Y-94700000D01*
G75*
G02*
X114210000Y-94560000I140000J0D01*
G01*
X114490000Y-94560000D01*
G75*
G02*
X114630000Y-94700000I0J-140000D01*
G01*
X114630000Y-95040000D01*
G75*
G02*
X114490000Y-95180000I-140000J0D01*
G01*
X114210000Y-95180000D01*
G75*
G02*
X114070000Y-95040000I0J140000D01*
G01*
G37*
G04 #@! TD.AperFunction*
G04 #@! TA.AperFunction,SMDPad,CuDef*
G36*
G01*
X120390000Y-94700000D02*
X120390000Y-95040000D01*
G75*
G02*
X120250000Y-95180000I-140000J0D01*
G01*
X119970000Y-95180000D01*
G75*
G02*
X119830000Y-95040000I0J140000D01*
G01*
X119830000Y-94700000D01*
G75*
G02*
X119970000Y-94560000I140000J0D01*
G01*
X120250000Y-94560000D01*
G75*
G02*
X120390000Y-94700000I0J-140000D01*
G01*
G37*
G04 #@! TD.AperFunction*
G04 #@! TA.AperFunction,SMDPad,CuDef*
G36*
G01*
X119430000Y-94700000D02*
X119430000Y-95040000D01*
G75*
G02*
X119290000Y-95180000I-140000J0D01*
G01*
X119010000Y-95180000D01*
G75*
G02*
X118870000Y-95040000I0J140000D01*
G01*
X118870000Y-94700000D01*
G75*
G02*
X119010000Y-94560000I140000J0D01*
G01*
X119290000Y-94560000D01*
G75*
G02*
X119430000Y-94700000I0J-140000D01*
G01*
G37*
G04 #@! TD.AperFunction*
G04 #@! TA.AperFunction,SMDPad,CuDef*
G36*
G01*
X140190000Y-96720000D02*
X140190000Y-96380000D01*
G75*
G02*
X140330000Y-96240000I140000J0D01*
G01*
X140610000Y-96240000D01*
G75*
G02*
X140750000Y-96380000I0J-140000D01*
G01*
X140750000Y-96720000D01*
G75*
G02*
X140610000Y-96860000I-140000J0D01*
G01*
X140330000Y-96860000D01*
G75*
G02*
X140190000Y-96720000I0J140000D01*
G01*
G37*
G04 #@! TD.AperFunction*
G04 #@! TA.AperFunction,SMDPad,CuDef*
G36*
G01*
X141150000Y-96720000D02*
X141150000Y-96380000D01*
G75*
G02*
X141290000Y-96240000I140000J0D01*
G01*
X141570000Y-96240000D01*
G75*
G02*
X141710000Y-96380000I0J-140000D01*
G01*
X141710000Y-96720000D01*
G75*
G02*
X141570000Y-96860000I-140000J0D01*
G01*
X141290000Y-96860000D01*
G75*
G02*
X141150000Y-96720000I0J140000D01*
G01*
G37*
G04 #@! TD.AperFunction*
G04 #@! TA.AperFunction,SMDPad,CuDef*
G36*
G01*
X133450000Y-99130000D02*
X133450000Y-98790000D01*
G75*
G02*
X133590000Y-98650000I140000J0D01*
G01*
X133870000Y-98650000D01*
G75*
G02*
X134010000Y-98790000I0J-140000D01*
G01*
X134010000Y-99130000D01*
G75*
G02*
X133870000Y-99270000I-140000J0D01*
G01*
X133590000Y-99270000D01*
G75*
G02*
X133450000Y-99130000I0J140000D01*
G01*
G37*
G04 #@! TD.AperFunction*
G04 #@! TA.AperFunction,SMDPad,CuDef*
G36*
G01*
X132490000Y-99130000D02*
X132490000Y-98790000D01*
G75*
G02*
X132630000Y-98650000I140000J0D01*
G01*
X132910000Y-98650000D01*
G75*
G02*
X133050000Y-98790000I0J-140000D01*
G01*
X133050000Y-99130000D01*
G75*
G02*
X132910000Y-99270000I-140000J0D01*
G01*
X132630000Y-99270000D01*
G75*
G02*
X132490000Y-99130000I0J140000D01*
G01*
G37*
G04 #@! TD.AperFunction*
G04 #@! TA.AperFunction,SMDPad,CuDef*
G36*
G01*
X136270000Y-93650000D02*
X136270000Y-93310000D01*
G75*
G02*
X136410000Y-93170000I140000J0D01*
G01*
X136690000Y-93170000D01*
G75*
G02*
X136830000Y-93310000I0J-140000D01*
G01*
X136830000Y-93650000D01*
G75*
G02*
X136690000Y-93790000I-140000J0D01*
G01*
X136410000Y-93790000D01*
G75*
G02*
X136270000Y-93650000I0J140000D01*
G01*
G37*
G04 #@! TD.AperFunction*
G04 #@! TA.AperFunction,SMDPad,CuDef*
G36*
G01*
X137230000Y-93650000D02*
X137230000Y-93310000D01*
G75*
G02*
X137370000Y-93170000I140000J0D01*
G01*
X137650000Y-93170000D01*
G75*
G02*
X137790000Y-93310000I0J-140000D01*
G01*
X137790000Y-93650000D01*
G75*
G02*
X137650000Y-93790000I-140000J0D01*
G01*
X137370000Y-93790000D01*
G75*
G02*
X137230000Y-93650000I0J140000D01*
G01*
G37*
G04 #@! TD.AperFunction*
G04 #@! TA.AperFunction,SMDPad,CuDef*
G36*
G01*
X105105000Y-74830000D02*
X105105000Y-75330000D01*
G75*
G02*
X104880000Y-75555000I-225000J0D01*
G01*
X104430000Y-75555000D01*
G75*
G02*
X104205000Y-75330000I0J225000D01*
G01*
X104205000Y-74830000D01*
G75*
G02*
X104430000Y-74605000I225000J0D01*
G01*
X104880000Y-74605000D01*
G75*
G02*
X105105000Y-74830000I0J-225000D01*
G01*
G37*
G04 #@! TD.AperFunction*
G04 #@! TA.AperFunction,SMDPad,CuDef*
G36*
G01*
X106655000Y-74830000D02*
X106655000Y-75330000D01*
G75*
G02*
X106430000Y-75555000I-225000J0D01*
G01*
X105980000Y-75555000D01*
G75*
G02*
X105755000Y-75330000I0J225000D01*
G01*
X105755000Y-74830000D01*
G75*
G02*
X105980000Y-74605000I225000J0D01*
G01*
X106430000Y-74605000D01*
G75*
G02*
X106655000Y-74830000I0J-225000D01*
G01*
G37*
G04 #@! TD.AperFunction*
G04 #@! TA.AperFunction,SMDPad,CuDef*
G36*
G01*
X144200000Y-94720000D02*
X144200000Y-94380000D01*
G75*
G02*
X144340000Y-94240000I140000J0D01*
G01*
X144620000Y-94240000D01*
G75*
G02*
X144760000Y-94380000I0J-140000D01*
G01*
X144760000Y-94720000D01*
G75*
G02*
X144620000Y-94860000I-140000J0D01*
G01*
X144340000Y-94860000D01*
G75*
G02*
X144200000Y-94720000I0J140000D01*
G01*
G37*
G04 #@! TD.AperFunction*
G04 #@! TA.AperFunction,SMDPad,CuDef*
G36*
G01*
X143240000Y-94720000D02*
X143240000Y-94380000D01*
G75*
G02*
X143380000Y-94240000I140000J0D01*
G01*
X143660000Y-94240000D01*
G75*
G02*
X143800000Y-94380000I0J-140000D01*
G01*
X143800000Y-94720000D01*
G75*
G02*
X143660000Y-94860000I-140000J0D01*
G01*
X143380000Y-94860000D01*
G75*
G02*
X143240000Y-94720000I0J140000D01*
G01*
G37*
G04 #@! TD.AperFunction*
G04 #@! TA.AperFunction,SMDPad,CuDef*
G36*
G01*
X142260000Y-94710000D02*
X142260000Y-94370000D01*
G75*
G02*
X142400000Y-94230000I140000J0D01*
G01*
X142680000Y-94230000D01*
G75*
G02*
X142820000Y-94370000I0J-140000D01*
G01*
X142820000Y-94710000D01*
G75*
G02*
X142680000Y-94850000I-140000J0D01*
G01*
X142400000Y-94850000D01*
G75*
G02*
X142260000Y-94710000I0J140000D01*
G01*
G37*
G04 #@! TD.AperFunction*
G04 #@! TA.AperFunction,SMDPad,CuDef*
G36*
G01*
X141300000Y-94710000D02*
X141300000Y-94370000D01*
G75*
G02*
X141440000Y-94230000I140000J0D01*
G01*
X141720000Y-94230000D01*
G75*
G02*
X141860000Y-94370000I0J-140000D01*
G01*
X141860000Y-94710000D01*
G75*
G02*
X141720000Y-94850000I-140000J0D01*
G01*
X141440000Y-94850000D01*
G75*
G02*
X141300000Y-94710000I0J140000D01*
G01*
G37*
G04 #@! TD.AperFunction*
G04 #@! TA.AperFunction,SMDPad,CuDef*
G36*
G01*
X137850000Y-91420000D02*
X137850000Y-91080000D01*
G75*
G02*
X137990000Y-90940000I140000J0D01*
G01*
X138270000Y-90940000D01*
G75*
G02*
X138410000Y-91080000I0J-140000D01*
G01*
X138410000Y-91420000D01*
G75*
G02*
X138270000Y-91560000I-140000J0D01*
G01*
X137990000Y-91560000D01*
G75*
G02*
X137850000Y-91420000I0J140000D01*
G01*
G37*
G04 #@! TD.AperFunction*
G04 #@! TA.AperFunction,SMDPad,CuDef*
G36*
G01*
X138810000Y-91420000D02*
X138810000Y-91080000D01*
G75*
G02*
X138950000Y-90940000I140000J0D01*
G01*
X139230000Y-90940000D01*
G75*
G02*
X139370000Y-91080000I0J-140000D01*
G01*
X139370000Y-91420000D01*
G75*
G02*
X139230000Y-91560000I-140000J0D01*
G01*
X138950000Y-91560000D01*
G75*
G02*
X138810000Y-91420000I0J140000D01*
G01*
G37*
G04 #@! TD.AperFunction*
G04 #@! TA.AperFunction,SMDPad,CuDef*
G36*
G01*
X97811802Y-103152218D02*
X98052218Y-102911802D01*
G75*
G02*
X98250208Y-102911802I98995J-98995D01*
G01*
X98448198Y-103109792D01*
G75*
G02*
X98448198Y-103307782I-98995J-98995D01*
G01*
X98207782Y-103548198D01*
G75*
G02*
X98009792Y-103548198I-98995J98995D01*
G01*
X97811802Y-103350208D01*
G75*
G02*
X97811802Y-103152218I98995J98995D01*
G01*
G37*
G04 #@! TD.AperFunction*
G04 #@! TA.AperFunction,SMDPad,CuDef*
G36*
G01*
X97132980Y-102473396D02*
X97373396Y-102232980D01*
G75*
G02*
X97571386Y-102232980I98995J-98995D01*
G01*
X97769376Y-102430970D01*
G75*
G02*
X97769376Y-102628960I-98995J-98995D01*
G01*
X97528960Y-102869376D01*
G75*
G02*
X97330970Y-102869376I-98995J98995D01*
G01*
X97132980Y-102671386D01*
G75*
G02*
X97132980Y-102473396I98995J98995D01*
G01*
G37*
G04 #@! TD.AperFunction*
G04 #@! TA.AperFunction,SMDPad,CuDef*
G36*
G01*
X136880000Y-106484999D02*
X136880000Y-106144999D01*
G75*
G02*
X137020000Y-106004999I140000J0D01*
G01*
X137300000Y-106004999D01*
G75*
G02*
X137440000Y-106144999I0J-140000D01*
G01*
X137440000Y-106484999D01*
G75*
G02*
X137300000Y-106624999I-140000J0D01*
G01*
X137020000Y-106624999D01*
G75*
G02*
X136880000Y-106484999I0J140000D01*
G01*
G37*
G04 #@! TD.AperFunction*
G04 #@! TA.AperFunction,SMDPad,CuDef*
G36*
G01*
X137840000Y-106484999D02*
X137840000Y-106144999D01*
G75*
G02*
X137980000Y-106004999I140000J0D01*
G01*
X138260000Y-106004999D01*
G75*
G02*
X138400000Y-106144999I0J-140000D01*
G01*
X138400000Y-106484999D01*
G75*
G02*
X138260000Y-106624999I-140000J0D01*
G01*
X137980000Y-106624999D01*
G75*
G02*
X137840000Y-106484999I0J140000D01*
G01*
G37*
G04 #@! TD.AperFunction*
G04 #@! TA.AperFunction,SMDPad,CuDef*
G36*
G01*
X101950000Y-80130000D02*
X101950000Y-80470000D01*
G75*
G02*
X101810000Y-80610000I-140000J0D01*
G01*
X101530000Y-80610000D01*
G75*
G02*
X101390000Y-80470000I0J140000D01*
G01*
X101390000Y-80130000D01*
G75*
G02*
X101530000Y-79990000I140000J0D01*
G01*
X101810000Y-79990000D01*
G75*
G02*
X101950000Y-80130000I0J-140000D01*
G01*
G37*
G04 #@! TD.AperFunction*
G04 #@! TA.AperFunction,SMDPad,CuDef*
G36*
G01*
X102910000Y-80130000D02*
X102910000Y-80470000D01*
G75*
G02*
X102770000Y-80610000I-140000J0D01*
G01*
X102490000Y-80610000D01*
G75*
G02*
X102350000Y-80470000I0J140000D01*
G01*
X102350000Y-80130000D01*
G75*
G02*
X102490000Y-79990000I140000J0D01*
G01*
X102770000Y-79990000D01*
G75*
G02*
X102910000Y-80130000I0J-140000D01*
G01*
G37*
G04 #@! TD.AperFunction*
G04 #@! TA.AperFunction,SMDPad,CuDef*
G36*
G01*
X140735000Y-87145001D02*
X140735000Y-86805001D01*
G75*
G02*
X140875000Y-86665001I140000J0D01*
G01*
X141155000Y-86665001D01*
G75*
G02*
X141295000Y-86805001I0J-140000D01*
G01*
X141295000Y-87145001D01*
G75*
G02*
X141155000Y-87285001I-140000J0D01*
G01*
X140875000Y-87285001D01*
G75*
G02*
X140735000Y-87145001I0J140000D01*
G01*
G37*
G04 #@! TD.AperFunction*
G04 #@! TA.AperFunction,SMDPad,CuDef*
G36*
G01*
X139775000Y-87145001D02*
X139775000Y-86805001D01*
G75*
G02*
X139915000Y-86665001I140000J0D01*
G01*
X140195000Y-86665001D01*
G75*
G02*
X140335000Y-86805001I0J-140000D01*
G01*
X140335000Y-87145001D01*
G75*
G02*
X140195000Y-87285001I-140000J0D01*
G01*
X139915000Y-87285001D01*
G75*
G02*
X139775000Y-87145001I0J140000D01*
G01*
G37*
G04 #@! TD.AperFunction*
G04 #@! TA.AperFunction,SMDPad,CuDef*
G36*
G01*
X139370001Y-106565000D02*
X139030001Y-106565000D01*
G75*
G02*
X138890001Y-106425000I0J140000D01*
G01*
X138890001Y-106145000D01*
G75*
G02*
X139030001Y-106005000I140000J0D01*
G01*
X139370001Y-106005000D01*
G75*
G02*
X139510001Y-106145000I0J-140000D01*
G01*
X139510001Y-106425000D01*
G75*
G02*
X139370001Y-106565000I-140000J0D01*
G01*
G37*
G04 #@! TD.AperFunction*
G04 #@! TA.AperFunction,SMDPad,CuDef*
G36*
G01*
X139370001Y-107525000D02*
X139030001Y-107525000D01*
G75*
G02*
X138890001Y-107385000I0J140000D01*
G01*
X138890001Y-107105000D01*
G75*
G02*
X139030001Y-106965000I140000J0D01*
G01*
X139370001Y-106965000D01*
G75*
G02*
X139510001Y-107105000I0J-140000D01*
G01*
X139510001Y-107385000D01*
G75*
G02*
X139370001Y-107525000I-140000J0D01*
G01*
G37*
G04 #@! TD.AperFunction*
G04 #@! TA.AperFunction,SMDPad,CuDef*
G36*
G01*
X100420000Y-79090000D02*
X100760000Y-79090000D01*
G75*
G02*
X100900000Y-79230000I0J-140000D01*
G01*
X100900000Y-79510000D01*
G75*
G02*
X100760000Y-79650000I-140000J0D01*
G01*
X100420000Y-79650000D01*
G75*
G02*
X100280000Y-79510000I0J140000D01*
G01*
X100280000Y-79230000D01*
G75*
G02*
X100420000Y-79090000I140000J0D01*
G01*
G37*
G04 #@! TD.AperFunction*
G04 #@! TA.AperFunction,SMDPad,CuDef*
G36*
G01*
X100420000Y-80050000D02*
X100760000Y-80050000D01*
G75*
G02*
X100900000Y-80190000I0J-140000D01*
G01*
X100900000Y-80470000D01*
G75*
G02*
X100760000Y-80610000I-140000J0D01*
G01*
X100420000Y-80610000D01*
G75*
G02*
X100280000Y-80470000I0J140000D01*
G01*
X100280000Y-80190000D01*
G75*
G02*
X100420000Y-80050000I140000J0D01*
G01*
G37*
G04 #@! TD.AperFunction*
G04 #@! TA.AperFunction,SMDPad,CuDef*
G36*
G01*
X142265001Y-88185001D02*
X141925001Y-88185001D01*
G75*
G02*
X141785001Y-88045001I0J140000D01*
G01*
X141785001Y-87765001D01*
G75*
G02*
X141925001Y-87625001I140000J0D01*
G01*
X142265001Y-87625001D01*
G75*
G02*
X142405001Y-87765001I0J-140000D01*
G01*
X142405001Y-88045001D01*
G75*
G02*
X142265001Y-88185001I-140000J0D01*
G01*
G37*
G04 #@! TD.AperFunction*
G04 #@! TA.AperFunction,SMDPad,CuDef*
G36*
G01*
X142265001Y-87225001D02*
X141925001Y-87225001D01*
G75*
G02*
X141785001Y-87085001I0J140000D01*
G01*
X141785001Y-86805001D01*
G75*
G02*
X141925001Y-86665001I140000J0D01*
G01*
X142265001Y-86665001D01*
G75*
G02*
X142405001Y-86805001I0J-140000D01*
G01*
X142405001Y-87085001D01*
G75*
G02*
X142265001Y-87225001I-140000J0D01*
G01*
G37*
G04 #@! TD.AperFunction*
D11*
X114358000Y-76500000D03*
X114358000Y-73790000D03*
X114758000Y-76500000D03*
X114758000Y-73790000D03*
X115158000Y-76500000D03*
X115158000Y-73790000D03*
X115558000Y-76500000D03*
X115558000Y-73790000D03*
X115958000Y-76500000D03*
X115958000Y-73790000D03*
X116358000Y-76500000D03*
X116358000Y-73790000D03*
X116758000Y-76500000D03*
X116758000Y-73790000D03*
X117158000Y-76500000D03*
X117158000Y-73790000D03*
X117558000Y-76500000D03*
X117558000Y-73790000D03*
X117958000Y-76500000D03*
X117958000Y-73790000D03*
D12*
X113883000Y-73790000D03*
X113883000Y-76500000D03*
X134433000Y-73790000D03*
X134433000Y-76500000D03*
D11*
X118358000Y-76500000D03*
X118358000Y-73790000D03*
X118758000Y-76500000D03*
X118758000Y-73790000D03*
X119158000Y-76500000D03*
X119158000Y-73790000D03*
X119558000Y-76500000D03*
X119558000Y-73790000D03*
X119958000Y-76500000D03*
X119958000Y-73790000D03*
X120358000Y-76500000D03*
X120358000Y-73790000D03*
X120758000Y-76500000D03*
X120758000Y-73790000D03*
X121158000Y-76500000D03*
X121158000Y-73790000D03*
X121558000Y-76500000D03*
X121558000Y-73790000D03*
X121958000Y-76500000D03*
X121958000Y-73790000D03*
X122358000Y-76500000D03*
X122358000Y-73790000D03*
X122758000Y-76500000D03*
X122758000Y-73790000D03*
X123158000Y-76500000D03*
X123158000Y-73790000D03*
X123558000Y-76500000D03*
X123558000Y-73790000D03*
X123958000Y-76500000D03*
X123958000Y-73790000D03*
X124358000Y-76500000D03*
X124358000Y-73790000D03*
X124758000Y-76500000D03*
X124758000Y-73790000D03*
X125158000Y-76500000D03*
X125158000Y-73790000D03*
X125558000Y-76500000D03*
X125558000Y-73790000D03*
X125958000Y-76500000D03*
X125958000Y-73790000D03*
X126358000Y-76500000D03*
X126358000Y-73790000D03*
X126758000Y-76500000D03*
X126758000Y-73790000D03*
X127158000Y-76500000D03*
X127158000Y-73790000D03*
X127558000Y-76500000D03*
X127558000Y-73790000D03*
X127958000Y-76500000D03*
X127958000Y-73790000D03*
X128358000Y-76500000D03*
X128358000Y-73790000D03*
X128758000Y-76500000D03*
X128758000Y-73790000D03*
X129158000Y-76500000D03*
X129158000Y-73790000D03*
X129558000Y-76500000D03*
X129558000Y-73790000D03*
X129958000Y-76500000D03*
X129958000Y-73790000D03*
X130358000Y-76500000D03*
X130358000Y-73790000D03*
X130758000Y-76500000D03*
X130758000Y-73790000D03*
X131158000Y-76500000D03*
X131158000Y-73790000D03*
X131558000Y-76500000D03*
X131558000Y-73790000D03*
X131958000Y-76500000D03*
X131958000Y-73790000D03*
X132358000Y-76500000D03*
X132358000Y-73790000D03*
X132758000Y-76500000D03*
X132758000Y-73790000D03*
X133158000Y-76500000D03*
X133158000Y-73790000D03*
X133558000Y-76500000D03*
X133558000Y-73790000D03*
X133958000Y-76500000D03*
X133958000Y-73790000D03*
D16*
X107540000Y-76030001D03*
X109640000Y-76030001D03*
X107540002Y-78000000D03*
X109640002Y-78000000D03*
D17*
X110230000Y-81660000D03*
X110230000Y-79560000D03*
X108250000Y-81640000D03*
X108250000Y-79540000D03*
X142020000Y-93430000D03*
X142020000Y-91330000D03*
X144010000Y-93450000D03*
X144010000Y-91350000D03*
X145980000Y-91340000D03*
X145980000Y-93440000D03*
G04 #@! TA.AperFunction,SMDPad,CuDef*
G36*
G01*
X112030000Y-76225000D02*
X112030000Y-76595000D01*
G75*
G02*
X111895000Y-76730000I-135000J0D01*
G01*
X111625000Y-76730000D01*
G75*
G02*
X111490000Y-76595000I0J135000D01*
G01*
X111490000Y-76225000D01*
G75*
G02*
X111625000Y-76090000I135000J0D01*
G01*
X111895000Y-76090000D01*
G75*
G02*
X112030000Y-76225000I0J-135000D01*
G01*
G37*
G04 #@! TD.AperFunction*
G04 #@! TA.AperFunction,SMDPad,CuDef*
G36*
G01*
X111010000Y-76225000D02*
X111010000Y-76595000D01*
G75*
G02*
X110875000Y-76730000I-135000J0D01*
G01*
X110605000Y-76730000D01*
G75*
G02*
X110470000Y-76595000I0J135000D01*
G01*
X110470000Y-76225000D01*
G75*
G02*
X110605000Y-76090000I135000J0D01*
G01*
X110875000Y-76090000D01*
G75*
G02*
X111010000Y-76225000I0J-135000D01*
G01*
G37*
G04 #@! TD.AperFunction*
G04 #@! TA.AperFunction,SMDPad,CuDef*
G36*
G01*
X111000000Y-75215000D02*
X111000000Y-75585000D01*
G75*
G02*
X110865000Y-75720000I-135000J0D01*
G01*
X110595000Y-75720000D01*
G75*
G02*
X110460000Y-75585000I0J135000D01*
G01*
X110460000Y-75215000D01*
G75*
G02*
X110595000Y-75080000I135000J0D01*
G01*
X110865000Y-75080000D01*
G75*
G02*
X111000000Y-75215000I0J-135000D01*
G01*
G37*
G04 #@! TD.AperFunction*
G04 #@! TA.AperFunction,SMDPad,CuDef*
G36*
G01*
X112020000Y-75215000D02*
X112020000Y-75585000D01*
G75*
G02*
X111885000Y-75720000I-135000J0D01*
G01*
X111615000Y-75720000D01*
G75*
G02*
X111480000Y-75585000I0J135000D01*
G01*
X111480000Y-75215000D01*
G75*
G02*
X111615000Y-75080000I135000J0D01*
G01*
X111885000Y-75080000D01*
G75*
G02*
X112020000Y-75215000I0J-135000D01*
G01*
G37*
G04 #@! TD.AperFunction*
G04 #@! TA.AperFunction,SMDPad,CuDef*
G36*
G01*
X110020000Y-74324999D02*
X110020000Y-74694999D01*
G75*
G02*
X109885000Y-74829999I-135000J0D01*
G01*
X109615000Y-74829999D01*
G75*
G02*
X109480000Y-74694999I0J135000D01*
G01*
X109480000Y-74324999D01*
G75*
G02*
X109615000Y-74189999I135000J0D01*
G01*
X109885000Y-74189999D01*
G75*
G02*
X110020000Y-74324999I0J-135000D01*
G01*
G37*
G04 #@! TD.AperFunction*
G04 #@! TA.AperFunction,SMDPad,CuDef*
G36*
G01*
X109000000Y-74324999D02*
X109000000Y-74694999D01*
G75*
G02*
X108865000Y-74829999I-135000J0D01*
G01*
X108595000Y-74829999D01*
G75*
G02*
X108460000Y-74694999I0J135000D01*
G01*
X108460000Y-74324999D01*
G75*
G02*
X108595000Y-74189999I135000J0D01*
G01*
X108865000Y-74189999D01*
G75*
G02*
X109000000Y-74324999I0J-135000D01*
G01*
G37*
G04 #@! TD.AperFunction*
G04 #@! TA.AperFunction,SMDPad,CuDef*
G36*
G01*
X111500000Y-77635000D02*
X111500000Y-77265000D01*
G75*
G02*
X111635000Y-77130000I135000J0D01*
G01*
X111905000Y-77130000D01*
G75*
G02*
X112040000Y-77265000I0J-135000D01*
G01*
X112040000Y-77635000D01*
G75*
G02*
X111905000Y-77770000I-135000J0D01*
G01*
X111635000Y-77770000D01*
G75*
G02*
X111500000Y-77635000I0J135000D01*
G01*
G37*
G04 #@! TD.AperFunction*
G04 #@! TA.AperFunction,SMDPad,CuDef*
G36*
G01*
X110480000Y-77635000D02*
X110480000Y-77265000D01*
G75*
G02*
X110615000Y-77130000I135000J0D01*
G01*
X110885000Y-77130000D01*
G75*
G02*
X111020000Y-77265000I0J-135000D01*
G01*
X111020000Y-77635000D01*
G75*
G02*
X110885000Y-77770000I-135000J0D01*
G01*
X110615000Y-77770000D01*
G75*
G02*
X110480000Y-77635000I0J135000D01*
G01*
G37*
G04 #@! TD.AperFunction*
G04 #@! TA.AperFunction,SMDPad,CuDef*
G36*
G01*
X111935000Y-79720001D02*
X111565000Y-79720001D01*
G75*
G02*
X111430000Y-79585001I0J135000D01*
G01*
X111430000Y-79315001D01*
G75*
G02*
X111565000Y-79180001I135000J0D01*
G01*
X111935000Y-79180001D01*
G75*
G02*
X112070000Y-79315001I0J-135000D01*
G01*
X112070000Y-79585001D01*
G75*
G02*
X111935000Y-79720001I-135000J0D01*
G01*
G37*
G04 #@! TD.AperFunction*
G04 #@! TA.AperFunction,SMDPad,CuDef*
G36*
G01*
X111935000Y-80740001D02*
X111565000Y-80740001D01*
G75*
G02*
X111430000Y-80605001I0J135000D01*
G01*
X111430000Y-80335001D01*
G75*
G02*
X111565000Y-80200001I135000J0D01*
G01*
X111935000Y-80200001D01*
G75*
G02*
X112070000Y-80335001I0J-135000D01*
G01*
X112070000Y-80605001D01*
G75*
G02*
X111935000Y-80740001I-135000J0D01*
G01*
G37*
G04 #@! TD.AperFunction*
G04 #@! TA.AperFunction,SMDPad,CuDef*
G36*
G01*
X110475001Y-78649999D02*
X110475001Y-78279999D01*
G75*
G02*
X110610001Y-78144999I135000J0D01*
G01*
X110880001Y-78144999D01*
G75*
G02*
X111015001Y-78279999I0J-135000D01*
G01*
X111015001Y-78649999D01*
G75*
G02*
X110880001Y-78784999I-135000J0D01*
G01*
X110610001Y-78784999D01*
G75*
G02*
X110475001Y-78649999I0J135000D01*
G01*
G37*
G04 #@! TD.AperFunction*
G04 #@! TA.AperFunction,SMDPad,CuDef*
G36*
G01*
X111495001Y-78649999D02*
X111495001Y-78279999D01*
G75*
G02*
X111630001Y-78144999I135000J0D01*
G01*
X111900001Y-78144999D01*
G75*
G02*
X112035001Y-78279999I0J-135000D01*
G01*
X112035001Y-78649999D01*
G75*
G02*
X111900001Y-78784999I-135000J0D01*
G01*
X111630001Y-78784999D01*
G75*
G02*
X111495001Y-78649999I0J135000D01*
G01*
G37*
G04 #@! TD.AperFunction*
G04 #@! TA.AperFunction,SMDPad,CuDef*
G36*
G01*
X125155000Y-80140000D02*
X124785000Y-80140000D01*
G75*
G02*
X124650000Y-80005000I0J135000D01*
G01*
X124650000Y-79735000D01*
G75*
G02*
X124785000Y-79600000I135000J0D01*
G01*
X125155000Y-79600000D01*
G75*
G02*
X125290000Y-79735000I0J-135000D01*
G01*
X125290000Y-80005000D01*
G75*
G02*
X125155000Y-80140000I-135000J0D01*
G01*
G37*
G04 #@! TD.AperFunction*
G04 #@! TA.AperFunction,SMDPad,CuDef*
G36*
G01*
X125155000Y-79120000D02*
X124785000Y-79120000D01*
G75*
G02*
X124650000Y-78985000I0J135000D01*
G01*
X124650000Y-78715000D01*
G75*
G02*
X124785000Y-78580000I135000J0D01*
G01*
X125155000Y-78580000D01*
G75*
G02*
X125290000Y-78715000I0J-135000D01*
G01*
X125290000Y-78985000D01*
G75*
G02*
X125155000Y-79120000I-135000J0D01*
G01*
G37*
G04 #@! TD.AperFunction*
G04 #@! TA.AperFunction,SMDPad,CuDef*
G36*
G01*
X126155000Y-80140000D02*
X125785000Y-80140000D01*
G75*
G02*
X125650000Y-80005000I0J135000D01*
G01*
X125650000Y-79735000D01*
G75*
G02*
X125785000Y-79600000I135000J0D01*
G01*
X126155000Y-79600000D01*
G75*
G02*
X126290000Y-79735000I0J-135000D01*
G01*
X126290000Y-80005000D01*
G75*
G02*
X126155000Y-80140000I-135000J0D01*
G01*
G37*
G04 #@! TD.AperFunction*
G04 #@! TA.AperFunction,SMDPad,CuDef*
G36*
G01*
X126155000Y-79120000D02*
X125785000Y-79120000D01*
G75*
G02*
X125650000Y-78985000I0J135000D01*
G01*
X125650000Y-78715000D01*
G75*
G02*
X125785000Y-78580000I135000J0D01*
G01*
X126155000Y-78580000D01*
G75*
G02*
X126290000Y-78715000I0J-135000D01*
G01*
X126290000Y-78985000D01*
G75*
G02*
X126155000Y-79120000I-135000J0D01*
G01*
G37*
G04 #@! TD.AperFunction*
G04 #@! TA.AperFunction,SMDPad,CuDef*
G36*
G01*
X123155000Y-80150000D02*
X122785000Y-80150000D01*
G75*
G02*
X122650000Y-80015000I0J135000D01*
G01*
X122650000Y-79745000D01*
G75*
G02*
X122785000Y-79610000I135000J0D01*
G01*
X123155000Y-79610000D01*
G75*
G02*
X123290000Y-79745000I0J-135000D01*
G01*
X123290000Y-80015000D01*
G75*
G02*
X123155000Y-80150000I-135000J0D01*
G01*
G37*
G04 #@! TD.AperFunction*
G04 #@! TA.AperFunction,SMDPad,CuDef*
G36*
G01*
X123155000Y-79130000D02*
X122785000Y-79130000D01*
G75*
G02*
X122650000Y-78995000I0J135000D01*
G01*
X122650000Y-78725000D01*
G75*
G02*
X122785000Y-78590000I135000J0D01*
G01*
X123155000Y-78590000D01*
G75*
G02*
X123290000Y-78725000I0J-135000D01*
G01*
X123290000Y-78995000D01*
G75*
G02*
X123155000Y-79130000I-135000J0D01*
G01*
G37*
G04 #@! TD.AperFunction*
G04 #@! TA.AperFunction,SMDPad,CuDef*
G36*
G01*
X122155000Y-79131370D02*
X121785000Y-79131370D01*
G75*
G02*
X121650000Y-78996370I0J135000D01*
G01*
X121650000Y-78726370D01*
G75*
G02*
X121785000Y-78591370I135000J0D01*
G01*
X122155000Y-78591370D01*
G75*
G02*
X122290000Y-78726370I0J-135000D01*
G01*
X122290000Y-78996370D01*
G75*
G02*
X122155000Y-79131370I-135000J0D01*
G01*
G37*
G04 #@! TD.AperFunction*
G04 #@! TA.AperFunction,SMDPad,CuDef*
G36*
G01*
X122155000Y-80151370D02*
X121785000Y-80151370D01*
G75*
G02*
X121650000Y-80016370I0J135000D01*
G01*
X121650000Y-79746370D01*
G75*
G02*
X121785000Y-79611370I135000J0D01*
G01*
X122155000Y-79611370D01*
G75*
G02*
X122290000Y-79746370I0J-135000D01*
G01*
X122290000Y-80016370D01*
G75*
G02*
X122155000Y-80151370I-135000J0D01*
G01*
G37*
G04 #@! TD.AperFunction*
G04 #@! TA.AperFunction,SMDPad,CuDef*
G36*
G01*
X124155000Y-80150000D02*
X123785000Y-80150000D01*
G75*
G02*
X123650000Y-80015000I0J135000D01*
G01*
X123650000Y-79745000D01*
G75*
G02*
X123785000Y-79610000I135000J0D01*
G01*
X124155000Y-79610000D01*
G75*
G02*
X124290000Y-79745000I0J-135000D01*
G01*
X124290000Y-80015000D01*
G75*
G02*
X124155000Y-80150000I-135000J0D01*
G01*
G37*
G04 #@! TD.AperFunction*
G04 #@! TA.AperFunction,SMDPad,CuDef*
G36*
G01*
X124155000Y-79130000D02*
X123785000Y-79130000D01*
G75*
G02*
X123650000Y-78995000I0J135000D01*
G01*
X123650000Y-78725000D01*
G75*
G02*
X123785000Y-78590000I135000J0D01*
G01*
X124155000Y-78590000D01*
G75*
G02*
X124290000Y-78725000I0J-135000D01*
G01*
X124290000Y-78995000D01*
G75*
G02*
X124155000Y-79130000I-135000J0D01*
G01*
G37*
G04 #@! TD.AperFunction*
G04 #@! TA.AperFunction,SMDPad,CuDef*
G36*
G01*
X121155293Y-79131371D02*
X120785293Y-79131371D01*
G75*
G02*
X120650293Y-78996371I0J135000D01*
G01*
X120650293Y-78726371D01*
G75*
G02*
X120785293Y-78591371I135000J0D01*
G01*
X121155293Y-78591371D01*
G75*
G02*
X121290293Y-78726371I0J-135000D01*
G01*
X121290293Y-78996371D01*
G75*
G02*
X121155293Y-79131371I-135000J0D01*
G01*
G37*
G04 #@! TD.AperFunction*
G04 #@! TA.AperFunction,SMDPad,CuDef*
G36*
G01*
X121155293Y-80151371D02*
X120785293Y-80151371D01*
G75*
G02*
X120650293Y-80016371I0J135000D01*
G01*
X120650293Y-79746371D01*
G75*
G02*
X120785293Y-79611371I135000J0D01*
G01*
X121155293Y-79611371D01*
G75*
G02*
X121290293Y-79746371I0J-135000D01*
G01*
X121290293Y-80016371D01*
G75*
G02*
X121155293Y-80151371I-135000J0D01*
G01*
G37*
G04 #@! TD.AperFunction*
G04 #@! TA.AperFunction,ComponentPad*
D18*
G36*
X101610000Y-105222082D02*
G01*
X100407918Y-104020000D01*
X101610000Y-102817918D01*
X102812082Y-104020000D01*
X101610000Y-105222082D01*
G37*
G04 #@! TD.AperFunction*
G04 #@! TA.AperFunction,ComponentPad*
G36*
G01*
X99212908Y-106417092D02*
X99212908Y-106417092D01*
G75*
G02*
X99212908Y-105215010I601041J601041D01*
G01*
X99212908Y-105215010D01*
G75*
G02*
X100414990Y-105215010I601041J-601041D01*
G01*
X100414990Y-105215010D01*
G75*
G02*
X100414990Y-106417092I-601041J-601041D01*
G01*
X100414990Y-106417092D01*
G75*
G02*
X99212908Y-106417092I-601041J601041D01*
G01*
G37*
G04 #@! TD.AperFunction*
G04 #@! TA.AperFunction,ComponentPad*
G36*
G01*
X102805010Y-106417092D02*
X102805010Y-106417092D01*
G75*
G02*
X102805010Y-105215010I601041J601041D01*
G01*
X102805010Y-105215010D01*
G75*
G02*
X104007092Y-105215010I601041J-601041D01*
G01*
X104007092Y-105215010D01*
G75*
G02*
X104007092Y-106417092I-601041J-601041D01*
G01*
X104007092Y-106417092D01*
G75*
G02*
X102805010Y-106417092I-601041J601041D01*
G01*
G37*
G04 #@! TD.AperFunction*
G04 #@! TA.AperFunction,ComponentPad*
G36*
G01*
X101008959Y-108213143D02*
X101008959Y-108213143D01*
G75*
G02*
X101008959Y-107011061I601041J601041D01*
G01*
X101008959Y-107011061D01*
G75*
G02*
X102211041Y-107011061I601041J-601041D01*
G01*
X102211041Y-107011061D01*
G75*
G02*
X102211041Y-108213143I-601041J-601041D01*
G01*
X102211041Y-108213143D01*
G75*
G02*
X101008959Y-108213143I-601041J601041D01*
G01*
G37*
G04 #@! TD.AperFunction*
G04 #@! TA.AperFunction,ComponentPad*
G36*
G01*
X104601061Y-108213143D02*
X104601061Y-108213143D01*
G75*
G02*
X104601061Y-107011061I601041J601041D01*
G01*
X104601061Y-107011061D01*
G75*
G02*
X105803143Y-107011061I601041J-601041D01*
G01*
X105803143Y-107011061D01*
G75*
G02*
X105803143Y-108213143I-601041J-601041D01*
G01*
X105803143Y-108213143D01*
G75*
G02*
X104601061Y-108213143I-601041J601041D01*
G01*
G37*
G04 #@! TD.AperFunction*
G04 #@! TA.AperFunction,ComponentPad*
G36*
G01*
X102805010Y-110009195D02*
X102805010Y-110009195D01*
G75*
G02*
X102805010Y-108807113I601041J601041D01*
G01*
X102805010Y-108807113D01*
G75*
G02*
X104007092Y-108807113I601041J-601041D01*
G01*
X104007092Y-108807113D01*
G75*
G02*
X104007092Y-110009195I-601041J-601041D01*
G01*
X104007092Y-110009195D01*
G75*
G02*
X102805010Y-110009195I-601041J601041D01*
G01*
G37*
G04 #@! TD.AperFunction*
G04 #@! TA.AperFunction,SMDPad,CuDef*
G36*
G01*
X116340000Y-105990000D02*
X116000000Y-105990000D01*
G75*
G02*
X115860000Y-105850000I0J140000D01*
G01*
X115860000Y-105570000D01*
G75*
G02*
X116000000Y-105430000I140000J0D01*
G01*
X116340000Y-105430000D01*
G75*
G02*
X116480000Y-105570000I0J-140000D01*
G01*
X116480000Y-105850000D01*
G75*
G02*
X116340000Y-105990000I-140000J0D01*
G01*
G37*
G04 #@! TD.AperFunction*
G04 #@! TA.AperFunction,SMDPad,CuDef*
G36*
G01*
X116340000Y-105030000D02*
X116000000Y-105030000D01*
G75*
G02*
X115860000Y-104890000I0J140000D01*
G01*
X115860000Y-104610000D01*
G75*
G02*
X116000000Y-104470000I140000J0D01*
G01*
X116340000Y-104470000D01*
G75*
G02*
X116480000Y-104610000I0J-140000D01*
G01*
X116480000Y-104890000D01*
G75*
G02*
X116340000Y-105030000I-140000J0D01*
G01*
G37*
G04 #@! TD.AperFunction*
G04 #@! TA.AperFunction,SMDPad,CuDef*
G36*
G01*
X117360000Y-105030000D02*
X117020000Y-105030000D01*
G75*
G02*
X116880000Y-104890000I0J140000D01*
G01*
X116880000Y-104610000D01*
G75*
G02*
X117020000Y-104470000I140000J0D01*
G01*
X117360000Y-104470000D01*
G75*
G02*
X117500000Y-104610000I0J-140000D01*
G01*
X117500000Y-104890000D01*
G75*
G02*
X117360000Y-105030000I-140000J0D01*
G01*
G37*
G04 #@! TD.AperFunction*
G04 #@! TA.AperFunction,SMDPad,CuDef*
G36*
G01*
X117360000Y-105990000D02*
X117020000Y-105990000D01*
G75*
G02*
X116880000Y-105850000I0J140000D01*
G01*
X116880000Y-105570000D01*
G75*
G02*
X117020000Y-105430000I140000J0D01*
G01*
X117360000Y-105430000D01*
G75*
G02*
X117500000Y-105570000I0J-140000D01*
G01*
X117500000Y-105850000D01*
G75*
G02*
X117360000Y-105990000I-140000J0D01*
G01*
G37*
G04 #@! TD.AperFunction*
G04 #@! TA.AperFunction,SMDPad,CuDef*
G36*
G01*
X113340000Y-105990000D02*
X113000000Y-105990000D01*
G75*
G02*
X112860000Y-105850000I0J140000D01*
G01*
X112860000Y-105570000D01*
G75*
G02*
X113000000Y-105430000I140000J0D01*
G01*
X113340000Y-105430000D01*
G75*
G02*
X113480000Y-105570000I0J-140000D01*
G01*
X113480000Y-105850000D01*
G75*
G02*
X113340000Y-105990000I-140000J0D01*
G01*
G37*
G04 #@! TD.AperFunction*
G04 #@! TA.AperFunction,SMDPad,CuDef*
G36*
G01*
X113340000Y-105030000D02*
X113000000Y-105030000D01*
G75*
G02*
X112860000Y-104890000I0J140000D01*
G01*
X112860000Y-104610000D01*
G75*
G02*
X113000000Y-104470000I140000J0D01*
G01*
X113340000Y-104470000D01*
G75*
G02*
X113480000Y-104610000I0J-140000D01*
G01*
X113480000Y-104890000D01*
G75*
G02*
X113340000Y-105030000I-140000J0D01*
G01*
G37*
G04 #@! TD.AperFunction*
G04 #@! TA.AperFunction,SMDPad,CuDef*
G36*
G01*
X120360000Y-105990000D02*
X120020000Y-105990000D01*
G75*
G02*
X119880000Y-105850000I0J140000D01*
G01*
X119880000Y-105570000D01*
G75*
G02*
X120020000Y-105430000I140000J0D01*
G01*
X120360000Y-105430000D01*
G75*
G02*
X120500000Y-105570000I0J-140000D01*
G01*
X120500000Y-105850000D01*
G75*
G02*
X120360000Y-105990000I-140000J0D01*
G01*
G37*
G04 #@! TD.AperFunction*
G04 #@! TA.AperFunction,SMDPad,CuDef*
G36*
G01*
X120360000Y-105030000D02*
X120020000Y-105030000D01*
G75*
G02*
X119880000Y-104890000I0J140000D01*
G01*
X119880000Y-104610000D01*
G75*
G02*
X120020000Y-104470000I140000J0D01*
G01*
X120360000Y-104470000D01*
G75*
G02*
X120500000Y-104610000I0J-140000D01*
G01*
X120500000Y-104890000D01*
G75*
G02*
X120360000Y-105030000I-140000J0D01*
G01*
G37*
G04 #@! TD.AperFunction*
G04 #@! TA.AperFunction,SMDPad,CuDef*
G36*
G01*
X114000000Y-104470000D02*
X114340000Y-104470000D01*
G75*
G02*
X114480000Y-104610000I0J-140000D01*
G01*
X114480000Y-104890000D01*
G75*
G02*
X114340000Y-105030000I-140000J0D01*
G01*
X114000000Y-105030000D01*
G75*
G02*
X113860000Y-104890000I0J140000D01*
G01*
X113860000Y-104610000D01*
G75*
G02*
X114000000Y-104470000I140000J0D01*
G01*
G37*
G04 #@! TD.AperFunction*
G04 #@! TA.AperFunction,SMDPad,CuDef*
G36*
G01*
X114000000Y-105430000D02*
X114340000Y-105430000D01*
G75*
G02*
X114480000Y-105570000I0J-140000D01*
G01*
X114480000Y-105850000D01*
G75*
G02*
X114340000Y-105990000I-140000J0D01*
G01*
X114000000Y-105990000D01*
G75*
G02*
X113860000Y-105850000I0J140000D01*
G01*
X113860000Y-105570000D01*
G75*
G02*
X114000000Y-105430000I140000J0D01*
G01*
G37*
G04 #@! TD.AperFunction*
G04 #@! TA.AperFunction,SMDPad,CuDef*
G36*
G01*
X119020000Y-104470000D02*
X119360000Y-104470000D01*
G75*
G02*
X119500000Y-104610000I0J-140000D01*
G01*
X119500000Y-104890000D01*
G75*
G02*
X119360000Y-105030000I-140000J0D01*
G01*
X119020000Y-105030000D01*
G75*
G02*
X118880000Y-104890000I0J140000D01*
G01*
X118880000Y-104610000D01*
G75*
G02*
X119020000Y-104470000I140000J0D01*
G01*
G37*
G04 #@! TD.AperFunction*
G04 #@! TA.AperFunction,SMDPad,CuDef*
G36*
G01*
X119020000Y-105430000D02*
X119360000Y-105430000D01*
G75*
G02*
X119500000Y-105570000I0J-140000D01*
G01*
X119500000Y-105850000D01*
G75*
G02*
X119360000Y-105990000I-140000J0D01*
G01*
X119020000Y-105990000D01*
G75*
G02*
X118880000Y-105850000I0J140000D01*
G01*
X118880000Y-105570000D01*
G75*
G02*
X119020000Y-105430000I140000J0D01*
G01*
G37*
G04 #@! TD.AperFunction*
G04 #@! TA.AperFunction,SMDPad,CuDef*
G36*
G01*
X115000000Y-105430000D02*
X115340000Y-105430000D01*
G75*
G02*
X115480000Y-105570000I0J-140000D01*
G01*
X115480000Y-105850000D01*
G75*
G02*
X115340000Y-105990000I-140000J0D01*
G01*
X115000000Y-105990000D01*
G75*
G02*
X114860000Y-105850000I0J140000D01*
G01*
X114860000Y-105570000D01*
G75*
G02*
X115000000Y-105430000I140000J0D01*
G01*
G37*
G04 #@! TD.AperFunction*
G04 #@! TA.AperFunction,SMDPad,CuDef*
G36*
G01*
X115000000Y-104470000D02*
X115340000Y-104470000D01*
G75*
G02*
X115480000Y-104610000I0J-140000D01*
G01*
X115480000Y-104890000D01*
G75*
G02*
X115340000Y-105030000I-140000J0D01*
G01*
X115000000Y-105030000D01*
G75*
G02*
X114860000Y-104890000I0J140000D01*
G01*
X114860000Y-104610000D01*
G75*
G02*
X115000000Y-104470000I140000J0D01*
G01*
G37*
G04 #@! TD.AperFunction*
G04 #@! TA.AperFunction,SMDPad,CuDef*
G36*
G01*
X118020000Y-105430000D02*
X118360000Y-105430000D01*
G75*
G02*
X118500000Y-105570000I0J-140000D01*
G01*
X118500000Y-105850000D01*
G75*
G02*
X118360000Y-105990000I-140000J0D01*
G01*
X118020000Y-105990000D01*
G75*
G02*
X117880000Y-105850000I0J140000D01*
G01*
X117880000Y-105570000D01*
G75*
G02*
X118020000Y-105430000I140000J0D01*
G01*
G37*
G04 #@! TD.AperFunction*
G04 #@! TA.AperFunction,SMDPad,CuDef*
G36*
G01*
X118020000Y-104470000D02*
X118360000Y-104470000D01*
G75*
G02*
X118500000Y-104610000I0J-140000D01*
G01*
X118500000Y-104890000D01*
G75*
G02*
X118360000Y-105030000I-140000J0D01*
G01*
X118020000Y-105030000D01*
G75*
G02*
X117880000Y-104890000I0J140000D01*
G01*
X117880000Y-104610000D01*
G75*
G02*
X118020000Y-104470000I140000J0D01*
G01*
G37*
G04 #@! TD.AperFunction*
G04 #@! TA.AperFunction,SMDPad,CuDef*
G36*
G01*
X95360000Y-85150000D02*
X95700000Y-85150000D01*
G75*
G02*
X95840000Y-85290000I0J-140000D01*
G01*
X95840000Y-85570000D01*
G75*
G02*
X95700000Y-85710000I-140000J0D01*
G01*
X95360000Y-85710000D01*
G75*
G02*
X95220000Y-85570000I0J140000D01*
G01*
X95220000Y-85290000D01*
G75*
G02*
X95360000Y-85150000I140000J0D01*
G01*
G37*
G04 #@! TD.AperFunction*
G04 #@! TA.AperFunction,SMDPad,CuDef*
G36*
G01*
X95360000Y-86110000D02*
X95700000Y-86110000D01*
G75*
G02*
X95840000Y-86250000I0J-140000D01*
G01*
X95840000Y-86530000D01*
G75*
G02*
X95700000Y-86670000I-140000J0D01*
G01*
X95360000Y-86670000D01*
G75*
G02*
X95220000Y-86530000I0J140000D01*
G01*
X95220000Y-86250000D01*
G75*
G02*
X95360000Y-86110000I140000J0D01*
G01*
G37*
G04 #@! TD.AperFunction*
D19*
X114170000Y-80600000D03*
X114170000Y-83100000D03*
X112210000Y-84220000D03*
X112210000Y-81720000D03*
D20*
X147460000Y-104720000D03*
D21*
X147460000Y-102720000D03*
X147480000Y-97600000D03*
D20*
X147480000Y-99600000D03*
G04 #@! TA.AperFunction,SMDPad,CuDef*
G36*
G01*
X113730000Y-78485000D02*
X113730000Y-78115000D01*
G75*
G02*
X113865000Y-77980000I135000J0D01*
G01*
X114135000Y-77980000D01*
G75*
G02*
X114270000Y-78115000I0J-135000D01*
G01*
X114270000Y-78485000D01*
G75*
G02*
X114135000Y-78620000I-135000J0D01*
G01*
X113865000Y-78620000D01*
G75*
G02*
X113730000Y-78485000I0J135000D01*
G01*
G37*
G04 #@! TD.AperFunction*
G04 #@! TA.AperFunction,SMDPad,CuDef*
G36*
G01*
X114750000Y-78485000D02*
X114750000Y-78115000D01*
G75*
G02*
X114885000Y-77980000I135000J0D01*
G01*
X115155000Y-77980000D01*
G75*
G02*
X115290000Y-78115000I0J-135000D01*
G01*
X115290000Y-78485000D01*
G75*
G02*
X115155000Y-78620000I-135000J0D01*
G01*
X114885000Y-78620000D01*
G75*
G02*
X114750000Y-78485000I0J135000D01*
G01*
G37*
G04 #@! TD.AperFunction*
G04 #@! TA.AperFunction,SMDPad,CuDef*
G36*
G01*
X127860000Y-104805000D02*
X127860000Y-104435000D01*
G75*
G02*
X127995000Y-104300000I135000J0D01*
G01*
X128265000Y-104300000D01*
G75*
G02*
X128400000Y-104435000I0J-135000D01*
G01*
X128400000Y-104805000D01*
G75*
G02*
X128265000Y-104940000I-135000J0D01*
G01*
X127995000Y-104940000D01*
G75*
G02*
X127860000Y-104805000I0J135000D01*
G01*
G37*
G04 #@! TD.AperFunction*
G04 #@! TA.AperFunction,SMDPad,CuDef*
G36*
G01*
X126840000Y-104805000D02*
X126840000Y-104435000D01*
G75*
G02*
X126975000Y-104300000I135000J0D01*
G01*
X127245000Y-104300000D01*
G75*
G02*
X127380000Y-104435000I0J-135000D01*
G01*
X127380000Y-104805000D01*
G75*
G02*
X127245000Y-104940000I-135000J0D01*
G01*
X126975000Y-104940000D01*
G75*
G02*
X126840000Y-104805000I0J135000D01*
G01*
G37*
G04 #@! TD.AperFunction*
D22*
X116410000Y-95050000D03*
X118010000Y-99850000D03*
X115610000Y-99850000D03*
X114810000Y-99050000D03*
X111610000Y-98250000D03*
X111610000Y-99850000D03*
X114810000Y-91050000D03*
X118010000Y-95050000D03*
X111610000Y-88650000D03*
X111610000Y-91050000D03*
X114810001Y-99850000D03*
X124410001Y-91850000D03*
X124410001Y-87850000D03*
X122810000Y-91050000D03*
X114010001Y-91050000D03*
X115610000Y-91050001D03*
X118810000Y-91050000D03*
X120410000Y-95850001D03*
X118010000Y-101450000D03*
X116410000Y-95850001D03*
X118010000Y-95850000D03*
X110012850Y-95852850D03*
X114054015Y-95805985D03*
X115610001Y-99050000D03*
X118810000Y-99850000D03*
X117210000Y-101450000D03*
X113193569Y-101450000D03*
X114009986Y-100650000D03*
X113209975Y-100650000D03*
X114009994Y-101450000D03*
D23*
X98215000Y-82475000D03*
X98990000Y-78200000D03*
D24*
X100590000Y-78750000D03*
D23*
X98264999Y-88375000D03*
X97265000Y-82100000D03*
X98215000Y-81725000D03*
D24*
X142195000Y-85650000D03*
D23*
X144470000Y-84800000D03*
D24*
X142195003Y-84025000D03*
D23*
X144470000Y-85550000D03*
X143695000Y-89075000D03*
X143470006Y-85174999D03*
X145420000Y-85174999D03*
X143270000Y-77980000D03*
D24*
X142095001Y-88525000D03*
X139300000Y-104990000D03*
D23*
X141575000Y-104140000D03*
D24*
X139200001Y-107865000D03*
D23*
X141525001Y-98240001D03*
X141575000Y-104890000D03*
X140575006Y-104515000D03*
X142525000Y-104515000D03*
D22*
X128770000Y-108460000D03*
X133560000Y-108460000D03*
X127150000Y-108460000D03*
X128360000Y-109828835D03*
X116759934Y-109828835D03*
X116760000Y-108460000D03*
X114009989Y-87849999D03*
X123636332Y-98265009D03*
X133030000Y-89970000D03*
D24*
X139300003Y-103365000D03*
D22*
X119680000Y-97840000D03*
D24*
X101510000Y-76300000D03*
D22*
X118500000Y-79990000D03*
X120406564Y-87867601D03*
X121100000Y-80319596D03*
X119160000Y-73130000D03*
X117950000Y-73130000D03*
X130250000Y-81410000D03*
X125993833Y-80187554D03*
X123619509Y-100665043D03*
X115560000Y-108460000D03*
X115560706Y-109828835D03*
X115580022Y-77250000D03*
X137180000Y-90360000D03*
X115570000Y-73120000D03*
X113890000Y-74710000D03*
X112870000Y-73700000D03*
X107930000Y-73670000D03*
X107180000Y-73240000D03*
X101520000Y-74790000D03*
X103830000Y-76580000D03*
X103890000Y-75030000D03*
X105670000Y-78120000D03*
X109003486Y-78080000D03*
X99350000Y-73270000D03*
X95350000Y-76530000D03*
X100390000Y-77110000D03*
D24*
X104360000Y-92720000D03*
X117240000Y-85540000D03*
X144480000Y-95070002D03*
X132750000Y-106860000D03*
D22*
X116760000Y-73130000D03*
D24*
X124700000Y-73090000D03*
X126350000Y-73110000D03*
X127550000Y-73100000D03*
X128760000Y-73110000D03*
X116960000Y-75840000D03*
X119800000Y-77180000D03*
X121550000Y-75850000D03*
X126140053Y-75839736D03*
X127550000Y-75860000D03*
X125310000Y-73100000D03*
X129960000Y-73130000D03*
X131170000Y-73100000D03*
X132350000Y-73130000D03*
D22*
X120459408Y-91056129D03*
X119586402Y-91050000D03*
D24*
X112260000Y-108690000D03*
D23*
X98940000Y-82150000D03*
D24*
X100340002Y-83620000D03*
D22*
X137830000Y-94330081D03*
X140409990Y-89950000D03*
X139970010Y-91983917D03*
X138770000Y-95169990D03*
X118811002Y-99043254D03*
X122474020Y-108460000D03*
X117210000Y-95050010D03*
X117210000Y-95850021D03*
X114010947Y-93459734D03*
X124490000Y-108550000D03*
X120765445Y-109490011D03*
X120900000Y-108690000D03*
X137870000Y-93800000D03*
X141430000Y-95940000D03*
X133850000Y-99400000D03*
X120422606Y-93459990D03*
X124281126Y-101274534D03*
X124399990Y-100651772D03*
X125991746Y-108358933D03*
X119593256Y-99847159D03*
X119610000Y-99047148D03*
X122010010Y-101450000D03*
X122010010Y-100662143D03*
X121179990Y-101421213D03*
X121189990Y-100654263D03*
D23*
X140268781Y-107883781D03*
D24*
X128876392Y-75733194D03*
D22*
X131110000Y-77130000D03*
X130033977Y-75860515D03*
D24*
X135050000Y-74050000D03*
D22*
X122749076Y-109912729D03*
X124722833Y-109773080D03*
X138317195Y-92035590D03*
X136717172Y-91967571D03*
X112010000Y-85070000D03*
X113630000Y-84560000D03*
X125948153Y-109976288D03*
X127315891Y-109831510D03*
X110010000Y-92649990D03*
D24*
X133535352Y-77102710D03*
D22*
X132364911Y-77019490D03*
X114438221Y-109902969D03*
D24*
X109979505Y-109241601D03*
D23*
X145244999Y-89075000D03*
D22*
X130340000Y-109260000D03*
X131160000Y-109260000D03*
X142820000Y-84625000D03*
X139925000Y-103964999D03*
D24*
X123600000Y-80759475D03*
D22*
X129590010Y-109260000D03*
D23*
X96790000Y-79080000D03*
X101630000Y-110550000D03*
D22*
X99734950Y-83278628D03*
D23*
X141740000Y-106810000D03*
D24*
X137210000Y-79360000D03*
D22*
X113210000Y-90250000D03*
X116410000Y-99849999D03*
X121210000Y-90250000D03*
X105106511Y-82427487D03*
X120180000Y-97600000D03*
X122819498Y-100649767D03*
D23*
X105140000Y-84120000D03*
X105250000Y-86580000D03*
X105140000Y-73860000D03*
D24*
X117209999Y-87891711D03*
D23*
X104480000Y-84480000D03*
D22*
X112411355Y-96639990D03*
X127508455Y-94291148D03*
X139570000Y-90380000D03*
X122840011Y-94240000D03*
X138760000Y-90340000D03*
X127970000Y-93510000D03*
X122014461Y-93440022D03*
X126546861Y-95144116D03*
X123622850Y-95037150D03*
X123637850Y-90252150D03*
X126423866Y-89593858D03*
X123580000Y-91850000D03*
X138770000Y-89530000D03*
X122773359Y-92644721D03*
X126054072Y-92589979D03*
X122790000Y-91860000D03*
X127684154Y-94811221D03*
X138767120Y-95987180D03*
X127779500Y-101863918D03*
X123620010Y-92660000D03*
X127005978Y-91710010D03*
X123610000Y-94240000D03*
X128400000Y-94840000D03*
X133946810Y-95136902D03*
X139588131Y-95931844D03*
X128053334Y-102377231D03*
X139527539Y-95155001D03*
X127379934Y-102240976D03*
X126570086Y-96638466D03*
X123620010Y-95840000D03*
X126084465Y-97310547D03*
X122850010Y-96591134D03*
X109718002Y-101575529D03*
X108344384Y-107463027D03*
X107448996Y-106218032D03*
X105754142Y-100198328D03*
X109068594Y-101862719D03*
X109999482Y-100618984D03*
X105879403Y-100729778D03*
X108801961Y-106672933D03*
X107353528Y-106755633D03*
X108454021Y-99925763D03*
X105863465Y-99523305D03*
X110810000Y-99850010D03*
X106253133Y-99970010D03*
X131553299Y-103862988D03*
X110660568Y-102432457D03*
X110809990Y-100650021D03*
X121969945Y-89450000D03*
D24*
X117600000Y-79500000D03*
D22*
X121479342Y-85545352D03*
X121161504Y-88655327D03*
X122010000Y-90250000D03*
X117539990Y-80095396D03*
X121218731Y-89476969D03*
X123645608Y-89456218D03*
X126400000Y-88030000D03*
X114810001Y-94250000D03*
X118810000Y-95850000D03*
X115610000Y-95850000D03*
X115610000Y-92649998D03*
X118810000Y-92650000D03*
X119610000Y-94250000D03*
D23*
X135825697Y-103370620D03*
X122410009Y-103642616D03*
X128902301Y-104810510D03*
D22*
X118010000Y-87850000D03*
X121067902Y-82173640D03*
X116410000Y-91050000D03*
X107040000Y-73940000D03*
X113140000Y-77060000D03*
X114015168Y-92659723D03*
X114012673Y-91829990D03*
X111610000Y-95850000D03*
X116810000Y-102050000D03*
X132092563Y-103244539D03*
X127848500Y-74916002D03*
X129380000Y-80973000D03*
X121676562Y-84214941D03*
X121717150Y-84852850D03*
X129380000Y-80427000D03*
X128467500Y-74916002D03*
X129053185Y-74880361D03*
X123600000Y-88660000D03*
X124165541Y-84955541D03*
X122800010Y-89434005D03*
X123779459Y-84569459D03*
X129678341Y-74758099D03*
X130229013Y-74571501D03*
X122768335Y-90249288D03*
X132176959Y-80836959D03*
X123590000Y-91050000D03*
X132563041Y-81223041D03*
X130776096Y-74355834D03*
X131630498Y-74729502D03*
X133492150Y-81022150D03*
X126039496Y-93389990D03*
X133480000Y-81600000D03*
X126839508Y-93402478D03*
X132295926Y-74485541D03*
X120410001Y-92650000D03*
X111609999Y-99050000D03*
X120410001Y-91850000D03*
X110810000Y-99050000D03*
X118010000Y-91050000D03*
D23*
X137995000Y-83125000D03*
X137979998Y-83730000D03*
D22*
X137120798Y-95149077D03*
X137990000Y-95130000D03*
X140510000Y-94770000D03*
X108070000Y-90070000D03*
D24*
X109989717Y-97429717D03*
X111740000Y-74050000D03*
D22*
X116174187Y-97685806D03*
X123970000Y-80330000D03*
D24*
X112242994Y-106089668D03*
X130760000Y-107120000D03*
X131280000Y-107110000D03*
D22*
X95510000Y-87020000D03*
X140400000Y-95950000D03*
X113203674Y-94240010D03*
X120601740Y-106444857D03*
X138870000Y-93040000D03*
X133180000Y-96690000D03*
X136920000Y-93910000D03*
D24*
X120503067Y-94293777D03*
D22*
X121199990Y-94260689D03*
D24*
X110132705Y-104182479D03*
D22*
X137517184Y-92038326D03*
X139169999Y-91919992D03*
D24*
X109509163Y-109523379D03*
D22*
X113700000Y-77520000D03*
X130250000Y-105250000D03*
X130330000Y-106812045D03*
X120311150Y-74951150D03*
X120748850Y-75388850D03*
X123680843Y-75011426D03*
X124069406Y-75395025D03*
X125125069Y-75166989D03*
X125608160Y-75439726D03*
X126595116Y-74658276D03*
X127110000Y-74840000D03*
D24*
X111428125Y-85964593D03*
D22*
X117023490Y-84430000D03*
X116430628Y-87829372D03*
X114802587Y-87850000D03*
X113650000Y-83990000D03*
D24*
X110910000Y-86140000D03*
D22*
X117925979Y-85865226D03*
X120562295Y-81967508D03*
X114310000Y-83960000D03*
X115926510Y-83146510D03*
X115737589Y-83734008D03*
X135888837Y-77112979D03*
X135321801Y-73575869D03*
X114915368Y-74849980D03*
X95853041Y-91176959D03*
X114540000Y-75249990D03*
X95466959Y-91563041D03*
X116270282Y-74971793D03*
X98326116Y-91166115D03*
X115941043Y-75407374D03*
X97940034Y-90780033D03*
X117813554Y-75029990D03*
X101086959Y-91553041D03*
X117390000Y-75420000D03*
X101473041Y-91166959D03*
X112222613Y-102521150D03*
X100302850Y-94300150D03*
X115899906Y-102107832D03*
X118022975Y-102813906D03*
X122807720Y-102738649D03*
X138726959Y-110233041D03*
X141198041Y-76711959D03*
X116774116Y-102759523D03*
X96443041Y-94956959D03*
X113065904Y-102888984D03*
X98273000Y-94140000D03*
X114425908Y-103716772D03*
X124261752Y-102486108D03*
X140546959Y-110263041D03*
X141257347Y-77902653D03*
X119651150Y-102531150D03*
X121478240Y-102600014D03*
X138510000Y-111493000D03*
X141813041Y-75289990D03*
X116693445Y-103457513D03*
X96043031Y-95345113D03*
X113608294Y-102951768D03*
X97727000Y-94140000D03*
X114990000Y-103700000D03*
X124547835Y-102021043D03*
X140933041Y-109876959D03*
X140857351Y-78290802D03*
X119725271Y-103119945D03*
X122007709Y-102733401D03*
X138510000Y-110947000D03*
X141426959Y-75683041D03*
X112274971Y-103086112D03*
X99747000Y-94310000D03*
X116337606Y-101670132D03*
X118417238Y-103226637D03*
X123207730Y-102287671D03*
X139113041Y-109846959D03*
X140811959Y-77098041D03*
X112410000Y-98250000D03*
D24*
X120365344Y-109908722D03*
D22*
X111610000Y-100650000D03*
D24*
X119982759Y-109517761D03*
D22*
X112410000Y-99050000D03*
D24*
X119557237Y-109898575D03*
D22*
X112410000Y-99850000D03*
D24*
X119012576Y-109847914D03*
D22*
X116000000Y-85970000D03*
X114360000Y-73130000D03*
X116842699Y-80638400D03*
X115640408Y-88729697D03*
X115515634Y-75778817D03*
X116307764Y-80747822D03*
X118166959Y-79063041D03*
X119942619Y-85006536D03*
X120120235Y-72671902D03*
X118553041Y-78676959D03*
X119396908Y-84988399D03*
X120508697Y-73055602D03*
X118630000Y-77530000D03*
X119605048Y-87813017D03*
X121351433Y-72670797D03*
X120190000Y-86120000D03*
X118706959Y-78153041D03*
X121735695Y-73058703D03*
X122884806Y-72672531D03*
X118792150Y-87842150D03*
X118800000Y-87060000D03*
X123273041Y-73072541D03*
X119610000Y-89450000D03*
X125640000Y-81120000D03*
X119600000Y-88660000D03*
X126310000Y-81070000D03*
X120361493Y-88640090D03*
X123127320Y-82407616D03*
X123450003Y-81959999D03*
X118780000Y-89440000D03*
X128522053Y-81734594D03*
X118685363Y-88710456D03*
X128922063Y-81284986D03*
X133960000Y-107120000D03*
X122016524Y-99868400D03*
X124206241Y-103612889D03*
X133560000Y-111170000D03*
X122804234Y-99086092D03*
X130560059Y-103281467D03*
X128599345Y-102341912D03*
X133172919Y-104174957D03*
X122003312Y-96658550D03*
X129429570Y-103395560D03*
X129660348Y-106803549D03*
X122040967Y-97459064D03*
X128679049Y-103395935D03*
X129128045Y-106681967D03*
X129150000Y-109830000D03*
X122819990Y-99830000D03*
X127870000Y-106740000D03*
X127546363Y-103933545D03*
X123640000Y-99860000D03*
X122992783Y-105980010D03*
X131030000Y-102850000D03*
X122819636Y-95061043D03*
X127722150Y-109300010D03*
X126755705Y-106895112D03*
X122010000Y-91050000D03*
X128450000Y-106680000D03*
X125780000Y-86650000D03*
X122010000Y-94240000D03*
X121200702Y-99076388D03*
X122025612Y-99024272D03*
X121011467Y-103652739D03*
X121165856Y-109905846D03*
X114380000Y-77330000D03*
X95530000Y-84740000D03*
X110810000Y-88660000D03*
X108210000Y-89100000D03*
D24*
X127960000Y-111160000D03*
D22*
X112400000Y-92650000D03*
X125404057Y-107150058D03*
X110030000Y-94250000D03*
X113216585Y-93420004D03*
X125838780Y-108883080D03*
X109140000Y-92570000D03*
X112400000Y-95040000D03*
X125226893Y-109563195D03*
X112410000Y-94230000D03*
X125189999Y-108709990D03*
X126770000Y-109820000D03*
X113210000Y-95050000D03*
X124266227Y-109473681D03*
X108490000Y-93080000D03*
X108819489Y-93920000D03*
X113240000Y-95860000D03*
X123869036Y-109852356D03*
X112390000Y-95850000D03*
X123466215Y-109476939D03*
X111620000Y-96650000D03*
X122929705Y-109368926D03*
X112417020Y-97449949D03*
X122519899Y-109008111D03*
X111610000Y-97420000D03*
X122117670Y-109377355D03*
X110825468Y-97475861D03*
X121695054Y-109771389D03*
X121986987Y-92640010D03*
X120929511Y-107033011D03*
X125878313Y-105831687D03*
X109000000Y-97829976D03*
X120345359Y-108670028D03*
X109010000Y-98629988D03*
X119800012Y-108579596D03*
X108940000Y-99430000D03*
X119392094Y-108950017D03*
X108950000Y-100250000D03*
X118988686Y-108582062D03*
X137596834Y-73884328D03*
X138140000Y-73940000D03*
X138103899Y-76180009D03*
X137540000Y-75940000D03*
X137950000Y-78545994D03*
X137950000Y-77999994D03*
X124421039Y-87050010D03*
X138166959Y-80306959D03*
X137792243Y-77330776D03*
X123610000Y-87850000D03*
X125200000Y-86840000D03*
X138553041Y-80693041D03*
X137406161Y-76944694D03*
X123600000Y-86130000D03*
X106484973Y-106863610D03*
X126523536Y-108482739D03*
X110222809Y-109730955D03*
X121976744Y-95890010D03*
X123795619Y-107044418D03*
X125949422Y-107123484D03*
X122019625Y-95089895D03*
X130040034Y-103115024D03*
D25*
X118010000Y-95050000D02*
X117960000Y-95049999D01*
X114840990Y-93445403D02*
X114840990Y-93738031D01*
X117280000Y-99219000D02*
X117378999Y-99219000D01*
X117280000Y-99219000D02*
X117041000Y-99219000D01*
X118660000Y-98250000D02*
X118830000Y-98420000D01*
X119503938Y-93444997D02*
X119508941Y-93450000D01*
X117249000Y-99250000D02*
X117280000Y-99219000D01*
D26*
X115809999Y-94765000D02*
X115705001Y-94870000D01*
D25*
X114840990Y-93445403D02*
X115809999Y-93445403D01*
D26*
X111610000Y-99850000D02*
X112010000Y-99450000D01*
X112010000Y-99450000D02*
X112010000Y-98650001D01*
X112010000Y-98650001D02*
X111610000Y-98250000D01*
X114613000Y-98540498D02*
X114617500Y-98544998D01*
X119794999Y-99603000D02*
X119819499Y-99627499D01*
D25*
X119610000Y-97893999D02*
X119795000Y-98079000D01*
D26*
X119819499Y-99627499D02*
X119819499Y-99640501D01*
D25*
X119795000Y-99095000D02*
X119794999Y-99603000D01*
X114613000Y-99356723D02*
X114613000Y-98540498D01*
X114810000Y-99553723D02*
X114613000Y-99356723D01*
X114810001Y-99850000D02*
X114810000Y-99553723D01*
D26*
X115809999Y-93445403D02*
X115810000Y-93428000D01*
D25*
X115810000Y-93428000D02*
X116112000Y-93126000D01*
X118286000Y-93126000D02*
X118610000Y-93450000D01*
X116112000Y-93126000D02*
X117255000Y-93126000D01*
X117255000Y-93126000D02*
X118286000Y-93126000D01*
X115809999Y-93445403D02*
X115810000Y-94015000D01*
X115810000Y-94015000D02*
X115809999Y-94765000D01*
X118610000Y-93450000D02*
X118610000Y-94015000D01*
X99243500Y-79085000D02*
X99243500Y-78830500D01*
X114263515Y-96015484D02*
X114054015Y-95805985D01*
X114613000Y-96364968D02*
X114263515Y-96015484D01*
X114613000Y-98540498D02*
X114613000Y-96364968D01*
D27*
X101290000Y-81625000D02*
X100490000Y-81625000D01*
X98210000Y-83415000D02*
X98210000Y-82480000D01*
X98210000Y-82480000D02*
X98215000Y-82475000D01*
X98990000Y-79085000D02*
X98990000Y-78200000D01*
D25*
X100590000Y-79370000D02*
X100590000Y-78750000D01*
D27*
X99156000Y-88366999D02*
X98273000Y-88367000D01*
X98273000Y-88367000D02*
X98264999Y-88375000D01*
D25*
X142670000Y-85174998D02*
X143470006Y-85174999D01*
D27*
X141395000Y-85650000D02*
X142195000Y-85650000D01*
X144475000Y-83860000D02*
X144475000Y-84795000D01*
X143694999Y-88190000D02*
X143695000Y-89075000D01*
D25*
X143441500Y-88190000D02*
X143441500Y-88444500D01*
D27*
X142185003Y-84015000D02*
X142195003Y-84025000D01*
X144475000Y-84795000D02*
X144470000Y-84800000D01*
X141385000Y-84015000D02*
X142185003Y-84015000D01*
D25*
X142195000Y-85650000D02*
X142670000Y-85174998D01*
X142095001Y-87905000D02*
X142095001Y-88525000D01*
X139775000Y-104515000D02*
X140575006Y-104515000D01*
D27*
X138500000Y-104990000D02*
X139300000Y-104990000D01*
X141516999Y-98248000D02*
X141525001Y-98240001D01*
X141580000Y-103200000D02*
X141580000Y-104135000D01*
D25*
X140546500Y-107530000D02*
X140546500Y-107784500D01*
D27*
X140634000Y-98248001D02*
X141516999Y-98248000D01*
D25*
X139200000Y-107245000D02*
X139200001Y-107865000D01*
D27*
X141580000Y-104135000D02*
X141575000Y-104140000D01*
D25*
X139300000Y-104990000D02*
X139775000Y-104515000D01*
D26*
X128358000Y-109682000D02*
X128360000Y-109680000D01*
X124758000Y-109698000D02*
X124750000Y-109690000D01*
X116758000Y-109661988D02*
X116759934Y-109660054D01*
X115705001Y-94870000D02*
X115310000Y-94870000D01*
D27*
X139290002Y-103354999D02*
X139300003Y-103365000D01*
X138490000Y-103355000D02*
X139290002Y-103354999D01*
D26*
X119610000Y-97893999D02*
X119663999Y-97840000D01*
X119663999Y-97840000D02*
X119680000Y-97840000D01*
D25*
X120410000Y-95850001D02*
X119680000Y-96580001D01*
X119680000Y-96580001D02*
X119680000Y-97840000D01*
D28*
X102400000Y-76287500D02*
X101522500Y-76287500D01*
X101522500Y-76287500D02*
X101510000Y-76300000D01*
D26*
X120970293Y-79881371D02*
X120970293Y-80189889D01*
X120970293Y-80189889D02*
X121100000Y-80319596D01*
X119158000Y-73940000D02*
X119158000Y-73312000D01*
X119158000Y-73312000D02*
X119160000Y-73310000D01*
D28*
X126010000Y-79910000D02*
X125970000Y-79870000D01*
X125970000Y-79870000D02*
X125970000Y-80163721D01*
X125970000Y-80163721D02*
X125993833Y-80187554D01*
D26*
X115558000Y-77227978D02*
X115580022Y-77250000D01*
X128358000Y-109830835D02*
X128360000Y-109828835D01*
X128358000Y-110500000D02*
X128358000Y-109830835D01*
X128770000Y-107802000D02*
X128758000Y-107790000D01*
X128770000Y-108460000D02*
X128770000Y-107802000D01*
X127150000Y-107798000D02*
X127158000Y-107790000D01*
X127150000Y-108460000D02*
X127150000Y-107798000D01*
X133560000Y-107792000D02*
X133558000Y-107790000D01*
X133560000Y-108460000D02*
X133560000Y-107792000D01*
X116758000Y-109830769D02*
X116759934Y-109828835D01*
X116758000Y-110500000D02*
X116758000Y-109830769D01*
X115558000Y-109831541D02*
X115560706Y-109828835D01*
X115558000Y-110500000D02*
X115558000Y-109831541D01*
D28*
X115558000Y-73790000D02*
X115558000Y-73132000D01*
X115558000Y-73132000D02*
X115570000Y-73120000D01*
D25*
X103855000Y-76605000D02*
X103830000Y-76580000D01*
X104637500Y-76605000D02*
X103855000Y-76605000D01*
D28*
X104655000Y-75080000D02*
X103940000Y-75080000D01*
X103940000Y-75080000D02*
X103890000Y-75030000D01*
D25*
X117230000Y-87095000D02*
X117230000Y-85550000D01*
X117230000Y-85550000D02*
X117240000Y-85540000D01*
X119680000Y-97964000D02*
X119795000Y-98079000D01*
X119680000Y-97840000D02*
X119680000Y-97964000D01*
X120730000Y-98050000D02*
X120580000Y-98050000D01*
X120415000Y-98215000D02*
X119795000Y-98215000D01*
X120580000Y-98050000D02*
X120415000Y-98215000D01*
X119795000Y-98079000D02*
X119795000Y-98215000D01*
X119795000Y-98215000D02*
X119795000Y-99095000D01*
X114010000Y-99050000D02*
X114810001Y-99850000D01*
X113789000Y-99050000D02*
X114010000Y-99050000D01*
X113640000Y-97920000D02*
X113640000Y-98901000D01*
X113640000Y-98901000D02*
X113789000Y-99050000D01*
X115630001Y-99030000D02*
X115610001Y-99050000D01*
X115630001Y-98150000D02*
X115630001Y-99030000D01*
X118650000Y-94870000D02*
X119150000Y-94870000D01*
X118610000Y-94015000D02*
X118610000Y-94830000D01*
X118610000Y-94830000D02*
X118650000Y-94870000D01*
D26*
X118010000Y-94615000D02*
X118610000Y-94015000D01*
X118010000Y-95050000D02*
X118010000Y-94615000D01*
X115810000Y-94100000D02*
X115810000Y-94015000D01*
X116410000Y-95050000D02*
X116410000Y-94700000D01*
X116410000Y-94700000D02*
X115810000Y-94100000D01*
D25*
X119630000Y-93430000D02*
X119650000Y-93450000D01*
X119630000Y-93150000D02*
X119630000Y-93430000D01*
X119508941Y-93450000D02*
X119650000Y-93450000D01*
X144480000Y-95000000D02*
X144480000Y-95070002D01*
X144480000Y-94550000D02*
X144480000Y-95000000D01*
D26*
X116760000Y-107792000D02*
X116758000Y-107790000D01*
X116760000Y-108460000D02*
X116760000Y-107792000D01*
X115560000Y-107792000D02*
X115558000Y-107790000D01*
X115560000Y-108460000D02*
X115560000Y-107792000D01*
X114358000Y-107790000D02*
X114358000Y-108247000D01*
X114358000Y-108247000D02*
X114521000Y-108410000D01*
X115510000Y-108410000D02*
X115560000Y-108460000D01*
X114521000Y-108410000D02*
X115510000Y-108410000D01*
D28*
X132750000Y-106900000D02*
X132750000Y-106860000D01*
D26*
X116758000Y-73132000D02*
X116760000Y-73130000D01*
X116758000Y-73940000D02*
X116758000Y-73132000D01*
X119241000Y-74480000D02*
X119158000Y-74397000D01*
X122758000Y-73940000D02*
X122758000Y-74397000D01*
X122758000Y-74397000D02*
X122675000Y-74480000D01*
X119158000Y-74397000D02*
X119158000Y-73790000D01*
X120358000Y-74462000D02*
X120340000Y-74480000D01*
X120358000Y-73790000D02*
X120358000Y-74462000D01*
X120340000Y-74480000D02*
X119241000Y-74480000D01*
X121558000Y-74448000D02*
X121590000Y-74480000D01*
X121558000Y-73790000D02*
X121558000Y-74448000D01*
X122675000Y-74480000D02*
X121590000Y-74480000D01*
X121590000Y-74480000D02*
X120340000Y-74480000D01*
X124201000Y-73090000D02*
X124700000Y-73090000D01*
X123958000Y-73790000D02*
X123958000Y-73333000D01*
X123958000Y-73333000D02*
X124201000Y-73090000D01*
X126358000Y-73790000D02*
X126358000Y-73118000D01*
X126358000Y-73118000D02*
X126350000Y-73110000D01*
X127558000Y-73790000D02*
X127558000Y-73108000D01*
X127558000Y-73108000D02*
X127550000Y-73100000D01*
X128758000Y-73790000D02*
X128758000Y-73112000D01*
X128758000Y-73112000D02*
X128760000Y-73110000D01*
X116758000Y-76042000D02*
X116960000Y-75840000D01*
X116758000Y-76650000D02*
X116758000Y-76042000D01*
X117958000Y-76112098D02*
X117958000Y-76500000D01*
X117685902Y-75840000D02*
X117958000Y-76112098D01*
X116960000Y-75840000D02*
X117685902Y-75840000D01*
X119381000Y-77180000D02*
X119800000Y-77180000D01*
X119158000Y-76500000D02*
X119158000Y-76957000D01*
X119158000Y-76957000D02*
X119381000Y-77180000D01*
X120358000Y-76918984D02*
X120358000Y-76500000D01*
X120096984Y-77180000D02*
X120358000Y-76918984D01*
X119800000Y-77180000D02*
X120096984Y-77180000D01*
X121558000Y-76500000D02*
X121558000Y-75858000D01*
X121558000Y-75858000D02*
X121550000Y-75850000D01*
X127558000Y-75868000D02*
X127550000Y-75860000D01*
X127558000Y-76500000D02*
X127558000Y-75868000D01*
X126358000Y-76057683D02*
X126140053Y-75839736D01*
X126358000Y-76500000D02*
X126358000Y-76057683D01*
X115580022Y-76522022D02*
X115558000Y-76500000D01*
X115580022Y-77250000D02*
X115580022Y-76522022D01*
X117950000Y-73782000D02*
X117958000Y-73790000D01*
X117950000Y-73130000D02*
X117950000Y-73782000D01*
X125158000Y-73790000D02*
X125158000Y-73252000D01*
X125158000Y-73252000D02*
X125310000Y-73100000D01*
X125361264Y-75839736D02*
X126140053Y-75839736D01*
X125158000Y-76043000D02*
X125361264Y-75839736D01*
X125158000Y-76500000D02*
X125158000Y-76043000D01*
X129958000Y-73790000D02*
X129958000Y-73132000D01*
X129958000Y-73132000D02*
X129960000Y-73130000D01*
X131158000Y-73790000D02*
X131158000Y-73112000D01*
X131158000Y-73112000D02*
X131170000Y-73100000D01*
X132358000Y-73790000D02*
X132358000Y-73138000D01*
X132358000Y-73138000D02*
X132350000Y-73130000D01*
D25*
X119650000Y-93450000D02*
X120408002Y-93450000D01*
X118610000Y-93450000D02*
X120408002Y-93450000D01*
X109980000Y-108427500D02*
X111540000Y-108427500D01*
X111540000Y-108427500D02*
X111997500Y-108427500D01*
X111997500Y-108427500D02*
X112260000Y-108690000D01*
D26*
X118358000Y-108247000D02*
X118358000Y-107790000D01*
X118145000Y-108460000D02*
X118358000Y-108247000D01*
X116760000Y-108460000D02*
X118145000Y-108460000D01*
D25*
X100490000Y-81625000D02*
X99965000Y-82150000D01*
X99965000Y-82150000D02*
X98940000Y-82150000D01*
D27*
X101300000Y-83260000D02*
X100700002Y-83260000D01*
X100700002Y-83260000D02*
X100340002Y-83620000D01*
D25*
X118612748Y-98845000D02*
X118811002Y-99043254D01*
X118830000Y-99024256D02*
X118811002Y-99043254D01*
X117230000Y-98845000D02*
X118612748Y-98845000D01*
X118830000Y-98150000D02*
X118830000Y-99024256D01*
D26*
X122358000Y-108343980D02*
X122474020Y-108460000D01*
X122358000Y-107790000D02*
X122358000Y-108343980D01*
D25*
X117209990Y-95050000D02*
X117210000Y-95050010D01*
X117255000Y-93126000D02*
X117210000Y-93171000D01*
X117210010Y-95050000D02*
X117210000Y-95050010D01*
X116410000Y-95050000D02*
X117209990Y-95050000D01*
X118010000Y-95050000D02*
X117210010Y-95050000D01*
X117210000Y-93171000D02*
X117210000Y-95050010D01*
X114790266Y-93459734D02*
X114010947Y-93459734D01*
X114830000Y-93420000D02*
X114790266Y-93459734D01*
D26*
X118410751Y-109828835D02*
X118758000Y-110176084D01*
X116759934Y-109828835D02*
X118410751Y-109828835D01*
X118758000Y-110176084D02*
X118758000Y-110500000D01*
X124358000Y-108418000D02*
X124490000Y-108550000D01*
X124358000Y-107790000D02*
X124358000Y-108418000D01*
X120900000Y-108660000D02*
X120900000Y-108690000D01*
X120358000Y-108108000D02*
X120900000Y-108650000D01*
X120900000Y-108650000D02*
X120900000Y-108690000D01*
X120358000Y-107640000D02*
X120358000Y-108108000D01*
X120700000Y-108460000D02*
X120900000Y-108660000D01*
X140267500Y-93750000D02*
X140267500Y-93002500D01*
X140267500Y-93002500D02*
X140280000Y-92990000D01*
X137510000Y-93480000D02*
X137550000Y-93480000D01*
X137550000Y-93480000D02*
X137870000Y-93800000D01*
X141430000Y-96550000D02*
X141430000Y-95940000D01*
X133730000Y-98960000D02*
X133730000Y-99280000D01*
X133730000Y-99280000D02*
X133850000Y-99400000D01*
D25*
X133730000Y-98960000D02*
X133990000Y-98960000D01*
X134615000Y-98335000D02*
X134615000Y-97690000D01*
X133990000Y-98960000D02*
X134615000Y-98335000D01*
X120417992Y-93459990D02*
X120422606Y-93459990D01*
X120408002Y-93450000D02*
X120417992Y-93459990D01*
D26*
X125958000Y-108325187D02*
X125991746Y-108358933D01*
X125958000Y-107790000D02*
X125958000Y-108325187D01*
D25*
X119747148Y-99047148D02*
X119610000Y-99047148D01*
X119795000Y-99095000D02*
X119747148Y-99047148D01*
X119612841Y-99847159D02*
X119593256Y-99847159D01*
X119819499Y-99640501D02*
X119612841Y-99847159D01*
D27*
X140800000Y-107530001D02*
X140446220Y-107883781D01*
X140446220Y-107883781D02*
X140268781Y-107883781D01*
D25*
X143270000Y-78649000D02*
X143529000Y-78908000D01*
X143270000Y-77980000D02*
X143270000Y-78649000D01*
D26*
X128758000Y-75851586D02*
X128876392Y-75733194D01*
X128758000Y-76500000D02*
X128758000Y-75851586D01*
X131158000Y-76500000D02*
X131158000Y-77082000D01*
X131158000Y-77082000D02*
X131110000Y-77130000D01*
X129958000Y-75936492D02*
X130033977Y-75860515D01*
X129958000Y-76500000D02*
X129958000Y-75936492D01*
X134789499Y-74310501D02*
X135050000Y-74050000D01*
X133558000Y-73790000D02*
X133558000Y-74177902D01*
X133690599Y-74310501D02*
X134789499Y-74310501D01*
X133558000Y-74177902D02*
X133690599Y-74310501D01*
X120765846Y-110492154D02*
X120765846Y-109490412D01*
X120765846Y-109490412D02*
X120765445Y-109490011D01*
X120758000Y-110500000D02*
X120765846Y-110492154D01*
X124758000Y-110500000D02*
X124758000Y-109808247D01*
X122758000Y-109921653D02*
X122749076Y-109912729D01*
X122758000Y-110500000D02*
X122758000Y-109921653D01*
X124758000Y-109808247D02*
X124722833Y-109773080D01*
X140267500Y-92281407D02*
X139970010Y-91983917D01*
X140267500Y-93002500D02*
X140267500Y-92281407D01*
X112210000Y-84220000D02*
X112210000Y-84870000D01*
X112210000Y-84870000D02*
X112010000Y-85070000D01*
X114170000Y-83100000D02*
X113740000Y-83100000D01*
X112620000Y-84220000D02*
X112210000Y-84220000D01*
X113140000Y-84070000D02*
X113630000Y-84560000D01*
X113140000Y-83700000D02*
X113140000Y-84070000D01*
X113740000Y-83100000D02*
X113140000Y-83700000D01*
X113140000Y-83700000D02*
X112620000Y-84220000D01*
X127158000Y-109989401D02*
X127315891Y-109831510D01*
X125958000Y-110500000D02*
X125958000Y-109986135D01*
X125958000Y-109986135D02*
X125948153Y-109976288D01*
X127158000Y-110500000D02*
X127158000Y-109989401D01*
X133558000Y-76500000D02*
X133558000Y-77080062D01*
X133558000Y-77080062D02*
X133535352Y-77102710D01*
X132358000Y-76500000D02*
X132358000Y-77012579D01*
X132358000Y-77012579D02*
X132364911Y-77019490D01*
X114358000Y-110500000D02*
X114358000Y-109983190D01*
X114358000Y-109983190D02*
X114438221Y-109902969D01*
D25*
X97210000Y-80865000D02*
X97260000Y-80815000D01*
D27*
X97260000Y-79265000D02*
X97440000Y-79085000D01*
X97260000Y-80815000D02*
X97260000Y-79265000D01*
X145425000Y-86460000D02*
X145425001Y-88010000D01*
X145245000Y-88190000D02*
X145244999Y-89075000D01*
D25*
X145475000Y-86409999D02*
X145425000Y-86460000D01*
D27*
X145425001Y-88010000D02*
X145245000Y-88190000D01*
X142530000Y-105800000D02*
X142530001Y-107350000D01*
D25*
X142580000Y-105750001D02*
X142530000Y-105800000D01*
D27*
X142530001Y-107350000D02*
X142350000Y-107530000D01*
D26*
X130358000Y-110350000D02*
X130358000Y-109278000D01*
X131158000Y-110350000D02*
X131158000Y-109262000D01*
D25*
X141517999Y-92908399D02*
X141816398Y-92610000D01*
X141580000Y-94540000D02*
X141517999Y-94477999D01*
X141517999Y-94477999D02*
X141517999Y-92908399D01*
X143773602Y-92610000D02*
X144193602Y-92190000D01*
X141816398Y-92610000D02*
X143773602Y-92610000D01*
X146482001Y-90312002D02*
X145244999Y-89075000D01*
X146482001Y-91861601D02*
X146482001Y-90312002D01*
X146153602Y-92190000D02*
X146482001Y-91861601D01*
X144193602Y-92190000D02*
X146153602Y-92190000D01*
X143525000Y-83860000D02*
X142820000Y-84565000D01*
X142820000Y-84565000D02*
X142820000Y-84625000D01*
X140630000Y-103200000D02*
X139925000Y-103905001D01*
X139925000Y-103905001D02*
X139925000Y-103964999D01*
D28*
X121971370Y-79880000D02*
X121970000Y-79881370D01*
X122970000Y-79880000D02*
X121971370Y-79880000D01*
D25*
X123290295Y-80540295D02*
X123445000Y-80695000D01*
D28*
X122970000Y-80220000D02*
X123445000Y-80695000D01*
X122970000Y-79880000D02*
X122970000Y-80220000D01*
D25*
X123445000Y-80695000D02*
X123509475Y-80759475D01*
X123509475Y-80759475D02*
X123600000Y-80759475D01*
D26*
X129558000Y-109292010D02*
X129590010Y-109260000D01*
X129558000Y-110350000D02*
X129558000Y-109292010D01*
D27*
X96795000Y-79085000D02*
X96790000Y-79080000D01*
X97440000Y-79085000D02*
X96795000Y-79085000D01*
D28*
X129558000Y-110500000D02*
X131558000Y-110500000D01*
X130358000Y-109278000D02*
X130340000Y-109260000D01*
X130358000Y-110500000D02*
X130358000Y-109278000D01*
X131158000Y-109262000D02*
X131160000Y-109260000D01*
X131158000Y-110500000D02*
X131158000Y-109262000D01*
D25*
X99160000Y-83415000D02*
X99296372Y-83278628D01*
X99296372Y-83278628D02*
X99734950Y-83278628D01*
D27*
X142350000Y-107530000D02*
X141740000Y-106920000D01*
X141740000Y-106920000D02*
X141740000Y-106810000D01*
D25*
X138120000Y-106315000D02*
X138120000Y-107355000D01*
D27*
X138160000Y-107334999D02*
X138130000Y-107365000D01*
D25*
X138120000Y-107355000D02*
X138130000Y-107365000D01*
X139930000Y-106285000D02*
X139200000Y-106285000D01*
X139200000Y-106285000D02*
X138150000Y-106285000D01*
X140630000Y-105800000D02*
X140415000Y-105800000D01*
X140415000Y-105800000D02*
X139930000Y-106285000D01*
X138150000Y-106285000D02*
X138120000Y-106315000D01*
X140429999Y-105600000D02*
X140630000Y-105800000D01*
X113630000Y-96990001D02*
X113630000Y-97030000D01*
X117230000Y-88645000D02*
X117230000Y-87911712D01*
X117230000Y-87911712D02*
X117209999Y-87891711D01*
X120180000Y-97600000D02*
X120220000Y-97600000D01*
X120690000Y-97090000D02*
X120180000Y-97600000D01*
X120730000Y-97090000D02*
X120690000Y-97090000D01*
X104480000Y-85072500D02*
X104707500Y-85300000D01*
X104480000Y-84480000D02*
X104480000Y-85072500D01*
X113630000Y-96990001D02*
X112761366Y-96990001D01*
X112761366Y-96990001D02*
X112411355Y-96639990D01*
X121317010Y-97737268D02*
X120730000Y-97150258D01*
X116410000Y-99849999D02*
X116910001Y-100350000D01*
X116910001Y-100350000D02*
X119778446Y-100350000D01*
X121317010Y-98362732D02*
X121317010Y-97737268D01*
X121072732Y-98607010D02*
X121317010Y-98362732D01*
X120246508Y-99872713D02*
X120246508Y-99233492D01*
X120185478Y-99942968D02*
X120185478Y-99933743D01*
X120246508Y-99233492D02*
X120872990Y-98607010D01*
X119778446Y-100350000D02*
X120185478Y-99942968D01*
X120185478Y-99933743D02*
X120246508Y-99872713D01*
X120872990Y-98607010D02*
X121072732Y-98607010D01*
X120730000Y-97150258D02*
X120730000Y-97090000D01*
X141015000Y-86975000D02*
X141015000Y-88015000D01*
D27*
X141054999Y-87995000D02*
X141025000Y-88025000D01*
D25*
X141015000Y-88015000D02*
X141025000Y-88025000D01*
X143525000Y-86460000D02*
X143310000Y-86460000D01*
X143310000Y-86460000D02*
X142825000Y-86944999D01*
X141045000Y-86944999D02*
X141015000Y-86975000D01*
X143325000Y-86260000D02*
X143525000Y-86460000D01*
X142825000Y-86944999D02*
X142095000Y-86944999D01*
X142095000Y-86944999D02*
X141045000Y-86944999D01*
X101670000Y-79260000D02*
X101660000Y-79250000D01*
X101670000Y-80300000D02*
X101670000Y-79260000D01*
D27*
X101630000Y-79280000D02*
X101660000Y-79250000D01*
D25*
X99160000Y-80815000D02*
X99375000Y-80815000D01*
X99860000Y-80330000D02*
X100590000Y-80330000D01*
X99375000Y-80815000D02*
X99860000Y-80330000D01*
X101640000Y-80330000D02*
X101670000Y-80300000D01*
X100590000Y-80330000D02*
X101640000Y-80330000D01*
D26*
X125651924Y-94291148D02*
X125194787Y-93834011D01*
X125194787Y-93834011D02*
X123246000Y-93834011D01*
X123246000Y-93834011D02*
X122840011Y-94240000D01*
X127508455Y-94291148D02*
X125651924Y-94291148D01*
X125529499Y-93809499D02*
X125160022Y-93440022D01*
X125160022Y-93440022D02*
X122014461Y-93440022D01*
X127670501Y-93809499D02*
X125529499Y-93809499D01*
X127970000Y-93510000D02*
X127670501Y-93809499D01*
X126546861Y-95144116D02*
X123729816Y-95144116D01*
X123729816Y-95144116D02*
X123622850Y-95037150D01*
X125574051Y-93070000D02*
X126054072Y-92589979D01*
X123198638Y-93070000D02*
X125574051Y-93070000D01*
X122773359Y-92644721D02*
X123198638Y-93070000D01*
X125439990Y-91710010D02*
X127005978Y-91710010D01*
X123620010Y-92660000D02*
X124490000Y-92660000D01*
X124490000Y-92660000D02*
X125439990Y-91710010D01*
X127516771Y-95220000D02*
X128020000Y-95220000D01*
X126857669Y-94560898D02*
X127516771Y-95220000D01*
X123610000Y-94240000D02*
X123930898Y-94560898D01*
X128020000Y-95220000D02*
X128400000Y-94840000D01*
X123930898Y-94560898D02*
X126857669Y-94560898D01*
X126570086Y-96638466D02*
X125771620Y-95840000D01*
X125771620Y-95840000D02*
X123620010Y-95840000D01*
X125365052Y-96591134D02*
X122850010Y-96591134D01*
X126084465Y-97310547D02*
X125365052Y-96591134D01*
X105909778Y-100729778D02*
X105879403Y-100729778D01*
X106059625Y-100910000D02*
X105879403Y-100729778D01*
X109999482Y-100618984D02*
X109708466Y-100910000D01*
X109708466Y-100910000D02*
X106059625Y-100910000D01*
X110119990Y-99850010D02*
X109320000Y-100650000D01*
X106933123Y-100650000D02*
X106253133Y-99970010D01*
X109320000Y-100650000D02*
X106933123Y-100650000D01*
X110810000Y-99850010D02*
X110119990Y-99850010D01*
X144020000Y-91340000D02*
X144010000Y-91350000D01*
X145980000Y-91340000D02*
X144020000Y-91340000D01*
X139500501Y-90839499D02*
X139090000Y-91250000D01*
X143926499Y-90839499D02*
X139500501Y-90839499D01*
X144010000Y-90923000D02*
X143926499Y-90839499D01*
X144010000Y-91350000D02*
X144010000Y-90923000D01*
X142080000Y-95910000D02*
X142080000Y-96800000D01*
X137360000Y-97180000D02*
X131553299Y-102986701D01*
X141700000Y-97180000D02*
X137360000Y-97180000D01*
X141109490Y-94939490D02*
X142080000Y-95910000D01*
X131553299Y-102986701D02*
X131553299Y-103862988D01*
X142080000Y-96800000D02*
X141700000Y-97180000D01*
X143539499Y-91820501D02*
X141443222Y-91820501D01*
X144010000Y-91350000D02*
X143539499Y-91820501D01*
X141443222Y-91820501D02*
X141109490Y-92154233D01*
X141109490Y-92154233D02*
X141109490Y-94939490D01*
D29*
X110660568Y-102595002D02*
X110660568Y-102432457D01*
X110637785Y-102617785D02*
X110660568Y-102595002D01*
D26*
X98487113Y-103230000D02*
X98130000Y-103230000D01*
X104766767Y-104215991D02*
X102924173Y-102373397D01*
X101227378Y-102373397D02*
X100370776Y-103230000D01*
X104775215Y-104215991D02*
X104766767Y-104215991D01*
X100370776Y-103230000D02*
X98487113Y-103230000D01*
X102924173Y-102373397D02*
X101227378Y-102373397D01*
X105343746Y-104784522D02*
X104775215Y-104215991D01*
X110660568Y-104399432D02*
X110275478Y-104784522D01*
X110660568Y-102432457D02*
X110660568Y-104399432D01*
X110275478Y-104784522D02*
X105343746Y-104784522D01*
X110200000Y-101260011D02*
X110200000Y-103380000D01*
X104871980Y-103961980D02*
X103021978Y-102111978D01*
X110809990Y-100650021D02*
X110200000Y-101260011D01*
X104910429Y-103961980D02*
X104871980Y-103961980D01*
X109140000Y-104440000D02*
X105388449Y-104440000D01*
X103021978Y-102111978D02*
X99236844Y-102111978D01*
X99236844Y-102111978D02*
X99058614Y-102290208D01*
X99058614Y-102290208D02*
X98839411Y-102509411D01*
X105388449Y-104440000D02*
X104910429Y-103961980D01*
X110200000Y-103380000D02*
X109140000Y-104440000D01*
D28*
X110730000Y-74658039D02*
X110730000Y-75400000D01*
X110034950Y-73962989D02*
X110730000Y-74658039D01*
X109277010Y-73962989D02*
X110034950Y-73962989D01*
X108730000Y-74509999D02*
X109277010Y-73962989D01*
X110730000Y-75400000D02*
X111260000Y-75930000D01*
D26*
X111770000Y-77200342D02*
X111770000Y-77450000D01*
X111260000Y-76690342D02*
X111770000Y-77200342D01*
X111260000Y-76300000D02*
X111260000Y-76690342D01*
D28*
X111260000Y-75930000D02*
X111260000Y-76300000D01*
X111260000Y-76300000D02*
X111260000Y-76410000D01*
D26*
X121969945Y-89409945D02*
X121215327Y-88655327D01*
X121215327Y-88655327D02*
X121161504Y-88655327D01*
X121161504Y-85863190D02*
X121161504Y-88655327D01*
X121479342Y-85545352D02*
X121161504Y-85863190D01*
X115827998Y-79500000D02*
X117600000Y-79500000D01*
X113820000Y-79500000D02*
X115827998Y-79500000D01*
X111770000Y-77450000D02*
X113820000Y-79500000D01*
X114170000Y-80600000D02*
X115590000Y-80600000D01*
X115590000Y-80600000D02*
X116080000Y-80110000D01*
X116080000Y-80110000D02*
X116880000Y-80110000D01*
X116880000Y-80110000D02*
X117440000Y-80670000D01*
X117440000Y-80670000D02*
X117790000Y-80670000D01*
X117790000Y-80670000D02*
X117970000Y-80490000D01*
X117970000Y-79870000D02*
X117600000Y-79500000D01*
X117970000Y-80490000D02*
X117970000Y-79870000D01*
D28*
X111750000Y-78480000D02*
X111765001Y-78464999D01*
X111750000Y-79450001D02*
X111750000Y-78480000D01*
D26*
X111210510Y-77000076D02*
X111210510Y-77910508D01*
X111210510Y-77910508D02*
X111765001Y-78464999D01*
X110740000Y-76529566D02*
X111210510Y-77000076D01*
X110740000Y-76410000D02*
X110740000Y-76529566D01*
X111765001Y-78464999D02*
X111765001Y-78784999D01*
X112404999Y-78464999D02*
X111765001Y-78464999D01*
X113700000Y-79760000D02*
X112404999Y-78464999D01*
X117539990Y-80095396D02*
X117204594Y-79760000D01*
X117204594Y-79760000D02*
X113700000Y-79760000D01*
X112260510Y-81669490D02*
X112260510Y-79960511D01*
X112260510Y-79960511D02*
X111750000Y-79450001D01*
X112210000Y-81720000D02*
X112260510Y-81669490D01*
D27*
X140055000Y-86975000D02*
X140055000Y-88015000D01*
D25*
X141935000Y-81349998D02*
X141871500Y-81413500D01*
D27*
X139845000Y-86275000D02*
X140055000Y-86485000D01*
X141935000Y-78951998D02*
X141979000Y-78908000D01*
X140055000Y-88015000D02*
X140065000Y-88025000D01*
X139820000Y-84000000D02*
X139835000Y-84015000D01*
X141935000Y-81349998D02*
X141770000Y-81350001D01*
X141604000Y-81019000D02*
X141935000Y-81349998D01*
X141770000Y-81350001D02*
X141077500Y-82042499D01*
X139820000Y-82042500D02*
X139820000Y-84000000D01*
X141077500Y-82042499D02*
X139820000Y-82042500D01*
X139844999Y-85650000D02*
X139845000Y-86275000D01*
X139845000Y-84025000D02*
X139835000Y-84015000D01*
X140055000Y-86485000D02*
X140055000Y-86975000D01*
X139844999Y-85650000D02*
X139845000Y-84025000D01*
X141935000Y-81349998D02*
X141935000Y-78951998D01*
D25*
X100750000Y-85925000D02*
X100813500Y-85861500D01*
D27*
X102630000Y-79260000D02*
X102620000Y-79250000D01*
X102630000Y-80300000D02*
X102630000Y-79260000D01*
X101081000Y-86256000D02*
X100750000Y-85925000D01*
X100750000Y-85925000D02*
X100915000Y-85925000D01*
X101607500Y-85232500D02*
X102865000Y-85232500D01*
X100915000Y-85925000D02*
X101607500Y-85232500D01*
X102865000Y-83275000D02*
X102850000Y-83260000D01*
X102865000Y-85232500D02*
X102865000Y-83275000D01*
X102840000Y-83250000D02*
X102850000Y-83260000D01*
X102840000Y-81625000D02*
X102840000Y-83250000D01*
X102840000Y-81625000D02*
X102840000Y-81000000D01*
X102630000Y-80790000D02*
X102630000Y-80300000D01*
X102840000Y-81000000D02*
X102630000Y-80790000D01*
X100750000Y-88323000D02*
X100706000Y-88367000D01*
X100750000Y-85925000D02*
X100750000Y-88323000D01*
D25*
X142530000Y-102148000D02*
X142105000Y-101723000D01*
X142105000Y-101120000D02*
X141675000Y-100690000D01*
X142105000Y-101723000D02*
X142105000Y-101120000D01*
X142530000Y-103200000D02*
X142530000Y-102148000D01*
X145425000Y-82808000D02*
X145000000Y-82383000D01*
X145000000Y-81780000D02*
X144570000Y-81350001D01*
X145000000Y-82383000D02*
X145000000Y-81780000D01*
X145425001Y-83860001D02*
X145425000Y-82808000D01*
X97685000Y-85495000D02*
X98115000Y-85925000D01*
X97685000Y-84892000D02*
X97685000Y-85495000D01*
X97260000Y-83415000D02*
X97260000Y-84467000D01*
X97260000Y-84467000D02*
X97685000Y-84892000D01*
D26*
X125060000Y-88030000D02*
X126400000Y-88030000D01*
X123645608Y-89456218D02*
X123645608Y-89444392D01*
X123645608Y-89444392D02*
X125060000Y-88030000D01*
D27*
X137160000Y-106315000D02*
X137160000Y-107355000D01*
D25*
X139040000Y-100690000D02*
X138976500Y-100753500D01*
D27*
X136950000Y-105615000D02*
X137160000Y-105825000D01*
X139040000Y-98292000D02*
X139084001Y-98248000D01*
X137160000Y-107355000D02*
X137169999Y-107365000D01*
X136925000Y-103340000D02*
X136940000Y-103355000D01*
X139040000Y-100690000D02*
X139040000Y-98292000D01*
X139040000Y-100690000D02*
X138875000Y-100690000D01*
X138709000Y-100359000D02*
X139040000Y-100690000D01*
X138875000Y-100690000D02*
X138182500Y-101382500D01*
X136925000Y-101382500D02*
X136925000Y-103340000D01*
X138182500Y-101382500D02*
X136925000Y-101382500D01*
X136949999Y-104990000D02*
X136950000Y-105615000D01*
X136950000Y-103365000D02*
X136940000Y-103355000D01*
X137160000Y-105825000D02*
X137160000Y-106315000D01*
X136949999Y-104990000D02*
X136950000Y-103365000D01*
D25*
X117330000Y-96920000D02*
X117230000Y-96819999D01*
X117129999Y-96920000D02*
X117230000Y-96819999D01*
D26*
X115610000Y-96862499D02*
X115630000Y-96882500D01*
D25*
X115610000Y-95850000D02*
X115610000Y-96862499D01*
D26*
X117210000Y-97112500D02*
X117230000Y-97132501D01*
X118810000Y-96862500D02*
X118829999Y-96882500D01*
D25*
X118810000Y-95850000D02*
X118810000Y-96862500D01*
D26*
X116409999Y-96901000D02*
X116390999Y-96920000D01*
D25*
X115630000Y-96919999D02*
X116390999Y-96920000D01*
X116390999Y-96920000D02*
X117129999Y-96920000D01*
X118830000Y-96920000D02*
X118169000Y-96920000D01*
X118169000Y-96920000D02*
X117330000Y-96920000D01*
D27*
X135082499Y-102627422D02*
X135825697Y-103370620D01*
X135082499Y-101315000D02*
X135082499Y-102627422D01*
D30*
X114882023Y-91888343D02*
X114883680Y-91890000D01*
D25*
X116410000Y-91050000D02*
X115665000Y-91795000D01*
X115665000Y-91795000D02*
X114830000Y-91795000D01*
D27*
X106212500Y-75087500D02*
X106205000Y-75080000D01*
X106212500Y-76605000D02*
X106212500Y-75087500D01*
X107040000Y-74245000D02*
X107040000Y-73940000D01*
X106205000Y-75080000D02*
X107040000Y-74245000D01*
D25*
X106180000Y-73080000D02*
X107040000Y-73940000D01*
X103490000Y-73080000D02*
X106180000Y-73080000D01*
X102400000Y-74712500D02*
X102400000Y-74170000D01*
X102400000Y-74170000D02*
X103490000Y-73080000D01*
X114090277Y-92659723D02*
X114015168Y-92659723D01*
X114830000Y-91920000D02*
X114090277Y-92659723D01*
D26*
X142020000Y-93430000D02*
X142080000Y-93430000D01*
X142540000Y-93890000D02*
X142540000Y-94540000D01*
X142080000Y-93430000D02*
X142540000Y-93890000D01*
X143510000Y-94540000D02*
X143520000Y-94550000D01*
X142540000Y-94540000D02*
X143510000Y-94540000D01*
X143520000Y-93940000D02*
X144010000Y-93450000D01*
X143520000Y-94550000D02*
X143520000Y-93940000D01*
X115280000Y-99450000D02*
X115830000Y-99450000D01*
X114760510Y-95370510D02*
X115060000Y-95670000D01*
X116010000Y-101010000D02*
X116200000Y-101200000D01*
X115060000Y-98570000D02*
X115210000Y-98720000D01*
X116010000Y-99630000D02*
X116010000Y-101010000D01*
X115060000Y-95670000D02*
X115060000Y-98570000D01*
X116440000Y-101200000D02*
X116750000Y-101510000D01*
X112010001Y-95449999D02*
X112582001Y-95449999D01*
X116200000Y-101200000D02*
X116440000Y-101200000D01*
X115210000Y-99380000D02*
X115280000Y-99450000D01*
X113501492Y-95370510D02*
X114760510Y-95370510D01*
X113422001Y-95450001D02*
X113501492Y-95370510D01*
X112582003Y-95450001D02*
X113422001Y-95450001D01*
X115210000Y-98720000D02*
X115210000Y-99380000D01*
X111610000Y-95850000D02*
X112010001Y-95449999D01*
X115830000Y-99450000D02*
X116010000Y-99630000D01*
X112582001Y-95449999D02*
X112582003Y-95450001D01*
X116750000Y-101990000D02*
X116810000Y-102050000D01*
X116750000Y-101510000D02*
X116750000Y-101990000D01*
X141796236Y-97510000D02*
X137460223Y-97510000D01*
X144009490Y-95296746D02*
X141796236Y-97510000D01*
X137460223Y-97510000D02*
X132092563Y-102877660D01*
X144009490Y-94243096D02*
X144009490Y-95296746D01*
X145370510Y-94049490D02*
X144203096Y-94049490D01*
X132092563Y-102877660D02*
X132092563Y-103244539D01*
X144203096Y-94049490D02*
X144009490Y-94243096D01*
X145980000Y-93440000D02*
X145370510Y-94049490D01*
X127958000Y-74806502D02*
X127958000Y-73790000D01*
X127848500Y-74916002D02*
X127958000Y-74806502D01*
X122834395Y-83057108D02*
X121676562Y-84214941D01*
X124907673Y-82793000D02*
X124414264Y-82793000D01*
X124414264Y-82793000D02*
X124150156Y-83057108D01*
X125270161Y-83020766D02*
X125222228Y-82944481D01*
X125082238Y-82832843D02*
X124997200Y-82803087D01*
X125310005Y-83365308D02*
X125310005Y-83195331D01*
X125158523Y-82880776D02*
X125082238Y-82832843D01*
X125314342Y-83403803D02*
X125310005Y-83365308D01*
X124150156Y-83057108D02*
X122834395Y-83057108D01*
X125222228Y-82944481D02*
X125158523Y-82880776D01*
X125327136Y-83440367D02*
X125314342Y-83403803D01*
X125299917Y-83105804D02*
X125270161Y-83020766D01*
X125407940Y-83521171D02*
X125375139Y-83500560D01*
X126358523Y-82135474D02*
X126282238Y-82087541D01*
X126499917Y-82360502D02*
X126470161Y-82275464D01*
X125483000Y-83538303D02*
X125444504Y-83533965D01*
X126510005Y-82620005D02*
X126510005Y-82450029D01*
X125347747Y-83473168D02*
X125327136Y-83440367D01*
X125558059Y-83521171D02*
X125521495Y-83533965D01*
X126527136Y-82695065D02*
X126514342Y-82658501D01*
X126547747Y-82727866D02*
X126527136Y-82695065D01*
X125618252Y-83473168D02*
X125590860Y-83500560D01*
X126422228Y-82199179D02*
X126358523Y-82135474D01*
X126575139Y-82755258D02*
X126547747Y-82727866D01*
X126514342Y-82658501D02*
X126510005Y-82620005D01*
X125375139Y-83500560D02*
X125347747Y-83473168D01*
X125590860Y-83500560D02*
X125558059Y-83521171D01*
X125638863Y-83440367D02*
X125618252Y-83473168D01*
X129380000Y-81500000D02*
X128087000Y-82793000D01*
X126107673Y-82047697D02*
X126058326Y-82047697D01*
X126510005Y-82450029D02*
X126499917Y-82360502D01*
X125521495Y-83533965D02*
X125483000Y-83538303D01*
X129380000Y-80973000D02*
X129380000Y-81500000D01*
X126644504Y-82788663D02*
X126607940Y-82775869D01*
X128087000Y-82793000D02*
X126683000Y-82793000D01*
X125655995Y-82450029D02*
X125655995Y-83365308D01*
X126607940Y-82775869D02*
X126575139Y-82755258D01*
X126470161Y-82275464D02*
X126422228Y-82199179D01*
X126683000Y-82793000D02*
X126644504Y-82788663D01*
X126282238Y-82087541D02*
X126197200Y-82057785D01*
X126197200Y-82057785D02*
X126107673Y-82047697D01*
X126058326Y-82047697D02*
X125968799Y-82057785D01*
X124997200Y-82803087D02*
X124907673Y-82793000D01*
X125310005Y-83195331D02*
X125299917Y-83105804D01*
X125444504Y-83533965D02*
X125407940Y-83521171D01*
X125968799Y-82057785D02*
X125883761Y-82087541D01*
X125883761Y-82087541D02*
X125807476Y-82135474D01*
X125807476Y-82135474D02*
X125743771Y-82199179D01*
X125743771Y-82199179D02*
X125695838Y-82275464D01*
X125695838Y-82275464D02*
X125666082Y-82360502D01*
X125666082Y-82360502D02*
X125655995Y-82450029D01*
X125655995Y-83365308D02*
X125651657Y-83403803D01*
X125651657Y-83403803D02*
X125638863Y-83440367D01*
X129676277Y-80427000D02*
X129380000Y-80427000D01*
X129780000Y-80530723D02*
X129676277Y-80427000D01*
X129780000Y-81470000D02*
X129780000Y-80530723D01*
X128202990Y-83047010D02*
X129780000Y-81470000D01*
X126658326Y-83047010D02*
X128202990Y-83047010D01*
X126568799Y-83036923D02*
X126658326Y-83047010D01*
X124921495Y-83051347D02*
X124958059Y-83064141D01*
X123352368Y-83345323D02*
X123382655Y-83369476D01*
X123505344Y-83492165D02*
X123575782Y-83548337D01*
X124990860Y-83084752D02*
X125018252Y-83112144D01*
X123382655Y-83369476D02*
X123505344Y-83492165D01*
X124958059Y-83064141D02*
X124990860Y-83084752D01*
X123834882Y-83607475D02*
X123922717Y-83587428D01*
X123744788Y-83607475D02*
X123834882Y-83607475D01*
X124883000Y-83047010D02*
X124921495Y-83051347D01*
X123240960Y-83319895D02*
X123279700Y-83319894D01*
X124003888Y-83548337D02*
X124074326Y-83492165D01*
X123138003Y-83369476D02*
X123168292Y-83345322D01*
X123922717Y-83587428D02*
X124003888Y-83548337D01*
X123113850Y-83399763D02*
X123138003Y-83369476D01*
X123355954Y-84154188D02*
X123376001Y-84066354D01*
X123279700Y-83319894D02*
X123317466Y-83328515D01*
X123316863Y-83807254D02*
X123260691Y-83736816D01*
X123656955Y-83587427D02*
X123744788Y-83607475D01*
X123260692Y-84305798D02*
X123316864Y-84235360D01*
X126121495Y-82306045D02*
X126158059Y-82318839D01*
X126255995Y-82474702D02*
X126255995Y-82644679D01*
X124519478Y-83047011D02*
X124883000Y-83047010D01*
X123203194Y-83328514D02*
X123240960Y-83319895D01*
X121717150Y-84852850D02*
X122713639Y-84852850D01*
X123316864Y-84235360D02*
X123355954Y-84154188D01*
X125910005Y-82474702D02*
X125914342Y-82436207D01*
X126483761Y-83007167D02*
X126568799Y-83036923D01*
X123097042Y-83434665D02*
X123113850Y-83399763D01*
X123168292Y-83345322D02*
X123203194Y-83328514D01*
X124074326Y-83492165D02*
X124519478Y-83047011D01*
X123575782Y-83548337D02*
X123656955Y-83587427D01*
X122713639Y-84852850D02*
X123260692Y-84305798D01*
X123317466Y-83328515D02*
X123352368Y-83345323D01*
X123376001Y-84066354D02*
X123376002Y-83976260D01*
X125368799Y-83782225D02*
X125458326Y-83792313D01*
X123088422Y-83472433D02*
X123097042Y-83434665D01*
X126407476Y-82959234D02*
X126483761Y-83007167D01*
X125018252Y-83112144D02*
X125038863Y-83144945D01*
X125038863Y-83144945D02*
X125051657Y-83181509D01*
X125927136Y-82399643D02*
X125947747Y-82366842D01*
X125055995Y-83220005D02*
X125055995Y-83389981D01*
X123088422Y-83511171D02*
X123088422Y-83472433D01*
X125283761Y-83752469D02*
X125368799Y-83782225D01*
X123355953Y-83888426D02*
X123316863Y-83807254D01*
X125947747Y-82366842D02*
X125975139Y-82339450D01*
X125055995Y-83389981D02*
X125066082Y-83479508D01*
X125066082Y-83479508D02*
X125095838Y-83564546D01*
X126044504Y-82306045D02*
X126083000Y-82301707D01*
X123113850Y-83583841D02*
X123097042Y-83548939D01*
X125143771Y-83640831D02*
X125207476Y-83704536D01*
X125051657Y-83181509D02*
X125055995Y-83220005D01*
X125914342Y-82436207D02*
X125927136Y-82399643D01*
X123097042Y-83548939D02*
X123088422Y-83511171D01*
X125207476Y-83704536D02*
X125283761Y-83752469D01*
X126083000Y-82301707D02*
X126121495Y-82306045D01*
X125458326Y-83792313D02*
X125507673Y-83792313D01*
X125870161Y-83564546D02*
X125899917Y-83479508D01*
X125507673Y-83792313D02*
X125597200Y-83782225D01*
X125899917Y-83479508D02*
X125910005Y-83389981D01*
X125597200Y-83782225D02*
X125682238Y-83752469D01*
X123376002Y-83976260D02*
X123355953Y-83888426D01*
X125682238Y-83752469D02*
X125758523Y-83704536D01*
X126295838Y-82819244D02*
X126343771Y-82895529D01*
X125758523Y-83704536D02*
X125822228Y-83640831D01*
X125822228Y-83640831D02*
X125870161Y-83564546D01*
X125910005Y-83389981D02*
X125910005Y-82474702D01*
X125095838Y-83564546D02*
X125143771Y-83640831D01*
X123138003Y-83614128D02*
X123113850Y-83583841D01*
X126007940Y-82318839D02*
X126044504Y-82306045D01*
X126218252Y-82366842D02*
X126238863Y-82399643D01*
X123260691Y-83736816D02*
X123138003Y-83614128D01*
X125975139Y-82339450D02*
X126007940Y-82318839D01*
X126190860Y-82339450D02*
X126218252Y-82366842D01*
X126266082Y-82734206D02*
X126295838Y-82819244D01*
X126158059Y-82318839D02*
X126190860Y-82339450D01*
X126255995Y-82644679D02*
X126266082Y-82734206D01*
X126238863Y-82399643D02*
X126251657Y-82436207D01*
X126251657Y-82436207D02*
X126255995Y-82474702D01*
X126343771Y-82895529D02*
X126407476Y-82959234D01*
X128358000Y-74806502D02*
X128358000Y-73790000D01*
X128467500Y-74916002D02*
X128358000Y-74806502D01*
X129158000Y-74775546D02*
X129158000Y-73790000D01*
X129053185Y-74880361D02*
X129158000Y-74775546D01*
X123060000Y-88120000D02*
X123060000Y-85860000D01*
X123600000Y-88660000D02*
X123060000Y-88120000D01*
X123060000Y-85860000D02*
X123710000Y-85210000D01*
X123710000Y-85210000D02*
X123710000Y-85204606D01*
X123959065Y-84955541D02*
X124165541Y-84955541D01*
X123710000Y-85204606D02*
X123959065Y-84955541D01*
X122800010Y-89434005D02*
X122800010Y-85749990D01*
X122800010Y-85749990D02*
X123360000Y-85190000D01*
X123779459Y-84775935D02*
X123779459Y-84569459D01*
X123365394Y-85190000D02*
X123779459Y-84775935D01*
X123360000Y-85190000D02*
X123365394Y-85190000D01*
X129558000Y-74637758D02*
X129678341Y-74758099D01*
X129558000Y-73790000D02*
X129558000Y-74637758D01*
X130358000Y-74442514D02*
X130229013Y-74571501D01*
X130358000Y-73790000D02*
X130358000Y-74442514D01*
X130758000Y-74337738D02*
X130776096Y-74355834D01*
X130758000Y-73790000D02*
X130758000Y-74337738D01*
X131558000Y-74657004D02*
X131630498Y-74729502D01*
X131558000Y-73790000D02*
X131558000Y-74657004D01*
X127084966Y-90240989D02*
X127089404Y-90280375D01*
X127089404Y-88864375D02*
X127102495Y-88901786D01*
X127222580Y-88997551D02*
X127261966Y-89001989D01*
X127416347Y-88609373D02*
X127382787Y-88630460D01*
X127416347Y-90025373D02*
X127382787Y-90046460D01*
X127185169Y-88665517D02*
X127151609Y-88686604D01*
X127261966Y-89001989D02*
X127305989Y-89001989D01*
X133492150Y-81022150D02*
X130226439Y-84287861D01*
X127089404Y-88785602D02*
X127084966Y-88824989D01*
X127222580Y-88652426D02*
X127185169Y-88665517D01*
X127185169Y-90081517D02*
X127151609Y-90102604D01*
X127444374Y-89068631D02*
X127465461Y-89102191D01*
X127089404Y-89572375D02*
X127102495Y-89609786D01*
X127089404Y-89493602D02*
X127084966Y-89532989D01*
X127185169Y-88984460D02*
X127222580Y-88997551D01*
X127222580Y-90413551D02*
X127482989Y-90673960D01*
X127102495Y-88901786D02*
X127123582Y-88935346D01*
X127123582Y-89422631D02*
X127102495Y-89456191D01*
X127482989Y-89178989D02*
X127478552Y-89218375D01*
X127151609Y-88686604D02*
X127123582Y-88714631D01*
X127478552Y-89847602D02*
X127482989Y-89886989D01*
X127123582Y-88935346D02*
X127151609Y-88963373D01*
X127102495Y-90164191D02*
X127089404Y-90201602D01*
X127222580Y-89360426D02*
X127185169Y-89373517D01*
X127123582Y-90351346D02*
X127151609Y-90379373D01*
X127084966Y-88824989D02*
X127089404Y-88864375D01*
X127465461Y-89255786D02*
X127444374Y-89289346D01*
X127305989Y-89709989D02*
X127345376Y-89714426D01*
X129355308Y-84287861D02*
X127478552Y-86164617D01*
X127185169Y-90400460D02*
X127222580Y-90413551D01*
X127151609Y-89394604D02*
X127123582Y-89422631D01*
X127305989Y-89355989D02*
X127261966Y-89355989D01*
X127478552Y-89926375D02*
X127465461Y-89963786D01*
X127478552Y-88510375D02*
X127465461Y-88547786D01*
X127465461Y-89810191D02*
X127478552Y-89847602D01*
X127478552Y-86164617D02*
X127478552Y-88431602D01*
X127444374Y-89776631D02*
X127465461Y-89810191D01*
X127261966Y-89355989D02*
X127222580Y-89360426D01*
X127261966Y-89709989D02*
X127305989Y-89709989D01*
X127345376Y-90059551D02*
X127305989Y-90063989D01*
X127089404Y-90201602D02*
X127084966Y-90240989D01*
X127151609Y-88963373D02*
X127185169Y-88984460D01*
X127185169Y-89692460D02*
X127222580Y-89705551D01*
X127305989Y-90063989D02*
X127261966Y-90063989D01*
X127482989Y-90673960D02*
X127482989Y-91946497D01*
X127416347Y-89748604D02*
X127444374Y-89776631D01*
X127261966Y-88647989D02*
X127222580Y-88652426D01*
X127482989Y-89886989D02*
X127478552Y-89926375D01*
X127261966Y-90063989D02*
X127222580Y-90068426D01*
X127102495Y-88748191D02*
X127089404Y-88785602D01*
X127151609Y-90379373D02*
X127185169Y-90400460D01*
X127382787Y-89338460D02*
X127345376Y-89351551D01*
X127444374Y-89289346D02*
X127416347Y-89317373D01*
X127305989Y-89001989D02*
X127345376Y-89006426D01*
X127151609Y-89671373D02*
X127185169Y-89692460D01*
X127345376Y-89351551D02*
X127305989Y-89355989D01*
X127305989Y-88647989D02*
X127261966Y-88647989D01*
X127382787Y-89727517D02*
X127416347Y-89748604D01*
X127478552Y-88431602D02*
X127482989Y-88470989D01*
X127089404Y-90280375D02*
X127102495Y-90317786D01*
X127482989Y-91946497D02*
X126039496Y-93389990D01*
X127222580Y-89705551D02*
X127261966Y-89709989D01*
X127465461Y-89963786D02*
X127444374Y-89997346D01*
X127345376Y-88643551D02*
X127305989Y-88647989D01*
X127185169Y-89373517D02*
X127151609Y-89394604D01*
X127444374Y-89997346D02*
X127416347Y-90025373D01*
X127382787Y-90046460D02*
X127345376Y-90059551D01*
X127151609Y-90102604D02*
X127123582Y-90130631D01*
X127102495Y-89456191D02*
X127089404Y-89493602D01*
X127123582Y-90130631D02*
X127102495Y-90164191D01*
X127478552Y-89218375D02*
X127465461Y-89255786D01*
X130226439Y-84287861D02*
X129355308Y-84287861D01*
X127123582Y-88714631D02*
X127102495Y-88748191D01*
X127478552Y-89139602D02*
X127482989Y-89178989D01*
X127382787Y-88630460D02*
X127345376Y-88643551D01*
X127444374Y-88581346D02*
X127416347Y-88609373D01*
X127345376Y-89006426D02*
X127382787Y-89019517D01*
X127084966Y-89532989D02*
X127089404Y-89572375D01*
X127382787Y-89019517D02*
X127416347Y-89040604D01*
X127345376Y-89714426D02*
X127382787Y-89727517D01*
X127482989Y-88470989D02*
X127478552Y-88510375D01*
X127102495Y-90317786D02*
X127123582Y-90351346D01*
X127465461Y-88547786D02*
X127444374Y-88581346D01*
X127416347Y-89317373D02*
X127382787Y-89338460D01*
X127123582Y-89643346D02*
X127151609Y-89671373D01*
X127102495Y-89609786D02*
X127123582Y-89643346D01*
X127222580Y-90068426D02*
X127185169Y-90081517D01*
X127416347Y-89040604D02*
X127444374Y-89068631D01*
X127465461Y-89102191D02*
X127478552Y-89139602D01*
X130531055Y-84548945D02*
X129491055Y-84548945D01*
X127760000Y-92481986D02*
X126839508Y-93402478D01*
X129491055Y-84548945D02*
X127760000Y-86280000D01*
X133480000Y-81600000D02*
X130531055Y-84548945D01*
X127760000Y-86280000D02*
X127760000Y-92481986D01*
X131958000Y-73790000D02*
X131958000Y-74147615D01*
X131958000Y-74147615D02*
X132295926Y-74485541D01*
X131558000Y-107790000D02*
X131958000Y-107790000D01*
D25*
X138225907Y-81575093D02*
X137834000Y-81967000D01*
X117260000Y-91850000D02*
X117230000Y-91819999D01*
X113993000Y-94783000D02*
X114080000Y-94870000D01*
D27*
X117230000Y-92132500D02*
X117229999Y-91246000D01*
D25*
X117310000Y-91149999D02*
X117410000Y-91050000D01*
X117410000Y-91050000D02*
X118010000Y-91050000D01*
X117229999Y-91246000D02*
X117310000Y-91165998D01*
X117310000Y-91165998D02*
X117310000Y-91149999D01*
D27*
X137977500Y-81975000D02*
X137977500Y-83107501D01*
X137977500Y-83107501D02*
X137995000Y-83125000D01*
X137995000Y-83714998D02*
X137979998Y-83730000D01*
X137995000Y-83125000D02*
X137995000Y-83714998D01*
D25*
X109980000Y-106852500D02*
X111540000Y-106852500D01*
X138120000Y-91240000D02*
X138130000Y-91250000D01*
D26*
X120417500Y-94870000D02*
X120110000Y-94870000D01*
D28*
X124960000Y-79880000D02*
X124970000Y-79870000D01*
X123970000Y-79880000D02*
X124960000Y-79880000D01*
D26*
X123970000Y-79880000D02*
X123970000Y-80330000D01*
D28*
X109980000Y-106852500D02*
X110557500Y-106852500D01*
X112242994Y-106149506D02*
X112242994Y-106089668D01*
X111540000Y-106852500D02*
X112242994Y-106149506D01*
D25*
X120070001Y-92190000D02*
X120410001Y-91850000D01*
X119630000Y-92190000D02*
X120070001Y-92190000D01*
D26*
X130758000Y-107790000D02*
X131158000Y-107790000D01*
D25*
X119525000Y-92295000D02*
X119630000Y-92190000D01*
X119175022Y-92295000D02*
X119525000Y-92295000D01*
X119043521Y-92163499D02*
X119175022Y-92295000D01*
X118576479Y-92163499D02*
X119043521Y-92163499D01*
X118444978Y-92295000D02*
X118576479Y-92163499D01*
X117230000Y-92295000D02*
X118444978Y-92295000D01*
D26*
X95530000Y-86390000D02*
X95530000Y-87000000D01*
X95530000Y-87000000D02*
X95510000Y-87020000D01*
D25*
X114042501Y-94870000D02*
X113833664Y-94870000D01*
X113833664Y-94870000D02*
X113203674Y-94240010D01*
D26*
X138692500Y-93750000D02*
X138692500Y-93217500D01*
X138692500Y-93217500D02*
X138870000Y-93040000D01*
X133065000Y-96805000D02*
X133180000Y-96690000D01*
X133065000Y-97690000D02*
X133065000Y-96805000D01*
X136550000Y-93480000D02*
X136550000Y-93540000D01*
X136550000Y-93540000D02*
X136920000Y-93910000D01*
X132770000Y-98960000D02*
X132770000Y-98670000D01*
X133065000Y-98375000D02*
X133065000Y-97690000D01*
X132770000Y-98670000D02*
X133065000Y-98375000D01*
X140470000Y-96020000D02*
X140400000Y-95950000D01*
X140470000Y-96550000D02*
X140470000Y-96020000D01*
D25*
X120417500Y-94870000D02*
X120590679Y-94870000D01*
X120590679Y-94870000D02*
X121199990Y-94260689D01*
D26*
X138130000Y-91250000D02*
X138130000Y-91425510D01*
X138130000Y-91425510D02*
X137517184Y-92038326D01*
X138203730Y-91250000D02*
X138130000Y-91250000D01*
X138873722Y-91919992D02*
X138203730Y-91250000D01*
X139169999Y-91919992D02*
X138873722Y-91919992D01*
D28*
X109240000Y-109254216D02*
X109509163Y-109523379D01*
X109980000Y-106852500D02*
X109240000Y-107592500D01*
X109240000Y-107592500D02*
X109240000Y-109254216D01*
X98160589Y-101841767D02*
X97451178Y-102551178D01*
X98160589Y-101830589D02*
X98160589Y-101841767D01*
X97180000Y-102822356D02*
X97451178Y-102551178D01*
X99813949Y-105816051D02*
X97180000Y-103182102D01*
X97180000Y-103182102D02*
X97180000Y-102822356D01*
D26*
X114000000Y-78300000D02*
X114000000Y-77820000D01*
X114000000Y-77820000D02*
X113700000Y-77520000D01*
D28*
X131158000Y-107232000D02*
X131158000Y-107790000D01*
X131280000Y-107110000D02*
X131158000Y-107232000D01*
X130760000Y-107788000D02*
X130758000Y-107790000D01*
X130760000Y-107120000D02*
X130760000Y-107788000D01*
D26*
X128130000Y-104620000D02*
X128200000Y-104620000D01*
X128200000Y-104620000D02*
X128500000Y-104320000D01*
X128500000Y-104320000D02*
X129160000Y-104320000D01*
X130090000Y-105250000D02*
X130250000Y-105250000D01*
X129160000Y-104320000D02*
X130090000Y-105250000D01*
X112240000Y-75930000D02*
X111760000Y-76410000D01*
X114670000Y-75930000D02*
X112240000Y-75930000D01*
X114758000Y-76650000D02*
X114758000Y-76018000D01*
X114758000Y-76018000D02*
X114670000Y-75930000D01*
X115158000Y-75958000D02*
X115158000Y-76650000D01*
X114850000Y-75650000D02*
X115158000Y-75958000D01*
X112000000Y-75650000D02*
X114850000Y-75650000D01*
X111750000Y-75400000D02*
X112000000Y-75650000D01*
D28*
X122758000Y-77180000D02*
X122758000Y-76650000D01*
X121913640Y-78024360D02*
X122758000Y-77180000D01*
X121807304Y-78024360D02*
X120970293Y-78861371D01*
X121913640Y-78024360D02*
X121807304Y-78024360D01*
X123158000Y-77483665D02*
X123158000Y-76650000D01*
X121970000Y-78671665D02*
X123158000Y-77483665D01*
X121970000Y-78861370D02*
X121970000Y-78671665D01*
D26*
X123158000Y-74409156D02*
X122767156Y-74800000D01*
X122767156Y-74800000D02*
X120617157Y-74800000D01*
X120617157Y-74800000D02*
X120466007Y-74951150D01*
X120466007Y-74951150D02*
X120311150Y-74951150D01*
X123158000Y-74409156D02*
X123158000Y-73790000D01*
D28*
X123558000Y-78263665D02*
X123558000Y-76650000D01*
X122970000Y-78860000D02*
X122970000Y-78851665D01*
X122970000Y-78851665D02*
X123558000Y-78263665D01*
D26*
X121077700Y-75060000D02*
X120748850Y-75388850D01*
X123558000Y-74488245D02*
X122986245Y-75060000D01*
X122986245Y-75060000D02*
X121077700Y-75060000D01*
X123558000Y-74488245D02*
X123558000Y-73790000D01*
D28*
X123958000Y-78119076D02*
X123958000Y-76650000D01*
X123970000Y-78131076D02*
X123958000Y-78119076D01*
X123970000Y-78860000D02*
X123970000Y-78131076D01*
D26*
X124358000Y-74572000D02*
X124358000Y-73790000D01*
X123680843Y-75011426D02*
X123918574Y-75011426D01*
X123918574Y-75011426D02*
X124358000Y-74572000D01*
X124758000Y-74562000D02*
X124758000Y-73790000D01*
X124069406Y-75395025D02*
X124069406Y-75250594D01*
X124069406Y-75250594D02*
X124758000Y-74562000D01*
X125558000Y-74734058D02*
X125558000Y-73790000D01*
X125125069Y-75166989D02*
X125558000Y-74734058D01*
X125958000Y-75089886D02*
X125608160Y-75439726D01*
X125958000Y-73790000D02*
X125958000Y-75089886D01*
X126758000Y-74495392D02*
X126758000Y-73790000D01*
X126595116Y-74658276D02*
X126758000Y-74495392D01*
X127110000Y-74840000D02*
X127110000Y-74410000D01*
X127158000Y-74362000D02*
X127158000Y-73790000D01*
X127110000Y-74410000D02*
X127158000Y-74362000D01*
D28*
X110210000Y-81640000D02*
X110230000Y-81660000D01*
X108250000Y-81640000D02*
X110210000Y-81640000D01*
D26*
X110230000Y-81660000D02*
X110230000Y-84766468D01*
X110230000Y-84766468D02*
X111428125Y-85964593D01*
X114250000Y-84510000D02*
X113670000Y-83930000D01*
X114250000Y-84990000D02*
X114250000Y-84510000D01*
X114802587Y-87850000D02*
X114802587Y-85542587D01*
X114802587Y-85542587D02*
X114250000Y-84990000D01*
D28*
X107540002Y-76030003D02*
X107540000Y-76030001D01*
X107540002Y-78000000D02*
X107540002Y-76030003D01*
D26*
X107540002Y-82770002D02*
X107540002Y-78000000D01*
X110910000Y-86140000D02*
X107540002Y-82770002D01*
D28*
X109640000Y-74619999D02*
X109750000Y-74509999D01*
X109640000Y-76030001D02*
X109640000Y-74619999D01*
X110080000Y-77450000D02*
X110750000Y-77450000D01*
X109640002Y-78000000D02*
X109640002Y-77889998D01*
X109640002Y-77889998D02*
X110080000Y-77450000D01*
X110230000Y-79560000D02*
X110230000Y-79710000D01*
X110990001Y-80470001D02*
X111750000Y-80470001D01*
X110230000Y-79710000D02*
X110990001Y-80470001D01*
X109280000Y-78910000D02*
X110300000Y-78910000D01*
X110300000Y-78910000D02*
X110745001Y-78464999D01*
X109157001Y-79032999D02*
X109280000Y-78910000D01*
X108250000Y-79540000D02*
X108757001Y-79032999D01*
X108757001Y-79032999D02*
X109157001Y-79032999D01*
X124358000Y-78238000D02*
X124970000Y-78850000D01*
X124358000Y-76650000D02*
X124358000Y-78238000D01*
X124758000Y-77180000D02*
X124758000Y-76650000D01*
X124820000Y-77242000D02*
X124758000Y-77180000D01*
X125970000Y-78850000D02*
X125090000Y-77970000D01*
X124820000Y-77970000D02*
X124820000Y-77242000D01*
X125090000Y-77970000D02*
X124820000Y-77970000D01*
D26*
X134113979Y-77112979D02*
X135888837Y-77112979D01*
X133958000Y-76957000D02*
X134113979Y-77112979D01*
X133958000Y-76500000D02*
X133958000Y-76957000D01*
X134077390Y-73213610D02*
X134959542Y-73213610D01*
X133958000Y-73333000D02*
X134077390Y-73213610D01*
X134959542Y-73213610D02*
X135321801Y-73575869D01*
X133958000Y-73790000D02*
X133958000Y-73333000D01*
X115958000Y-74322776D02*
X115430796Y-74849980D01*
X115430796Y-74849980D02*
X114915368Y-74849980D01*
X115958000Y-74322776D02*
X115958000Y-73790000D01*
X115408861Y-75249990D02*
X114540000Y-75249990D01*
X116358000Y-74300851D02*
X115408861Y-75249990D01*
X116358000Y-74300851D02*
X116358000Y-73790000D01*
X117158000Y-73790000D02*
X117158000Y-74397000D01*
X116583207Y-74971793D02*
X116270282Y-74971793D01*
X117158000Y-74397000D02*
X116583207Y-74971793D01*
X117558000Y-73790000D02*
X117558000Y-74397000D01*
X117558000Y-74397000D02*
X116547626Y-75407374D01*
X116547626Y-75407374D02*
X115941043Y-75407374D01*
X118260010Y-75029990D02*
X117813554Y-75029990D01*
X118358000Y-74932000D02*
X118260010Y-75029990D01*
X118358000Y-74932000D02*
X118358000Y-73790000D01*
X117400000Y-75430000D02*
X117390000Y-75420000D01*
X118220000Y-75430000D02*
X117400000Y-75430000D01*
X118758000Y-73940000D02*
X118758000Y-74892000D01*
X118758000Y-74892000D02*
X118220000Y-75430000D01*
X115899906Y-104479906D02*
X116170000Y-104750000D01*
X115899906Y-102107832D02*
X115899906Y-104479906D01*
X117190000Y-104750000D02*
X117190000Y-103646881D01*
X117190000Y-103646881D02*
X118022975Y-102813906D01*
X129952784Y-105904013D02*
X134252843Y-105904013D01*
X134252843Y-105904013D02*
X135863000Y-107514170D01*
X137693435Y-110233041D02*
X138726959Y-110233041D01*
X135863000Y-108402607D02*
X137693435Y-110233041D01*
X135863000Y-107514170D02*
X135863000Y-108402607D01*
X129603793Y-105555022D02*
X129952784Y-105904013D01*
X126129765Y-104798989D02*
X126885797Y-105555022D01*
X123558989Y-104798989D02*
X126129765Y-104798989D01*
X122900510Y-104140510D02*
X123558989Y-104798989D01*
X122900510Y-102831439D02*
X122900510Y-104140510D01*
X122807720Y-102738649D02*
X122900510Y-102831439D01*
X126885797Y-105555022D02*
X129603793Y-105555022D01*
D28*
X114403228Y-103716772D02*
X114425908Y-103716772D01*
D26*
X114203228Y-103716772D02*
X113170000Y-104750000D01*
X114425908Y-103716772D02*
X114203228Y-103716772D01*
X139717927Y-109434009D02*
X140546959Y-110263041D01*
X136371022Y-107273741D02*
X136371022Y-108192180D01*
X135490556Y-106179045D02*
X135490556Y-106269139D01*
X135605866Y-105939601D02*
X135549694Y-106010039D01*
X135549694Y-106438145D02*
X135605866Y-106508583D01*
X135904122Y-105587971D02*
X135895503Y-105625739D01*
X135510603Y-106356974D02*
X135549694Y-106438145D01*
X135549694Y-106010039D02*
X135510603Y-106091210D01*
X135904123Y-105549233D02*
X135904122Y-105587971D01*
X135712846Y-105396695D02*
X135751584Y-105396695D01*
X135675078Y-105405315D02*
X135712846Y-105396695D01*
X135640176Y-105422123D02*
X135675078Y-105405315D01*
X135609889Y-105446276D02*
X135640176Y-105422123D01*
X135378663Y-105677505D02*
X135609889Y-105446276D01*
X135895502Y-105511465D02*
X135904123Y-105549233D01*
X135290778Y-105751124D02*
X135361216Y-105694952D01*
X135209606Y-105790214D02*
X135290778Y-105751124D01*
X135878695Y-105660641D02*
X135854542Y-105690928D01*
X135824254Y-105422123D02*
X135854541Y-105446276D01*
X135121770Y-105810261D02*
X135209606Y-105790214D01*
X134943842Y-105790213D02*
X135031678Y-105810262D01*
X135854542Y-105690928D02*
X135605866Y-105939601D01*
X134862670Y-105751123D02*
X134943842Y-105790213D01*
X134792232Y-105694951D02*
X134862670Y-105751123D01*
X135510603Y-106091210D02*
X135490556Y-106179045D01*
X135789352Y-105405315D02*
X135824254Y-105422123D01*
X134757338Y-105660055D02*
X134792232Y-105694951D01*
X134701166Y-105589617D02*
X134757338Y-105660055D01*
X135878694Y-105476563D02*
X135895502Y-105511465D01*
X135006013Y-104597748D02*
X135030166Y-104628035D01*
X135030166Y-104628035D02*
X135046974Y-104662937D01*
X135751584Y-105396695D02*
X135789352Y-105405315D01*
X134273242Y-104961733D02*
X134361078Y-104941686D01*
X135854541Y-105446276D02*
X135878694Y-105476563D01*
X135030167Y-104812113D02*
X135006014Y-104842400D01*
X134662075Y-105508446D02*
X134701166Y-105589617D01*
X126690921Y-102486108D02*
X128264813Y-104060000D01*
X136371022Y-108192180D02*
X137612851Y-109434009D01*
X134361078Y-104941686D02*
X134442250Y-104902596D01*
X134701166Y-105161511D02*
X134662075Y-105242682D01*
X133943704Y-104846423D02*
X134014142Y-104902595D01*
X134442250Y-104902596D02*
X134512688Y-104846424D01*
X135361216Y-105694952D02*
X135378663Y-105677505D01*
X135055595Y-104700705D02*
X135055594Y-104739443D01*
X134761361Y-104597748D02*
X134791648Y-104573595D01*
X124261752Y-102486108D02*
X126690921Y-102486108D01*
X129717674Y-104060000D02*
X130486652Y-104828978D01*
X134642028Y-105330517D02*
X134642028Y-105420611D01*
X135031678Y-105810262D02*
X135121770Y-105810261D01*
X130486652Y-104828978D02*
X133926259Y-104828978D01*
X134530135Y-104828977D02*
X134761361Y-104597748D01*
X133926259Y-104828978D02*
X133943704Y-104846423D01*
X135895503Y-105625739D02*
X135878695Y-105660641D01*
X134864318Y-104548167D02*
X134903056Y-104548167D01*
X134826550Y-104556787D02*
X134864318Y-104548167D01*
X134014142Y-104902595D02*
X134095314Y-104941685D01*
X135046975Y-104777211D02*
X135030167Y-104812113D01*
X134662075Y-105242682D02*
X134642028Y-105330517D01*
X134903056Y-104548167D02*
X134940824Y-104556787D01*
X134975726Y-104573595D02*
X135006013Y-104597748D01*
X134095314Y-104941685D02*
X134183150Y-104961734D01*
X134940824Y-104556787D02*
X134975726Y-104573595D01*
X135046974Y-104662937D02*
X135055595Y-104700705D01*
X135605866Y-106508583D02*
X136371022Y-107273741D01*
X135490556Y-106269139D02*
X135510603Y-106356974D01*
X128264813Y-104060000D02*
X129717674Y-104060000D01*
X134791648Y-104573595D02*
X134826550Y-104556787D01*
X135055594Y-104739443D02*
X135046975Y-104777211D01*
X134183150Y-104961734D02*
X134273242Y-104961733D01*
X135006014Y-104842400D02*
X134757338Y-105091073D01*
X137612851Y-109434009D02*
X139717927Y-109434009D01*
X134512688Y-104846424D02*
X134530135Y-104828977D01*
X134757338Y-105091073D02*
X134701166Y-105161511D01*
X134642028Y-105420611D02*
X134662075Y-105508446D01*
X120103443Y-103250309D02*
X120103443Y-104663443D01*
X120103443Y-104663443D02*
X120190000Y-104750000D01*
X119651150Y-102531150D02*
X119947427Y-102531150D01*
X119947427Y-102531150D02*
X120151978Y-102735701D01*
X120151978Y-103201774D02*
X120103443Y-103250309D01*
X120151978Y-102735701D02*
X120151978Y-103201774D01*
X125919337Y-105307011D02*
X126675369Y-106063044D01*
X134042417Y-106412035D02*
X135192989Y-107562607D01*
X137773381Y-111493000D02*
X138510000Y-111493000D01*
X121478240Y-102600014D02*
X121478240Y-103788240D01*
X122997011Y-105307011D02*
X125919337Y-105307011D01*
X129393366Y-106063044D02*
X129742356Y-106412035D01*
X121478240Y-103788240D02*
X122997011Y-105307011D01*
X126675369Y-106063044D02*
X129393366Y-106063044D01*
X135192989Y-108912608D02*
X137773381Y-111493000D01*
X129742356Y-106412035D02*
X134042417Y-106412035D01*
X135192989Y-107562607D02*
X135192989Y-108912608D01*
X114990000Y-103700000D02*
X114990000Y-103740000D01*
X114170000Y-104560000D02*
X114170000Y-104750000D01*
X114990000Y-103740000D02*
X114170000Y-104560000D01*
X137711055Y-109172989D02*
X139972989Y-109172989D01*
X136625033Y-108086967D02*
X137711055Y-109172989D01*
X139972989Y-109172989D02*
X140676959Y-109876959D01*
X135761964Y-106281230D02*
X135778772Y-106316132D01*
X140676959Y-109876959D02*
X140933041Y-109876959D01*
X135778772Y-106316132D02*
X135802927Y-106346421D01*
X135802925Y-106101767D02*
X135778772Y-106132054D01*
X135753344Y-106204724D02*
X135753344Y-106243462D01*
X136107771Y-105782654D02*
X136051599Y-105853093D01*
X136625033Y-107168527D02*
X136625033Y-108086967D01*
X135761964Y-106166956D02*
X135753344Y-106204724D01*
X136146861Y-105701482D02*
X136107771Y-105782654D01*
X135802927Y-106346421D02*
X136625033Y-107168527D01*
X135778772Y-106132054D02*
X135761964Y-106166956D01*
X136166910Y-105613648D02*
X136146861Y-105701482D01*
X136051598Y-105284109D02*
X136107771Y-105354548D01*
X136146862Y-105435720D02*
X136166909Y-105523554D01*
X135777261Y-105133906D02*
X135865096Y-105153953D01*
X136107771Y-105354548D02*
X136146862Y-105435720D01*
X135687167Y-105133906D02*
X135777261Y-105133906D01*
X136166909Y-105523554D02*
X136166910Y-105613648D01*
X135865096Y-105153953D02*
X135946267Y-105193044D01*
X135199050Y-105497892D02*
X135447723Y-105249216D01*
X135168762Y-105522045D02*
X135199050Y-105497892D01*
X135946267Y-105193044D02*
X136016705Y-105249216D01*
X135447723Y-105249216D02*
X135518161Y-105193044D01*
X135019588Y-105538854D02*
X135057354Y-105547473D01*
X135168177Y-104400688D02*
X135203070Y-104435581D01*
X135133860Y-105538853D02*
X135168762Y-105522045D01*
X134105872Y-104649365D02*
X134136158Y-104673518D01*
X134930244Y-105467604D02*
X134954400Y-105497893D01*
X134247566Y-104698946D02*
X134285332Y-104690325D01*
X134954397Y-105253239D02*
X134930244Y-105283526D01*
X135318381Y-104675026D02*
X135318382Y-104765120D01*
X126585081Y-102021043D02*
X128364038Y-103800000D01*
X135599332Y-105153953D02*
X135687167Y-105133906D01*
X135096094Y-105547474D02*
X135133860Y-105538853D01*
X134031473Y-104574967D02*
X134105872Y-104649365D01*
X134913436Y-105432702D02*
X134930244Y-105467604D01*
X134208826Y-104698945D02*
X134247566Y-104698946D01*
X135298334Y-104587192D02*
X135318381Y-104675026D01*
X124547835Y-102021043D02*
X126585081Y-102021043D01*
X136016705Y-105249216D02*
X136051598Y-105284109D01*
X135518161Y-105193044D02*
X135599332Y-105153953D01*
X135057354Y-105547473D02*
X135096094Y-105547474D01*
X130591866Y-104574967D02*
X134031473Y-104574967D01*
X135097739Y-104344516D02*
X135168177Y-104400688D01*
X136034152Y-105870539D02*
X135802925Y-106101767D01*
X134171060Y-104690326D02*
X134208826Y-104698945D01*
X135259243Y-104506020D02*
X135298334Y-104587192D01*
X128364038Y-103800000D02*
X129816899Y-103800000D01*
X129816899Y-103800000D02*
X130591866Y-104574967D01*
X134750804Y-104305425D02*
X134838639Y-104285378D01*
X134838639Y-104285378D02*
X134928733Y-104285378D01*
X134928733Y-104285378D02*
X135016568Y-104305425D01*
X135016568Y-104305425D02*
X135097739Y-104344516D01*
X135753344Y-106243462D02*
X135761964Y-106281230D01*
X136051599Y-105853093D02*
X136034152Y-105870539D01*
X134136158Y-104673518D02*
X134171060Y-104690326D01*
X135203070Y-104435581D02*
X135259243Y-104506020D01*
X134954400Y-105497893D02*
X134984686Y-105522046D01*
X134285332Y-104690325D02*
X134320234Y-104673517D01*
X134930244Y-105283526D02*
X134913436Y-105318428D01*
X135318382Y-104765120D02*
X135298333Y-104852954D01*
X134984686Y-105522046D02*
X135019588Y-105538854D01*
X134320234Y-104673517D02*
X134350522Y-104649364D01*
X134913436Y-105318428D02*
X134904816Y-105356196D01*
X135298333Y-104852954D02*
X135259243Y-104934126D01*
X134350522Y-104649364D02*
X134599195Y-104400688D01*
X134904816Y-105356196D02*
X134904816Y-105394934D01*
X135259243Y-104934126D02*
X135203071Y-105004565D01*
X134904816Y-105394934D02*
X134913436Y-105432702D01*
X134599195Y-104400688D02*
X134669633Y-104344516D01*
X135203071Y-105004565D02*
X135185624Y-105022011D01*
X134669633Y-104344516D02*
X134750804Y-104305425D01*
X135185624Y-105022011D02*
X134954397Y-105253239D01*
X119200000Y-104790000D02*
X119200000Y-103645216D01*
X119200000Y-103645216D02*
X119725271Y-103119945D01*
X126780583Y-105809033D02*
X129498580Y-105809033D01*
X129847570Y-106158024D02*
X134147630Y-106158024D01*
X134147630Y-106158024D02*
X135447000Y-107457394D01*
X135447000Y-107457394D02*
X135447000Y-108807394D01*
X135447000Y-108807394D02*
X137586606Y-110947000D01*
X122007709Y-102733401D02*
X121798210Y-102942900D01*
X129498580Y-105809033D02*
X129847570Y-106158024D01*
X123103000Y-105053000D02*
X126024551Y-105053000D01*
X121798210Y-102942900D02*
X121798210Y-103748210D01*
X121798210Y-103748210D02*
X123103000Y-105053000D01*
X137586606Y-110947000D02*
X138510000Y-110947000D01*
X126024551Y-105053000D02*
X126780583Y-105809033D01*
D28*
X115340968Y-104950000D02*
X115170000Y-104950000D01*
D26*
X116337606Y-101670132D02*
X115619868Y-101670132D01*
X115619868Y-101670132D02*
X115480000Y-101810000D01*
X115480000Y-104440000D02*
X115170000Y-104750000D01*
X115480000Y-101810000D02*
X115480000Y-104440000D01*
X118190000Y-103453875D02*
X118417238Y-103226637D01*
X118190000Y-104750000D02*
X118190000Y-103453875D01*
X123207730Y-103997730D02*
X123754978Y-104544978D01*
X137582607Y-109762989D02*
X139029071Y-109762989D01*
X136117011Y-108297393D02*
X137582607Y-109762989D01*
X136117011Y-107378955D02*
X136117011Y-108297393D01*
X134388058Y-105650002D02*
X136117011Y-107378955D01*
X139029071Y-109762989D02*
X139113041Y-109846959D01*
X130057998Y-105650002D02*
X134388058Y-105650002D01*
X126991011Y-105301011D02*
X129709007Y-105301011D01*
X129709007Y-105301011D02*
X130057998Y-105650002D01*
X126234978Y-104544978D02*
X126991011Y-105301011D01*
X123754978Y-104544978D02*
X126234978Y-104544978D01*
X123207730Y-102287671D02*
X123207730Y-103997730D01*
X120358000Y-109916066D02*
X120365344Y-109908722D01*
X120358000Y-110350000D02*
X120358000Y-109916066D01*
X104592399Y-106666050D02*
X104256050Y-106666050D01*
X111822603Y-105165072D02*
X111159655Y-105828020D01*
X111159655Y-105828020D02*
X110159571Y-105828020D01*
X111822603Y-102314297D02*
X111822603Y-105165072D01*
X105440427Y-105818022D02*
X104592399Y-106666050D01*
X113120000Y-100160000D02*
X112770000Y-100510000D01*
X104256050Y-106666050D02*
X103406051Y-105816051D01*
X112770000Y-100510000D02*
X112770000Y-101366900D01*
X112770000Y-101366900D02*
X111822603Y-102314297D01*
X110149573Y-105818022D02*
X105440427Y-105818022D01*
X113120000Y-98960000D02*
X113120000Y-100160000D01*
X110159571Y-105828020D02*
X110149573Y-105818022D01*
X112410000Y-98250000D02*
X113120000Y-98960000D01*
X119957746Y-109542774D02*
X119982759Y-109517761D01*
X119958000Y-110350000D02*
X119957746Y-110349746D01*
X119957746Y-110349746D02*
X119957746Y-109542774D01*
X100217408Y-104679568D02*
X101190000Y-105652160D01*
X100217408Y-103742592D02*
X100217408Y-104679568D01*
X101190000Y-106132935D02*
X100050000Y-107272935D01*
X102357408Y-102627408D02*
X101332592Y-102627408D01*
X100050000Y-107951269D02*
X101506885Y-109408154D01*
X103880000Y-104150000D02*
X102357408Y-102627408D01*
X111610000Y-100650000D02*
X111060570Y-101199430D01*
X100050000Y-107272935D02*
X100050000Y-107951269D01*
X101332592Y-102627408D02*
X100217408Y-103742592D01*
X111060570Y-101199430D02*
X111060570Y-104779430D01*
X111060570Y-104779430D02*
X110801467Y-105038533D01*
X110801467Y-105038533D02*
X104886925Y-105038533D01*
X101190000Y-105652160D02*
X101190000Y-106132935D01*
X104886925Y-105038533D02*
X103998392Y-104150000D01*
X101506885Y-109408154D02*
X103406051Y-109408154D01*
X103998392Y-104150000D02*
X103880000Y-104150000D01*
X119558000Y-109899338D02*
X119557237Y-109898575D01*
X119558000Y-110350000D02*
X119558000Y-109899338D01*
X103905493Y-104775550D02*
X102906610Y-104775550D01*
X110264785Y-105574009D02*
X110254787Y-105564011D01*
X101698022Y-107524080D02*
X101610000Y-107612102D01*
X110254787Y-105564011D02*
X104693954Y-105564011D01*
X102906610Y-104775550D02*
X101698022Y-105984138D01*
X112510000Y-100410000D02*
X112510000Y-101267675D01*
X112820776Y-99460776D02*
X112820776Y-100099224D01*
X111054441Y-105574009D02*
X110264785Y-105574009D01*
X111568592Y-105059858D02*
X111054441Y-105574009D01*
X101698022Y-105984138D02*
X101698022Y-107524080D01*
X112510000Y-101267675D02*
X111568592Y-102209083D01*
X112410000Y-99050000D02*
X112820776Y-99460776D01*
X111568592Y-102209083D02*
X111568592Y-105059858D01*
X104693954Y-105564011D02*
X103905493Y-104775550D01*
X112820776Y-100099224D02*
X112510000Y-100410000D01*
X110400000Y-105310000D02*
X110390000Y-105320000D01*
X112200501Y-100059499D02*
X112200501Y-101217949D01*
X112410000Y-99850000D02*
X112200501Y-100059499D01*
X112200501Y-101217949D02*
X111314581Y-102103869D01*
X110959225Y-105310000D02*
X110400000Y-105310000D01*
X111314581Y-104954644D02*
X110959225Y-105310000D01*
X111314581Y-102103869D02*
X111314581Y-104954644D01*
X119158000Y-110350000D02*
X119153260Y-110345260D01*
X119158000Y-110500000D02*
X119158000Y-109993338D01*
X119158000Y-109993338D02*
X119012576Y-109847914D01*
X101110559Y-108652603D02*
X102109441Y-108652603D01*
X104799168Y-105310000D02*
X104010707Y-104521539D01*
X110380000Y-105310000D02*
X104799168Y-105310000D01*
X102109441Y-108652603D02*
X103149942Y-107612102D01*
X101444011Y-105869067D02*
X101444011Y-106238149D01*
X101444011Y-106238149D02*
X100569499Y-107112660D01*
X100569499Y-107112660D02*
X100569499Y-108111543D01*
X100569499Y-108111543D02*
X101110559Y-108652603D01*
X102791539Y-104521539D02*
X101444011Y-105869067D01*
X103149942Y-107612102D02*
X105202102Y-107612102D01*
X104010707Y-104521539D02*
X102791539Y-104521539D01*
X114360000Y-73938000D02*
X114358000Y-73940000D01*
X114360000Y-73130000D02*
X114360000Y-73938000D01*
X116842699Y-80934677D02*
X116842699Y-80638400D01*
X115240000Y-82537376D02*
X116842699Y-80934677D01*
X115240000Y-84560000D02*
X115240000Y-82537376D01*
X116000000Y-85320000D02*
X115240000Y-84560000D01*
X116000000Y-85970000D02*
X116000000Y-85320000D01*
X115792590Y-75778817D02*
X115515634Y-75778817D01*
X115958000Y-75944227D02*
X115792590Y-75778817D01*
X115958000Y-76650000D02*
X115958000Y-75944227D01*
X114860501Y-82195085D02*
X116307764Y-80747822D01*
X115430909Y-85350909D02*
X114860501Y-84780501D01*
X114860501Y-84780501D02*
X114860501Y-82195085D01*
X115430909Y-88520198D02*
X115430909Y-85350909D01*
X115640408Y-88729697D02*
X115430909Y-88520198D01*
X119631000Y-73652000D02*
X119558000Y-73725000D01*
X119558000Y-73725000D02*
X119558000Y-73940000D01*
X119942619Y-84710259D02*
X119942619Y-85006536D01*
X119283000Y-84050640D02*
X119942619Y-84710259D01*
X118166959Y-79063041D02*
X119283000Y-80179082D01*
X119283000Y-80179082D02*
X119283000Y-84050640D01*
X119560000Y-73232137D02*
X120120235Y-72671902D01*
X119560000Y-73850000D02*
X119560000Y-73232137D01*
X119958000Y-73725000D02*
X119958000Y-73940000D01*
X119537000Y-83667394D02*
X120357000Y-84487394D01*
X119779232Y-85667000D02*
X119396908Y-85284676D01*
X119396908Y-85284676D02*
X119396908Y-84988399D01*
X119972606Y-85667000D02*
X119779232Y-85667000D01*
X118553041Y-78676959D02*
X119537000Y-79660918D01*
X119537000Y-79660918D02*
X119537000Y-83667394D01*
X120357000Y-85282606D02*
X119972606Y-85667000D01*
X120357000Y-84487394D02*
X120357000Y-85282606D01*
X119958000Y-73790000D02*
X119958000Y-73333000D01*
X120235398Y-73055602D02*
X120508697Y-73055602D01*
X119958000Y-73333000D02*
X120235398Y-73055602D01*
X120831000Y-73652000D02*
X120758000Y-73725000D01*
X120907503Y-86510562D02*
X119605048Y-87813017D01*
X120997000Y-85668469D02*
X120907503Y-85757966D01*
X120997000Y-83946999D02*
X120997000Y-85668469D01*
X120907503Y-85757966D02*
X120907503Y-86510562D01*
X120162294Y-78713069D02*
X120162294Y-83112293D01*
X120162294Y-83112293D02*
X120997000Y-83946999D01*
X118630000Y-77530000D02*
X118979225Y-77530000D01*
X118979225Y-77530000D02*
X120162294Y-78713069D01*
X120758000Y-73372000D02*
X121351433Y-72778567D01*
X121351433Y-72778567D02*
X121351433Y-72670797D01*
X120758000Y-73790000D02*
X120758000Y-73372000D01*
X121158000Y-73725000D02*
X121158000Y-73940000D01*
X120190000Y-85823723D02*
X120190000Y-86120000D01*
X119908283Y-79354365D02*
X119908283Y-83217507D01*
X119908283Y-83217507D02*
X120742989Y-84052213D01*
X118706959Y-78153041D02*
X119908283Y-79354365D01*
X120742989Y-84052213D02*
X120742989Y-85270734D01*
X120742989Y-85270734D02*
X120190000Y-85823723D01*
X121541297Y-73058703D02*
X121735695Y-73058703D01*
X121158000Y-73790000D02*
X121158000Y-73442000D01*
X121158000Y-73442000D02*
X121541297Y-73058703D01*
X122768469Y-72672531D02*
X122884806Y-72672531D01*
X121960000Y-73400098D02*
X122687567Y-72672531D01*
X121960000Y-73788000D02*
X121960000Y-73400098D01*
X122687567Y-72672531D02*
X122884806Y-72672531D01*
X121958000Y-73790000D02*
X121960000Y-73788000D01*
X123273041Y-73072541D02*
X122737459Y-73072541D01*
X122358000Y-73452000D02*
X122358000Y-73790000D01*
X122737459Y-73072541D02*
X122358000Y-73452000D01*
X125558000Y-77657658D02*
X126480510Y-78580168D01*
X126480510Y-78580168D02*
X126480510Y-80279490D01*
X125558000Y-76650000D02*
X125558000Y-77657658D01*
X126480510Y-80279490D02*
X125640000Y-81120000D01*
X126310000Y-80910000D02*
X126310000Y-81070000D01*
X126749499Y-80470501D02*
X126310000Y-80910000D01*
X126749499Y-78229893D02*
X126749499Y-80470501D01*
X125958000Y-76650000D02*
X125958000Y-77438394D01*
X125958000Y-77438394D02*
X126749499Y-78229893D01*
X125425392Y-81477394D02*
X122793000Y-81477394D01*
X125467999Y-81520001D02*
X125425392Y-81477394D01*
X127620393Y-81520001D02*
X125467999Y-81520001D01*
X122793000Y-82073296D02*
X123127320Y-82407616D01*
X127683000Y-81457394D02*
X127620393Y-81520001D01*
X127683000Y-80012606D02*
X127683000Y-81457394D01*
X127353000Y-79682606D02*
X127683000Y-80012606D01*
X122793000Y-81477394D02*
X122793000Y-82073296D01*
X126758000Y-76650000D02*
X126758000Y-77677606D01*
X126758000Y-77677606D02*
X127353000Y-78272606D01*
X127353000Y-78272606D02*
X127353000Y-79682606D01*
X123635990Y-81774012D02*
X123450003Y-81959999D01*
X127855988Y-81774012D02*
X123635990Y-81774012D01*
X127158000Y-77718381D02*
X127607011Y-78167392D01*
X127158000Y-76650000D02*
X127158000Y-77718381D01*
X127607011Y-78167392D02*
X127607011Y-79577393D01*
X127607011Y-79577393D02*
X127937011Y-79907392D01*
X127937011Y-81692989D02*
X127855988Y-81774012D01*
X127937011Y-79907392D02*
X127937011Y-81692989D01*
X128052499Y-77132401D02*
X128090599Y-77170501D01*
X128052499Y-76744499D02*
X128052499Y-77132401D01*
X128522053Y-80133223D02*
X128522053Y-81734594D01*
X128103990Y-79715160D02*
X128522053Y-80133223D01*
X128103990Y-77170501D02*
X128103990Y-79715160D01*
X127958000Y-76650000D02*
X128052499Y-76744499D01*
X128090599Y-77170501D02*
X128103990Y-77170501D01*
X128922063Y-80174008D02*
X128922063Y-81284986D01*
X128358000Y-76650000D02*
X128358000Y-79609945D01*
X128358000Y-79609945D02*
X128922063Y-80174008D01*
X133970000Y-107628000D02*
X133958000Y-107640000D01*
X133958000Y-107122000D02*
X133960000Y-107120000D01*
X133958000Y-107790000D02*
X133958000Y-107122000D01*
X123607739Y-102034434D02*
X123607739Y-103014387D01*
X122410011Y-100261887D02*
X122410011Y-100836706D01*
X123607739Y-103014387D02*
X124206241Y-103612889D01*
X122410011Y-100836706D02*
X123607739Y-102034434D01*
X122016524Y-99868400D02*
X122410011Y-100261887D01*
X133540000Y-110368000D02*
X133558000Y-110350000D01*
X133560000Y-110502000D02*
X133558000Y-110500000D01*
X133560000Y-111170000D02*
X133560000Y-110502000D01*
X122804234Y-99086092D02*
X123176939Y-99458797D01*
X123176939Y-99458797D02*
X125976975Y-99458797D01*
X128599345Y-102081167D02*
X128599345Y-102341912D01*
X125976975Y-99458797D02*
X128599345Y-102081167D01*
X130560059Y-103281467D02*
X130560059Y-103577744D01*
X133084886Y-104262990D02*
X133172919Y-104174957D01*
X130560059Y-103577744D02*
X131245305Y-104262990D01*
X131245305Y-104262990D02*
X133084886Y-104262990D01*
X122003312Y-96822536D02*
X122003312Y-96658550D01*
X126189225Y-98950775D02*
X126214224Y-98975775D01*
X123079999Y-98429998D02*
X123600775Y-98950775D01*
X123079999Y-97929999D02*
X123079999Y-98429998D01*
X122003312Y-96853312D02*
X123079999Y-97929999D01*
X123600775Y-98950775D02*
X126189225Y-98950775D01*
X122003312Y-96658550D02*
X122003312Y-96853312D01*
X129429570Y-102189570D02*
X129429570Y-103395560D01*
X126220000Y-98980000D02*
X129429570Y-102189570D01*
X130358000Y-107432047D02*
X129729502Y-106803549D01*
X129729502Y-106803549D02*
X129660348Y-106803549D01*
X130358000Y-107790000D02*
X130358000Y-107432047D01*
X123490412Y-99204786D02*
X126084011Y-99204786D01*
X129034610Y-103040374D02*
X128679049Y-103395935D01*
X126084011Y-99204786D02*
X129034610Y-102155385D01*
X122040967Y-97755341D02*
X123490412Y-99204786D01*
X122040967Y-97459064D02*
X122040967Y-97755341D01*
X129034610Y-102155385D02*
X129034610Y-103040374D01*
X129353352Y-107203551D02*
X129128045Y-106978244D01*
X129958000Y-107790000D02*
X129958000Y-107391272D01*
X129958000Y-107391272D02*
X129770279Y-107203551D01*
X129128045Y-106978244D02*
X129128045Y-106681967D01*
X129770279Y-107203551D02*
X129353352Y-107203551D01*
X129190000Y-110382000D02*
X129158000Y-110350000D01*
X129150000Y-110492000D02*
X129158000Y-110500000D01*
X129150000Y-109830000D02*
X129150000Y-110492000D01*
X127870000Y-106680000D02*
X127870000Y-106740000D01*
X123861750Y-102678110D02*
X125117185Y-103933545D01*
X123219499Y-100229509D02*
X123219499Y-100862214D01*
X125117185Y-103933545D02*
X127546363Y-103933545D01*
X122819990Y-99830000D02*
X123219499Y-100229509D01*
X123861750Y-101504465D02*
X123861750Y-102678110D01*
X123219499Y-100862214D02*
X123861750Y-101504465D01*
X127110000Y-104620000D02*
X127230000Y-104620000D01*
X127546363Y-104303637D02*
X127546363Y-103933545D01*
X127230000Y-104620000D02*
X127546363Y-104303637D01*
X123158000Y-106145227D02*
X122992783Y-105980010D01*
X123158000Y-107790000D02*
X123158000Y-106145227D01*
X122819636Y-95839636D02*
X122819636Y-95061043D01*
X131030000Y-101690000D02*
X125580000Y-96240000D01*
X123220000Y-96240000D02*
X122819636Y-95839636D01*
X125580000Y-96240000D02*
X123220000Y-96240000D01*
X131030000Y-102850000D02*
X131030000Y-101690000D01*
X122758000Y-108177902D02*
X123653778Y-109073680D01*
X124460263Y-109073680D02*
X124496583Y-109110000D01*
X125473698Y-109110000D02*
X125663708Y-109300010D01*
X125663708Y-109300010D02*
X127722150Y-109300010D01*
X124496583Y-109110000D02*
X125473698Y-109110000D01*
X123653778Y-109073680D02*
X124460263Y-109073680D01*
X122758000Y-107790000D02*
X122758000Y-108177902D01*
X126940000Y-88240000D02*
X126940000Y-87810000D01*
X126940000Y-87810000D02*
X125780000Y-86650000D01*
X124010000Y-91170000D02*
X126940000Y-88240000D01*
X124010000Y-91450000D02*
X124010000Y-91170000D01*
X122410000Y-91450000D02*
X124010000Y-91450000D01*
X122010000Y-91050000D02*
X122410000Y-91450000D01*
X128450000Y-106680000D02*
X128110000Y-106340000D01*
X121958000Y-106282000D02*
X121958000Y-107790000D01*
X125037998Y-105580000D02*
X122660000Y-105580000D01*
X122660000Y-105580000D02*
X121958000Y-106282000D01*
X125689686Y-106231688D02*
X125037998Y-105580000D01*
X126010913Y-106231688D02*
X125689686Y-106231688D01*
X126119225Y-106340000D02*
X126010913Y-106231688D01*
X128110000Y-106340000D02*
X126119225Y-106340000D01*
X121600704Y-98769296D02*
X121600704Y-99359297D01*
X121550000Y-94700000D02*
X121550000Y-97488703D01*
X120611465Y-103861466D02*
X121583523Y-104833524D01*
X121550000Y-97488703D02*
X121657520Y-97596225D01*
X121657520Y-98712480D02*
X121600704Y-98769296D01*
X121583523Y-107764477D02*
X121558000Y-107790000D01*
X121657520Y-97596225D02*
X121657520Y-98712480D01*
X120731465Y-103340737D02*
X120611465Y-103460737D01*
X121583523Y-104833524D02*
X121583523Y-107764477D01*
X122010000Y-94240000D02*
X121550000Y-94700000D01*
X120731465Y-100228536D02*
X120731465Y-103340737D01*
X121600704Y-99359297D02*
X120731465Y-100228536D01*
X120611465Y-103460737D02*
X120611465Y-103861466D01*
X120357454Y-103355523D02*
X120475989Y-103236988D01*
X121158000Y-107396524D02*
X121329512Y-107225012D01*
X120475989Y-103236988D02*
X120475989Y-100124787D01*
X120357454Y-104116679D02*
X120357454Y-103355523D01*
X120475989Y-100124787D02*
X121200702Y-99400074D01*
X121329512Y-107225012D02*
X121329512Y-105088737D01*
X121158000Y-107790000D02*
X121158000Y-107396524D01*
X121329512Y-105088737D02*
X120357454Y-104116679D01*
X121200702Y-99400074D02*
X121200702Y-99076388D01*
X122025612Y-99024272D02*
X122025612Y-99293613D01*
X122025612Y-99293613D02*
X121610000Y-99709225D01*
X121610000Y-101876250D02*
X121011467Y-102474783D01*
X121011467Y-102474783D02*
X121011467Y-103652739D01*
X121610000Y-99709225D02*
X121610000Y-101876250D01*
X121158000Y-109913702D02*
X121165856Y-109905846D01*
X121158000Y-110500000D02*
X121158000Y-109913702D01*
X120190000Y-105910000D02*
X119980000Y-105910000D01*
X116558952Y-107119499D02*
X116358000Y-107320451D01*
X120090000Y-106670000D02*
X119640501Y-107119499D01*
X119640501Y-107119499D02*
X116558952Y-107119499D01*
X120090000Y-106670000D02*
X120090000Y-106350000D01*
X120190000Y-106250000D02*
X120190000Y-105710000D01*
X120090000Y-106350000D02*
X120190000Y-106250000D01*
X116358000Y-107790000D02*
X116358000Y-107320451D01*
X115920000Y-108840775D02*
X115920000Y-108850000D01*
X115920000Y-108840775D02*
X116000775Y-108840775D01*
X116358000Y-109198000D02*
X116358000Y-110350000D01*
X116000775Y-108840775D02*
X116358000Y-109198000D01*
X115900774Y-108860001D02*
X115920000Y-108840775D01*
X113320000Y-107270001D02*
X113320000Y-108074902D01*
X114894508Y-106865492D02*
X113724509Y-106865492D01*
X116050000Y-105710000D02*
X114894508Y-106865492D01*
X113724509Y-106865492D02*
X113320000Y-107270001D01*
X113320000Y-108074902D02*
X113909109Y-108664011D01*
X113909109Y-108664011D02*
X115172009Y-108664011D01*
X115172009Y-108664011D02*
X115367999Y-108860001D01*
X115367999Y-108860001D02*
X115900774Y-108860001D01*
X116170000Y-105710000D02*
X116050000Y-105710000D01*
X119190000Y-106660000D02*
X118984511Y-106865489D01*
X116442961Y-106865489D02*
X116188952Y-107119499D01*
X119190000Y-105710000D02*
X119190000Y-106660000D01*
X116021501Y-107119499D02*
X115958000Y-107183000D01*
X116188952Y-107119499D02*
X116021501Y-107119499D01*
X118984511Y-106865489D02*
X116442961Y-106865489D01*
X115958000Y-107790000D02*
X115958000Y-107183000D01*
X113803895Y-108918022D02*
X115066795Y-108918022D01*
X113619295Y-106611481D02*
X113065989Y-107164787D01*
X113065989Y-107164787D02*
X113065989Y-108180116D01*
X113065989Y-108180116D02*
X113803895Y-108918022D01*
X115327997Y-109179224D02*
X115980000Y-109179224D01*
X115980000Y-109179224D02*
X115980000Y-110328000D01*
X115980000Y-110328000D02*
X115958000Y-110350000D01*
X115170000Y-105710000D02*
X114268519Y-106611481D01*
X114268519Y-106611481D02*
X113619295Y-106611481D01*
X115066795Y-108918022D02*
X115327997Y-109179224D01*
X118190000Y-105710000D02*
X118190000Y-106450000D01*
X118190000Y-106450000D02*
X118028519Y-106611481D01*
X116337745Y-106611481D02*
X116083738Y-106865488D01*
X115612960Y-106865488D02*
X115158000Y-107320448D01*
X116083738Y-106865488D02*
X115612960Y-106865488D01*
X118028519Y-106611481D02*
X116337745Y-106611481D01*
X115158000Y-107790000D02*
X115158000Y-107320448D01*
X115158000Y-109518775D02*
X115158000Y-110350000D01*
X114161552Y-105710000D02*
X112811978Y-107059573D01*
X114811258Y-109172033D02*
X115158000Y-109518775D01*
X113698681Y-109172033D02*
X114811258Y-109172033D01*
X114170000Y-105710000D02*
X114161552Y-105710000D01*
X112811978Y-108285330D02*
X113698681Y-109172033D01*
X112811978Y-107059573D02*
X112811978Y-108285330D01*
X117190000Y-105710000D02*
X116542530Y-106357470D01*
X116232530Y-106357470D02*
X115978524Y-106611477D01*
X114821501Y-107119499D02*
X114758000Y-107183000D01*
X115978524Y-106611477D02*
X115507747Y-106611477D01*
X116542530Y-106357470D02*
X116232530Y-106357470D01*
X114999726Y-107119499D02*
X114821501Y-107119499D01*
X115507747Y-106611477D02*
X114999726Y-107119499D01*
X114758000Y-107790000D02*
X114758000Y-107183000D01*
X113170000Y-105710000D02*
X113170000Y-106342326D01*
X112557967Y-108390544D02*
X113593467Y-109426044D01*
X112557967Y-106954359D02*
X112557967Y-108390544D01*
X113593467Y-109426044D02*
X114553300Y-109426044D01*
X114553300Y-109426044D02*
X114838223Y-109710967D01*
X114838223Y-110269777D02*
X114758000Y-110350000D01*
X114838223Y-109710967D02*
X114838223Y-110269777D01*
X113170000Y-106342326D02*
X112557967Y-106954359D01*
X114380000Y-76672000D02*
X114358000Y-76650000D01*
X114380000Y-76522000D02*
X114358000Y-76500000D01*
X114380000Y-77330000D02*
X114380000Y-76522000D01*
X115020000Y-77970000D02*
X114380000Y-77330000D01*
X115020000Y-78300000D02*
X115020000Y-77970000D01*
D25*
X95530000Y-85430000D02*
X95530000Y-84740000D01*
D26*
X110790000Y-88640000D02*
X108670000Y-88640000D01*
X110810000Y-88660000D02*
X110790000Y-88640000D01*
X108670000Y-88640000D02*
X108210000Y-89100000D01*
X127958000Y-110500000D02*
X127958000Y-111158000D01*
X127958000Y-111158000D02*
X127960000Y-111160000D01*
X125558000Y-107304001D02*
X125404057Y-107150058D01*
X125558000Y-107790000D02*
X125558000Y-107304001D01*
X112400000Y-92650000D02*
X111630000Y-92650000D01*
X111630000Y-92650000D02*
X110030000Y-94250000D01*
X125629281Y-108557770D02*
X125629281Y-108673581D01*
X125221489Y-108310489D02*
X125382000Y-108310489D01*
X125382000Y-108310489D02*
X125629281Y-108557770D01*
X125158000Y-108247000D02*
X125221489Y-108310489D01*
X125158000Y-107790000D02*
X125158000Y-108247000D01*
X125629281Y-108673581D02*
X125838780Y-108883080D01*
X128230000Y-109364164D02*
X128230000Y-109080000D01*
X127558000Y-110181405D02*
X127715893Y-110023512D01*
X128230000Y-109080000D02*
X128033080Y-108883080D01*
X128033080Y-108883080D02*
X125838780Y-108883080D01*
X127715893Y-110023512D02*
X127715893Y-109878271D01*
X127715893Y-109878271D02*
X128230000Y-109364164D01*
X127558000Y-110500000D02*
X127558000Y-110181405D01*
X125158000Y-110500000D02*
X125158000Y-109632088D01*
X125158000Y-109632088D02*
X125226893Y-109563195D01*
X126348163Y-110490163D02*
X126348163Y-109748163D01*
X126348163Y-109748163D02*
X126163195Y-109563195D01*
X126163195Y-109563195D02*
X125226893Y-109563195D01*
X126358000Y-110500000D02*
X126348163Y-110490163D01*
X125189999Y-108679223D02*
X125189999Y-108709990D01*
X124758000Y-107790000D02*
X124758000Y-108247224D01*
X124758000Y-108247224D02*
X125189999Y-108679223D01*
X126758000Y-110500000D02*
X126758000Y-109832000D01*
X126758000Y-109832000D02*
X126770000Y-109820000D01*
X124269037Y-109476491D02*
X124266227Y-109473681D01*
X124269037Y-110411037D02*
X124269037Y-109476491D01*
X124358000Y-110500000D02*
X124269037Y-110411037D01*
X125558000Y-110982000D02*
X125558000Y-110500000D01*
X125160000Y-111380000D02*
X125558000Y-110982000D01*
X124358000Y-110500000D02*
X124358000Y-110898000D01*
X124840000Y-111380000D02*
X125160000Y-111380000D01*
X124358000Y-110898000D02*
X124840000Y-111380000D01*
X108490000Y-93080000D02*
X108490000Y-93590511D01*
X108490000Y-93590511D02*
X108819489Y-93920000D01*
X123958000Y-110500000D02*
X123958000Y-109941320D01*
X123958000Y-109941320D02*
X123869036Y-109852356D01*
X123466215Y-109773216D02*
X123466215Y-109476939D01*
X123558000Y-110500000D02*
X123466215Y-110408215D01*
X123466215Y-110408215D02*
X123466215Y-109773216D01*
X122929705Y-109501354D02*
X122929705Y-109368926D01*
X123158000Y-110500000D02*
X123149078Y-110491078D01*
X123149078Y-110491078D02*
X123149078Y-109720727D01*
X123149078Y-109720727D02*
X122929705Y-109501354D01*
X122519899Y-109547480D02*
X122519899Y-109008111D01*
X122349066Y-110491066D02*
X122349066Y-109718313D01*
X122349066Y-109718313D02*
X122519899Y-109547480D01*
X122358000Y-110500000D02*
X122349066Y-110491066D01*
X121958000Y-110500000D02*
X121958000Y-110100445D01*
X122095055Y-109399970D02*
X122117670Y-109377355D01*
X121958000Y-110100445D02*
X122095055Y-109963390D01*
X122095055Y-109963390D02*
X122095055Y-109399970D01*
X121558000Y-110043000D02*
X121695054Y-109905946D01*
X121558000Y-110500000D02*
X121558000Y-110043000D01*
X121695054Y-109905946D02*
X121695054Y-109771389D01*
X120758000Y-107204522D02*
X120929511Y-107033011D01*
X120758000Y-107790000D02*
X120758000Y-107204522D01*
X120345359Y-108493357D02*
X120345359Y-108670028D01*
X119958000Y-108105998D02*
X120345359Y-108493357D01*
X119958000Y-107790000D02*
X119958000Y-108105998D01*
X119800012Y-108408785D02*
X119800012Y-108579596D01*
X119558000Y-107790000D02*
X119558000Y-108166773D01*
X119558000Y-108166773D02*
X119800012Y-108408785D01*
X119392094Y-108390092D02*
X119392094Y-108950017D01*
X119158000Y-107790000D02*
X119158000Y-108155998D01*
X119158000Y-108155998D02*
X119392094Y-108390092D01*
X118758000Y-107790000D02*
X118758000Y-108351376D01*
X118758000Y-108351376D02*
X118988686Y-108582062D01*
X129379964Y-75821036D02*
X129379964Y-75519475D01*
X129158000Y-76500000D02*
X129158000Y-76043000D01*
X129747322Y-75152117D02*
X130469827Y-75152117D01*
X129379964Y-75519475D02*
X129747322Y-75152117D01*
X129158000Y-76043000D02*
X129379964Y-75821036D01*
X132787994Y-74564512D02*
X134865615Y-74564512D01*
X132223002Y-75129504D02*
X132787994Y-74564512D01*
X130492440Y-75129504D02*
X132223002Y-75129504D01*
X136933195Y-74547967D02*
X137596834Y-73884328D01*
X134882160Y-74547967D02*
X136933195Y-74547967D01*
X134865615Y-74564512D02*
X134882160Y-74547967D01*
X130469827Y-75152117D02*
X130492440Y-75129504D01*
X130597654Y-75383515D02*
X132328216Y-75383515D01*
X129633975Y-75624689D02*
X129852536Y-75406128D01*
X134987374Y-74801978D02*
X137278022Y-74801978D01*
X137278022Y-74801978D02*
X138140000Y-73940000D01*
X134970829Y-74818523D02*
X134987374Y-74801978D01*
X132893208Y-74818523D02*
X134970829Y-74818523D01*
X132328216Y-75383515D02*
X132893208Y-74818523D01*
X130575041Y-75406128D02*
X130597654Y-75383515D01*
X129633975Y-76424025D02*
X129633975Y-75624689D01*
X129558000Y-76500000D02*
X129633975Y-76424025D01*
X129852536Y-75406128D02*
X130575041Y-75406128D01*
X138103899Y-75883732D02*
X138103899Y-76180009D01*
X132998422Y-75072534D02*
X135076043Y-75072534D01*
X135092588Y-75055989D02*
X137276156Y-75055989D01*
X137276156Y-75055989D02*
X138103899Y-75883732D01*
X130358000Y-76500000D02*
X130430990Y-76427010D01*
X135076043Y-75072534D02*
X135092588Y-75055989D01*
X130702868Y-75637526D02*
X132433430Y-75637526D01*
X132433430Y-75637526D02*
X132998422Y-75072534D01*
X130430990Y-76427010D02*
X130430990Y-75909404D01*
X130430990Y-75909404D02*
X130702868Y-75637526D01*
X135181257Y-75326545D02*
X135197802Y-75310000D01*
X130909463Y-75891537D02*
X132704751Y-75891537D01*
X136910000Y-75310000D02*
X137330501Y-75730501D01*
X130758000Y-76043000D02*
X130909463Y-75891537D01*
X133269743Y-75326545D02*
X135181257Y-75326545D01*
X130758000Y-76500000D02*
X130758000Y-76043000D01*
X132704751Y-75891537D02*
X133269743Y-75326545D01*
X137330501Y-75730501D02*
X137540000Y-75940000D01*
X135197802Y-75310000D02*
X136910000Y-75310000D01*
X131631000Y-77068001D02*
X131631000Y-77340606D01*
X131631000Y-77340606D02*
X132690394Y-78400000D01*
X131558000Y-76500000D02*
X131558000Y-76995001D01*
X132690394Y-78400000D02*
X137460000Y-78400000D01*
X131558000Y-76995001D02*
X131631000Y-77068001D01*
X137804000Y-78399994D02*
X137950000Y-78545994D01*
X137460006Y-78399994D02*
X137804000Y-78399994D01*
X137460000Y-78400000D02*
X137460006Y-78399994D01*
X132795607Y-78145989D02*
X137474011Y-78145989D01*
X131958000Y-77308382D02*
X132795607Y-78145989D01*
X131958000Y-76500000D02*
X131958000Y-77308382D01*
X137474011Y-78145989D02*
X137474016Y-78145994D01*
X137474016Y-78145994D02*
X137804000Y-78145994D01*
X137804000Y-78145994D02*
X137950000Y-77999994D01*
X131460000Y-80530394D02*
X132227394Y-79763000D01*
X131460000Y-82320000D02*
X131460000Y-80530394D01*
X125150000Y-85650000D02*
X126750000Y-84050000D01*
X124421039Y-87050010D02*
X124421039Y-86588961D01*
X124421039Y-86588961D02*
X125150000Y-85860000D01*
X125150000Y-85860000D02*
X125150000Y-85650000D01*
X128840000Y-84050000D02*
X129130000Y-83760000D01*
X126750000Y-84050000D02*
X128840000Y-84050000D01*
X130020000Y-83760000D02*
X131460000Y-82320000D01*
X129130000Y-83760000D02*
X130020000Y-83760000D01*
X132227394Y-79763000D02*
X133902606Y-79763000D01*
X133902606Y-79763000D02*
X134792606Y-80653000D01*
X138166959Y-80513435D02*
X138166959Y-80306959D01*
X134792606Y-80653000D02*
X138027394Y-80653000D01*
X138027394Y-80653000D02*
X138166959Y-80513435D01*
X137356019Y-77767000D02*
X133127394Y-77767000D01*
X133127394Y-77767000D02*
X132880831Y-77520437D01*
X132758000Y-76810024D02*
X132758000Y-76500000D01*
X132880831Y-77520437D02*
X132880831Y-76932855D01*
X137792243Y-77330776D02*
X137356019Y-77767000D01*
X132880831Y-76932855D02*
X132758000Y-76810024D01*
X123610000Y-87850000D02*
X124019999Y-87440001D01*
X135667393Y-80227000D02*
X137654914Y-80227000D01*
X131027000Y-79392606D02*
X131472606Y-78947000D01*
X129732607Y-83317000D02*
X131027000Y-82022607D01*
X128592607Y-83657000D02*
X128932607Y-83317000D01*
X138002284Y-72702677D02*
X133388323Y-72702677D01*
X128932607Y-83317000D02*
X129732607Y-83317000D01*
X137654914Y-80227000D02*
X139037000Y-78844914D01*
X124019999Y-87440001D02*
X124019999Y-86270001D01*
X132758000Y-73333000D02*
X132758000Y-73790000D01*
X139037000Y-73737393D02*
X138002284Y-72702677D01*
X124019999Y-86270001D02*
X126633000Y-83657000D01*
X139037000Y-78844914D02*
X139037000Y-73737393D01*
X133388323Y-72702677D02*
X132758000Y-73333000D01*
X131472606Y-78947000D02*
X134387394Y-78947000D01*
X131027000Y-82022607D02*
X131027000Y-79392606D01*
X126633000Y-83657000D02*
X128592607Y-83657000D01*
X134387394Y-78947000D02*
X135667393Y-80227000D01*
X125200000Y-86169224D02*
X127056224Y-84313000D01*
X128946225Y-84313000D02*
X129245214Y-84014011D01*
X127056224Y-84313000D02*
X128946225Y-84313000D01*
X130125214Y-84014011D02*
X131720000Y-82419225D01*
X131720000Y-82419225D02*
X131720000Y-80629606D01*
X131720000Y-80629606D02*
X132332606Y-80017000D01*
X129245214Y-84014011D02*
X130125214Y-84014011D01*
X125200000Y-86840000D02*
X125200000Y-86169224D01*
X132332606Y-80017000D02*
X133797394Y-80017000D01*
X133797394Y-80017000D02*
X134687394Y-80907000D01*
X138132606Y-80907000D02*
X138346565Y-80693041D01*
X134687394Y-80907000D02*
X138132606Y-80907000D01*
X138346565Y-80693041D02*
X138553041Y-80693041D01*
X136837866Y-77512989D02*
X133232607Y-77512989D01*
X137406161Y-76944694D02*
X136837866Y-77512989D01*
X133232607Y-77512989D02*
X133134842Y-77415224D01*
X133134842Y-76523158D02*
X133158000Y-76500000D01*
X133134842Y-77415224D02*
X133134842Y-76523158D01*
X138782989Y-73842607D02*
X137897070Y-72956688D01*
X133534312Y-72956688D02*
X133158000Y-73333000D01*
X133158000Y-73333000D02*
X133158000Y-73790000D01*
X137897070Y-72956688D02*
X133534312Y-72956688D01*
X131367392Y-78692989D02*
X134492608Y-78692989D01*
X134492608Y-78692989D02*
X135772607Y-79972989D01*
X123600000Y-86130000D02*
X123760000Y-86130000D01*
X138782989Y-78739700D02*
X138782989Y-73842607D01*
X128487393Y-83402989D02*
X128827393Y-83062989D01*
X123760000Y-86130000D02*
X126487011Y-83402989D01*
X135772607Y-79972989D02*
X137549700Y-79972989D01*
X130772989Y-79287392D02*
X131367392Y-78692989D01*
X126487011Y-83402989D02*
X128487393Y-83402989D01*
X129627393Y-83062989D02*
X130772989Y-81917393D01*
X130772989Y-81917393D02*
X130772989Y-79287392D01*
X137549700Y-79972989D02*
X138782989Y-78739700D01*
X128827393Y-83062989D02*
X129627393Y-83062989D01*
X126358000Y-108163575D02*
X126523536Y-108329111D01*
X126358000Y-107790000D02*
X126358000Y-108163575D01*
X126523536Y-108329111D02*
X126523536Y-108482739D01*
X109355809Y-110030723D02*
X109923041Y-110030723D01*
X109923041Y-110030723D02*
X110222809Y-109730955D01*
X106484973Y-107159887D02*
X109355809Y-110030723D01*
X106484973Y-106863610D02*
X106484973Y-107159887D01*
X123558000Y-107790000D02*
X123558000Y-107282037D01*
X123558000Y-107282037D02*
X123795619Y-107044418D01*
X126358000Y-106940060D02*
X126358000Y-107790000D01*
X126141423Y-106723483D02*
X126358000Y-106940060D01*
X126141423Y-106721423D02*
X126141423Y-106723483D01*
X125910001Y-106490001D02*
X126141423Y-106721423D01*
X125404010Y-106485990D02*
X125408021Y-106490001D01*
X124586825Y-106485990D02*
X125404010Y-106485990D01*
X123795619Y-107044418D02*
X124028397Y-107044418D01*
X124028397Y-107044418D02*
X124586825Y-106485990D01*
X125408021Y-106490001D02*
X125910001Y-106490001D01*
X122410000Y-96830000D02*
X123090000Y-97510000D01*
X125150000Y-97510000D02*
X130040034Y-102400034D01*
X122410000Y-95480270D02*
X122410000Y-96830000D01*
X122019625Y-95089895D02*
X122410000Y-95480270D01*
X130040034Y-102400034D02*
X130040034Y-103115024D01*
X123090000Y-97510000D02*
X125150000Y-97510000D01*
X125949422Y-107123484D02*
X125569949Y-106744011D01*
X123958000Y-107474039D02*
X123958000Y-107790000D01*
X125569949Y-106744011D02*
X124688028Y-106744011D01*
X124688028Y-106744011D02*
X123958000Y-107474039D01*
M02*
