G04 #@! TF.GenerationSoftware,KiCad,Pcbnew,5.1.9+dfsg1-1~bpo10+1*
G04 #@! TF.CreationDate,2021-11-14T15:52:16+01:00*
G04 #@! TF.ProjectId,ulx4m,756c7834-6d2e-46b6-9963-61645f706362,v0.0.2*
G04 #@! TF.SameCoordinates,Original*
G04 #@! TF.FileFunction,Soldermask,Bot*
G04 #@! TF.FilePolarity,Negative*
%FSLAX46Y46*%
G04 Gerber Fmt 4.6, Leading zero omitted, Abs format (unit mm)*
G04 Created by KiCad (PCBNEW 5.1.9+dfsg1-1~bpo10+1) date 2021-11-14 15:52:16*
%MOMM*%
%LPD*%
G01*
G04 APERTURE LIST*
%ADD10C,1.200000*%
%ADD11R,0.230000X0.660000*%
%ADD12R,0.350000X0.660000*%
%ADD13C,3.300000*%
%ADD14R,1.500000X2.700000*%
%ADD15R,0.700000X1.200000*%
%ADD16R,0.600000X0.450000*%
%ADD17R,0.450000X0.600000*%
%ADD18C,0.100000*%
%ADD19R,1.000000X1.000000*%
%ADD20O,1.350000X1.350000*%
%ADD21R,1.350000X1.350000*%
G04 APERTURE END LIST*
D10*
X137050000Y-101315000D02*
X135050000Y-101315000D01*
X139934001Y-81967000D02*
X137934001Y-81967000D01*
X102740000Y-85300000D02*
X104740000Y-85300000D01*
G36*
G01*
X97842391Y-101752807D02*
X98082807Y-101512391D01*
G75*
G02*
X98280797Y-101512391I98995J-98995D01*
G01*
X98478787Y-101710381D01*
G75*
G02*
X98478787Y-101908371I-98995J-98995D01*
G01*
X98238371Y-102148787D01*
G75*
G02*
X98040381Y-102148787I-98995J98995D01*
G01*
X97842391Y-101950797D01*
G75*
G02*
X97842391Y-101752807I98995J98995D01*
G01*
G37*
G36*
G01*
X98521213Y-102431629D02*
X98761629Y-102191213D01*
G75*
G02*
X98959619Y-102191213I98995J-98995D01*
G01*
X99157609Y-102389203D01*
G75*
G02*
X99157609Y-102587193I-98995J-98995D01*
G01*
X98917193Y-102827609D01*
G75*
G02*
X98719203Y-102827609I-98995J98995D01*
G01*
X98521213Y-102629619D01*
G75*
G02*
X98521213Y-102431629I98995J98995D01*
G01*
G37*
D11*
X133958000Y-107790000D03*
X133958000Y-110500000D03*
X133558000Y-107790000D03*
X133558000Y-110500000D03*
X133158000Y-107790000D03*
X133158000Y-110500000D03*
X132758000Y-107790000D03*
X132758000Y-110500000D03*
X132358000Y-107790000D03*
X132358000Y-110500000D03*
X131958000Y-107790000D03*
X131958000Y-110500000D03*
X131558000Y-107790000D03*
X131558000Y-110500000D03*
X131158000Y-107790000D03*
X131158000Y-110500000D03*
X130758000Y-107790000D03*
X130758000Y-110500000D03*
X130358000Y-107790000D03*
X130358000Y-110500000D03*
X129958000Y-107790000D03*
X129958000Y-110500000D03*
X129558000Y-107790000D03*
X129558000Y-110500000D03*
X129158000Y-107790000D03*
X129158000Y-110500000D03*
X128758000Y-107790000D03*
X128758000Y-110500000D03*
X128358000Y-107790000D03*
X128358000Y-110500000D03*
X127958000Y-107790000D03*
X127958000Y-110500000D03*
X127558000Y-107790000D03*
X127558000Y-110500000D03*
X127158000Y-107790000D03*
X127158000Y-110500000D03*
X126758000Y-107790000D03*
X126758000Y-110500000D03*
X126358000Y-107790000D03*
X126358000Y-110500000D03*
X125958000Y-107790000D03*
X125958000Y-110500000D03*
X125558000Y-107790000D03*
X125558000Y-110500000D03*
X125158000Y-107790000D03*
X125158000Y-110500000D03*
X124758000Y-107790000D03*
X124758000Y-110500000D03*
X124358000Y-107790000D03*
X124358000Y-110500000D03*
X123958000Y-107790000D03*
X123958000Y-110500000D03*
X123558000Y-107790000D03*
X123558000Y-110500000D03*
X123158000Y-107790000D03*
X123158000Y-110500000D03*
X122758000Y-107790000D03*
X122758000Y-110500000D03*
X122358000Y-107790000D03*
X122358000Y-110500000D03*
X121958000Y-107790000D03*
X121958000Y-110500000D03*
X121558000Y-107790000D03*
X121558000Y-110500000D03*
X121158000Y-107790000D03*
X121158000Y-110500000D03*
X120758000Y-107790000D03*
X120758000Y-110500000D03*
X120358000Y-107790000D03*
X120358000Y-110500000D03*
X119958000Y-107790000D03*
X119958000Y-110500000D03*
X119558000Y-107790000D03*
X119558000Y-110500000D03*
X119158000Y-107790000D03*
X119158000Y-110500000D03*
X118758000Y-107790000D03*
X118758000Y-110500000D03*
X118358000Y-107790000D03*
X118358000Y-110500000D03*
D12*
X134433000Y-110500000D03*
X134433000Y-107790000D03*
X113883000Y-110500000D03*
X113883000Y-107790000D03*
D11*
X117958000Y-107790000D03*
X117958000Y-110500000D03*
X117558000Y-107790000D03*
X117558000Y-110500000D03*
X117158000Y-107790000D03*
X117158000Y-110500000D03*
X116758000Y-107790000D03*
X116758000Y-110500000D03*
X116358000Y-107790000D03*
X116358000Y-110500000D03*
X115958000Y-107790000D03*
X115958000Y-110500000D03*
X115558000Y-107790000D03*
X115558000Y-110500000D03*
X115158000Y-107790000D03*
X115158000Y-110500000D03*
X114758000Y-107790000D03*
X114758000Y-110500000D03*
X114358000Y-107790000D03*
X114358000Y-110500000D03*
D13*
X97620000Y-75644999D03*
X145620000Y-75645000D03*
X145620000Y-108720000D03*
X97619999Y-108723599D03*
G36*
G01*
X135730000Y-100938750D02*
X135730000Y-101691250D01*
G75*
G02*
X135406250Y-102015000I-323750J0D01*
G01*
X134758750Y-102015000D01*
G75*
G02*
X134435000Y-101691250I0J323750D01*
G01*
X134435000Y-100938750D01*
G75*
G02*
X134758750Y-100615000I323750J0D01*
G01*
X135406250Y-100615000D01*
G75*
G02*
X135730000Y-100938750I0J-323750D01*
G01*
G37*
G36*
G01*
X137665000Y-100938750D02*
X137665000Y-101691250D01*
G75*
G02*
X137341250Y-102015000I-323750J0D01*
G01*
X136693750Y-102015000D01*
G75*
G02*
X136370000Y-101691250I0J323750D01*
G01*
X136370000Y-100938750D01*
G75*
G02*
X136693750Y-100615000I323750J0D01*
G01*
X137341250Y-100615000D01*
G75*
G02*
X137665000Y-100938750I0J-323750D01*
G01*
G37*
G36*
G01*
X138614001Y-81590750D02*
X138614001Y-82343250D01*
G75*
G02*
X138290251Y-82667000I-323750J0D01*
G01*
X137642751Y-82667000D01*
G75*
G02*
X137319001Y-82343250I0J323750D01*
G01*
X137319001Y-81590750D01*
G75*
G02*
X137642751Y-81267000I323750J0D01*
G01*
X138290251Y-81267000D01*
G75*
G02*
X138614001Y-81590750I0J-323750D01*
G01*
G37*
G36*
G01*
X140549001Y-81590750D02*
X140549001Y-82343250D01*
G75*
G02*
X140225251Y-82667000I-323750J0D01*
G01*
X139577751Y-82667000D01*
G75*
G02*
X139254001Y-82343250I0J323750D01*
G01*
X139254001Y-81590750D01*
G75*
G02*
X139577751Y-81267000I323750J0D01*
G01*
X140225251Y-81267000D01*
G75*
G02*
X140549001Y-81590750I0J-323750D01*
G01*
G37*
G36*
G01*
X102125000Y-85676250D02*
X102125000Y-84923750D01*
G75*
G02*
X102448750Y-84600000I323750J0D01*
G01*
X103096250Y-84600000D01*
G75*
G02*
X103420000Y-84923750I0J-323750D01*
G01*
X103420000Y-85676250D01*
G75*
G02*
X103096250Y-86000000I-323750J0D01*
G01*
X102448750Y-86000000D01*
G75*
G02*
X102125000Y-85676250I0J323750D01*
G01*
G37*
G36*
G01*
X104060000Y-85676250D02*
X104060000Y-84923750D01*
G75*
G02*
X104383750Y-84600000I323750J0D01*
G01*
X105031250Y-84600000D01*
G75*
G02*
X105355000Y-84923750I0J-323750D01*
G01*
X105355000Y-85676250D01*
G75*
G02*
X105031250Y-86000000I-323750J0D01*
G01*
X104383750Y-86000000D01*
G75*
G02*
X104060000Y-85676250I0J323750D01*
G01*
G37*
D14*
X144475001Y-81350000D03*
X141935001Y-81350000D03*
X141580000Y-100690000D03*
X139040000Y-100690000D03*
X98210000Y-85925000D03*
X100750000Y-85925000D03*
G36*
G01*
X105075000Y-76348750D02*
X105075000Y-76861250D01*
G75*
G02*
X104856250Y-77080000I-218750J0D01*
G01*
X104418750Y-77080000D01*
G75*
G02*
X104200000Y-76861250I0J218750D01*
G01*
X104200000Y-76348750D01*
G75*
G02*
X104418750Y-76130000I218750J0D01*
G01*
X104856250Y-76130000D01*
G75*
G02*
X105075000Y-76348750I0J-218750D01*
G01*
G37*
G36*
G01*
X106650000Y-76348750D02*
X106650000Y-76861250D01*
G75*
G02*
X106431250Y-77080000I-218750J0D01*
G01*
X105993750Y-77080000D01*
G75*
G02*
X105775000Y-76861250I0J218750D01*
G01*
X105775000Y-76348750D01*
G75*
G02*
X105993750Y-76130000I218750J0D01*
G01*
X106431250Y-76130000D01*
G75*
G02*
X106650000Y-76348750I0J-218750D01*
G01*
G37*
G36*
G01*
X139830000Y-94006250D02*
X139830000Y-93493750D01*
G75*
G02*
X140048750Y-93275000I218750J0D01*
G01*
X140486250Y-93275000D01*
G75*
G02*
X140705000Y-93493750I0J-218750D01*
G01*
X140705000Y-94006250D01*
G75*
G02*
X140486250Y-94225000I-218750J0D01*
G01*
X140048750Y-94225000D01*
G75*
G02*
X139830000Y-94006250I0J218750D01*
G01*
G37*
G36*
G01*
X138255000Y-94006250D02*
X138255000Y-93493750D01*
G75*
G02*
X138473750Y-93275000I218750J0D01*
G01*
X138911250Y-93275000D01*
G75*
G02*
X139130000Y-93493750I0J-218750D01*
G01*
X139130000Y-94006250D01*
G75*
G02*
X138911250Y-94225000I-218750J0D01*
G01*
X138473750Y-94225000D01*
G75*
G02*
X138255000Y-94006250I0J218750D01*
G01*
G37*
G36*
G01*
X111283750Y-107990000D02*
X111796250Y-107990000D01*
G75*
G02*
X112015000Y-108208750I0J-218750D01*
G01*
X112015000Y-108646250D01*
G75*
G02*
X111796250Y-108865000I-218750J0D01*
G01*
X111283750Y-108865000D01*
G75*
G02*
X111065000Y-108646250I0J218750D01*
G01*
X111065000Y-108208750D01*
G75*
G02*
X111283750Y-107990000I218750J0D01*
G01*
G37*
G36*
G01*
X111283750Y-106415000D02*
X111796250Y-106415000D01*
G75*
G02*
X112015000Y-106633750I0J-218750D01*
G01*
X112015000Y-107071250D01*
G75*
G02*
X111796250Y-107290000I-218750J0D01*
G01*
X111283750Y-107290000D01*
G75*
G02*
X111065000Y-107071250I0J218750D01*
G01*
X111065000Y-106633750D01*
G75*
G02*
X111283750Y-106415000I218750J0D01*
G01*
G37*
G36*
G01*
X109723750Y-107990000D02*
X110236250Y-107990000D01*
G75*
G02*
X110455000Y-108208750I0J-218750D01*
G01*
X110455000Y-108646250D01*
G75*
G02*
X110236250Y-108865000I-218750J0D01*
G01*
X109723750Y-108865000D01*
G75*
G02*
X109505000Y-108646250I0J218750D01*
G01*
X109505000Y-108208750D01*
G75*
G02*
X109723750Y-107990000I218750J0D01*
G01*
G37*
G36*
G01*
X109723750Y-106415000D02*
X110236250Y-106415000D01*
G75*
G02*
X110455000Y-106633750I0J-218750D01*
G01*
X110455000Y-107071250D01*
G75*
G02*
X110236250Y-107290000I-218750J0D01*
G01*
X109723750Y-107290000D01*
G75*
G02*
X109505000Y-107071250I0J218750D01*
G01*
X109505000Y-106633750D01*
G75*
G02*
X109723750Y-106415000I218750J0D01*
G01*
G37*
D15*
X143525000Y-83860000D03*
X144475000Y-83860000D03*
X145425000Y-83860000D03*
X145425000Y-86460000D03*
X143525000Y-86460000D03*
G36*
G01*
X102143750Y-75850000D02*
X102656250Y-75850000D01*
G75*
G02*
X102875000Y-76068750I0J-218750D01*
G01*
X102875000Y-76506250D01*
G75*
G02*
X102656250Y-76725000I-218750J0D01*
G01*
X102143750Y-76725000D01*
G75*
G02*
X101925000Y-76506250I0J218750D01*
G01*
X101925000Y-76068750D01*
G75*
G02*
X102143750Y-75850000I218750J0D01*
G01*
G37*
G36*
G01*
X102143750Y-74275000D02*
X102656250Y-74275000D01*
G75*
G02*
X102875000Y-74493750I0J-218750D01*
G01*
X102875000Y-74931250D01*
G75*
G02*
X102656250Y-75150000I-218750J0D01*
G01*
X102143750Y-75150000D01*
G75*
G02*
X101925000Y-74931250I0J218750D01*
G01*
X101925000Y-74493750D01*
G75*
G02*
X102143750Y-74275000I218750J0D01*
G01*
G37*
X140630000Y-103200000D03*
X141580000Y-103200000D03*
X142530000Y-103200000D03*
X142530000Y-105800000D03*
X140630000Y-105800000D03*
X99160000Y-83415000D03*
X98210000Y-83415000D03*
X97260000Y-83415000D03*
X97260000Y-80815000D03*
X99160000Y-80815000D03*
G36*
G01*
X96990000Y-79335000D02*
X96990000Y-78835000D01*
G75*
G02*
X97215000Y-78610000I225000J0D01*
G01*
X97665000Y-78610000D01*
G75*
G02*
X97890000Y-78835000I0J-225000D01*
G01*
X97890000Y-79335000D01*
G75*
G02*
X97665000Y-79560000I-225000J0D01*
G01*
X97215000Y-79560000D01*
G75*
G02*
X96990000Y-79335000I0J225000D01*
G01*
G37*
G36*
G01*
X98540000Y-79335000D02*
X98540000Y-78835000D01*
G75*
G02*
X98765000Y-78610000I225000J0D01*
G01*
X99215000Y-78610000D01*
G75*
G02*
X99440000Y-78835000I0J-225000D01*
G01*
X99440000Y-79335000D01*
G75*
G02*
X99215000Y-79560000I-225000J0D01*
G01*
X98765000Y-79560000D01*
G75*
G02*
X98540000Y-79335000I0J225000D01*
G01*
G37*
G36*
G01*
X137850001Y-107535000D02*
X137850001Y-107195000D01*
G75*
G02*
X137990001Y-107055000I140000J0D01*
G01*
X138270001Y-107055000D01*
G75*
G02*
X138410001Y-107195000I0J-140000D01*
G01*
X138410001Y-107535000D01*
G75*
G02*
X138270001Y-107675000I-140000J0D01*
G01*
X137990001Y-107675000D01*
G75*
G02*
X137850001Y-107535000I0J140000D01*
G01*
G37*
G36*
G01*
X136890001Y-107535000D02*
X136890001Y-107195000D01*
G75*
G02*
X137030001Y-107055000I140000J0D01*
G01*
X137310001Y-107055000D01*
G75*
G02*
X137450001Y-107195000I0J-140000D01*
G01*
X137450001Y-107535000D01*
G75*
G02*
X137310001Y-107675000I-140000J0D01*
G01*
X137030001Y-107675000D01*
G75*
G02*
X136890001Y-107535000I0J140000D01*
G01*
G37*
G36*
G01*
X136500000Y-105239999D02*
X136500000Y-104739999D01*
G75*
G02*
X136725000Y-104514999I225000J0D01*
G01*
X137175000Y-104514999D01*
G75*
G02*
X137400000Y-104739999I0J-225000D01*
G01*
X137400000Y-105239999D01*
G75*
G02*
X137175000Y-105464999I-225000J0D01*
G01*
X136725000Y-105464999D01*
G75*
G02*
X136500000Y-105239999I0J225000D01*
G01*
G37*
G36*
G01*
X138050000Y-105239999D02*
X138050000Y-104739999D01*
G75*
G02*
X138275000Y-104514999I225000J0D01*
G01*
X138725000Y-104514999D01*
G75*
G02*
X138950000Y-104739999I0J-225000D01*
G01*
X138950000Y-105239999D01*
G75*
G02*
X138725000Y-105464999I-225000J0D01*
G01*
X138275000Y-105464999D01*
G75*
G02*
X138050000Y-105239999I0J225000D01*
G01*
G37*
G36*
G01*
X138040000Y-103605000D02*
X138040000Y-103105000D01*
G75*
G02*
X138265000Y-102880000I225000J0D01*
G01*
X138715000Y-102880000D01*
G75*
G02*
X138940000Y-103105000I0J-225000D01*
G01*
X138940000Y-103605000D01*
G75*
G02*
X138715000Y-103830000I-225000J0D01*
G01*
X138265000Y-103830000D01*
G75*
G02*
X138040000Y-103605000I0J225000D01*
G01*
G37*
G36*
G01*
X136490000Y-103605000D02*
X136490000Y-103105000D01*
G75*
G02*
X136715000Y-102880000I225000J0D01*
G01*
X137165000Y-102880000D01*
G75*
G02*
X137390000Y-103105000I0J-225000D01*
G01*
X137390000Y-103605000D01*
G75*
G02*
X137165000Y-103830000I-225000J0D01*
G01*
X136715000Y-103830000D01*
G75*
G02*
X136490000Y-103605000I0J225000D01*
G01*
G37*
G36*
G01*
X142800000Y-107280000D02*
X142800000Y-107780000D01*
G75*
G02*
X142575000Y-108005000I-225000J0D01*
G01*
X142125000Y-108005000D01*
G75*
G02*
X141900000Y-107780000I0J225000D01*
G01*
X141900000Y-107280000D01*
G75*
G02*
X142125000Y-107055000I225000J0D01*
G01*
X142575000Y-107055000D01*
G75*
G02*
X142800000Y-107280000I0J-225000D01*
G01*
G37*
G36*
G01*
X141250000Y-107280000D02*
X141250000Y-107780000D01*
G75*
G02*
X141025000Y-108005000I-225000J0D01*
G01*
X140575000Y-108005000D01*
G75*
G02*
X140350000Y-107780000I0J225000D01*
G01*
X140350000Y-107280000D01*
G75*
G02*
X140575000Y-107055000I225000J0D01*
G01*
X141025000Y-107055000D01*
G75*
G02*
X141250000Y-107280000I0J-225000D01*
G01*
G37*
G36*
G01*
X139785000Y-88194999D02*
X139785000Y-87854999D01*
G75*
G02*
X139925000Y-87714999I140000J0D01*
G01*
X140205000Y-87714999D01*
G75*
G02*
X140345000Y-87854999I0J-140000D01*
G01*
X140345000Y-88194999D01*
G75*
G02*
X140205000Y-88334999I-140000J0D01*
G01*
X139925000Y-88334999D01*
G75*
G02*
X139785000Y-88194999I0J140000D01*
G01*
G37*
G36*
G01*
X140745000Y-88194999D02*
X140745000Y-87854999D01*
G75*
G02*
X140885000Y-87714999I140000J0D01*
G01*
X141165000Y-87714999D01*
G75*
G02*
X141305000Y-87854999I0J-140000D01*
G01*
X141305000Y-88194999D01*
G75*
G02*
X141165000Y-88334999I-140000J0D01*
G01*
X140885000Y-88334999D01*
G75*
G02*
X140745000Y-88194999I0J140000D01*
G01*
G37*
G36*
G01*
X140945001Y-85900001D02*
X140945001Y-85400001D01*
G75*
G02*
X141170001Y-85175001I225000J0D01*
G01*
X141620001Y-85175001D01*
G75*
G02*
X141845001Y-85400001I0J-225000D01*
G01*
X141845001Y-85900001D01*
G75*
G02*
X141620001Y-86125001I-225000J0D01*
G01*
X141170001Y-86125001D01*
G75*
G02*
X140945001Y-85900001I0J225000D01*
G01*
G37*
G36*
G01*
X139395001Y-85900001D02*
X139395001Y-85400001D01*
G75*
G02*
X139620001Y-85175001I225000J0D01*
G01*
X140070001Y-85175001D01*
G75*
G02*
X140295001Y-85400001I0J-225000D01*
G01*
X140295001Y-85900001D01*
G75*
G02*
X140070001Y-86125001I-225000J0D01*
G01*
X139620001Y-86125001D01*
G75*
G02*
X139395001Y-85900001I0J225000D01*
G01*
G37*
G36*
G01*
X139385001Y-84265000D02*
X139385001Y-83765000D01*
G75*
G02*
X139610001Y-83540000I225000J0D01*
G01*
X140060001Y-83540000D01*
G75*
G02*
X140285001Y-83765000I0J-225000D01*
G01*
X140285001Y-84265000D01*
G75*
G02*
X140060001Y-84490000I-225000J0D01*
G01*
X139610001Y-84490000D01*
G75*
G02*
X139385001Y-84265000I0J225000D01*
G01*
G37*
G36*
G01*
X140935001Y-84265000D02*
X140935001Y-83765000D01*
G75*
G02*
X141160001Y-83540000I225000J0D01*
G01*
X141610001Y-83540000D01*
G75*
G02*
X141835001Y-83765000I0J-225000D01*
G01*
X141835001Y-84265000D01*
G75*
G02*
X141610001Y-84490000I-225000J0D01*
G01*
X141160001Y-84490000D01*
G75*
G02*
X140935001Y-84265000I0J225000D01*
G01*
G37*
G36*
G01*
X145695000Y-87940000D02*
X145695000Y-88440000D01*
G75*
G02*
X145470000Y-88665000I-225000J0D01*
G01*
X145020000Y-88665000D01*
G75*
G02*
X144795000Y-88440000I0J225000D01*
G01*
X144795000Y-87940000D01*
G75*
G02*
X145020000Y-87715000I225000J0D01*
G01*
X145470000Y-87715000D01*
G75*
G02*
X145695000Y-87940000I0J-225000D01*
G01*
G37*
G36*
G01*
X144145000Y-87940000D02*
X144145000Y-88440000D01*
G75*
G02*
X143920000Y-88665000I-225000J0D01*
G01*
X143470000Y-88665000D01*
G75*
G02*
X143245000Y-88440000I0J225000D01*
G01*
X143245000Y-87940000D01*
G75*
G02*
X143470000Y-87715000I225000J0D01*
G01*
X143920000Y-87715000D01*
G75*
G02*
X144145000Y-87940000I0J-225000D01*
G01*
G37*
G36*
G01*
X102900000Y-79080000D02*
X102900000Y-79420000D01*
G75*
G02*
X102760000Y-79560000I-140000J0D01*
G01*
X102480000Y-79560000D01*
G75*
G02*
X102340000Y-79420000I0J140000D01*
G01*
X102340000Y-79080000D01*
G75*
G02*
X102480000Y-78940000I140000J0D01*
G01*
X102760000Y-78940000D01*
G75*
G02*
X102900000Y-79080000I0J-140000D01*
G01*
G37*
G36*
G01*
X101940000Y-79080000D02*
X101940000Y-79420000D01*
G75*
G02*
X101800000Y-79560000I-140000J0D01*
G01*
X101520000Y-79560000D01*
G75*
G02*
X101380000Y-79420000I0J140000D01*
G01*
X101380000Y-79080000D01*
G75*
G02*
X101520000Y-78940000I140000J0D01*
G01*
X101800000Y-78940000D01*
G75*
G02*
X101940000Y-79080000I0J-140000D01*
G01*
G37*
G36*
G01*
X101740000Y-81375000D02*
X101740000Y-81875000D01*
G75*
G02*
X101515000Y-82100000I-225000J0D01*
G01*
X101065000Y-82100000D01*
G75*
G02*
X100840000Y-81875000I0J225000D01*
G01*
X100840000Y-81375000D01*
G75*
G02*
X101065000Y-81150000I225000J0D01*
G01*
X101515000Y-81150000D01*
G75*
G02*
X101740000Y-81375000I0J-225000D01*
G01*
G37*
G36*
G01*
X103290000Y-81375000D02*
X103290000Y-81875000D01*
G75*
G02*
X103065000Y-82100000I-225000J0D01*
G01*
X102615000Y-82100000D01*
G75*
G02*
X102390000Y-81875000I0J225000D01*
G01*
X102390000Y-81375000D01*
G75*
G02*
X102615000Y-81150000I225000J0D01*
G01*
X103065000Y-81150000D01*
G75*
G02*
X103290000Y-81375000I0J-225000D01*
G01*
G37*
G36*
G01*
X103300000Y-83010000D02*
X103300000Y-83510000D01*
G75*
G02*
X103075000Y-83735000I-225000J0D01*
G01*
X102625000Y-83735000D01*
G75*
G02*
X102400000Y-83510000I0J225000D01*
G01*
X102400000Y-83010000D01*
G75*
G02*
X102625000Y-82785000I225000J0D01*
G01*
X103075000Y-82785000D01*
G75*
G02*
X103300000Y-83010000I0J-225000D01*
G01*
G37*
G36*
G01*
X101750000Y-83010000D02*
X101750000Y-83510000D01*
G75*
G02*
X101525000Y-83735000I-225000J0D01*
G01*
X101075000Y-83735000D01*
G75*
G02*
X100850000Y-83510000I0J225000D01*
G01*
X100850000Y-83010000D01*
G75*
G02*
X101075000Y-82785000I225000J0D01*
G01*
X101525000Y-82785000D01*
G75*
G02*
X101750000Y-83010000I0J-225000D01*
G01*
G37*
G36*
G01*
X134165000Y-97940000D02*
X134165000Y-97440000D01*
G75*
G02*
X134390000Y-97215000I225000J0D01*
G01*
X134840000Y-97215000D01*
G75*
G02*
X135065000Y-97440000I0J-225000D01*
G01*
X135065000Y-97940000D01*
G75*
G02*
X134840000Y-98165000I-225000J0D01*
G01*
X134390000Y-98165000D01*
G75*
G02*
X134165000Y-97940000I0J225000D01*
G01*
G37*
G36*
G01*
X132615000Y-97940000D02*
X132615000Y-97440000D01*
G75*
G02*
X132840000Y-97215000I225000J0D01*
G01*
X133290000Y-97215000D01*
G75*
G02*
X133515000Y-97440000I0J-225000D01*
G01*
X133515000Y-97940000D01*
G75*
G02*
X133290000Y-98165000I-225000J0D01*
G01*
X132840000Y-98165000D01*
G75*
G02*
X132615000Y-97940000I0J225000D01*
G01*
G37*
G36*
G01*
X116980000Y-98395000D02*
X117480000Y-98395000D01*
G75*
G02*
X117705000Y-98620000I0J-225000D01*
G01*
X117705000Y-99070000D01*
G75*
G02*
X117480000Y-99295000I-225000J0D01*
G01*
X116980000Y-99295000D01*
G75*
G02*
X116755000Y-99070000I0J225000D01*
G01*
X116755000Y-98620000D01*
G75*
G02*
X116980000Y-98395000I225000J0D01*
G01*
G37*
G36*
G01*
X116980000Y-96845000D02*
X117480000Y-96845000D01*
G75*
G02*
X117705000Y-97070000I0J-225000D01*
G01*
X117705000Y-97520000D01*
G75*
G02*
X117480000Y-97745000I-225000J0D01*
G01*
X116980000Y-97745000D01*
G75*
G02*
X116755000Y-97520000I0J225000D01*
G01*
X116755000Y-97070000D01*
G75*
G02*
X116980000Y-96845000I225000J0D01*
G01*
G37*
G36*
G01*
X117480000Y-89095000D02*
X116980000Y-89095000D01*
G75*
G02*
X116755000Y-88870000I0J225000D01*
G01*
X116755000Y-88420000D01*
G75*
G02*
X116980000Y-88195000I225000J0D01*
G01*
X117480000Y-88195000D01*
G75*
G02*
X117705000Y-88420000I0J-225000D01*
G01*
X117705000Y-88870000D01*
G75*
G02*
X117480000Y-89095000I-225000J0D01*
G01*
G37*
G36*
G01*
X117480000Y-87545000D02*
X116980000Y-87545000D01*
G75*
G02*
X116755000Y-87320000I0J225000D01*
G01*
X116755000Y-86870000D01*
G75*
G02*
X116980000Y-86645000I225000J0D01*
G01*
X117480000Y-86645000D01*
G75*
G02*
X117705000Y-86870000I0J-225000D01*
G01*
X117705000Y-87320000D01*
G75*
G02*
X117480000Y-87545000I-225000J0D01*
G01*
G37*
G36*
G01*
X116980000Y-93395000D02*
X117480000Y-93395000D01*
G75*
G02*
X117705000Y-93620000I0J-225000D01*
G01*
X117705000Y-94070000D01*
G75*
G02*
X117480000Y-94295000I-225000J0D01*
G01*
X116980000Y-94295000D01*
G75*
G02*
X116755000Y-94070000I0J225000D01*
G01*
X116755000Y-93620000D01*
G75*
G02*
X116980000Y-93395000I225000J0D01*
G01*
G37*
G36*
G01*
X116980000Y-91845000D02*
X117480000Y-91845000D01*
G75*
G02*
X117705000Y-92070000I0J-225000D01*
G01*
X117705000Y-92520000D01*
G75*
G02*
X117480000Y-92745000I-225000J0D01*
G01*
X116980000Y-92745000D01*
G75*
G02*
X116755000Y-92520000I0J225000D01*
G01*
X116755000Y-92070000D01*
G75*
G02*
X116980000Y-91845000I225000J0D01*
G01*
G37*
G36*
G01*
X138633999Y-98498000D02*
X138633999Y-97998000D01*
G75*
G02*
X138858999Y-97773000I225000J0D01*
G01*
X139308999Y-97773000D01*
G75*
G02*
X139533999Y-97998000I0J-225000D01*
G01*
X139533999Y-98498000D01*
G75*
G02*
X139308999Y-98723000I-225000J0D01*
G01*
X138858999Y-98723000D01*
G75*
G02*
X138633999Y-98498000I0J225000D01*
G01*
G37*
G36*
G01*
X140183999Y-98498000D02*
X140183999Y-97998000D01*
G75*
G02*
X140408999Y-97773000I225000J0D01*
G01*
X140858999Y-97773000D01*
G75*
G02*
X141083999Y-97998000I0J-225000D01*
G01*
X141083999Y-98498000D01*
G75*
G02*
X140858999Y-98723000I-225000J0D01*
G01*
X140408999Y-98723000D01*
G75*
G02*
X140183999Y-98498000I0J225000D01*
G01*
G37*
G36*
G01*
X99606000Y-88117000D02*
X99606000Y-88617000D01*
G75*
G02*
X99381000Y-88842000I-225000J0D01*
G01*
X98931000Y-88842000D01*
G75*
G02*
X98706000Y-88617000I0J225000D01*
G01*
X98706000Y-88117000D01*
G75*
G02*
X98931000Y-87892000I225000J0D01*
G01*
X99381000Y-87892000D01*
G75*
G02*
X99606000Y-88117000I0J-225000D01*
G01*
G37*
G36*
G01*
X101156000Y-88117000D02*
X101156000Y-88617000D01*
G75*
G02*
X100931000Y-88842000I-225000J0D01*
G01*
X100481000Y-88842000D01*
G75*
G02*
X100256000Y-88617000I0J225000D01*
G01*
X100256000Y-88117000D01*
G75*
G02*
X100481000Y-87892000I225000J0D01*
G01*
X100931000Y-87892000D01*
G75*
G02*
X101156000Y-88117000I0J-225000D01*
G01*
G37*
G36*
G01*
X143079000Y-79158000D02*
X143079000Y-78658000D01*
G75*
G02*
X143304000Y-78433000I225000J0D01*
G01*
X143754000Y-78433000D01*
G75*
G02*
X143979000Y-78658000I0J-225000D01*
G01*
X143979000Y-79158000D01*
G75*
G02*
X143754000Y-79383000I-225000J0D01*
G01*
X143304000Y-79383000D01*
G75*
G02*
X143079000Y-79158000I0J225000D01*
G01*
G37*
G36*
G01*
X141529000Y-79158000D02*
X141529000Y-78658000D01*
G75*
G02*
X141754000Y-78433000I225000J0D01*
G01*
X142204000Y-78433000D01*
G75*
G02*
X142429000Y-78658000I0J-225000D01*
G01*
X142429000Y-79158000D01*
G75*
G02*
X142204000Y-79383000I-225000J0D01*
G01*
X141754000Y-79383000D01*
G75*
G02*
X141529000Y-79158000I0J225000D01*
G01*
G37*
G36*
G01*
X119460000Y-92870000D02*
X119800000Y-92870000D01*
G75*
G02*
X119940000Y-93010000I0J-140000D01*
G01*
X119940000Y-93290000D01*
G75*
G02*
X119800000Y-93430000I-140000J0D01*
G01*
X119460000Y-93430000D01*
G75*
G02*
X119320000Y-93290000I0J140000D01*
G01*
X119320000Y-93010000D01*
G75*
G02*
X119460000Y-92870000I140000J0D01*
G01*
G37*
G36*
G01*
X119460000Y-91910000D02*
X119800000Y-91910000D01*
G75*
G02*
X119940000Y-92050000I0J-140000D01*
G01*
X119940000Y-92330000D01*
G75*
G02*
X119800000Y-92470000I-140000J0D01*
G01*
X119460000Y-92470000D01*
G75*
G02*
X119320000Y-92330000I0J140000D01*
G01*
X119320000Y-92050000D01*
G75*
G02*
X119460000Y-91910000I140000J0D01*
G01*
G37*
G36*
G01*
X114660000Y-92870000D02*
X115000000Y-92870000D01*
G75*
G02*
X115140000Y-93010000I0J-140000D01*
G01*
X115140000Y-93290000D01*
G75*
G02*
X115000000Y-93430000I-140000J0D01*
G01*
X114660000Y-93430000D01*
G75*
G02*
X114520000Y-93290000I0J140000D01*
G01*
X114520000Y-93010000D01*
G75*
G02*
X114660000Y-92870000I140000J0D01*
G01*
G37*
G36*
G01*
X114660000Y-91910000D02*
X115000000Y-91910000D01*
G75*
G02*
X115140000Y-92050000I0J-140000D01*
G01*
X115140000Y-92330000D01*
G75*
G02*
X115000000Y-92470000I-140000J0D01*
G01*
X114660000Y-92470000D01*
G75*
G02*
X114520000Y-92330000I0J140000D01*
G01*
X114520000Y-92050000D01*
G75*
G02*
X114660000Y-91910000I140000J0D01*
G01*
G37*
G36*
G01*
X115460001Y-96910000D02*
X115800001Y-96910000D01*
G75*
G02*
X115940001Y-97050000I0J-140000D01*
G01*
X115940001Y-97330000D01*
G75*
G02*
X115800001Y-97470000I-140000J0D01*
G01*
X115460001Y-97470000D01*
G75*
G02*
X115320001Y-97330000I0J140000D01*
G01*
X115320001Y-97050000D01*
G75*
G02*
X115460001Y-96910000I140000J0D01*
G01*
G37*
G36*
G01*
X115460001Y-97870000D02*
X115800001Y-97870000D01*
G75*
G02*
X115940001Y-98010000I0J-140000D01*
G01*
X115940001Y-98290000D01*
G75*
G02*
X115800001Y-98430000I-140000J0D01*
G01*
X115460001Y-98430000D01*
G75*
G02*
X115320001Y-98290000I0J140000D01*
G01*
X115320001Y-98010000D01*
G75*
G02*
X115460001Y-97870000I140000J0D01*
G01*
G37*
G36*
G01*
X118660000Y-97870000D02*
X119000000Y-97870000D01*
G75*
G02*
X119140000Y-98010000I0J-140000D01*
G01*
X119140000Y-98290000D01*
G75*
G02*
X119000000Y-98430000I-140000J0D01*
G01*
X118660000Y-98430000D01*
G75*
G02*
X118520000Y-98290000I0J140000D01*
G01*
X118520000Y-98010000D01*
G75*
G02*
X118660000Y-97870000I140000J0D01*
G01*
G37*
G36*
G01*
X118660000Y-96910000D02*
X119000000Y-96910000D01*
G75*
G02*
X119140000Y-97050000I0J-140000D01*
G01*
X119140000Y-97330000D01*
G75*
G02*
X119000000Y-97470000I-140000J0D01*
G01*
X118660000Y-97470000D01*
G75*
G02*
X118520000Y-97330000I0J140000D01*
G01*
X118520000Y-97050000D01*
G75*
G02*
X118660000Y-96910000I140000J0D01*
G01*
G37*
G36*
G01*
X120560000Y-96810000D02*
X120900000Y-96810000D01*
G75*
G02*
X121040000Y-96950000I0J-140000D01*
G01*
X121040000Y-97230000D01*
G75*
G02*
X120900000Y-97370000I-140000J0D01*
G01*
X120560000Y-97370000D01*
G75*
G02*
X120420000Y-97230000I0J140000D01*
G01*
X120420000Y-96950000D01*
G75*
G02*
X120560000Y-96810000I140000J0D01*
G01*
G37*
G36*
G01*
X120560000Y-97770000D02*
X120900000Y-97770000D01*
G75*
G02*
X121040000Y-97910000I0J-140000D01*
G01*
X121040000Y-98190000D01*
G75*
G02*
X120900000Y-98330000I-140000J0D01*
G01*
X120560000Y-98330000D01*
G75*
G02*
X120420000Y-98190000I0J140000D01*
G01*
X120420000Y-97910000D01*
G75*
G02*
X120560000Y-97770000I140000J0D01*
G01*
G37*
G36*
G01*
X113460000Y-97670001D02*
X113800000Y-97670001D01*
G75*
G02*
X113940000Y-97810001I0J-140000D01*
G01*
X113940000Y-98090001D01*
G75*
G02*
X113800000Y-98230001I-140000J0D01*
G01*
X113460000Y-98230001D01*
G75*
G02*
X113320000Y-98090001I0J140000D01*
G01*
X113320000Y-97810001D01*
G75*
G02*
X113460000Y-97670001I140000J0D01*
G01*
G37*
G36*
G01*
X113460000Y-96710001D02*
X113800000Y-96710001D01*
G75*
G02*
X113940000Y-96850001I0J-140000D01*
G01*
X113940000Y-97130001D01*
G75*
G02*
X113800000Y-97270001I-140000J0D01*
G01*
X113460000Y-97270001D01*
G75*
G02*
X113320000Y-97130001I0J140000D01*
G01*
X113320000Y-96850001D01*
G75*
G02*
X113460000Y-96710001I140000J0D01*
G01*
G37*
G36*
G01*
X115030000Y-95040000D02*
X115030000Y-94700000D01*
G75*
G02*
X115170000Y-94560000I140000J0D01*
G01*
X115450000Y-94560000D01*
G75*
G02*
X115590000Y-94700000I0J-140000D01*
G01*
X115590000Y-95040000D01*
G75*
G02*
X115450000Y-95180000I-140000J0D01*
G01*
X115170000Y-95180000D01*
G75*
G02*
X115030000Y-95040000I0J140000D01*
G01*
G37*
G36*
G01*
X114070000Y-95040000D02*
X114070000Y-94700000D01*
G75*
G02*
X114210000Y-94560000I140000J0D01*
G01*
X114490000Y-94560000D01*
G75*
G02*
X114630000Y-94700000I0J-140000D01*
G01*
X114630000Y-95040000D01*
G75*
G02*
X114490000Y-95180000I-140000J0D01*
G01*
X114210000Y-95180000D01*
G75*
G02*
X114070000Y-95040000I0J140000D01*
G01*
G37*
G36*
G01*
X120390000Y-94700000D02*
X120390000Y-95040000D01*
G75*
G02*
X120250000Y-95180000I-140000J0D01*
G01*
X119970000Y-95180000D01*
G75*
G02*
X119830000Y-95040000I0J140000D01*
G01*
X119830000Y-94700000D01*
G75*
G02*
X119970000Y-94560000I140000J0D01*
G01*
X120250000Y-94560000D01*
G75*
G02*
X120390000Y-94700000I0J-140000D01*
G01*
G37*
G36*
G01*
X119430000Y-94700000D02*
X119430000Y-95040000D01*
G75*
G02*
X119290000Y-95180000I-140000J0D01*
G01*
X119010000Y-95180000D01*
G75*
G02*
X118870000Y-95040000I0J140000D01*
G01*
X118870000Y-94700000D01*
G75*
G02*
X119010000Y-94560000I140000J0D01*
G01*
X119290000Y-94560000D01*
G75*
G02*
X119430000Y-94700000I0J-140000D01*
G01*
G37*
G36*
G01*
X140190000Y-96720000D02*
X140190000Y-96380000D01*
G75*
G02*
X140330000Y-96240000I140000J0D01*
G01*
X140610000Y-96240000D01*
G75*
G02*
X140750000Y-96380000I0J-140000D01*
G01*
X140750000Y-96720000D01*
G75*
G02*
X140610000Y-96860000I-140000J0D01*
G01*
X140330000Y-96860000D01*
G75*
G02*
X140190000Y-96720000I0J140000D01*
G01*
G37*
G36*
G01*
X141150000Y-96720000D02*
X141150000Y-96380000D01*
G75*
G02*
X141290000Y-96240000I140000J0D01*
G01*
X141570000Y-96240000D01*
G75*
G02*
X141710000Y-96380000I0J-140000D01*
G01*
X141710000Y-96720000D01*
G75*
G02*
X141570000Y-96860000I-140000J0D01*
G01*
X141290000Y-96860000D01*
G75*
G02*
X141150000Y-96720000I0J140000D01*
G01*
G37*
G36*
G01*
X133450000Y-99130000D02*
X133450000Y-98790000D01*
G75*
G02*
X133590000Y-98650000I140000J0D01*
G01*
X133870000Y-98650000D01*
G75*
G02*
X134010000Y-98790000I0J-140000D01*
G01*
X134010000Y-99130000D01*
G75*
G02*
X133870000Y-99270000I-140000J0D01*
G01*
X133590000Y-99270000D01*
G75*
G02*
X133450000Y-99130000I0J140000D01*
G01*
G37*
G36*
G01*
X132490000Y-99130000D02*
X132490000Y-98790000D01*
G75*
G02*
X132630000Y-98650000I140000J0D01*
G01*
X132910000Y-98650000D01*
G75*
G02*
X133050000Y-98790000I0J-140000D01*
G01*
X133050000Y-99130000D01*
G75*
G02*
X132910000Y-99270000I-140000J0D01*
G01*
X132630000Y-99270000D01*
G75*
G02*
X132490000Y-99130000I0J140000D01*
G01*
G37*
G36*
G01*
X136270000Y-93650000D02*
X136270000Y-93310000D01*
G75*
G02*
X136410000Y-93170000I140000J0D01*
G01*
X136690000Y-93170000D01*
G75*
G02*
X136830000Y-93310000I0J-140000D01*
G01*
X136830000Y-93650000D01*
G75*
G02*
X136690000Y-93790000I-140000J0D01*
G01*
X136410000Y-93790000D01*
G75*
G02*
X136270000Y-93650000I0J140000D01*
G01*
G37*
G36*
G01*
X137230000Y-93650000D02*
X137230000Y-93310000D01*
G75*
G02*
X137370000Y-93170000I140000J0D01*
G01*
X137650000Y-93170000D01*
G75*
G02*
X137790000Y-93310000I0J-140000D01*
G01*
X137790000Y-93650000D01*
G75*
G02*
X137650000Y-93790000I-140000J0D01*
G01*
X137370000Y-93790000D01*
G75*
G02*
X137230000Y-93650000I0J140000D01*
G01*
G37*
G36*
G01*
X105105000Y-74830000D02*
X105105000Y-75330000D01*
G75*
G02*
X104880000Y-75555000I-225000J0D01*
G01*
X104430000Y-75555000D01*
G75*
G02*
X104205000Y-75330000I0J225000D01*
G01*
X104205000Y-74830000D01*
G75*
G02*
X104430000Y-74605000I225000J0D01*
G01*
X104880000Y-74605000D01*
G75*
G02*
X105105000Y-74830000I0J-225000D01*
G01*
G37*
G36*
G01*
X106655000Y-74830000D02*
X106655000Y-75330000D01*
G75*
G02*
X106430000Y-75555000I-225000J0D01*
G01*
X105980000Y-75555000D01*
G75*
G02*
X105755000Y-75330000I0J225000D01*
G01*
X105755000Y-74830000D01*
G75*
G02*
X105980000Y-74605000I225000J0D01*
G01*
X106430000Y-74605000D01*
G75*
G02*
X106655000Y-74830000I0J-225000D01*
G01*
G37*
G36*
G01*
X144200000Y-94720000D02*
X144200000Y-94380000D01*
G75*
G02*
X144340000Y-94240000I140000J0D01*
G01*
X144620000Y-94240000D01*
G75*
G02*
X144760000Y-94380000I0J-140000D01*
G01*
X144760000Y-94720000D01*
G75*
G02*
X144620000Y-94860000I-140000J0D01*
G01*
X144340000Y-94860000D01*
G75*
G02*
X144200000Y-94720000I0J140000D01*
G01*
G37*
G36*
G01*
X143240000Y-94720000D02*
X143240000Y-94380000D01*
G75*
G02*
X143380000Y-94240000I140000J0D01*
G01*
X143660000Y-94240000D01*
G75*
G02*
X143800000Y-94380000I0J-140000D01*
G01*
X143800000Y-94720000D01*
G75*
G02*
X143660000Y-94860000I-140000J0D01*
G01*
X143380000Y-94860000D01*
G75*
G02*
X143240000Y-94720000I0J140000D01*
G01*
G37*
G36*
G01*
X142260000Y-94710000D02*
X142260000Y-94370000D01*
G75*
G02*
X142400000Y-94230000I140000J0D01*
G01*
X142680000Y-94230000D01*
G75*
G02*
X142820000Y-94370000I0J-140000D01*
G01*
X142820000Y-94710000D01*
G75*
G02*
X142680000Y-94850000I-140000J0D01*
G01*
X142400000Y-94850000D01*
G75*
G02*
X142260000Y-94710000I0J140000D01*
G01*
G37*
G36*
G01*
X141300000Y-94710000D02*
X141300000Y-94370000D01*
G75*
G02*
X141440000Y-94230000I140000J0D01*
G01*
X141720000Y-94230000D01*
G75*
G02*
X141860000Y-94370000I0J-140000D01*
G01*
X141860000Y-94710000D01*
G75*
G02*
X141720000Y-94850000I-140000J0D01*
G01*
X141440000Y-94850000D01*
G75*
G02*
X141300000Y-94710000I0J140000D01*
G01*
G37*
G36*
G01*
X137850000Y-91420000D02*
X137850000Y-91080000D01*
G75*
G02*
X137990000Y-90940000I140000J0D01*
G01*
X138270000Y-90940000D01*
G75*
G02*
X138410000Y-91080000I0J-140000D01*
G01*
X138410000Y-91420000D01*
G75*
G02*
X138270000Y-91560000I-140000J0D01*
G01*
X137990000Y-91560000D01*
G75*
G02*
X137850000Y-91420000I0J140000D01*
G01*
G37*
G36*
G01*
X138810000Y-91420000D02*
X138810000Y-91080000D01*
G75*
G02*
X138950000Y-90940000I140000J0D01*
G01*
X139230000Y-90940000D01*
G75*
G02*
X139370000Y-91080000I0J-140000D01*
G01*
X139370000Y-91420000D01*
G75*
G02*
X139230000Y-91560000I-140000J0D01*
G01*
X138950000Y-91560000D01*
G75*
G02*
X138810000Y-91420000I0J140000D01*
G01*
G37*
G36*
G01*
X97811802Y-103152218D02*
X98052218Y-102911802D01*
G75*
G02*
X98250208Y-102911802I98995J-98995D01*
G01*
X98448198Y-103109792D01*
G75*
G02*
X98448198Y-103307782I-98995J-98995D01*
G01*
X98207782Y-103548198D01*
G75*
G02*
X98009792Y-103548198I-98995J98995D01*
G01*
X97811802Y-103350208D01*
G75*
G02*
X97811802Y-103152218I98995J98995D01*
G01*
G37*
G36*
G01*
X97132980Y-102473396D02*
X97373396Y-102232980D01*
G75*
G02*
X97571386Y-102232980I98995J-98995D01*
G01*
X97769376Y-102430970D01*
G75*
G02*
X97769376Y-102628960I-98995J-98995D01*
G01*
X97528960Y-102869376D01*
G75*
G02*
X97330970Y-102869376I-98995J98995D01*
G01*
X97132980Y-102671386D01*
G75*
G02*
X97132980Y-102473396I98995J98995D01*
G01*
G37*
G36*
G01*
X136880000Y-106484999D02*
X136880000Y-106144999D01*
G75*
G02*
X137020000Y-106004999I140000J0D01*
G01*
X137300000Y-106004999D01*
G75*
G02*
X137440000Y-106144999I0J-140000D01*
G01*
X137440000Y-106484999D01*
G75*
G02*
X137300000Y-106624999I-140000J0D01*
G01*
X137020000Y-106624999D01*
G75*
G02*
X136880000Y-106484999I0J140000D01*
G01*
G37*
G36*
G01*
X137840000Y-106484999D02*
X137840000Y-106144999D01*
G75*
G02*
X137980000Y-106004999I140000J0D01*
G01*
X138260000Y-106004999D01*
G75*
G02*
X138400000Y-106144999I0J-140000D01*
G01*
X138400000Y-106484999D01*
G75*
G02*
X138260000Y-106624999I-140000J0D01*
G01*
X137980000Y-106624999D01*
G75*
G02*
X137840000Y-106484999I0J140000D01*
G01*
G37*
G36*
G01*
X101950000Y-80130000D02*
X101950000Y-80470000D01*
G75*
G02*
X101810000Y-80610000I-140000J0D01*
G01*
X101530000Y-80610000D01*
G75*
G02*
X101390000Y-80470000I0J140000D01*
G01*
X101390000Y-80130000D01*
G75*
G02*
X101530000Y-79990000I140000J0D01*
G01*
X101810000Y-79990000D01*
G75*
G02*
X101950000Y-80130000I0J-140000D01*
G01*
G37*
G36*
G01*
X102910000Y-80130000D02*
X102910000Y-80470000D01*
G75*
G02*
X102770000Y-80610000I-140000J0D01*
G01*
X102490000Y-80610000D01*
G75*
G02*
X102350000Y-80470000I0J140000D01*
G01*
X102350000Y-80130000D01*
G75*
G02*
X102490000Y-79990000I140000J0D01*
G01*
X102770000Y-79990000D01*
G75*
G02*
X102910000Y-80130000I0J-140000D01*
G01*
G37*
G36*
G01*
X140735000Y-87145001D02*
X140735000Y-86805001D01*
G75*
G02*
X140875000Y-86665001I140000J0D01*
G01*
X141155000Y-86665001D01*
G75*
G02*
X141295000Y-86805001I0J-140000D01*
G01*
X141295000Y-87145001D01*
G75*
G02*
X141155000Y-87285001I-140000J0D01*
G01*
X140875000Y-87285001D01*
G75*
G02*
X140735000Y-87145001I0J140000D01*
G01*
G37*
G36*
G01*
X139775000Y-87145001D02*
X139775000Y-86805001D01*
G75*
G02*
X139915000Y-86665001I140000J0D01*
G01*
X140195000Y-86665001D01*
G75*
G02*
X140335000Y-86805001I0J-140000D01*
G01*
X140335000Y-87145001D01*
G75*
G02*
X140195000Y-87285001I-140000J0D01*
G01*
X139915000Y-87285001D01*
G75*
G02*
X139775000Y-87145001I0J140000D01*
G01*
G37*
G36*
G01*
X139370001Y-106565000D02*
X139030001Y-106565000D01*
G75*
G02*
X138890001Y-106425000I0J140000D01*
G01*
X138890001Y-106145000D01*
G75*
G02*
X139030001Y-106005000I140000J0D01*
G01*
X139370001Y-106005000D01*
G75*
G02*
X139510001Y-106145000I0J-140000D01*
G01*
X139510001Y-106425000D01*
G75*
G02*
X139370001Y-106565000I-140000J0D01*
G01*
G37*
G36*
G01*
X139370001Y-107525000D02*
X139030001Y-107525000D01*
G75*
G02*
X138890001Y-107385000I0J140000D01*
G01*
X138890001Y-107105000D01*
G75*
G02*
X139030001Y-106965000I140000J0D01*
G01*
X139370001Y-106965000D01*
G75*
G02*
X139510001Y-107105000I0J-140000D01*
G01*
X139510001Y-107385000D01*
G75*
G02*
X139370001Y-107525000I-140000J0D01*
G01*
G37*
G36*
G01*
X100420000Y-79090000D02*
X100760000Y-79090000D01*
G75*
G02*
X100900000Y-79230000I0J-140000D01*
G01*
X100900000Y-79510000D01*
G75*
G02*
X100760000Y-79650000I-140000J0D01*
G01*
X100420000Y-79650000D01*
G75*
G02*
X100280000Y-79510000I0J140000D01*
G01*
X100280000Y-79230000D01*
G75*
G02*
X100420000Y-79090000I140000J0D01*
G01*
G37*
G36*
G01*
X100420000Y-80050000D02*
X100760000Y-80050000D01*
G75*
G02*
X100900000Y-80190000I0J-140000D01*
G01*
X100900000Y-80470000D01*
G75*
G02*
X100760000Y-80610000I-140000J0D01*
G01*
X100420000Y-80610000D01*
G75*
G02*
X100280000Y-80470000I0J140000D01*
G01*
X100280000Y-80190000D01*
G75*
G02*
X100420000Y-80050000I140000J0D01*
G01*
G37*
G36*
G01*
X142265001Y-88185001D02*
X141925001Y-88185001D01*
G75*
G02*
X141785001Y-88045001I0J140000D01*
G01*
X141785001Y-87765001D01*
G75*
G02*
X141925001Y-87625001I140000J0D01*
G01*
X142265001Y-87625001D01*
G75*
G02*
X142405001Y-87765001I0J-140000D01*
G01*
X142405001Y-88045001D01*
G75*
G02*
X142265001Y-88185001I-140000J0D01*
G01*
G37*
G36*
G01*
X142265001Y-87225001D02*
X141925001Y-87225001D01*
G75*
G02*
X141785001Y-87085001I0J140000D01*
G01*
X141785001Y-86805001D01*
G75*
G02*
X141925001Y-86665001I140000J0D01*
G01*
X142265001Y-86665001D01*
G75*
G02*
X142405001Y-86805001I0J-140000D01*
G01*
X142405001Y-87085001D01*
G75*
G02*
X142265001Y-87225001I-140000J0D01*
G01*
G37*
D11*
X114358000Y-76500000D03*
X114358000Y-73790000D03*
X114758000Y-76500000D03*
X114758000Y-73790000D03*
X115158000Y-76500000D03*
X115158000Y-73790000D03*
X115558000Y-76500000D03*
X115558000Y-73790000D03*
X115958000Y-76500000D03*
X115958000Y-73790000D03*
X116358000Y-76500000D03*
X116358000Y-73790000D03*
X116758000Y-76500000D03*
X116758000Y-73790000D03*
X117158000Y-76500000D03*
X117158000Y-73790000D03*
X117558000Y-76500000D03*
X117558000Y-73790000D03*
X117958000Y-76500000D03*
X117958000Y-73790000D03*
D12*
X113883000Y-73790000D03*
X113883000Y-76500000D03*
X134433000Y-73790000D03*
X134433000Y-76500000D03*
D11*
X118358000Y-76500000D03*
X118358000Y-73790000D03*
X118758000Y-76500000D03*
X118758000Y-73790000D03*
X119158000Y-76500000D03*
X119158000Y-73790000D03*
X119558000Y-76500000D03*
X119558000Y-73790000D03*
X119958000Y-76500000D03*
X119958000Y-73790000D03*
X120358000Y-76500000D03*
X120358000Y-73790000D03*
X120758000Y-76500000D03*
X120758000Y-73790000D03*
X121158000Y-76500000D03*
X121158000Y-73790000D03*
X121558000Y-76500000D03*
X121558000Y-73790000D03*
X121958000Y-76500000D03*
X121958000Y-73790000D03*
X122358000Y-76500000D03*
X122358000Y-73790000D03*
X122758000Y-76500000D03*
X122758000Y-73790000D03*
X123158000Y-76500000D03*
X123158000Y-73790000D03*
X123558000Y-76500000D03*
X123558000Y-73790000D03*
X123958000Y-76500000D03*
X123958000Y-73790000D03*
X124358000Y-76500000D03*
X124358000Y-73790000D03*
X124758000Y-76500000D03*
X124758000Y-73790000D03*
X125158000Y-76500000D03*
X125158000Y-73790000D03*
X125558000Y-76500000D03*
X125558000Y-73790000D03*
X125958000Y-76500000D03*
X125958000Y-73790000D03*
X126358000Y-76500000D03*
X126358000Y-73790000D03*
X126758000Y-76500000D03*
X126758000Y-73790000D03*
X127158000Y-76500000D03*
X127158000Y-73790000D03*
X127558000Y-76500000D03*
X127558000Y-73790000D03*
X127958000Y-76500000D03*
X127958000Y-73790000D03*
X128358000Y-76500000D03*
X128358000Y-73790000D03*
X128758000Y-76500000D03*
X128758000Y-73790000D03*
X129158000Y-76500000D03*
X129158000Y-73790000D03*
X129558000Y-76500000D03*
X129558000Y-73790000D03*
X129958000Y-76500000D03*
X129958000Y-73790000D03*
X130358000Y-76500000D03*
X130358000Y-73790000D03*
X130758000Y-76500000D03*
X130758000Y-73790000D03*
X131158000Y-76500000D03*
X131158000Y-73790000D03*
X131558000Y-76500000D03*
X131558000Y-73790000D03*
X131958000Y-76500000D03*
X131958000Y-73790000D03*
X132358000Y-76500000D03*
X132358000Y-73790000D03*
X132758000Y-76500000D03*
X132758000Y-73790000D03*
X133158000Y-76500000D03*
X133158000Y-73790000D03*
X133558000Y-76500000D03*
X133558000Y-73790000D03*
X133958000Y-76500000D03*
X133958000Y-73790000D03*
D16*
X107540000Y-76030001D03*
X109640000Y-76030001D03*
X107540002Y-78000000D03*
X109640002Y-78000000D03*
D17*
X110230000Y-81660000D03*
X110230000Y-79560000D03*
X108250000Y-81640000D03*
X108250000Y-79540000D03*
X142020000Y-93430000D03*
X142020000Y-91330000D03*
X144010000Y-93450000D03*
X144010000Y-91350000D03*
X145980000Y-91340000D03*
X145980000Y-93440000D03*
G36*
G01*
X112030000Y-76225000D02*
X112030000Y-76595000D01*
G75*
G02*
X111895000Y-76730000I-135000J0D01*
G01*
X111625000Y-76730000D01*
G75*
G02*
X111490000Y-76595000I0J135000D01*
G01*
X111490000Y-76225000D01*
G75*
G02*
X111625000Y-76090000I135000J0D01*
G01*
X111895000Y-76090000D01*
G75*
G02*
X112030000Y-76225000I0J-135000D01*
G01*
G37*
G36*
G01*
X111010000Y-76225000D02*
X111010000Y-76595000D01*
G75*
G02*
X110875000Y-76730000I-135000J0D01*
G01*
X110605000Y-76730000D01*
G75*
G02*
X110470000Y-76595000I0J135000D01*
G01*
X110470000Y-76225000D01*
G75*
G02*
X110605000Y-76090000I135000J0D01*
G01*
X110875000Y-76090000D01*
G75*
G02*
X111010000Y-76225000I0J-135000D01*
G01*
G37*
G36*
G01*
X111000000Y-75215000D02*
X111000000Y-75585000D01*
G75*
G02*
X110865000Y-75720000I-135000J0D01*
G01*
X110595000Y-75720000D01*
G75*
G02*
X110460000Y-75585000I0J135000D01*
G01*
X110460000Y-75215000D01*
G75*
G02*
X110595000Y-75080000I135000J0D01*
G01*
X110865000Y-75080000D01*
G75*
G02*
X111000000Y-75215000I0J-135000D01*
G01*
G37*
G36*
G01*
X112020000Y-75215000D02*
X112020000Y-75585000D01*
G75*
G02*
X111885000Y-75720000I-135000J0D01*
G01*
X111615000Y-75720000D01*
G75*
G02*
X111480000Y-75585000I0J135000D01*
G01*
X111480000Y-75215000D01*
G75*
G02*
X111615000Y-75080000I135000J0D01*
G01*
X111885000Y-75080000D01*
G75*
G02*
X112020000Y-75215000I0J-135000D01*
G01*
G37*
G36*
G01*
X110020000Y-74324999D02*
X110020000Y-74694999D01*
G75*
G02*
X109885000Y-74829999I-135000J0D01*
G01*
X109615000Y-74829999D01*
G75*
G02*
X109480000Y-74694999I0J135000D01*
G01*
X109480000Y-74324999D01*
G75*
G02*
X109615000Y-74189999I135000J0D01*
G01*
X109885000Y-74189999D01*
G75*
G02*
X110020000Y-74324999I0J-135000D01*
G01*
G37*
G36*
G01*
X109000000Y-74324999D02*
X109000000Y-74694999D01*
G75*
G02*
X108865000Y-74829999I-135000J0D01*
G01*
X108595000Y-74829999D01*
G75*
G02*
X108460000Y-74694999I0J135000D01*
G01*
X108460000Y-74324999D01*
G75*
G02*
X108595000Y-74189999I135000J0D01*
G01*
X108865000Y-74189999D01*
G75*
G02*
X109000000Y-74324999I0J-135000D01*
G01*
G37*
G36*
G01*
X111500000Y-77635000D02*
X111500000Y-77265000D01*
G75*
G02*
X111635000Y-77130000I135000J0D01*
G01*
X111905000Y-77130000D01*
G75*
G02*
X112040000Y-77265000I0J-135000D01*
G01*
X112040000Y-77635000D01*
G75*
G02*
X111905000Y-77770000I-135000J0D01*
G01*
X111635000Y-77770000D01*
G75*
G02*
X111500000Y-77635000I0J135000D01*
G01*
G37*
G36*
G01*
X110480000Y-77635000D02*
X110480000Y-77265000D01*
G75*
G02*
X110615000Y-77130000I135000J0D01*
G01*
X110885000Y-77130000D01*
G75*
G02*
X111020000Y-77265000I0J-135000D01*
G01*
X111020000Y-77635000D01*
G75*
G02*
X110885000Y-77770000I-135000J0D01*
G01*
X110615000Y-77770000D01*
G75*
G02*
X110480000Y-77635000I0J135000D01*
G01*
G37*
G36*
G01*
X111935000Y-79720001D02*
X111565000Y-79720001D01*
G75*
G02*
X111430000Y-79585001I0J135000D01*
G01*
X111430000Y-79315001D01*
G75*
G02*
X111565000Y-79180001I135000J0D01*
G01*
X111935000Y-79180001D01*
G75*
G02*
X112070000Y-79315001I0J-135000D01*
G01*
X112070000Y-79585001D01*
G75*
G02*
X111935000Y-79720001I-135000J0D01*
G01*
G37*
G36*
G01*
X111935000Y-80740001D02*
X111565000Y-80740001D01*
G75*
G02*
X111430000Y-80605001I0J135000D01*
G01*
X111430000Y-80335001D01*
G75*
G02*
X111565000Y-80200001I135000J0D01*
G01*
X111935000Y-80200001D01*
G75*
G02*
X112070000Y-80335001I0J-135000D01*
G01*
X112070000Y-80605001D01*
G75*
G02*
X111935000Y-80740001I-135000J0D01*
G01*
G37*
G36*
G01*
X110475001Y-78649999D02*
X110475001Y-78279999D01*
G75*
G02*
X110610001Y-78144999I135000J0D01*
G01*
X110880001Y-78144999D01*
G75*
G02*
X111015001Y-78279999I0J-135000D01*
G01*
X111015001Y-78649999D01*
G75*
G02*
X110880001Y-78784999I-135000J0D01*
G01*
X110610001Y-78784999D01*
G75*
G02*
X110475001Y-78649999I0J135000D01*
G01*
G37*
G36*
G01*
X111495001Y-78649999D02*
X111495001Y-78279999D01*
G75*
G02*
X111630001Y-78144999I135000J0D01*
G01*
X111900001Y-78144999D01*
G75*
G02*
X112035001Y-78279999I0J-135000D01*
G01*
X112035001Y-78649999D01*
G75*
G02*
X111900001Y-78784999I-135000J0D01*
G01*
X111630001Y-78784999D01*
G75*
G02*
X111495001Y-78649999I0J135000D01*
G01*
G37*
G36*
G01*
X125155000Y-80140000D02*
X124785000Y-80140000D01*
G75*
G02*
X124650000Y-80005000I0J135000D01*
G01*
X124650000Y-79735000D01*
G75*
G02*
X124785000Y-79600000I135000J0D01*
G01*
X125155000Y-79600000D01*
G75*
G02*
X125290000Y-79735000I0J-135000D01*
G01*
X125290000Y-80005000D01*
G75*
G02*
X125155000Y-80140000I-135000J0D01*
G01*
G37*
G36*
G01*
X125155000Y-79120000D02*
X124785000Y-79120000D01*
G75*
G02*
X124650000Y-78985000I0J135000D01*
G01*
X124650000Y-78715000D01*
G75*
G02*
X124785000Y-78580000I135000J0D01*
G01*
X125155000Y-78580000D01*
G75*
G02*
X125290000Y-78715000I0J-135000D01*
G01*
X125290000Y-78985000D01*
G75*
G02*
X125155000Y-79120000I-135000J0D01*
G01*
G37*
G36*
G01*
X126155000Y-80140000D02*
X125785000Y-80140000D01*
G75*
G02*
X125650000Y-80005000I0J135000D01*
G01*
X125650000Y-79735000D01*
G75*
G02*
X125785000Y-79600000I135000J0D01*
G01*
X126155000Y-79600000D01*
G75*
G02*
X126290000Y-79735000I0J-135000D01*
G01*
X126290000Y-80005000D01*
G75*
G02*
X126155000Y-80140000I-135000J0D01*
G01*
G37*
G36*
G01*
X126155000Y-79120000D02*
X125785000Y-79120000D01*
G75*
G02*
X125650000Y-78985000I0J135000D01*
G01*
X125650000Y-78715000D01*
G75*
G02*
X125785000Y-78580000I135000J0D01*
G01*
X126155000Y-78580000D01*
G75*
G02*
X126290000Y-78715000I0J-135000D01*
G01*
X126290000Y-78985000D01*
G75*
G02*
X126155000Y-79120000I-135000J0D01*
G01*
G37*
G36*
G01*
X123155000Y-80150000D02*
X122785000Y-80150000D01*
G75*
G02*
X122650000Y-80015000I0J135000D01*
G01*
X122650000Y-79745000D01*
G75*
G02*
X122785000Y-79610000I135000J0D01*
G01*
X123155000Y-79610000D01*
G75*
G02*
X123290000Y-79745000I0J-135000D01*
G01*
X123290000Y-80015000D01*
G75*
G02*
X123155000Y-80150000I-135000J0D01*
G01*
G37*
G36*
G01*
X123155000Y-79130000D02*
X122785000Y-79130000D01*
G75*
G02*
X122650000Y-78995000I0J135000D01*
G01*
X122650000Y-78725000D01*
G75*
G02*
X122785000Y-78590000I135000J0D01*
G01*
X123155000Y-78590000D01*
G75*
G02*
X123290000Y-78725000I0J-135000D01*
G01*
X123290000Y-78995000D01*
G75*
G02*
X123155000Y-79130000I-135000J0D01*
G01*
G37*
G36*
G01*
X122155000Y-79131370D02*
X121785000Y-79131370D01*
G75*
G02*
X121650000Y-78996370I0J135000D01*
G01*
X121650000Y-78726370D01*
G75*
G02*
X121785000Y-78591370I135000J0D01*
G01*
X122155000Y-78591370D01*
G75*
G02*
X122290000Y-78726370I0J-135000D01*
G01*
X122290000Y-78996370D01*
G75*
G02*
X122155000Y-79131370I-135000J0D01*
G01*
G37*
G36*
G01*
X122155000Y-80151370D02*
X121785000Y-80151370D01*
G75*
G02*
X121650000Y-80016370I0J135000D01*
G01*
X121650000Y-79746370D01*
G75*
G02*
X121785000Y-79611370I135000J0D01*
G01*
X122155000Y-79611370D01*
G75*
G02*
X122290000Y-79746370I0J-135000D01*
G01*
X122290000Y-80016370D01*
G75*
G02*
X122155000Y-80151370I-135000J0D01*
G01*
G37*
G36*
G01*
X124155000Y-80150000D02*
X123785000Y-80150000D01*
G75*
G02*
X123650000Y-80015000I0J135000D01*
G01*
X123650000Y-79745000D01*
G75*
G02*
X123785000Y-79610000I135000J0D01*
G01*
X124155000Y-79610000D01*
G75*
G02*
X124290000Y-79745000I0J-135000D01*
G01*
X124290000Y-80015000D01*
G75*
G02*
X124155000Y-80150000I-135000J0D01*
G01*
G37*
G36*
G01*
X124155000Y-79130000D02*
X123785000Y-79130000D01*
G75*
G02*
X123650000Y-78995000I0J135000D01*
G01*
X123650000Y-78725000D01*
G75*
G02*
X123785000Y-78590000I135000J0D01*
G01*
X124155000Y-78590000D01*
G75*
G02*
X124290000Y-78725000I0J-135000D01*
G01*
X124290000Y-78995000D01*
G75*
G02*
X124155000Y-79130000I-135000J0D01*
G01*
G37*
G36*
G01*
X121155293Y-79131371D02*
X120785293Y-79131371D01*
G75*
G02*
X120650293Y-78996371I0J135000D01*
G01*
X120650293Y-78726371D01*
G75*
G02*
X120785293Y-78591371I135000J0D01*
G01*
X121155293Y-78591371D01*
G75*
G02*
X121290293Y-78726371I0J-135000D01*
G01*
X121290293Y-78996371D01*
G75*
G02*
X121155293Y-79131371I-135000J0D01*
G01*
G37*
G36*
G01*
X121155293Y-80151371D02*
X120785293Y-80151371D01*
G75*
G02*
X120650293Y-80016371I0J135000D01*
G01*
X120650293Y-79746371D01*
G75*
G02*
X120785293Y-79611371I135000J0D01*
G01*
X121155293Y-79611371D01*
G75*
G02*
X121290293Y-79746371I0J-135000D01*
G01*
X121290293Y-80016371D01*
G75*
G02*
X121155293Y-80151371I-135000J0D01*
G01*
G37*
D18*
G36*
X101610000Y-105222082D02*
G01*
X100407918Y-104020000D01*
X101610000Y-102817918D01*
X102812082Y-104020000D01*
X101610000Y-105222082D01*
G37*
G36*
G01*
X99212908Y-106417092D02*
X99212908Y-106417092D01*
G75*
G02*
X99212908Y-105215010I601041J601041D01*
G01*
X99212908Y-105215010D01*
G75*
G02*
X100414990Y-105215010I601041J-601041D01*
G01*
X100414990Y-105215010D01*
G75*
G02*
X100414990Y-106417092I-601041J-601041D01*
G01*
X100414990Y-106417092D01*
G75*
G02*
X99212908Y-106417092I-601041J601041D01*
G01*
G37*
G36*
G01*
X102805010Y-106417092D02*
X102805010Y-106417092D01*
G75*
G02*
X102805010Y-105215010I601041J601041D01*
G01*
X102805010Y-105215010D01*
G75*
G02*
X104007092Y-105215010I601041J-601041D01*
G01*
X104007092Y-105215010D01*
G75*
G02*
X104007092Y-106417092I-601041J-601041D01*
G01*
X104007092Y-106417092D01*
G75*
G02*
X102805010Y-106417092I-601041J601041D01*
G01*
G37*
G36*
G01*
X101008959Y-108213143D02*
X101008959Y-108213143D01*
G75*
G02*
X101008959Y-107011061I601041J601041D01*
G01*
X101008959Y-107011061D01*
G75*
G02*
X102211041Y-107011061I601041J-601041D01*
G01*
X102211041Y-107011061D01*
G75*
G02*
X102211041Y-108213143I-601041J-601041D01*
G01*
X102211041Y-108213143D01*
G75*
G02*
X101008959Y-108213143I-601041J601041D01*
G01*
G37*
G36*
G01*
X104601061Y-108213143D02*
X104601061Y-108213143D01*
G75*
G02*
X104601061Y-107011061I601041J601041D01*
G01*
X104601061Y-107011061D01*
G75*
G02*
X105803143Y-107011061I601041J-601041D01*
G01*
X105803143Y-107011061D01*
G75*
G02*
X105803143Y-108213143I-601041J-601041D01*
G01*
X105803143Y-108213143D01*
G75*
G02*
X104601061Y-108213143I-601041J601041D01*
G01*
G37*
G36*
G01*
X102805010Y-110009195D02*
X102805010Y-110009195D01*
G75*
G02*
X102805010Y-108807113I601041J601041D01*
G01*
X102805010Y-108807113D01*
G75*
G02*
X104007092Y-108807113I601041J-601041D01*
G01*
X104007092Y-108807113D01*
G75*
G02*
X104007092Y-110009195I-601041J-601041D01*
G01*
X104007092Y-110009195D01*
G75*
G02*
X102805010Y-110009195I-601041J601041D01*
G01*
G37*
G36*
G01*
X116340000Y-105990000D02*
X116000000Y-105990000D01*
G75*
G02*
X115860000Y-105850000I0J140000D01*
G01*
X115860000Y-105570000D01*
G75*
G02*
X116000000Y-105430000I140000J0D01*
G01*
X116340000Y-105430000D01*
G75*
G02*
X116480000Y-105570000I0J-140000D01*
G01*
X116480000Y-105850000D01*
G75*
G02*
X116340000Y-105990000I-140000J0D01*
G01*
G37*
G36*
G01*
X116340000Y-105030000D02*
X116000000Y-105030000D01*
G75*
G02*
X115860000Y-104890000I0J140000D01*
G01*
X115860000Y-104610000D01*
G75*
G02*
X116000000Y-104470000I140000J0D01*
G01*
X116340000Y-104470000D01*
G75*
G02*
X116480000Y-104610000I0J-140000D01*
G01*
X116480000Y-104890000D01*
G75*
G02*
X116340000Y-105030000I-140000J0D01*
G01*
G37*
G36*
G01*
X117360000Y-105030000D02*
X117020000Y-105030000D01*
G75*
G02*
X116880000Y-104890000I0J140000D01*
G01*
X116880000Y-104610000D01*
G75*
G02*
X117020000Y-104470000I140000J0D01*
G01*
X117360000Y-104470000D01*
G75*
G02*
X117500000Y-104610000I0J-140000D01*
G01*
X117500000Y-104890000D01*
G75*
G02*
X117360000Y-105030000I-140000J0D01*
G01*
G37*
G36*
G01*
X117360000Y-105990000D02*
X117020000Y-105990000D01*
G75*
G02*
X116880000Y-105850000I0J140000D01*
G01*
X116880000Y-105570000D01*
G75*
G02*
X117020000Y-105430000I140000J0D01*
G01*
X117360000Y-105430000D01*
G75*
G02*
X117500000Y-105570000I0J-140000D01*
G01*
X117500000Y-105850000D01*
G75*
G02*
X117360000Y-105990000I-140000J0D01*
G01*
G37*
G36*
G01*
X113340000Y-105990000D02*
X113000000Y-105990000D01*
G75*
G02*
X112860000Y-105850000I0J140000D01*
G01*
X112860000Y-105570000D01*
G75*
G02*
X113000000Y-105430000I140000J0D01*
G01*
X113340000Y-105430000D01*
G75*
G02*
X113480000Y-105570000I0J-140000D01*
G01*
X113480000Y-105850000D01*
G75*
G02*
X113340000Y-105990000I-140000J0D01*
G01*
G37*
G36*
G01*
X113340000Y-105030000D02*
X113000000Y-105030000D01*
G75*
G02*
X112860000Y-104890000I0J140000D01*
G01*
X112860000Y-104610000D01*
G75*
G02*
X113000000Y-104470000I140000J0D01*
G01*
X113340000Y-104470000D01*
G75*
G02*
X113480000Y-104610000I0J-140000D01*
G01*
X113480000Y-104890000D01*
G75*
G02*
X113340000Y-105030000I-140000J0D01*
G01*
G37*
G36*
G01*
X120360000Y-105990000D02*
X120020000Y-105990000D01*
G75*
G02*
X119880000Y-105850000I0J140000D01*
G01*
X119880000Y-105570000D01*
G75*
G02*
X120020000Y-105430000I140000J0D01*
G01*
X120360000Y-105430000D01*
G75*
G02*
X120500000Y-105570000I0J-140000D01*
G01*
X120500000Y-105850000D01*
G75*
G02*
X120360000Y-105990000I-140000J0D01*
G01*
G37*
G36*
G01*
X120360000Y-105030000D02*
X120020000Y-105030000D01*
G75*
G02*
X119880000Y-104890000I0J140000D01*
G01*
X119880000Y-104610000D01*
G75*
G02*
X120020000Y-104470000I140000J0D01*
G01*
X120360000Y-104470000D01*
G75*
G02*
X120500000Y-104610000I0J-140000D01*
G01*
X120500000Y-104890000D01*
G75*
G02*
X120360000Y-105030000I-140000J0D01*
G01*
G37*
G36*
G01*
X114000000Y-104470000D02*
X114340000Y-104470000D01*
G75*
G02*
X114480000Y-104610000I0J-140000D01*
G01*
X114480000Y-104890000D01*
G75*
G02*
X114340000Y-105030000I-140000J0D01*
G01*
X114000000Y-105030000D01*
G75*
G02*
X113860000Y-104890000I0J140000D01*
G01*
X113860000Y-104610000D01*
G75*
G02*
X114000000Y-104470000I140000J0D01*
G01*
G37*
G36*
G01*
X114000000Y-105430000D02*
X114340000Y-105430000D01*
G75*
G02*
X114480000Y-105570000I0J-140000D01*
G01*
X114480000Y-105850000D01*
G75*
G02*
X114340000Y-105990000I-140000J0D01*
G01*
X114000000Y-105990000D01*
G75*
G02*
X113860000Y-105850000I0J140000D01*
G01*
X113860000Y-105570000D01*
G75*
G02*
X114000000Y-105430000I140000J0D01*
G01*
G37*
G36*
G01*
X119020000Y-104470000D02*
X119360000Y-104470000D01*
G75*
G02*
X119500000Y-104610000I0J-140000D01*
G01*
X119500000Y-104890000D01*
G75*
G02*
X119360000Y-105030000I-140000J0D01*
G01*
X119020000Y-105030000D01*
G75*
G02*
X118880000Y-104890000I0J140000D01*
G01*
X118880000Y-104610000D01*
G75*
G02*
X119020000Y-104470000I140000J0D01*
G01*
G37*
G36*
G01*
X119020000Y-105430000D02*
X119360000Y-105430000D01*
G75*
G02*
X119500000Y-105570000I0J-140000D01*
G01*
X119500000Y-105850000D01*
G75*
G02*
X119360000Y-105990000I-140000J0D01*
G01*
X119020000Y-105990000D01*
G75*
G02*
X118880000Y-105850000I0J140000D01*
G01*
X118880000Y-105570000D01*
G75*
G02*
X119020000Y-105430000I140000J0D01*
G01*
G37*
G36*
G01*
X115000000Y-105430000D02*
X115340000Y-105430000D01*
G75*
G02*
X115480000Y-105570000I0J-140000D01*
G01*
X115480000Y-105850000D01*
G75*
G02*
X115340000Y-105990000I-140000J0D01*
G01*
X115000000Y-105990000D01*
G75*
G02*
X114860000Y-105850000I0J140000D01*
G01*
X114860000Y-105570000D01*
G75*
G02*
X115000000Y-105430000I140000J0D01*
G01*
G37*
G36*
G01*
X115000000Y-104470000D02*
X115340000Y-104470000D01*
G75*
G02*
X115480000Y-104610000I0J-140000D01*
G01*
X115480000Y-104890000D01*
G75*
G02*
X115340000Y-105030000I-140000J0D01*
G01*
X115000000Y-105030000D01*
G75*
G02*
X114860000Y-104890000I0J140000D01*
G01*
X114860000Y-104610000D01*
G75*
G02*
X115000000Y-104470000I140000J0D01*
G01*
G37*
G36*
G01*
X118020000Y-105430000D02*
X118360000Y-105430000D01*
G75*
G02*
X118500000Y-105570000I0J-140000D01*
G01*
X118500000Y-105850000D01*
G75*
G02*
X118360000Y-105990000I-140000J0D01*
G01*
X118020000Y-105990000D01*
G75*
G02*
X117880000Y-105850000I0J140000D01*
G01*
X117880000Y-105570000D01*
G75*
G02*
X118020000Y-105430000I140000J0D01*
G01*
G37*
G36*
G01*
X118020000Y-104470000D02*
X118360000Y-104470000D01*
G75*
G02*
X118500000Y-104610000I0J-140000D01*
G01*
X118500000Y-104890000D01*
G75*
G02*
X118360000Y-105030000I-140000J0D01*
G01*
X118020000Y-105030000D01*
G75*
G02*
X117880000Y-104890000I0J140000D01*
G01*
X117880000Y-104610000D01*
G75*
G02*
X118020000Y-104470000I140000J0D01*
G01*
G37*
G36*
G01*
X95360000Y-85150000D02*
X95700000Y-85150000D01*
G75*
G02*
X95840000Y-85290000I0J-140000D01*
G01*
X95840000Y-85570000D01*
G75*
G02*
X95700000Y-85710000I-140000J0D01*
G01*
X95360000Y-85710000D01*
G75*
G02*
X95220000Y-85570000I0J140000D01*
G01*
X95220000Y-85290000D01*
G75*
G02*
X95360000Y-85150000I140000J0D01*
G01*
G37*
G36*
G01*
X95360000Y-86110000D02*
X95700000Y-86110000D01*
G75*
G02*
X95840000Y-86250000I0J-140000D01*
G01*
X95840000Y-86530000D01*
G75*
G02*
X95700000Y-86670000I-140000J0D01*
G01*
X95360000Y-86670000D01*
G75*
G02*
X95220000Y-86530000I0J140000D01*
G01*
X95220000Y-86250000D01*
G75*
G02*
X95360000Y-86110000I140000J0D01*
G01*
G37*
D19*
X114170000Y-80600000D03*
X114170000Y-83100000D03*
X112210000Y-84220000D03*
X112210000Y-81720000D03*
D20*
X147460000Y-104720000D03*
D21*
X147460000Y-102720000D03*
X147480000Y-97600000D03*
D20*
X147480000Y-99600000D03*
G36*
G01*
X113730000Y-78485000D02*
X113730000Y-78115000D01*
G75*
G02*
X113865000Y-77980000I135000J0D01*
G01*
X114135000Y-77980000D01*
G75*
G02*
X114270000Y-78115000I0J-135000D01*
G01*
X114270000Y-78485000D01*
G75*
G02*
X114135000Y-78620000I-135000J0D01*
G01*
X113865000Y-78620000D01*
G75*
G02*
X113730000Y-78485000I0J135000D01*
G01*
G37*
G36*
G01*
X114750000Y-78485000D02*
X114750000Y-78115000D01*
G75*
G02*
X114885000Y-77980000I135000J0D01*
G01*
X115155000Y-77980000D01*
G75*
G02*
X115290000Y-78115000I0J-135000D01*
G01*
X115290000Y-78485000D01*
G75*
G02*
X115155000Y-78620000I-135000J0D01*
G01*
X114885000Y-78620000D01*
G75*
G02*
X114750000Y-78485000I0J135000D01*
G01*
G37*
G36*
G01*
X127860000Y-104805000D02*
X127860000Y-104435000D01*
G75*
G02*
X127995000Y-104300000I135000J0D01*
G01*
X128265000Y-104300000D01*
G75*
G02*
X128400000Y-104435000I0J-135000D01*
G01*
X128400000Y-104805000D01*
G75*
G02*
X128265000Y-104940000I-135000J0D01*
G01*
X127995000Y-104940000D01*
G75*
G02*
X127860000Y-104805000I0J135000D01*
G01*
G37*
G36*
G01*
X126840000Y-104805000D02*
X126840000Y-104435000D01*
G75*
G02*
X126975000Y-104300000I135000J0D01*
G01*
X127245000Y-104300000D01*
G75*
G02*
X127380000Y-104435000I0J-135000D01*
G01*
X127380000Y-104805000D01*
G75*
G02*
X127245000Y-104940000I-135000J0D01*
G01*
X126975000Y-104940000D01*
G75*
G02*
X126840000Y-104805000I0J135000D01*
G01*
G37*
M02*
